<svg xmlns="http://www.w3.org/2000/svg" viewBox="0 0 293.53 413.56"><defs><style>.cls-1,.cls-2{fill:#61bb46;stroke:#231f20;stroke-miterlimit:10;}.cls-1{stroke-width:4px;}.cls-2{stroke-width:3px;}.cls-3{fill:#231f20;}</style></defs><g id="Layer_1" data-name="Layer 1"><path class="cls-1" d="M214.1,311.25H398V272.76H345.07q.82-16.8.8-39.74a42.15,42.15,0,0,0-11.45-28.63c-7.36-7.94-16.8-12.07-28.25-12.32s-20.9,3.67-28.25,11.82a42.25,42.25,0,0,0-11,29.13v39.74H214.1Zm91.77-81.88c8.53,0,14.85,7,15.22,15.23s-7.26,15.23-15.22,15.23c-8.54,0-14.86-7-15.23-15.23S297.9,229.37,305.87,229.37Z" transform="translate(-159.24 -190.05)"/><polygon class="cls-1" points="199.38 41.38 199.38 67.54 265.28 67.54 265.28 384.61 28.2 384.61 28.2 67.63 94.15 67.63 94.15 41.38 2 41.38 2 411.56 291.53 411.56 291.53 41.38 199.38 41.38"/></g><g id="Layer_2" data-name="Layer 2"><rect class="cls-2" x="93.97" y="299.88" width="144.6" height="13.5"/><rect class="cls-2" x="93.97" y="349.4" width="144.6" height="13.5"/><rect class="cls-2" x="54.69" y="299.8" width="12.62" height="12.7"/><rect class="cls-2" x="54.69" y="349.4" width="12.62" height="12.7"/></g><g id="Layer_3" data-name="Layer 3"><path class="cls-3" d="M251.8,425.56q-2.13-2.15-3.53-3.85a5.16,5.16,0,0,1-1.39-3,3.17,3.17,0,0,1,1.25-2.46,10.58,10.58,0,0,1,3-1.76,17.33,17.33,0,0,1,3.76-1,21.31,21.31,0,0,1,3.39-.33,4.06,4.06,0,0,1,2.45.7,19.29,19.29,0,0,1,2.28,2,145.63,145.63,0,0,1,15.82,18.75q7.09,10,13.13,19.86a539.84,539.84,0,0,1,27-62.27,413.16,413.16,0,0,1,34.7-56.51,11.51,11.51,0,0,1,5.8-4,26.44,26.44,0,0,1,8.86-1.4,4.48,4.48,0,0,1,2.51.61,1.92,1.92,0,0,1,.93,1.71,5.7,5.7,0,0,1-.28,1.91,8.33,8.33,0,0,1-1.3,2.08q-10.31,13.65-20,28.59t-18.51,31.5q-8.82,16.56-16.7,34.75t-14.48,38.24a1.9,1.9,0,0,1-1,1,9.5,9.5,0,0,1-2,.7,21.52,21.52,0,0,1-2.69.41c-1,.1-2,.14-3,.14a17.36,17.36,0,0,1-3.9-.41,4,4,0,0,1-2.6-1.81Q280.84,462,277,456.23t-7.7-10.81c-2.6-3.35-5.31-6.59-8.12-9.75S255.26,429.15,251.8,425.56Z" transform="translate(-159.24 -190.05)"/></g></svg>