<svg width="96" height="43" viewBox="0 0 96 43" fill="none" xmlns="http://www.w3.org/2000/svg">
    <path d="M46.8945 4.50687L46.796 4.51475L46.6976 4.52804L46.5893 4.54773L46.4829 4.57087L46.3844 4.59844C46.2808 4.63191 46.1792 4.67137 46.0802 4.7166L45.9881 4.76238L45.8975 4.81162L45.8099 4.86725L45.7233 4.9283L45.6391 4.9928L45.5623 5.05975C45.5042 5.11686 45.454 5.16609 45.3968 5.22517L45.3323 5.30198L45.2679 5.38518L45.2088 5.46837L45.1541 5.55504L45.1049 5.64612L45.0557 5.73817C45.0227 5.80907 45.001 5.86519 44.9725 5.93953C44.9439 6.01387 44.9311 6.06952 44.9114 6.14091L44.8873 6.2502L44.8676 6.35753L44.8558 6.45599L44.8479 6.5579V6.77797C44.8523 6.85132 44.8587 6.90943 44.8676 6.98278C44.8765 7.05614 44.8937 7.12161 44.9104 7.19595L44.9365 7.29442C44.9597 7.36433 44.9823 7.42785 45.0089 7.49677L45.0537 7.59523L45.0985 7.6873L45.1522 7.78134L45.2093 7.86996L45.2703 7.9566L45.3358 8.04178L45.4037 8.11858L45.5219 8.24117L45.5864 8.30124L45.6563 8.36031L45.7316 8.41742L45.807 8.46666C45.8409 8.49078 45.8724 8.51047 45.899 8.52574L45.9896 8.57841L46.0846 8.62765L46.1831 8.67048L46.287 8.70986L46.3854 8.74186L46.4873 8.77041L46.5912 8.79356L46.6995 8.81227L46.8015 8.82654L46.8999 8.83294H47.12L47.2219 8.82654C47.2953 8.8167 47.3597 8.80686 47.4321 8.79356L47.535 8.77041L47.6399 8.74087L47.7383 8.70789L47.8368 8.67196L47.9353 8.62715L48.0283 8.58137L48.1179 8.53214L48.2085 8.47404L48.3016 8.40709L48.3813 8.34702L48.4645 8.27464C48.5202 8.22 48.5709 8.16978 48.6255 8.11366C48.6693 8.06442 48.7063 8.01519 48.7481 7.96153L48.8072 7.87536C48.8289 7.84582 48.8485 7.8153 48.8673 7.78429L48.9165 7.6937L48.9657 7.59523L49.0086 7.49677L49.0489 7.39289C49.0812 7.29414 49.1082 7.19371 49.1297 7.09207L49.1494 6.98278L49.1636 6.87988L49.1715 6.78142V6.56283L49.1636 6.45992C49.1538 6.38755 49.1439 6.32207 49.1297 6.2497C49.124 6.21319 49.1163 6.17703 49.1065 6.14139L49.0814 6.04637L49.0465 5.94003L49.009 5.846L48.9652 5.74753L48.916 5.65252C48.9027 5.62495 48.8845 5.59442 48.8668 5.56045L48.8097 5.47084L48.7486 5.38469L48.6807 5.29804C48.6644 5.27736 48.6403 5.2488 48.6098 5.21483C48.5551 5.15772 48.5113 5.11096 48.4503 5.05631L48.3735 4.99181C48.3495 4.9704 48.3243 4.95035 48.2981 4.93174C48.2061 4.86823 48.1263 4.81556 48.0288 4.76091L47.9358 4.71512C47.8659 4.68361 47.8043 4.65949 47.7334 4.63192C47.7014 4.61904 47.6685 4.60835 47.635 4.59991L47.5365 4.57136L47.4302 4.54822L47.3209 4.52853L47.2224 4.51524L47.1205 4.50736L46.8945 4.50687Z" fill="#013646"/>
    <path d="M37.421 10.5891C37.481 10.5049 37.5445 10.4227 37.6179 10.3331V10.3016L37.7296 10.1932C38.0163 9.90174 38.3365 9.6454 38.6838 9.42965C39.047 9.2156 39.4428 9.06258 39.8555 8.9767L39.8644 8.97326C39.9943 8.94815 40.1248 8.93042 40.2518 8.91516C40.3887 8.8999 40.5014 8.89005 40.6152 8.88119L40.6743 8.87578L40.7727 8.88218L40.9731 8.89399C41.9258 8.9356 42.8325 9.31526 43.5307 9.96485C44.2288 10.6145 44.6727 11.4915 44.7827 12.4387L44.797 12.6007L44.8049 12.7548L44.8093 12.9069V13.0547L44.8004 13.2122L44.7852 13.3633C44.7735 13.4782 44.7541 13.5922 44.7271 13.7045C44.5414 14.5263 44.1143 15.2738 43.5007 15.8511C42.8986 16.4162 42.1299 16.7716 41.3094 16.8643C41.2188 16.8741 41.1301 16.882 41.0435 16.8884L40.7338 16.9071L40.6713 16.9027C40.5487 16.8928 40.4286 16.883 40.2829 16.8667C40.146 16.8525 40.0081 16.8328 39.8683 16.8067H39.8649C39.4474 16.7246 39.0475 16.5702 38.6833 16.3503C38.3358 16.1331 38.0149 15.876 37.7272 15.5842L37.6179 15.4759V15.4464C37.5652 15.3838 37.514 15.3203 37.4658 15.2549C37.3876 15.1501 37.3149 15.0413 37.2481 14.9289L37.1748 14.7975L37.1113 14.6739L36.9931 14.4189C36.9439 14.3034 36.9009 14.1854 36.8641 14.0654C36.8263 13.9501 36.7967 13.8323 36.7755 13.7129L36.7504 13.577L36.7297 13.4293L36.711 13.2816C36.7056 13.2245 36.6967 13.1654 36.6923 13.1088C36.6844 13.0059 36.6805 12.9503 36.6805 12.8868C36.6859 12.7533 36.6958 12.6298 36.7091 12.4973L36.7287 12.3462L36.7504 12.1941C36.7594 12.1288 36.7726 12.0642 36.7898 12.0006C36.8257 11.8913 36.8489 11.8179 36.8696 11.748C36.9359 11.5132 37.0227 11.2847 37.129 11.0652L37.2866 10.7392L37.3097 10.7501C37.3471 10.693 37.383 10.6398 37.4215 10.5861L37.421 10.5891ZM49.9334 10.5896C49.9935 10.5054 50.057 10.4232 50.1304 10.3336V10.3021L50.2407 10.1937C50.5278 9.90249 50.8484 9.64618 51.1958 9.43014C51.559 9.21613 51.9548 9.06311 52.3675 8.9772H52.3764C52.5078 8.9511 52.6368 8.9324 52.7638 8.91812C52.9007 8.90286 53.0144 8.89301 53.1272 8.88415L53.2301 8.87528L53.2847 8.87972L53.4851 8.89055C54.4379 8.93167 55.3449 9.31115 56.0432 9.96084C56.7414 10.6105 57.1852 11.4879 57.2947 12.4353L57.309 12.5973L57.3169 12.7514L57.3213 12.9035V13.0512L57.3124 13.2087L57.2972 13.3599C57.2844 13.4746 57.265 13.5886 57.2391 13.7011C57.0534 14.5228 56.6263 15.2703 56.0127 15.8476C55.4104 16.4125 54.6419 16.7679 53.8213 16.8608C53.7304 16.8707 53.6418 16.8784 53.5555 16.884C53.4364 16.8918 53.3182 16.8982 53.2 16.9071H53.1838C53.0612 16.8973 52.9411 16.8874 52.7953 16.8722C52.6585 16.8569 52.5206 16.8382 52.3808 16.8111C51.9633 16.7291 51.5634 16.5747 51.1992 16.3547C50.851 16.1381 50.53 15.8806 50.2431 15.5877L50.1338 15.4803V15.4518C50.0811 15.3883 50.0309 15.3248 49.9827 15.2593C49.9042 15.1549 49.8312 15.0464 49.7641 14.9344L49.6907 14.8019L49.6272 14.6793L49.51 14.4233C49.46 14.3081 49.4166 14.19 49.3801 14.0698C49.342 13.9546 49.3124 13.8368 49.2915 13.7173L49.2673 13.5814L49.2466 13.4337L49.227 13.2895C49.2215 13.2314 49.2137 13.1723 49.2092 13.1157C49.2004 13.0128 49.1959 12.9572 49.1959 12.8936C49.2004 12.7602 49.2122 12.6376 49.2245 12.5042L49.2442 12.3521L49.2673 12.2C49.2758 12.1347 49.2886 12.07 49.3057 12.0065C49.3417 11.8982 49.3648 11.8248 49.3865 11.7549C49.452 11.5201 49.5383 11.2915 49.6444 11.072L49.802 10.7461L49.8251 10.757C49.8626 10.6998 49.8985 10.6467 49.9369 10.593L49.9334 10.5896ZM65.6776 4.51228L65.5614 4.51868L65.4629 4.52755L65.3556 4.54379L65.2473 4.56447L65.1488 4.58859L65.0439 4.6201L64.9598 4.64964L64.8505 4.69444L64.7707 4.7294L64.6722 4.77862L64.5738 4.83672L64.5014 4.88252L64.4084 4.95144L64.336 5.00855L64.2464 5.08732C64.1842 5.14546 64.125 5.20675 64.0691 5.27095C64.0174 5.33114 63.9693 5.39426 63.9249 5.46001C63.8794 5.5278 63.8381 5.59835 63.8013 5.67122C63.7609 5.74999 63.7225 5.8332 63.6866 5.91739L63.6482 6.02127L63.6132 6.13155L63.5881 6.22213L63.5694 6.3142C63.5586 6.3787 63.5507 6.43778 63.5443 6.50326L63.529 6.74499C63.5182 6.92419 63.5015 7.09748 63.4798 7.26586C63.4563 7.4382 63.4219 7.60889 63.3769 7.77691C63.3294 7.95037 63.2699 8.1203 63.1987 8.28548C63.1241 8.45756 63.0364 8.62364 62.9363 8.78224L62.9146 8.81718L62.9092 8.82261C62.8467 8.91664 62.7832 9.00624 62.7187 9.09732L62.6419 9.19579L62.5621 9.29426L62.4745 9.39272L62.3805 9.49119L62.2864 9.58424C62.2131 9.65759 62.1171 9.73734 62.0294 9.8107C61.9615 9.86535 61.897 9.91261 61.8271 9.96283C61.734 10.0263 61.6356 10.0943 61.5381 10.1499C61.1567 10.3734 60.7407 10.5316 60.3073 10.6181C59.4935 10.779 58.65 10.6878 57.8894 10.3567C57.1179 10.0273 56.4725 9.45906 56.0481 8.73546C55.8262 8.35384 55.6694 7.93786 55.5844 7.50465V7.49922C55.5612 7.37565 55.545 7.25307 55.5317 7.13393C55.5184 7.00592 55.512 6.89859 55.5041 6.79373L55.4844 6.53329C55.478 6.46338 55.4682 6.38559 55.4559 6.29894L55.4382 6.21475L55.4175 6.12711C55.3916 6.03292 55.3605 5.94022 55.3244 5.84944C55.2903 5.76465 55.2501 5.68239 55.2043 5.60328C55.1592 5.52354 55.1084 5.4472 55.0522 5.37485C54.9907 5.29581 54.925 5.22019 54.8552 5.14837L54.7774 5.07502L54.6844 4.99427L54.6174 4.9406L54.5136 4.86972L54.4328 4.81703L54.3309 4.75992L54.2566 4.72152L54.1517 4.67672L54.0444 4.63536L53.9415 4.60139L53.8386 4.57284L53.749 4.55314L53.6254 4.53247L53.5402 4.52164L53.4142 4.51277H53.3123H53.1646L53.0474 4.51917L52.9489 4.52902L52.8406 4.54429L52.7343 4.56496L52.6358 4.58909L52.531 4.6206L52.4468 4.64915L52.3365 4.69494L52.2577 4.72989L52.1593 4.77912L52.0608 4.83722L51.9899 4.88646L51.8968 4.9544L51.8245 5.01151L51.7349 5.09126C51.6724 5.14912 51.6132 5.21043 51.5576 5.2749C51.5054 5.33461 51.4572 5.39778 51.4134 5.46396C51.3687 5.53207 51.3278 5.60257 51.2908 5.67516C51.2504 5.75393 51.2122 5.83713 51.1761 5.92476L51.1377 6.02767L51.1017 6.13942L51.0776 6.22903L51.0579 6.3211C51.0481 6.38559 51.0402 6.44566 51.0338 6.51015L51.0175 6.75286C51.0077 6.93108 50.9915 7.10389 50.9683 7.27276C50.944 7.44504 50.9093 7.6157 50.8644 7.78379C50.8176 7.95746 50.758 8.12745 50.6862 8.29237C50.6124 8.46497 50.525 8.6314 50.4248 8.79011L50.4031 8.82408L50.3967 8.83048C50.3357 8.92353 50.2722 9.01313 50.2062 9.10421L50.1309 9.20268L50.0511 9.30114L49.9625 9.39961L49.8694 9.49808L49.7754 9.59113C49.7021 9.66547 49.6061 9.74424 49.5174 9.8176C49.4505 9.87225 49.386 9.9195 49.3161 9.96972C49.222 10.0332 49.1246 10.1012 49.0271 10.1578C48.6454 10.3804 48.2295 10.5383 47.7963 10.625C46.9825 10.7858 46.139 10.6946 45.3784 10.3636C44.6074 10.034 43.9621 9.46618 43.5371 8.74334C43.3163 8.36118 43.1596 7.94539 43.0734 7.51252V7.50908C43.0502 7.38452 43.035 7.26291 43.0241 7.14131C43.0133 7.0197 43.0034 6.90696 42.9956 6.8021L42.9759 6.54166C42.9695 6.47273 42.9606 6.39395 42.9473 6.3073L42.9311 6.2241L42.9104 6.13548C42.8818 6.03702 42.8523 5.94495 42.8174 5.85781C42.7825 5.77331 42.7424 5.69109 42.6972 5.61165C42.6515 5.53214 42.6007 5.45567 42.5451 5.38272C42.4833 5.30431 42.4175 5.22905 42.3482 5.15723L42.2704 5.08289L42.1783 5.00314L42.1104 4.94947L42.0085 4.8771L41.9253 4.82442L41.8268 4.76731L41.7515 4.72891L41.6476 4.6841L41.5403 4.64275L41.4374 4.60976L41.3354 4.58121L41.2449 4.56053L41.1213 4.53985L41.0346 4.52902L40.9101 4.52016H40.8983L40.8599 4.51573L40.7481 4.51031H40.6605L40.5443 4.51672L40.4458 4.52557L40.3375 4.54182L40.2312 4.5625L40.1327 4.58662L40.0278 4.61813L39.9427 4.64767L39.8334 4.69247L39.7536 4.72743L39.6551 4.77666L39.5567 4.83476L39.4858 4.88054L39.3927 4.94947L39.3204 5.00658L39.2308 5.08535C39.1686 5.14349 39.1094 5.20477 39.0535 5.26898C39.0018 5.32917 38.9537 5.3923 38.9093 5.45804C38.8641 5.52586 38.8232 5.5964 38.7867 5.66925C38.7453 5.74803 38.7079 5.83123 38.672 5.91542L38.6336 6.0193L38.5976 6.12958L38.5725 6.22016L38.5538 6.31223C38.544 6.37673 38.5361 6.43581 38.5297 6.50129L38.5134 6.74302C38.5026 6.92223 38.4873 7.09552 38.4642 7.26389C38.4393 7.43607 38.4046 7.6067 38.3603 7.77494C38.3138 7.94871 38.2542 8.11871 38.1821 8.28351C38.1079 8.45557 38.0205 8.62165 37.9207 8.78027L37.8975 8.81521L37.8921 8.82064C37.8296 8.91467 37.7676 9.00427 37.7016 9.09535L37.6263 9.19382L37.5455 9.29228L37.4579 9.39075L37.3638 9.48922L37.2698 9.58227C37.188 9.66204 37.1022 9.73762 37.0128 9.80873C36.9459 9.86338 36.8814 9.91064 36.8115 9.96086C36.7174 10.0244 36.6199 10.0923 36.5225 10.1479C36.1411 10.3713 35.7251 10.5296 35.2916 10.6162C34.4779 10.777 33.6344 10.6858 32.8738 10.3547C32.1027 10.0247 31.4575 9.45662 31.0325 8.7335C30.8113 8.3516 30.655 7.9357 30.5697 7.50268V7.49725C30.5456 7.37368 30.5294 7.25109 30.5171 7.13195C30.5038 7.00394 30.4964 6.89662 30.4885 6.79176L30.4688 6.53132C30.4634 6.46141 30.4535 6.38362 30.4403 6.29697L30.424 6.21278L30.4033 6.12515C30.3771 6.03093 30.3457 5.93824 30.3093 5.84748C30.2756 5.76249 30.2354 5.68019 30.1892 5.60131C30.1445 5.52133 30.0936 5.44495 30.037 5.37286C29.9753 5.29406 29.9096 5.21848 29.8401 5.1464L29.7623 5.07305L29.6693 4.9923L29.6013 4.93864L29.4994 4.86774L29.4162 4.81506L29.3177 4.75795L29.2424 4.71956L29.1385 4.67475L29.0312 4.6334L28.9283 4.59943L28.8254 4.57087L28.7358 4.55117L28.6113 4.5305L28.5271 4.51967L28.401 4.5108H28.2991H28.2007L28.0746 4.52065L27.9924 4.5305L27.8644 4.55364L27.7768 4.57234L27.6665 4.60287C27.5624 4.63708 27.4601 4.67685 27.3603 4.72201L27.2805 4.76141L27.1899 4.81063L27.0836 4.87857L26.995 4.94208L26.9241 4.99674L26.8409 5.06762L26.7611 5.14443L26.6868 5.22221L26.6168 5.30542L26.5612 5.37336L26.5031 5.45657L26.4421 5.5506L26.3874 5.64463L26.348 5.72143L26.2988 5.82975L26.2604 5.92476L26.2274 6.01683L26.1998 6.11185C26.1836 6.17881 26.1703 6.24182 26.156 6.30878L26.1383 6.42792L26.1294 6.52294L26.124 6.63667V6.72086L26.1294 6.84L26.1383 6.93305L26.1526 7.03693L26.1723 7.1354L26.1998 7.25356L26.223 7.33332L26.2604 7.44163L26.3008 7.54551L26.3402 7.63511L26.384 7.7193L26.4332 7.80595L26.4943 7.90441L26.5479 7.97974L26.608 8.05655L26.6789 8.14073C26.7316 8.19538 26.7828 8.24806 26.8364 8.29631C26.887 8.34344 26.9403 8.38765 26.9959 8.42874C27.054 8.47157 27.1106 8.50948 27.1697 8.54591C27.2288 8.58235 27.2933 8.61681 27.3701 8.65619C27.4568 8.6946 27.5385 8.72513 27.6271 8.75467L27.7487 8.79208L27.8285 8.81275L27.9348 8.83442L28.0933 8.85855L28.2784 8.87282L28.4788 8.88365C29.4317 8.92451 30.3387 9.30393 31.0368 9.95369C31.735 10.6035 32.1784 11.4809 32.2875 12.4284L32.3027 12.5904L32.3106 12.7445L32.3141 12.8966V13.0443L32.3062 13.2018L32.2899 13.353C32.278 13.4678 32.2589 13.5817 32.2328 13.6942C32.0471 14.5159 31.62 15.2634 31.0064 15.8407C30.4038 16.4057 29.6349 16.761 28.8141 16.8539C28.7245 16.8638 28.6359 16.8717 28.5492 16.8771C28.4015 16.8859 28.2538 16.8933 28.1061 16.9056L28.0141 16.9174L27.9289 16.9317L27.8383 16.9514L27.7433 16.9755L27.635 17.0095L27.5006 17.0587L27.3563 17.1213C27.2874 17.1572 27.2263 17.1902 27.1727 17.2232C27.1116 17.2616 27.0535 17.3 27.0009 17.3394C26.9452 17.3804 26.892 17.4247 26.8413 17.4718C26.7877 17.521 26.735 17.5737 26.6818 17.6293L26.6228 17.6993L26.5504 17.7923L26.5011 17.8632L26.4386 17.9617L26.3859 18.0523L26.3466 18.1286L26.2973 18.2379L26.2668 18.3166L26.2274 18.4304L26.2033 18.5136L26.1772 18.6317L26.1575 18.7267L26.1432 18.8316L26.1344 18.9237L26.1289 19.0428V19.128L26.1344 19.2417L26.1432 19.3367L26.1585 19.4386L26.1826 19.5558L26.2033 19.6464L26.2318 19.7449L26.2648 19.8389L26.3086 19.9482L26.349 20.0358L26.3904 20.1181L26.4495 20.22L26.4987 20.2978L26.5543 20.3756L26.6296 20.4706L26.6868 20.5385C26.7719 20.6261 26.8345 20.6862 26.9295 20.7684L26.9964 20.8211L27.1003 20.8945L27.1835 20.9437L27.2741 20.9974L27.3814 21.05L27.4592 21.085L27.5577 21.1234L27.6724 21.1608L27.7773 21.1904L27.8757 21.211L27.9929 21.2317L28.0771 21.2425L28.2031 21.2514H28.3016H28.4001L28.5261 21.2416L28.6137 21.2307L28.7383 21.2091L28.8367 21.1884L28.9273 21.1623L29.0435 21.1239L29.1474 21.0845L29.2272 21.0495L29.3374 20.9939L29.4118 20.9511L29.5181 20.8841L29.6048 20.8231L29.6771 20.766L29.7569 20.698L29.8401 20.6183C29.908 20.5474 29.9701 20.476 30.0326 20.3997C30.0818 20.3342 30.1247 20.2707 30.1616 20.2116C30.1974 20.1536 30.2303 20.0937 30.2601 20.0324C30.2905 19.971 30.3171 19.9079 30.3398 19.8433C30.3649 19.7734 30.3891 19.7055 30.4068 19.6366L30.4299 19.5381C30.4452 19.4485 30.4585 19.3589 30.4673 19.2703C30.4762 19.1817 30.4836 19.0733 30.4915 18.967C30.4993 18.8606 30.5077 18.7548 30.521 18.6278C30.5343 18.5008 30.5496 18.3861 30.5737 18.2615V18.2571C30.7589 17.3373 31.2677 16.5144 32.0078 15.9377C32.7536 15.3522 33.6801 15.0446 34.628 15.0678H34.6359C34.9437 15.0806 35.2493 15.1268 35.5472 15.2056C35.8438 15.2869 36.1305 15.401 36.4018 15.5458C36.4457 15.5657 36.4878 15.5891 36.5279 15.6157C36.9691 15.8768 37.3591 16.216 37.6789 16.6166C37.9871 17.0076 38.215 17.4557 38.3495 17.9351C38.3918 18.0847 38.4258 18.2366 38.4514 18.39C38.48 18.5495 38.5006 18.7095 38.5105 18.8636C38.5105 18.9862 38.5267 19.1305 38.5346 19.2575L38.5425 19.3436L38.5602 19.4529L38.5755 19.5273L38.6084 19.6474L38.639 19.7424L38.6774 19.8453C38.7133 19.933 38.7517 20.0171 38.7921 20.0959C38.829 20.1684 38.8703 20.2386 38.9157 20.3061C38.9591 20.372 39.007 20.4348 39.0589 20.4942C39.1174 20.5634 39.1799 20.6291 39.246 20.6911L39.3184 20.7546L39.4036 20.8236L39.4813 20.8782L39.5798 20.9427L39.6665 20.9919L39.7452 21.0333L39.8501 21.0825L39.9451 21.1219L40.0337 21.1524L40.1322 21.182L40.2449 21.2105L40.3434 21.2292L40.4527 21.2455L40.5467 21.2544L40.6659 21.2608H40.7643H40.8136H40.912L41.0381 21.2509L41.1257 21.2411L41.2503 21.2179L41.3487 21.1972L41.4408 21.1721L41.5555 21.1327L41.6594 21.0934L41.7392 21.0584L41.8494 21.0028L41.9238 20.9599L42.0301 20.893L42.1168 20.8319L42.1901 20.7763L42.2689 20.7074L42.3521 20.6276C42.42 20.5552 42.4821 20.4853 42.5456 20.409C42.5948 20.3435 42.6362 20.281 42.6736 20.221C42.712 20.1565 42.746 20.0964 42.7721 20.0403C42.802 19.9787 42.8286 19.9156 42.8518 19.8512C42.8769 19.7823 42.901 19.7143 42.9198 19.6444L42.9414 19.546C42.9577 19.4574 42.97 19.3668 42.9788 19.2767C42.9877 19.1866 42.9951 19.0797 43.0039 18.9749C43.0128 18.87 43.0192 18.7637 43.0325 18.6357C43.0458 18.5155 43.0611 18.3939 43.0852 18.2704V18.2659C43.2707 17.3456 43.78 16.5223 44.5208 15.9456C45.2662 15.36 46.1924 15.0524 47.14 15.0756H47.1479C47.456 15.0886 47.7619 15.1348 48.0601 15.2135C48.3561 15.2955 48.6422 15.4096 48.9133 15.5537C48.957 15.574 48.9991 15.5974 49.0394 15.6236C49.4809 15.8852 49.8713 16.2249 50.1914 16.626C50.4995 17.0169 50.7271 17.465 50.861 17.9444C50.9031 18.0939 50.9374 18.2454 50.9639 18.3984C50.9915 18.5584 51.0097 18.7169 51.023 18.871C51.023 18.9956 51.0382 19.1388 51.0461 19.2649L51.055 19.35L51.0712 19.4593L51.0875 19.5337L51.119 19.6538L51.1495 19.7488L51.1879 19.8527C51.224 19.9403 51.2622 20.0235 51.3026 20.1023C51.3397 20.1747 51.381 20.2449 51.4262 20.3125C51.4693 20.3789 51.5172 20.4421 51.5694 20.5016C51.6283 20.5693 51.6908 20.6339 51.7565 20.6951L51.8289 20.7586L51.9141 20.8275L51.9919 20.8831L52.0903 20.9467L52.178 20.9959L52.2558 21.0372L52.3621 21.0865L52.4606 21.1249L52.5482 21.1554L52.6467 21.1849L52.7584 21.2135L52.8569 21.2322L52.9662 21.2484L53.0602 21.2573L53.1803 21.2637H53.2645L53.3807 21.2583H53.4093H53.427L53.5516 21.2484L53.6392 21.2376L53.7638 21.216L53.8622 21.1953L53.9543 21.1692L54.0705 21.1308L54.1734 21.0914L54.2541 21.0564L54.3634 21.0008L54.4377 20.958L54.5441 20.891L54.6307 20.83L54.7041 20.7728L54.7829 20.7049L54.8661 20.6252C54.934 20.5543 54.9975 20.4829 55.0596 20.4066C55.1088 20.3411 55.1501 20.2776 55.1866 20.2185C55.2232 20.1609 55.2561 20.1011 55.285 20.0393C55.3146 19.9768 55.3421 19.9157 55.3658 19.8502C55.3894 19.7847 55.415 19.7124 55.4313 19.6435L55.4554 19.545C55.4706 19.4554 55.483 19.3658 55.4913 19.2772C55.4997 19.1885 55.509 19.0802 55.5164 18.9739C55.5238 18.8675 55.5317 18.7617 55.545 18.6347C55.5583 18.5077 55.5745 18.393 55.5977 18.2684V18.264C55.7834 17.344 56.2927 16.5211 57.0333 15.9446C57.7788 15.3592 58.7049 15.0516 59.6525 15.0747H59.6613C59.9689 15.0874 60.2741 15.1336 60.5716 15.2125C60.8683 15.2938 61.155 15.4079 61.4263 15.5527C61.4702 15.5726 61.5123 15.596 61.5524 15.6226C61.9938 15.8837 62.3842 16.2229 62.7044 16.6235C63.0123 17.0146 63.2399 17.4626 63.374 17.942C63.416 18.0917 63.4504 18.2436 63.4769 18.3969C63.5044 18.5564 63.5261 18.7164 63.535 18.8705C63.535 18.9931 63.5512 19.1373 63.5591 19.2644L63.5679 19.3505L63.5842 19.4598L63.6004 19.5342L63.6334 19.6543L63.663 19.7493L63.7014 19.8522C63.7373 19.9398 63.7757 20.024 63.8161 20.1028C63.8534 20.1751 63.8946 20.2453 63.9397 20.313C63.9838 20.3786 64.032 20.4415 64.0839 20.5011C64.1421 20.5703 64.2042 20.636 64.27 20.698L64.3434 20.7615L64.4276 20.8305L64.5053 20.8851L64.6038 20.9496L64.6914 20.9988L64.7702 21.0402L64.8751 21.0894L64.9735 21.1288L65.0612 21.1593L65.1596 21.1889L65.2714 21.2174L65.3699 21.2361L65.4792 21.2524L65.5722 21.2612L65.6913 21.2676H65.7765L65.8927 21.2622L65.9858 21.2534L66.0951 21.2381L66.1935 21.2194L66.3127 21.1908C66.4794 21.1444 66.6405 21.0799 66.7932 20.9983L66.8685 20.9545L66.9591 20.8954L67.0541 20.8285L67.123 20.7748L67.2018 20.7069L67.2786 20.6335L67.3584 20.5503L67.4219 20.4735L67.4874 20.3913L67.5509 20.3017L67.6109 20.2077L67.6636 20.1156L67.703 20.0358L67.7468 19.9374L67.7926 19.8212L67.8231 19.7291C67.8418 19.6602 67.8591 19.5947 67.8758 19.5233L67.8945 19.4096L67.9063 19.321L67.9162 19.1964L67.9196 19.098V18.9995L67.9108 18.8931L67.8965 18.7716L67.8812 18.6765L67.8581 18.5692L67.8295 18.4629L67.7965 18.3644L67.7591 18.2659L67.7232 18.1817L67.6695 18.0724L67.6257 17.9937L67.5701 17.9051L67.5066 17.813L67.4367 17.7209L67.382 17.6554L67.2998 17.5678L67.2245 17.4954L67.1437 17.4245L67.064 17.3591L66.9896 17.3044L66.8419 17.2148C66.8025 17.1918 66.7577 17.1677 66.7075 17.1424C66.6647 17.1193 66.6209 17.0996 66.5761 17.0799C66.5313 17.0602 66.4919 17.0459 66.4436 17.0307L66.3235 16.9957L66.2285 16.9716L66.1517 16.9563L66.0532 16.9411L65.8248 16.914L65.712 16.9051C65.5885 16.8953 65.4659 16.8854 65.3226 16.8692C65.1857 16.8549 65.0489 16.8352 64.9081 16.8091C64.4906 16.7272 64.0907 16.5727 63.7265 16.3527C63.379 16.1355 63.0581 15.8784 62.7704 15.5867L62.6611 15.4784V15.4488C62.6118 15.3863 62.5582 15.3228 62.5099 15.2573C62.4356 15.1589 62.3622 15.0505 62.2913 14.9314L62.218 14.7999L62.1555 14.6764L62.0363 14.4214C61.9875 14.3058 61.9448 14.1878 61.9083 14.0679C61.8697 13.9527 61.8398 13.8349 61.8187 13.7153L61.7946 13.5795L61.7729 13.4318L61.7552 13.2841C61.7488 13.227 61.7409 13.1679 61.7365 13.1113C61.7276 13.0084 61.7232 12.9527 61.7232 12.8892C61.7286 12.7558 61.7385 12.6322 61.7527 12.4998L61.7714 12.3486L61.7946 12.1965C61.8033 12.1313 61.8161 12.0667 61.833 12.003C61.8689 11.8937 61.8921 11.8204 61.9127 11.7505C61.9791 11.5157 62.0659 11.2872 62.1722 11.0676L62.3297 10.7417L62.3529 10.7525C62.3903 10.6954 62.4262 10.6422 62.4646 10.5886C62.5257 10.5044 62.5882 10.4222 62.6616 10.3326V10.3011L62.7733 10.1927C63.0601 9.90097 63.3807 9.64462 63.7284 9.42915C64.0916 9.21511 64.4875 9.06209 64.9002 8.9762L64.9081 8.97276C65.0395 8.94765 65.1685 8.92992 65.2965 8.91466C65.4344 8.8994 65.5471 8.88955 65.6598 8.88069L65.9321 8.85755L66.037 8.84328L66.1532 8.82457L66.2275 8.80931L66.3225 8.78518L66.4353 8.75121C66.4801 8.73595 66.5258 8.71724 66.5751 8.69657C66.6204 8.67882 66.6646 8.65844 66.7075 8.63552C66.7567 8.6114 66.7996 8.58628 66.8375 8.56659L66.9709 8.48584L67.0615 8.42037C67.1161 8.37557 67.1644 8.33372 67.2171 8.28695L67.2939 8.2136L67.3717 8.13286L67.4288 8.04424L67.4834 7.97433L67.5425 7.88767L67.6026 7.79265L67.6572 7.6942L67.6966 7.61443L67.7458 7.50169L67.7818 7.40323L67.8103 7.31559L67.8409 7.19941L67.8625 7.10094L67.8778 7.00248L67.8921 6.88087L67.8999 6.77353V6.67508V6.57661L67.8891 6.45106L67.8773 6.36244C67.8591 6.25561 67.8354 6.1498 67.8064 6.0454L67.7749 5.95332L67.7301 5.83615L67.6927 5.75294L67.6434 5.65005L67.5888 5.55504L67.5317 5.46396L67.4824 5.39158L67.4135 5.30395L67.3465 5.22616L67.2668 5.14393L67.19 5.06959L67.1102 5.00067L67.0379 4.94504L66.9547 4.88497L66.8562 4.82245L66.7577 4.76781L66.6834 4.7294L66.5731 4.68017L66.4924 4.64718L66.3806 4.60878L66.2964 4.58367L66.1763 4.5561L66.0744 4.5364L65.9705 4.52213L65.8755 4.51228L65.7627 4.50687L65.6776 4.51228Z" fill="#013646"/>
    <path d="M59.4045 16.908L59.3061 16.9158L59.2042 16.9291L59.0959 16.9488L58.9895 16.972L58.891 16.9995C58.7876 17.0332 58.6861 17.0723 58.5868 17.1167L58.4947 17.1659L58.4041 17.2152L58.3155 17.2708L58.2289 17.3319L58.1457 17.3973L58.0679 17.4628C58.0098 17.5209 57.9596 17.5692 57.9039 17.6292L57.8385 17.706L57.774 17.7892L57.7149 17.8724L57.6602 17.9586L57.611 18.0497L57.5618 18.1417C57.5288 18.2126 57.5071 18.2697 57.4786 18.3431C57.45 18.4165 57.4372 18.4721 57.4185 18.5445L57.3934 18.6528L57.3747 18.7611L57.3604 18.8595L57.354 18.9615V19.1815C57.3594 19.2549 57.3648 19.313 57.3747 19.3863C57.3845 19.4597 57.3998 19.5242 57.416 19.5995L57.4421 19.698C57.4663 19.7679 57.4879 19.8314 57.5155 19.9003L57.5593 19.9988L57.6041 20.0909L57.6578 20.1839L57.7149 20.2735L57.7774 20.3602L57.8419 20.4453L57.9108 20.5221L58.028 20.6447L58.0935 20.7038L58.1634 20.7639L58.2377 20.821L58.3145 20.8702C58.3437 20.8914 58.3739 20.9112 58.4051 20.9293L58.4972 20.982L58.5922 21.0312L58.6872 21.074L58.7901 21.1134L58.8886 21.1449L58.9905 21.1735L59.0954 21.1966L59.2027 21.2163L59.3046 21.2281L59.4031 21.236H59.6217L59.7246 21.2281C59.7979 21.2193 59.8624 21.2084 59.9348 21.1966L60.0377 21.1735L60.1425 21.1439L60.241 21.1124L60.3395 21.075L60.4379 21.0302L60.531 20.981L60.6206 20.9318L60.7112 20.8737L60.8052 20.8067L60.884 20.7466L60.9682 20.6743C61.0228 20.6196 61.0745 20.5694 61.1277 20.5133C61.1715 20.4606 61.2084 20.4148 61.2503 20.3612L61.3094 20.2745C61.331 20.244 61.3507 20.2134 61.3694 20.1824L61.4221 20.0918L61.4713 19.9934L61.5142 19.8949L61.5545 19.791C61.5895 19.6847 61.6126 19.5985 61.6377 19.4892L61.6555 19.3809L61.6697 19.278L61.6776 19.1796V18.961L61.6697 18.8581C61.6599 18.7847 61.65 18.7202 61.6382 18.6478C61.6328 18.6203 61.6249 18.5834 61.6131 18.5395L61.589 18.4445L61.5531 18.3382L61.5156 18.2441L61.4718 18.1457L61.4226 18.0506C61.4093 18.0231 61.3911 17.9916 61.3734 17.9586L61.3153 17.868L61.2542 17.7828L61.1863 17.6962C61.17 17.6755 61.1459 17.6469 61.1154 17.614C61.0607 17.5549 61.0169 17.5091 60.9559 17.4544L60.8791 17.39C60.8553 17.3683 60.8301 17.3482 60.8037 17.3299C60.7131 17.2664 60.6329 17.2152 60.5344 17.1591L60.4414 17.1133C60.3715 17.0818 60.3099 17.0576 60.239 17.0301C60.2069 17.0172 60.174 17.0062 60.1406 16.9971L60.0421 16.9695L59.9358 16.9464L59.8284 16.9267L59.73 16.9134L59.6281 16.9055L59.4045 16.908Z" fill="#013646"/>
    <path d="M34.3826 16.908L34.2807 16.9158L34.1822 16.9291L34.0739 16.9488L33.9666 16.972L33.8681 16.9995C33.7644 17.0334 33.6625 17.0725 33.5628 17.1167L33.4723 17.1659L33.3827 17.2152L33.294 17.2708L33.2074 17.3319L33.1232 17.3973L33.0464 17.4628C32.9883 17.5209 32.9381 17.5692 32.8825 17.6292L32.8155 17.706L32.751 17.7892L32.6919 17.8724L32.6383 17.9586L32.5856 18.0497L32.5398 18.1417C32.5058 18.2126 32.4842 18.2697 32.4566 18.3431C32.429 18.4165 32.4152 18.4721 32.3955 18.5445L32.3714 18.6528L32.3517 18.7611L32.3399 18.8595L32.332 18.9615V19.1815C32.3374 19.2549 32.3419 19.313 32.3517 19.3863C32.3616 19.4597 32.3778 19.5242 32.3946 19.5995L32.4207 19.698C32.4438 19.7679 32.4664 19.8314 32.493 19.9003L32.5368 19.9988L32.5826 20.0909L32.6373 20.1839L32.6929 20.2735L32.754 20.3602L32.8194 20.4453L32.8874 20.5221L33.0065 20.6447L33.07 20.7038L33.1399 20.7639L33.2153 20.821L33.2906 20.8702C33.3246 20.8943 33.3561 20.914 33.3827 20.9293L33.4732 20.982L33.5683 21.0312L33.6633 21.074L33.7672 21.1134L33.8656 21.1449L33.9685 21.1735L34.0724 21.1966L34.1807 21.2163L34.2792 21.2281L34.3811 21.236H34.5997L34.7026 21.2281C34.7759 21.2193 34.8395 21.2084 34.9128 21.1966L35.0157 21.1735L35.1206 21.1439L35.219 21.1124L35.3175 21.075L35.416 21.0302L35.51 20.981L35.5996 20.9318L35.6902 20.8737L35.7832 20.8067L35.862 20.7466L35.9462 20.6743C36.0018 20.6196 36.0535 20.5694 36.1072 20.5133C36.151 20.4606 36.1879 20.4148 36.2298 20.3612L36.2889 20.2745C36.3095 20.244 36.3302 20.2134 36.3479 20.1824L36.4006 20.0918L36.4499 19.9934L36.4927 19.8949L36.5331 19.791C36.567 19.6847 36.5911 19.5985 36.6153 19.4892L36.634 19.3809L36.6473 19.278L36.6552 19.1796V18.961L36.6473 18.8581C36.6384 18.7847 36.6286 18.7202 36.6158 18.6478C36.6113 18.6203 36.6025 18.5834 36.5916 18.5395L36.5665 18.4445L36.5316 18.3382L36.4942 18.2441L36.4494 18.1457L36.4001 18.0506C36.3859 18.0231 36.3686 17.9916 36.3474 17.9586L36.2903 17.868L36.2303 17.7828L36.1613 17.6962C36.1451 17.6755 36.122 17.6469 36.0914 17.614C36.0368 17.5549 35.9895 17.5091 35.9319 17.4544L35.8551 17.39C35.8344 17.3712 35.8093 17.3516 35.7798 17.3299C35.6877 17.2664 35.608 17.2152 35.5105 17.1591L35.4174 17.1133C35.3475 17.0818 35.286 17.0576 35.2141 17.0301C35.1821 17.0169 35.1492 17.0059 35.1156 16.9971L35.0172 16.9695L34.9123 16.9464L34.803 16.9267L34.7046 16.9134L34.6026 16.9055L34.3826 16.908Z" fill="#013646"/>
    <path d="M60.531 24.9509C60.9839 24.8765 61.4359 24.8229 61.8888 24.7574C62.3418 24.6919 62.8036 24.6589 63.2368 24.5856C65.7563 24.2474 68.1154 23.1581 70.0068 21.4598C71.2039 20.3759 72.1607 19.0532 72.8155 17.577C73.4703 16.1008 73.8086 14.5038 73.8086 12.8889C73.8086 11.274 73.4703 9.67694 72.8155 8.20074C72.1607 6.72453 71.2039 5.40187 70.0068 4.31795C68.1154 2.61962 65.7563 1.53037 63.2368 1.19216C62.8036 1.11684 62.3374 1.0804 61.8888 1.01936C61.4403 0.958307 60.9839 0.90021 60.531 0.825869V0.476809C61.4403 0.338958 62.3319 0.2144 63.255 0.132182C64.2107 0.0503351 65.1726 0.0833914 66.1204 0.230646C68.0673 0.545091 69.9117 1.31722 71.502 2.48354C73.1159 3.6833 74.4265 5.24428 75.3289 7.0415C76.2481 8.8538 76.7271 10.8573 76.7271 12.8893C76.7271 14.9214 76.2481 16.9249 75.3289 18.7372C74.4262 20.5342 73.1157 22.0951 71.502 23.2952C69.9117 24.4615 68.0673 25.2336 66.1204 25.5481C65.1725 25.6942 64.2107 25.7273 63.255 25.6465C62.3314 25.5643 61.4398 25.4398 60.531 25.3019V24.9509Z" fill="#013646"/>
    <path d="M34.3536 0.824564C33.4049 0.966847 32.4567 1.07614 31.507 1.18002L30.7946 1.25535L30.123 1.35381C29.679 1.41558 29.2402 1.50987 28.81 1.63592C27.1147 2.07977 25.5402 2.89732 24.2018 4.02863C22.8933 5.10419 21.8394 6.4563 21.1158 7.98777C20.3921 9.51924 20.0168 11.192 20.0168 12.8858C20.0168 14.5796 20.3921 16.2524 21.1158 17.7839C21.8394 19.3154 22.8933 20.6675 24.2018 21.743C25.5404 22.8742 27.1148 23.6921 28.81 24.1367C29.2402 24.2628 29.679 24.357 30.123 24.4188L30.7946 24.5173L31.507 24.5926C32.4567 24.6965 33.4054 24.8048 34.3536 24.9481V25.2927C33.4049 25.435 32.4567 25.5443 31.507 25.6482L30.7946 25.7235L30.0462 25.753C29.5417 25.7763 29.0361 25.7635 28.5333 25.7146C26.4723 25.5236 24.4945 24.808 22.7884 23.636C21.0352 22.4607 19.6037 20.8656 18.6243 18.9959C17.6214 17.1141 17.0969 15.0145 17.0969 12.8821C17.0969 10.7498 17.6214 8.65024 18.6243 6.76843C19.604 4.89865 21.0354 3.30327 22.7884 2.12726C24.4945 0.955581 26.4724 0.240323 28.5333 0.0496393C29.0361 0.00081586 29.5417 -0.0120113 30.0462 0.0112439L30.7946 0.0407823L31.507 0.116108C32.4567 0.219989 33.4054 0.328301 34.3536 0.471568V0.824564Z" fill="#013646"/>
    <path d="M5.94534 34.3971C5.95209 34.8054 5.85448 35.2087 5.66176 35.5688C5.47151 35.9155 5.20338 36.2133 4.87847 36.4388C4.52018 36.6851 4.12141 36.8666 3.70033 36.9749C3.22175 37.1019 2.72831 37.1641 2.23319 37.16H2.02297V39.9358H0V31.7208H2.36858C2.8521 31.7165 3.3344 31.77 3.80519 31.8803C4.20914 31.9723 4.59289 32.1373 4.93755 32.3672C5.24858 32.58 5.50225 32.8663 5.67604 33.2007C5.86028 33.5719 5.9512 33.9824 5.94091 34.3966L5.94534 34.3971ZM3.99228 34.4084C3.99228 33.6535 3.45367 33.276 2.37646 33.276H2.01854V35.6077H2.35135C2.78272 35.637 3.21183 35.5244 3.57331 35.2872C3.70895 35.186 3.81796 35.0534 3.89095 34.9007C3.96394 34.7481 3.99871 34.58 3.99228 34.4109" fill="#013646"/>
    <path d="M8.14478 39.9359V31.2271H10.1175V34.6079C10.2854 34.3323 10.5298 34.1114 10.8211 33.9723C11.1067 33.8372 11.4189 33.7677 11.7348 33.769C12.0926 33.7575 12.4466 33.8449 12.7579 34.0216C13.0361 34.1886 13.2708 34.4193 13.4427 34.6946C13.627 34.992 13.7567 35.32 13.8257 35.663C13.9051 36.0421 13.9443 36.4286 13.9429 36.816V39.9364H11.9687V36.7791C11.9959 36.3964 11.9147 36.0139 11.7343 35.6753C11.6561 35.5595 11.5489 35.4662 11.4234 35.4046C11.2979 35.343 11.1585 35.3153 11.019 35.3243C10.8309 35.3196 10.6451 35.3666 10.4819 35.4601C10.3378 35.5435 10.2135 35.657 10.1175 35.7929V39.9374L8.14478 39.9359Z" fill="#013646"/>
    <path d="M19.773 39.3439C19.5483 39.5554 19.2869 39.7241 19.0015 39.8416C18.665 39.9876 18.3015 40.061 17.9347 40.0573C17.6854 40.0616 17.4379 40.0154 17.207 39.9214C17.0034 39.8383 16.8202 39.7121 16.6699 39.5516C16.5241 39.392 16.411 39.2053 16.3371 39.0022C16.2577 38.7873 16.218 38.5598 16.2199 38.3307C16.2031 38.0937 16.2417 37.856 16.3326 37.6365C16.4235 37.417 16.5643 37.2216 16.7437 37.0659C17.1771 36.7528 17.6951 36.5784 18.2296 36.5657C18.4679 36.5504 18.7219 36.5371 18.9887 36.5297C19.2556 36.5224 19.4919 36.5135 19.6977 36.5046V36.3077C19.6977 35.649 19.3319 35.3208 18.6003 35.323C18.3198 35.3221 18.0403 35.3552 17.7678 35.4215C17.5132 35.4825 17.2668 35.5736 17.0337 35.6928L16.6758 34.3231C16.9962 34.1461 17.3383 34.0116 17.6934 33.9229C18.1106 33.8168 18.5396 33.765 18.97 33.7688C19.692 33.7258 20.4029 33.962 20.9556 34.4285C21.2081 34.6892 21.4025 35.0004 21.5258 35.3418C21.6491 35.6831 21.6986 36.0468 21.6709 36.4086V39.9361H19.7715L19.773 39.3439ZM18.6998 38.7639C18.8811 38.7654 19.0618 38.7404 19.2359 38.6896C19.3977 38.6432 19.5531 38.5771 19.6987 38.4926V37.5922C19.5018 37.6084 19.3245 37.6271 19.168 37.6478C19.0114 37.6685 18.8593 37.6872 18.7116 37.7034C18.3088 37.7527 18.1075 37.9416 18.1075 38.2701C18.1049 38.3375 18.1174 38.4046 18.1441 38.4665C18.1707 38.5284 18.2109 38.5836 18.2616 38.628C18.3857 38.7258 18.5416 38.7742 18.6993 38.7639" fill="#013646"/>
    <path d="M28.4175 35.594H28.1821C27.8799 35.5618 27.5743 35.5982 27.288 35.7005C27.0018 35.8028 26.7423 35.9683 26.5289 36.1848V39.9344H24.5566V33.8915H26.4679V34.9038C26.5662 34.5988 26.7505 34.3287 26.9986 34.1259C27.2686 33.9268 27.5989 33.8267 27.934 33.8423C28.031 33.8408 28.128 33.847 28.224 33.861C28.3053 33.8741 28.3857 33.8923 28.4647 33.9157L28.4175 35.594Z" fill="#013646"/>
    <path d="M37.6916 35.3231C37.4924 35.3192 37.2959 35.3703 37.1239 35.4708C36.9671 35.5631 36.8258 35.6794 36.7049 35.8154C36.7406 35.9735 36.7633 36.1342 36.7729 36.2959C36.7847 36.4776 36.7916 36.6504 36.7916 36.8143V39.9347H34.8154V36.7774C34.8387 36.3996 34.7731 36.0215 34.6239 35.6736C34.5575 35.5567 34.4589 35.4615 34.3398 35.3992C34.2207 35.337 34.0862 35.3104 33.9523 35.3226C33.7642 35.3179 33.5785 35.3649 33.4152 35.4585C33.2711 35.5418 33.1469 35.6553 33.0509 35.7913V39.9357H31.0781V33.8919H32.9775V34.6796C33.1449 34.3717 33.4064 34.1255 33.7239 33.977C34.0198 33.8397 34.3419 33.7679 34.6682 33.7668C35.011 33.7536 35.3507 33.8371 35.6484 34.0076C35.948 34.2111 36.1987 34.4787 36.3825 34.7909C36.5937 34.4546 36.8921 34.1818 37.246 34.0015C37.5998 33.8212 37.9959 33.7401 38.3921 33.7668C38.7423 33.755 39.0886 33.8426 39.3911 34.0194C39.6624 34.1871 39.8891 34.418 40.0518 34.6924C40.2281 34.9917 40.3511 35.3194 40.4151 35.6608C40.4909 36.0404 40.5284 36.4267 40.5269 36.8138V39.9342H38.5571V36.7769C38.5809 36.399 38.5153 36.0209 38.3655 35.6731C38.2993 35.5562 38.2007 35.4608 38.0815 35.3986C37.9624 35.3363 37.8279 35.3097 37.694 35.3221" fill="#013646"/>
    <path d="M46.5374 39.3434C46.3129 39.5557 46.0514 39.7253 45.7659 39.8436C45.4294 39.9897 45.0659 40.0631 44.6991 40.0592C44.4498 40.0636 44.2023 40.0174 43.9714 39.9233C43.7679 39.8402 43.5847 39.7141 43.4343 39.5536C43.2885 39.394 43.1754 39.2073 43.1015 39.0042C43.0227 38.7891 42.983 38.5617 42.9843 38.3326C42.9675 38.0956 43.0061 37.858 43.097 37.6384C43.1879 37.4189 43.3287 37.2236 43.5081 37.0679C43.9418 36.7546 44.4602 36.5802 44.995 36.5676C45.2333 36.5524 45.4873 36.5391 45.7531 36.5317C46.019 36.5243 46.2563 36.5155 46.4621 36.5066V36.3097C46.4621 35.6509 46.0963 35.3227 45.3647 35.325C45.0842 35.3241 44.8047 35.3572 44.5322 35.4235C44.2776 35.4846 44.0312 35.5757 43.7981 35.6948L43.4402 34.3251C43.7606 34.1481 44.1027 34.0135 44.4578 33.9248C44.875 33.8188 45.3041 33.767 45.7344 33.7707C46.4564 33.7277 47.1673 33.9639 47.72 34.4305C47.9725 34.6911 48.1669 35.0024 48.2902 35.3438C48.4135 35.6851 48.463 36.0487 48.4353 36.4106V39.9381H46.5359L46.5374 39.3434ZM45.4642 38.7634C45.6459 38.7649 45.8268 38.7398 46.0013 38.6891C46.1628 38.643 46.318 38.5768 46.4631 38.4921V37.5917C46.2662 37.6079 46.0889 37.6267 45.9333 37.6473C45.7778 37.668 45.6247 37.6867 45.477 37.7029C45.0732 37.7522 44.8716 37.9411 44.8719 38.2696C44.8693 38.337 44.8818 38.4041 44.9085 38.466C44.9351 38.5279 44.9753 38.5831 45.026 38.6276C45.1501 38.7253 45.306 38.7737 45.4637 38.7634" fill="#013646"/>
    <path d="M53.7647 31.7214V38.3329H56.7866V39.9364H51.7422V31.7214H53.7647Z" fill="#013646"/>
    <path d="M61.9776 33.7683C62.321 33.7504 62.6645 33.803 62.9869 33.9229C63.3092 34.0428 63.6036 34.2274 63.8519 34.4654C64.0905 34.7245 64.2745 35.029 64.3929 35.3608C64.5114 35.6925 64.5618 36.0447 64.5411 36.3963C64.5384 36.7322 64.5015 37.0669 64.4309 37.3953H60.9265C60.9291 37.7312 61.0643 38.0525 61.3026 38.2893C61.6045 38.5388 61.9919 38.6605 62.3823 38.6285C62.6943 38.6274 63.0056 38.6007 63.3133 38.5488C63.6041 38.5052 63.888 38.4243 64.1581 38.308L64.4043 39.5782C64.0695 39.7423 63.7151 39.8625 63.3497 39.9361C62.9499 40.0193 62.5425 40.0608 62.1342 40.0597C61.6597 40.068 61.1876 39.991 60.7404 39.8323C60.3621 39.6948 60.0175 39.4781 59.7296 39.1967C59.4554 38.9206 59.2448 38.5879 59.1127 38.2219C58.9683 37.8183 58.8971 37.3921 58.9025 36.9635C58.8959 36.51 58.9692 36.0588 59.1191 35.6308C59.2508 35.256 59.4608 34.9137 59.735 34.6264C60.0082 34.3472 60.3386 34.1303 60.7034 33.9908C61.1096 33.838 61.5408 33.7627 61.9746 33.7688L61.9776 33.7683ZM61.9121 35.0272C61.7769 35.019 61.6416 35.042 61.5167 35.0943C61.3917 35.1466 61.2804 35.2269 61.1913 35.329C61.0109 35.5676 60.9214 35.8628 60.9388 36.1615H62.6905C62.707 36.0931 62.7151 36.023 62.7146 35.9527C62.7228 35.7151 62.6491 35.4819 62.5059 35.292C62.4352 35.2045 62.3448 35.1349 62.2422 35.0889C62.1395 35.0428 62.0274 35.0217 61.9151 35.0272" fill="#013646"/>
    <path d="M73.0595 39.9355H71.1724V39.1783C70.9823 39.4472 70.7306 39.6666 70.4383 39.8183C70.1034 39.985 69.7326 40.0668 69.3587 40.0566C69.0298 40.0582 68.7049 39.9844 68.409 39.841C68.1103 39.6941 67.8475 39.4835 67.639 39.2241C67.409 38.9363 67.2353 38.6078 67.127 38.2557C66.9986 37.8447 66.9361 37.416 66.9418 36.9855C66.9326 36.5087 67.0184 36.0349 67.1944 35.5917C67.3477 35.2108 67.5788 34.8661 67.8728 34.5795C68.1568 34.3081 68.495 34.1 68.8654 33.969C69.2536 33.8318 69.6627 33.763 70.0745 33.7657C70.2647 33.7636 70.4546 33.7783 70.6422 33.8095C70.7919 33.8348 70.9399 33.8695 71.0853 33.9134V31.2243H73.059L73.0595 39.9355ZM70.0735 38.5536C70.2626 38.5612 70.4511 38.5276 70.6259 38.4551C70.8007 38.3826 70.9576 38.2729 71.0858 38.1336V35.348C70.8587 35.2749 70.6207 35.2415 70.3822 35.2496C70.1752 35.2341 69.9674 35.2676 69.7757 35.3472C69.584 35.4268 69.4136 35.5504 69.2784 35.7079C69.0177 36.0709 68.8891 36.5122 68.9141 36.9584C68.8969 37.3606 68.9932 37.7594 69.1918 38.1095C69.285 38.2561 69.4162 38.3748 69.5714 38.4528C69.7267 38.5309 69.9002 38.5653 70.0735 38.5526" fill="#013646"/>
    <path d="M81.6726 33.8913V35.1497H80.7865L80.7732 35.1374C80.8605 35.3656 80.9065 35.6075 80.909 35.8518C80.9102 36.1232 80.8535 36.3917 80.7426 36.6395C80.6289 36.8895 80.4607 37.1108 80.2503 37.2874C80.0099 37.4845 79.7335 37.6331 79.4365 37.7251C79.0711 37.8383 78.6901 37.8926 78.3076 37.886H78.2342C78.2029 37.9393 78.1759 37.9949 78.1535 38.0525C78.1328 38.1096 78.1225 38.1699 78.123 38.2307C78.1194 38.2807 78.1295 38.3308 78.1522 38.3756C78.1749 38.4204 78.2094 38.4581 78.252 38.4847C78.3518 38.5417 78.464 38.5733 78.5789 38.5768L79.6403 38.6378C80.1633 38.6509 80.6711 38.8158 81.102 39.1124C81.2864 39.257 81.4329 39.4443 81.5286 39.6582C81.6243 39.872 81.6665 40.106 81.6515 40.3398C81.6589 40.6948 81.5527 41.043 81.3482 41.3333C81.1376 41.6249 80.8638 41.8651 80.5472 42.0359C80.1931 42.2295 79.8128 42.3709 79.4183 42.4558C78.997 42.5506 78.5666 42.5983 78.1348 42.5981C77.7986 42.5986 77.4629 42.5738 77.1304 42.5238C76.8298 42.4819 76.5368 42.3969 76.2605 42.2712C76.0206 42.1634 75.8093 42.0008 75.6436 41.7966C75.4838 41.588 75.401 41.3306 75.4093 41.068C75.4053 40.8938 75.4476 40.7217 75.5319 40.5692C75.6169 40.4228 75.7304 40.2949 75.8656 40.1931C76.0134 40.0817 76.1753 39.9905 76.3471 39.9218C76.5267 39.8481 76.7123 39.7903 76.902 39.749C76.7391 39.6817 76.6003 39.5669 76.5037 39.4195C76.4071 39.2721 76.3572 39.0991 76.3604 38.9229C76.3581 38.7776 76.3896 38.6339 76.4525 38.5029C76.512 38.3835 76.589 38.2737 76.6809 38.177C76.7711 38.0829 76.8725 38.0003 76.9827 37.9308C77.083 37.8668 77.1884 37.8112 77.2978 37.7644C76.8322 37.6624 76.4136 37.4089 76.1074 37.0437C75.84 36.7048 75.6981 36.2838 75.7056 35.8522C75.7029 35.5704 75.7599 35.2912 75.873 35.033C75.986 34.7789 76.1542 34.5532 76.3654 34.3723C76.605 34.172 76.8822 34.0214 77.1807 33.9292C77.5457 33.8159 77.9264 33.7616 78.3086 33.7682C78.4797 33.7679 78.6507 33.7781 78.8206 33.7987C78.9732 33.8177 79.124 33.8488 79.2716 33.8918L81.6726 33.8913ZM77.7252 39.9602C77.6159 40.0431 77.5127 40.1338 77.4165 40.2315C77.3629 40.2869 77.3211 40.3526 77.2937 40.4246C77.2663 40.4966 77.2538 40.5735 77.257 40.6505C77.2514 40.7537 77.2758 40.8564 77.3272 40.9461C77.3787 41.0358 77.455 41.1087 77.5469 41.1561C77.7985 41.2759 78.076 41.3313 78.3544 41.3171C78.5349 41.3172 78.7149 41.2986 78.8915 41.2614C79.056 41.2292 79.2155 41.1756 79.3661 41.1019C79.4922 41.0427 79.6054 40.9591 79.6989 40.8558C79.7796 40.7666 79.8242 40.6506 79.824 40.5303C79.829 40.4679 79.8174 40.4053 79.7903 40.3488C79.7633 40.2923 79.7217 40.244 79.6699 40.2088C79.5193 40.1305 79.3526 40.0882 79.1829 40.0853L77.7252 39.9602ZM78.3051 36.6789C78.424 36.6874 78.5433 36.6715 78.6559 36.6322C78.7684 36.5929 78.8717 36.5311 78.9594 36.4504C79.1029 36.2747 79.1812 36.0547 79.1812 35.8279C79.1812 35.601 79.1029 35.3811 78.9594 35.2053C78.7737 35.0572 78.5432 34.9766 78.3056 34.9766C78.0681 34.9766 77.8375 35.0572 77.6518 35.2053C77.5084 35.3811 77.43 35.601 77.43 35.8279C77.43 36.0547 77.5084 36.2747 77.6518 36.4504C77.7393 36.5312 77.8424 36.5931 77.9548 36.6324C78.0672 36.6717 78.1864 36.6875 78.3051 36.6789Z" fill="#013646"/>
    <path d="M86.7408 33.7683C87.0844 33.7503 87.4281 33.8029 87.7506 33.9228C88.0731 34.0427 88.3676 34.2274 88.6161 34.4654C88.8547 34.7245 89.0387 35.029 89.1571 35.3608C89.2756 35.6925 89.326 36.0447 89.3053 36.3963C89.3026 36.7322 89.2657 37.0669 89.195 37.3953H85.6926C85.6948 37.7313 85.83 38.0528 86.0688 38.2893C86.3703 38.5389 86.7574 38.6606 87.1474 38.6286C87.4594 38.6274 87.7708 38.6008 88.0784 38.5488C88.3695 38.5052 88.6538 38.4243 88.9243 38.308L89.1704 39.5783C88.8358 39.7424 88.4813 39.8627 88.1159 39.9362C87.7164 40.0193 87.3093 40.0607 86.9013 40.0598C86.4268 40.0681 85.9547 39.9911 85.5075 39.8323C85.1286 39.6951 84.7835 39.4784 84.4953 39.1967C84.221 38.9209 84.0107 38.5881 83.8794 38.2219C83.735 37.8183 83.6638 37.3921 83.6692 36.9635C83.6622 36.51 83.7352 36.0589 83.8848 35.6308C84.0172 35.2562 84.2275 34.9139 84.5017 34.6264C84.7745 34.3467 85.1049 34.1298 85.4701 33.9908C85.8759 33.8381 86.3067 33.7628 86.7403 33.7688L86.7408 33.7683ZM86.6792 35.0272C86.5438 35.0191 86.4083 35.042 86.2831 35.0943C86.1579 35.1466 86.0464 35.2269 85.957 35.329C85.7766 35.5677 85.687 35.8628 85.7044 36.1615H87.4561C87.4727 36.0932 87.4808 36.0231 87.4803 35.9528C87.4887 35.7151 87.415 35.4817 87.2715 35.2921C87.2009 35.2045 87.1105 35.1349 87.0079 35.0889C86.9052 35.0428 86.7931 35.0217 86.6807 35.0272" fill="#013646"/>
    <path d="M95.5727 35.594H95.3394C95.0373 35.5618 94.7318 35.5982 94.4457 35.7005C94.1596 35.8028 93.9003 35.9683 93.6871 36.1848V39.9344H91.7134V33.8915H93.6246V34.9038C93.7229 34.5988 93.9072 34.3287 94.1553 34.1259C94.4254 33.9268 94.7556 33.8267 95.0907 33.8423C95.1877 33.8408 95.2847 33.847 95.3807 33.861C95.4621 33.874 95.5425 33.8922 95.6215 33.9157L95.5727 35.594Z" fill="#013646"/>
</svg>