<svg width="77" height="34" viewBox="0 0 77 34" fill="none" xmlns="http://www.w3.org/2000/svg">
    <path d="M38.47 5.82013L38.3429 5.8303L38.2158 5.84746L38.0759 5.87289L37.9386 5.90277L37.8115 5.93837C37.6777 5.98158 37.5465 6.03252 37.4186 6.09093L37.2998 6.15004L37.1828 6.21361L37.0697 6.28544L36.9578 6.36426L36.8491 6.44754L36.7499 6.53398C36.6749 6.60771 36.6101 6.67128 36.5363 6.74756L36.4531 6.84673L36.3698 6.95416L36.2935 7.06157L36.223 7.17346L36.1594 7.29106L36.0958 7.40991C36.0532 7.50145 36.0253 7.57391 35.9884 7.6699C35.9515 7.76588 35.935 7.83773 35.9096 7.9299L35.8784 8.07101L35.853 8.20959L35.8377 8.33671L35.8276 8.4683V8.75243C35.8333 8.84714 35.8416 8.92216 35.853 9.01688C35.8644 9.11159 35.8867 9.19612 35.9083 9.29211L35.942 9.41925C35.9719 9.50951 36.0011 9.59152 36.0354 9.68051L36.0933 9.80763L36.1511 9.92651L36.2204 10.0479L36.2941 10.1623L36.373 10.2742L36.4575 10.3842L36.5452 10.4834L36.6978 10.6416L36.7811 10.7192L36.8713 10.7955L36.9686 10.8692L37.0658 10.9328C37.1097 10.9639 37.1504 10.9893 37.1847 11.009L37.3017 11.0771L37.4244 11.1406L37.5515 11.1959L37.6856 11.2468L37.8127 11.2881L37.9443 11.325L38.0784 11.3548L38.2183 11.379L38.3499 11.3974L38.477 11.4057H38.7612L38.8927 11.3974C38.9874 11.3847 39.0707 11.372 39.1642 11.3548L39.297 11.325L39.4324 11.2868L39.5595 11.2442L39.6867 11.1978L39.8138 11.14L39.9339 11.0809L40.0496 11.0173L40.1666 10.9423L40.2867 10.8558L40.3897 10.7783L40.4971 10.6848C40.569 10.6143 40.6344 10.5495 40.705 10.477C40.7616 10.4134 40.8093 10.3499 40.8633 10.2806L40.9396 10.1693C40.9675 10.1312 40.993 10.0918 41.0171 10.0517L41.0807 9.93477L41.1442 9.80763L41.1996 9.68051L41.2517 9.54639C41.2934 9.41888 41.3282 9.28922 41.3559 9.15798L41.3814 9.01688L41.3998 8.88401L41.41 8.75689V8.47466L41.3998 8.3418C41.3871 8.24835 41.3744 8.16381 41.3559 8.07037C41.3486 8.02323 41.3386 7.97654 41.326 7.93052L41.2936 7.80784L41.2485 7.67054L41.2002 7.54914L41.1436 7.422L41.08 7.29932C41.0629 7.26372 41.0394 7.22431 41.0165 7.18044L40.9427 7.06475L40.8639 6.95352L40.7762 6.84164C40.7552 6.81495 40.7241 6.77807 40.6847 6.73421C40.6141 6.66048 40.5575 6.60009 40.4787 6.52954L40.3795 6.44626C40.3486 6.41862 40.3161 6.39272 40.2823 6.3687C40.1634 6.2867 40.0604 6.21869 39.9346 6.14813L39.8144 6.08902C39.7242 6.04833 39.6447 6.01718 39.5532 5.98159C39.5118 5.96496 39.4693 5.95115 39.4261 5.94027L39.2989 5.9034L39.1616 5.87352L39.0205 5.8481L38.8934 5.83093L38.7618 5.82077L38.47 5.82013Z" fill="white"/>
    <path d="M26.2415 13.6731C26.319 13.5644 26.401 13.4582 26.4957 13.3425V13.3019L26.64 13.162C27.0101 12.7857 27.4236 12.4547 27.8719 12.1761C28.3409 11.8997 28.8519 11.7022 29.3848 11.5913L29.3963 11.5869C29.5641 11.5544 29.7325 11.5315 29.8965 11.5118C30.0732 11.4921 30.2188 11.4794 30.3656 11.468L30.4419 11.461L30.5691 11.4693L30.8278 11.4845C32.0578 11.5382 33.2285 12.0284 34.1299 12.8671C35.0313 13.7059 35.6044 14.8383 35.7465 16.0613L35.765 16.2704L35.7751 16.4694L35.7808 16.6658V16.8565L35.7694 17.0599L35.7497 17.255C35.7346 17.4034 35.7095 17.5506 35.6747 17.6956C35.4349 18.7565 34.8835 19.7217 34.0913 20.4671C33.3138 21.1967 32.3214 21.6556 31.2619 21.7752C31.145 21.7879 31.0305 21.7981 30.9187 21.8064L30.5188 21.8305L30.4381 21.8248C30.2798 21.8121 30.1247 21.7994 29.9366 21.7784C29.7599 21.76 29.5819 21.7345 29.4014 21.7009H29.3969C28.8579 21.5949 28.3416 21.3955 27.8713 21.1116C27.4227 20.8312 27.0084 20.4992 26.6369 20.1225L26.4957 19.9827V19.9445C26.4277 19.8638 26.3616 19.7818 26.2993 19.6973C26.1984 19.562 26.1046 19.4215 26.0184 19.2764L25.9236 19.1067L25.8416 18.9472L25.6891 18.6179C25.6255 18.4688 25.5699 18.3165 25.5225 18.1615C25.4737 18.0127 25.4354 17.8606 25.4081 17.7064L25.3757 17.5309L25.349 17.3402L25.3249 17.1495C25.3179 17.0758 25.3064 16.9995 25.3007 16.9264C25.2905 16.7936 25.2854 16.7217 25.2854 16.6397C25.2924 16.4675 25.3051 16.3079 25.3223 16.1369L25.3477 15.9418L25.3757 15.7454C25.3873 15.6611 25.4043 15.5776 25.4266 15.4955C25.473 15.3544 25.5028 15.2597 25.5295 15.1694C25.6152 14.8663 25.7273 14.5713 25.8645 14.2878L26.0679 13.867L26.0978 13.881C26.1461 13.8072 26.1925 13.7386 26.2421 13.6693L26.2415 13.6731ZM42.3968 13.6737C42.4744 13.565 42.5564 13.4589 42.6511 13.3432V13.3025L42.7935 13.1627C43.1643 12.7866 43.5782 12.4557 44.0266 12.1768C44.4956 11.9004 45.0067 11.7029 45.5395 11.5919H45.551C45.7207 11.5582 45.8872 11.5341 46.0512 11.5157C46.2279 11.496 46.3748 11.4832 46.5204 11.4718L46.6532 11.4604L46.7238 11.4661L46.9825 11.4801C48.2127 11.5332 49.3838 12.0231 50.2853 12.862C51.1868 13.7008 51.7598 14.8336 51.9012 16.0568L51.9197 16.266L51.9298 16.4649L51.9356 16.6613V16.852L51.9241 17.0555L51.9044 17.2506C51.8879 17.3988 51.8629 17.5458 51.8294 17.6911C51.5896 18.7521 51.0382 19.7172 50.246 20.4626C49.4683 21.192 48.476 21.6508 47.4166 21.7708C47.2992 21.7835 47.1848 21.7935 47.0734 21.8007C46.9195 21.8108 46.767 21.8191 46.6144 21.8305H46.5934C46.4352 21.8178 46.2801 21.8051 46.0919 21.7854C45.9152 21.7657 45.7372 21.7415 45.5567 21.7066C45.0177 21.6007 44.5013 21.4013 44.0311 21.1173C43.5815 20.8377 43.1671 20.5052 42.7966 20.127L42.6555 19.9884V19.9515C42.5875 19.8695 42.5227 19.7875 42.4604 19.703C42.359 19.5682 42.2648 19.4281 42.1781 19.2835L42.0834 19.1124L42.0014 18.9542L41.8501 18.6236C41.7855 18.4748 41.7295 18.3225 41.6823 18.1672C41.6332 18.0185 41.5949 17.8664 41.5679 17.7121L41.5368 17.5366L41.5101 17.346L41.4846 17.1597C41.4777 17.0847 41.4675 17.0084 41.4618 16.9353C41.4503 16.8025 41.4446 16.7306 41.4446 16.6486C41.4503 16.4764 41.4656 16.3181 41.4815 16.1458L41.5069 15.9494L41.5368 15.753C41.5477 15.6687 41.5643 15.5852 41.5863 15.5032C41.6327 15.3633 41.6626 15.2686 41.6906 15.1783C41.7751 14.8751 41.8866 14.5801 42.0237 14.2967L42.2271 13.8759L42.257 13.8898C42.3053 13.8161 42.3517 13.7475 42.4013 13.6782L42.3968 13.6737ZM62.7246 5.82712L62.5746 5.83539L62.4475 5.84683L62.3089 5.8678L62.1691 5.8945L62.0419 5.92565L61.9065 5.96633L61.7978 6.00447L61.6567 6.06231L61.5537 6.10745L61.4266 6.17101L61.2995 6.24602L61.206 6.30515L61.0859 6.39413L60.9925 6.46787L60.8768 6.56958C60.7965 6.64464 60.7201 6.72377 60.6479 6.80667C60.5812 6.88438 60.519 6.96588 60.4617 7.05076C60.4029 7.1383 60.3497 7.22938 60.3021 7.32347C60.25 7.42518 60.2004 7.53261 60.154 7.6413L60.1044 7.77543L60.0593 7.91781L60.0269 8.03477L60.0027 8.15365C59.9887 8.23692 59.9786 8.3132 59.9703 8.39774L59.9506 8.70985C59.9366 8.94123 59.915 9.16497 59.887 9.38237C59.8567 9.60488 59.8123 9.82527 59.7542 10.0422C59.6929 10.2662 59.616 10.4856 59.5241 10.6988C59.4278 10.921 59.3145 11.1354 59.1853 11.3402L59.1573 11.3853L59.1503 11.3923C59.0696 11.5138 58.9876 11.6294 58.9043 11.747L58.8051 11.8742L58.7022 12.0013L58.589 12.1284L58.4676 12.2556L58.3462 12.3757C58.2515 12.4704 58.1275 12.5734 58.0144 12.6681C57.9267 12.7387 57.8434 12.7997 57.7531 12.8645C57.633 12.9465 57.5059 13.0342 57.38 13.1061C56.8876 13.3946 56.3505 13.5989 55.7908 13.7106C54.7402 13.9183 53.6511 13.8006 52.6691 13.3731C51.673 12.9478 50.8397 12.2141 50.2917 11.2798C50.0051 10.7871 49.8028 10.25 49.6929 9.69068V9.68367C49.6631 9.52412 49.6421 9.36586 49.6249 9.21203C49.6078 9.04676 49.5995 8.90818 49.5893 8.77278L49.5639 8.43652C49.5556 8.34626 49.5429 8.24581 49.527 8.13394L49.5042 8.02525L49.4774 7.91209C49.444 7.79047 49.4039 7.67079 49.3573 7.55358C49.3132 7.4441 49.2614 7.33789 49.2022 7.23575C49.144 7.1328 49.0783 7.03423 49.0058 6.94081C48.9264 6.83876 48.8416 6.74113 48.7515 6.64839L48.6511 6.55369L48.5309 6.44944L48.4445 6.38015L48.3104 6.28862L48.2061 6.22059L48.0745 6.14685L47.9786 6.09728L47.8432 6.03943L47.7046 5.98604L47.5717 5.94218L47.4389 5.90531L47.3232 5.87988L47.1636 5.85319L47.0537 5.8392L46.8909 5.82775H46.7594H46.5687L46.4174 5.83602L46.2902 5.84873L46.1504 5.86844L46.0131 5.89514L45.886 5.92629L45.7506 5.96697L45.6419 6.00384L45.4995 6.06295L45.3978 6.10809L45.2706 6.17165L45.1435 6.24666L45.052 6.31023L44.9318 6.39795L44.8384 6.47169L44.7227 6.57466C44.6421 6.64936 44.5657 6.72853 44.4939 6.81177C44.4264 6.88886 44.3642 6.97042 44.3076 7.05587C44.2499 7.14381 44.1971 7.23484 44.1493 7.32856C44.0972 7.43026 44.0478 7.53768 44.0012 7.65083L43.9516 7.78369L43.9052 7.92798L43.8741 8.04367L43.8487 8.16255C43.836 8.24582 43.8258 8.32338 43.8175 8.40665L43.7965 8.72002C43.7838 8.95013 43.7628 9.17324 43.733 9.39127C43.7016 9.61372 43.6568 9.83406 43.5988 10.0511C43.5384 10.2753 43.4615 10.4948 43.3687 10.7077C43.2735 10.9306 43.1606 11.1455 43.0312 11.3504L43.0032 11.3942L42.995 11.4025C42.9161 11.5226 42.8342 11.6383 42.749 11.7559L42.6517 11.8831L42.5487 12.0102L42.4343 12.1373L42.3142 12.2645L42.1928 12.3846C42.0981 12.4806 41.9741 12.5823 41.8597 12.677C41.7732 12.7476 41.69 12.8086 41.5997 12.8734C41.4783 12.9554 41.3524 13.0432 41.2266 13.1163C40.7338 13.4037 40.1968 13.6075 39.6374 13.7195C38.5867 13.9271 37.4977 13.8094 36.5157 13.382C35.5202 12.9564 34.687 12.2233 34.1383 11.29C33.8532 10.7966 33.6509 10.2597 33.5395 9.70084V9.6964C33.5096 9.53558 33.4899 9.37856 33.4759 9.22155C33.4619 9.06455 33.4492 8.91898 33.4391 8.78359L33.4136 8.44733C33.4054 8.35833 33.3939 8.25662 33.3768 8.14474L33.3558 8.03731L33.3291 7.9229C33.2922 7.79577 33.2541 7.6769 33.209 7.56439C33.164 7.45528 33.1122 7.34913 33.0539 7.24656C32.9948 7.1439 32.9292 7.04516 32.8574 6.95098C32.7776 6.84974 32.6927 6.75257 32.6032 6.65984L32.5027 6.56385L32.3839 6.46088L32.2962 6.39159L32.1646 6.29815L32.0571 6.23013L31.93 6.1564L31.8328 6.10682L31.6986 6.04897L31.5601 5.99557L31.4272 5.95298L31.2956 5.91611L31.1787 5.88941L31.0191 5.86272L30.9072 5.84873L30.7464 5.8373H30.7312L30.6816 5.83157L30.5373 5.82458H30.4241L30.2741 5.83285L30.147 5.84428L30.0071 5.86526L29.8698 5.89196L29.7427 5.92311L29.6073 5.96379L29.4973 6.00193L29.3562 6.05977L29.2532 6.1049L29.1261 6.16846L28.999 6.24348L28.9074 6.30259L28.7873 6.39159L28.6939 6.46533L28.5782 6.56703C28.4979 6.64209 28.4215 6.72122 28.3493 6.80413C28.2826 6.88184 28.2204 6.96334 28.1631 7.04822C28.1048 7.13579 28.0519 7.22687 28.0048 7.32093C27.9514 7.42264 27.9031 7.53006 27.8567 7.63876L27.8071 7.77289L27.7607 7.91527L27.7283 8.03223L27.7041 8.15111C27.6914 8.23438 27.6812 8.31066 27.673 8.3952L27.652 8.70731C27.638 8.93869 27.6183 9.16243 27.5884 9.37983C27.5563 9.60213 27.5115 9.82244 27.4543 10.0397C27.3943 10.264 27.3173 10.4835 27.2242 10.6963C27.1284 10.9185 27.0155 11.1329 26.8867 11.3377L26.8568 11.3828L26.8498 11.3898C26.7691 11.5112 26.689 11.6269 26.6038 11.7445L26.5065 11.8716L26.4023 11.9988L26.2891 12.1259L26.1677 12.253L26.0463 12.3732C25.9407 12.4762 25.83 12.5738 25.7145 12.6656C25.6281 12.7361 25.5448 12.7971 25.4545 12.862C25.3331 12.944 25.2073 13.0317 25.0814 13.1035C24.589 13.392 24.0519 13.5963 23.4922 13.7081C22.4415 13.9157 21.3525 13.798 20.3705 13.3705C19.3749 12.9445 18.5418 12.2109 17.9931 11.2773C17.7075 10.7842 17.5056 10.2472 17.3956 9.68814V9.68113C17.3645 9.52158 17.3435 9.3633 17.3276 9.20947C17.3104 9.0442 17.3009 8.90564 17.2907 8.77024L17.2653 8.43398C17.2583 8.34372 17.2456 8.24327 17.2284 8.1314L17.2074 8.0227L17.1808 7.90955C17.1469 7.78791 17.1064 7.66823 17.0593 7.55104C17.0158 7.44131 16.9639 7.33506 16.9042 7.23321C16.8465 7.12995 16.7808 7.03132 16.7078 6.93825C16.6281 6.83651 16.5432 6.73892 16.4536 6.64585L16.3531 6.55115L16.233 6.4469L16.1453 6.3776L16.0137 6.28606L15.9063 6.21805L15.7791 6.14431L15.6819 6.09474L15.5477 6.03689L15.4092 5.9835L15.2763 5.93964L15.1435 5.90277L15.0278 5.87734L14.8669 5.85064L14.7582 5.83666L14.5955 5.82521H14.4639H14.3368L14.1741 5.83793L14.0679 5.85064L13.9026 5.88052L13.7895 5.90467L13.6471 5.94409C13.5127 5.98826 13.3807 6.0396 13.2517 6.09791L13.1488 6.14878L13.0318 6.21233L12.8945 6.30005L12.7801 6.38205L12.6885 6.45262L12.5811 6.54414L12.4781 6.64331L12.3821 6.74374L12.2919 6.85117L12.22 6.93889L12.145 7.04632L12.0662 7.16774L11.9957 7.28914L11.9448 7.3883L11.8812 7.52815L11.8317 7.65083L11.7891 7.7697L11.7535 7.89238C11.7325 7.97883 11.7153 8.06019 11.6969 8.14664L11.674 8.30048L11.6626 8.42316L11.6556 8.57V8.6787L11.6626 8.83253L11.674 8.95267L11.6925 9.08679L11.7179 9.21393L11.7535 9.36648L11.7833 9.46947L11.8317 9.60932L11.8838 9.74344L11.9346 9.85912L11.9912 9.96783L12.0548 10.0797L12.1336 10.2068L12.2029 10.3041L12.2804 10.4033L12.372 10.5119C12.44 10.5825 12.5061 10.6505 12.5754 10.7128C12.6407 10.7737 12.7095 10.8307 12.7813 10.8838C12.8563 10.9391 12.9294 10.9881 13.0057 11.0351C13.082 11.0821 13.1653 11.1266 13.2644 11.1775C13.3763 11.2271 13.4818 11.2665 13.5963 11.3046L13.7533 11.3529L13.8562 11.3796L13.9935 11.4076L14.1982 11.4387L14.4372 11.4572L14.696 11.4712C15.9262 11.5239 17.0973 12.0138 17.9987 12.8527C18.9001 13.6917 19.4726 14.8246 19.6134 16.0479L19.6331 16.2571L19.6433 16.456L19.6478 16.6524V16.8431L19.6376 17.0465L19.6166 17.2417C19.6012 17.3899 19.5766 17.537 19.5429 17.6822C19.3031 18.7432 18.7517 19.7083 17.9594 20.4537C17.1813 21.1831 16.1886 21.6419 15.1288 21.7619C15.0131 21.7746 14.8987 21.7848 14.7868 21.7918C14.5962 21.8032 14.4055 21.8127 14.2148 21.8286L14.0959 21.8439L13.9859 21.8623L13.869 21.8877L13.7463 21.9189L13.6064 21.9628L13.4329 22.0263L13.2466 22.107C13.1577 22.1535 13.0788 22.196 13.0095 22.2386C12.9307 22.2882 12.8557 22.3378 12.7877 22.3886C12.7159 22.4417 12.6471 22.4988 12.5817 22.5596C12.5125 22.6232 12.4444 22.6912 12.3758 22.7631L12.2995 22.8533L12.2061 22.9735L12.1425 23.065L12.0618 23.1921L11.9938 23.3091L11.9429 23.4076L11.8793 23.5487L11.8399 23.6504L11.7891 23.7973L11.7579 23.9047L11.7242 24.0573L11.6988 24.18L11.6804 24.3153L11.6689 24.4342L11.6619 24.588V24.698L11.6689 24.8449L11.6804 24.9675L11.7001 25.0991L11.7312 25.2504L11.7579 25.3674L11.7948 25.4945L11.8374 25.6159L11.894 25.757L11.9461 25.8702L11.9995 25.9763L12.0758 26.1079L12.1393 26.2083L12.2111 26.3088L12.3084 26.4315L12.3821 26.5192C12.4921 26.6323 12.5728 26.7099 12.6955 26.816L12.782 26.8841L12.9161 26.9788L13.0235 27.0423L13.1405 27.1116L13.2791 27.1796L13.3795 27.2248L13.5066 27.2743L13.6547 27.3227L13.7901 27.3608L13.9173 27.3875L14.0686 27.4142L14.1773 27.4282L14.34 27.4396H14.4671H14.5942L14.757 27.4269L14.8701 27.4129L15.0309 27.385L15.1581 27.3583L15.275 27.3246L15.4251 27.275L15.5592 27.2241L15.6622 27.179L15.8045 27.1072L15.9005 27.0519L16.0378 26.9654L16.1497 26.8866L16.2432 26.8129L16.3461 26.7251L16.4536 26.6222C16.5413 26.5306 16.6214 26.4384 16.7021 26.3399C16.7657 26.2554 16.821 26.1734 16.8686 26.0971C16.9149 26.0222 16.9573 25.9449 16.9958 25.8657C17.035 25.7865 17.0694 25.705 17.0988 25.6216C17.1312 25.5314 17.1623 25.4436 17.1852 25.3547L17.2151 25.2275C17.2348 25.1118 17.2519 24.9961 17.2634 24.8817C17.2748 24.7673 17.2844 24.6274 17.2945 24.4901C17.3047 24.3528 17.3155 24.2162 17.3327 24.0522C17.3498 23.8882 17.3695 23.7401 17.4007 23.5792V23.5735C17.6398 22.386 18.2968 21.3235 19.2524 20.5789C20.2153 19.8229 21.4115 19.4258 22.6354 19.4557H22.6455C23.043 19.4723 23.4375 19.532 23.8221 19.6337C24.2052 19.7386 24.5753 19.8859 24.9257 20.0729C24.9822 20.0986 25.0367 20.1288 25.0884 20.1632C25.658 20.5003 26.1616 20.9382 26.5746 21.4555C26.9725 21.9604 27.2667 22.5389 27.4403 23.1578C27.4949 23.351 27.5388 23.5471 27.5719 23.7451C27.6088 23.9511 27.6355 24.1577 27.6482 24.3567C27.6482 24.5149 27.6692 24.7012 27.6793 24.8652L27.6895 24.9764L27.7124 25.1175L27.7321 25.2135L27.7747 25.3686L27.8141 25.4913L27.8637 25.6242C27.9101 25.7373 27.9597 25.846 28.0118 25.9477C28.0594 26.0413 28.1127 26.132 28.1713 26.2191C28.2274 26.3042 28.2892 26.3853 28.3563 26.462C28.4319 26.5513 28.5125 26.6362 28.5979 26.7162L28.6913 26.7982L28.8013 26.8872L28.9017 26.9578L29.0289 27.0411L29.1407 27.1046L29.2424 27.158L29.3778 27.2216L29.5005 27.2724L29.6149 27.3119L29.7421 27.35L29.8876 27.3869L30.0148 27.411L30.1559 27.432L30.2773 27.4434L30.4311 27.4517H30.5582H30.6218H30.7489L30.9117 27.439L31.0248 27.4263L31.1856 27.3964L31.3128 27.3697L31.4317 27.3373L31.5798 27.2864L31.7139 27.2356L31.8169 27.1904L31.9593 27.1186L32.0552 27.0633L32.1925 26.9769L32.3044 26.898L32.3991 26.8262L32.5008 26.7372L32.6083 26.6342C32.696 26.5408 32.7761 26.4505 32.8581 26.352C32.9216 26.2675 32.975 26.1867 33.0233 26.1092C33.0729 26.0259 33.1168 25.9484 33.1505 25.8759C33.1891 25.7964 33.2235 25.7149 33.2535 25.6318C33.2859 25.5428 33.317 25.4551 33.3412 25.3648L33.3691 25.2377C33.3901 25.1233 33.406 25.0063 33.4175 24.89C33.4289 24.7737 33.4384 24.6357 33.4499 24.5003C33.4613 24.3649 33.4696 24.2276 33.4867 24.0624C33.5039 23.9073 33.5236 23.7502 33.5548 23.5907V23.585C33.7942 22.3967 34.4519 21.3337 35.4083 20.5891C36.3708 19.8331 37.5665 19.4359 38.7901 19.4659H38.8002C39.1981 19.4826 39.593 19.5423 39.9781 19.6439C40.3602 19.7497 40.7296 19.897 41.0797 20.0831C41.136 20.1093 41.1904 20.1395 41.2424 20.1734C41.8125 20.5112 42.3165 20.9497 42.7299 21.4676C43.1277 21.9723 43.4216 22.5509 43.5944 23.1699C43.6487 23.3628 43.6931 23.5584 43.7273 23.756C43.7629 23.9625 43.7864 24.1672 43.8035 24.3662C43.8035 24.527 43.8232 24.712 43.8334 24.8747L43.8449 24.9847L43.8658 25.1258L43.8868 25.2218L43.9275 25.3769L43.9669 25.4996L44.0165 25.6337C44.0631 25.7469 44.1125 25.8543 44.1646 25.956C44.2125 26.0494 44.2658 26.1401 44.3241 26.2274C44.3798 26.3132 44.4416 26.3948 44.5091 26.4715C44.5851 26.559 44.6658 26.6424 44.7507 26.7213L44.8441 26.8033L44.9541 26.8923L45.0545 26.9642L45.1816 27.0462L45.2948 27.1097L45.3952 27.1631L45.5325 27.2267L45.6597 27.2763L45.7728 27.3157L45.8999 27.3538L46.0442 27.3907L46.1714 27.4148L46.3125 27.4358L46.4339 27.4472L46.589 27.4555H46.6977L46.8477 27.4485H46.8846H46.9075L47.0683 27.4358L47.1814 27.4218L47.3423 27.3939L47.4694 27.3671L47.5883 27.3335L47.7383 27.2839L47.8711 27.233L47.9754 27.1879L48.1165 27.1161L48.2125 27.0608L48.3498 26.9743L48.4617 26.8955L48.5564 26.8217L48.6581 26.734L48.7655 26.6311C48.8532 26.5395 48.9352 26.4474 49.0153 26.3488C49.0789 26.2643 49.1323 26.1823 49.1793 26.106C49.2266 26.0317 49.2691 25.9544 49.3065 25.8746C49.3446 25.7939 49.3802 25.7151 49.4107 25.6305C49.4412 25.546 49.4743 25.4525 49.4952 25.3636L49.5264 25.2364C49.5461 25.1207 49.562 25.005 49.5728 24.8906C49.5836 24.7762 49.5957 24.6363 49.6052 24.499C49.6148 24.3617 49.6249 24.2251 49.6421 24.0611C49.6592 23.8971 49.6802 23.749 49.7101 23.5882V23.5824C49.9499 22.3947 50.6075 21.3322 51.5637 20.5878C52.5262 19.832 53.7219 19.4349 54.9454 19.4646H54.9569C55.3539 19.4811 55.748 19.5408 56.1322 19.6426C56.5152 19.7475 56.8853 19.8948 57.2357 20.0818C57.2923 20.1075 57.3467 20.1377 57.3984 20.1721C57.9684 20.5092 58.4724 20.9471 58.8859 21.4644C59.2834 21.9693 59.5772 22.5478 59.7504 23.1667C59.8047 23.3601 59.849 23.5561 59.8832 23.7541C59.9188 23.96 59.9468 24.1666 59.9582 24.3656C59.9582 24.5238 59.9792 24.7101 59.9894 24.8741L60.0008 24.9853L60.0218 25.1264L60.0428 25.2224L60.0854 25.3775L60.1235 25.5002L60.1731 25.6331C60.2195 25.7462 60.2691 25.8549 60.3212 25.9566C60.3694 26.0499 60.4226 26.1406 60.4808 26.228C60.5377 26.3128 60.5999 26.3939 60.667 26.4709C60.7421 26.5602 60.8223 26.6451 60.9073 26.7251L61.002 26.8071L61.1107 26.8961L61.2111 26.9667L61.3383 27.05L61.4514 27.1135L61.5531 27.1669L61.6885 27.2305L61.8156 27.2813L61.9288 27.3207L62.0559 27.3589L62.2002 27.3958L62.3273 27.4199L62.4685 27.4409L62.5886 27.4523L62.7424 27.4606H62.8524L63.0024 27.4536L63.1226 27.4422L63.2637 27.4225L63.3908 27.3983L63.5446 27.3614C63.7599 27.3015 63.9679 27.2181 64.165 27.1129L64.2623 27.0563L64.3793 26.98L64.5019 26.8936L64.5909 26.8243L64.6926 26.7366L64.7918 26.6419L64.8948 26.5344L64.9768 26.4353L65.0613 26.3291L65.1433 26.2134L65.2209 26.092L65.2889 25.9731L65.3398 25.8702L65.3963 25.743L65.4554 25.593L65.4949 25.4741C65.519 25.3852 65.5413 25.3006 65.5629 25.2084L65.587 25.0616L65.6023 24.9472L65.615 24.7864L65.6194 24.6592V24.5321L65.608 24.3948L65.5896 24.2378L65.5699 24.1151L65.54 23.9765L65.5031 23.8392L65.4605 23.7121L65.4122 23.585L65.3658 23.4763L65.2965 23.3352L65.2399 23.2334L65.1681 23.119L65.0861 23.0002L64.9959 22.8813L64.9253 22.7967L64.8191 22.6836L64.7219 22.5902L64.6176 22.4986L64.5147 22.4141L64.4187 22.3435L64.228 22.2278C64.1771 22.1982 64.1193 22.167 64.0544 22.1344C63.9991 22.1045 63.9426 22.0791 63.8847 22.0537C63.8269 22.0282 63.776 22.0098 63.7137 21.9901L63.5586 21.945L63.4359 21.9138L63.3368 21.8941L63.2096 21.8744L62.9147 21.8394L62.7691 21.828C62.6096 21.8153 62.4513 21.8026 62.2663 21.7816C62.0896 21.7632 61.9129 21.7377 61.7311 21.704C61.1921 21.5982 60.6757 21.3988 60.2055 21.1148C59.7569 20.8343 59.3426 20.5024 58.9711 20.1257L58.8299 19.9858V19.9477C58.7664 19.867 58.6971 19.785 58.6348 19.7004C58.5388 19.5733 58.4441 19.4335 58.3526 19.2796L58.2578 19.1099L58.1771 18.9504L58.0233 18.6211C57.9602 18.472 57.9051 18.3196 57.858 18.1647C57.8082 18.0161 57.7695 17.8639 57.7423 17.7095L57.7112 17.5341L57.6832 17.3434L57.6603 17.1527C57.6521 17.079 57.6419 17.0027 57.6362 16.9296C57.6247 16.7967 57.619 16.7249 57.619 16.6429C57.626 16.4706 57.6387 16.3111 57.6571 16.1401L57.6813 15.9449L57.7112 15.7485C57.7224 15.6643 57.739 15.5809 57.7608 15.4987C57.8072 15.3576 57.837 15.2629 57.8637 15.1726C57.9494 14.8695 58.0615 14.5745 58.1987 14.291L58.4021 13.8701L58.432 13.8841C58.4803 13.8104 58.5267 13.7418 58.5763 13.6725C58.6551 13.5638 58.7359 13.4576 58.8306 13.3419V13.3012L58.9749 13.1614C59.3451 12.7847 59.7591 12.4537 60.208 12.1755C60.677 11.8991 61.188 11.7016 61.7209 11.5907L61.7311 11.5862C61.9008 11.5538 62.0674 11.5309 62.2326 11.5112C62.4106 11.4915 62.5562 11.4788 62.7018 11.4673L63.0533 11.4375L63.1887 11.419L63.3387 11.3949L63.4347 11.3752L63.5574 11.344L63.7029 11.3002C63.7608 11.2805 63.8199 11.2563 63.8835 11.2296C63.9419 11.2067 63.999 11.1804 64.0544 11.1508C64.118 11.1196 64.1733 11.0872 64.2223 11.0618L64.3945 10.9575L64.5115 10.873C64.582 10.8152 64.6443 10.7611 64.7124 10.7007L64.8115 10.606L64.912 10.5018L64.9857 10.3874L65.0562 10.2971L65.1325 10.1852L65.2101 10.0625L65.2806 9.93541L65.3315 9.83242L65.3951 9.68685L65.4415 9.55973L65.4783 9.44658L65.5177 9.29657L65.5457 9.16943L65.5654 9.04231L65.5838 8.88529L65.594 8.74671V8.61959V8.49245L65.58 8.33035L65.5648 8.21594C65.5413 8.078 65.5108 7.94138 65.4732 7.80658L65.4326 7.68771L65.3747 7.53641L65.3264 7.42898L65.2628 7.29614L65.1923 7.17346L65.1185 7.05587L65.055 6.96242L64.966 6.84927L64.8795 6.74884L64.7766 6.64267L64.6774 6.54668L64.5744 6.4577L64.481 6.38587L64.3735 6.30831L64.2464 6.22759L64.1193 6.15704L64.0233 6.10745L63.8809 6.04389L63.7767 6.0013L63.6324 5.95171L63.5237 5.9193L63.3686 5.8837L63.237 5.85827L63.1029 5.83984L62.9802 5.82712L62.8346 5.82013L62.7246 5.82712Z" fill="white"/>
    <path d="M54.6238 21.8296L54.4967 21.8398L54.3651 21.8569L54.2253 21.8824L54.088 21.9122L53.9609 21.9478C53.8273 21.9913 53.6962 22.0418 53.568 22.0991L53.4491 22.1627L53.3322 22.2262L53.2178 22.2981L53.1059 22.3769L52.9985 22.4614L52.898 22.546C52.823 22.621 52.7582 22.6833 52.6863 22.7608L52.6018 22.86L52.5185 22.9674L52.4422 23.0748L52.3717 23.1861L52.3081 23.3037L52.2446 23.4226C52.202 23.5141 52.174 23.5878 52.1371 23.6826C52.1003 23.7773 52.0837 23.8491 52.0596 23.9425L52.0272 24.0824L52.003 24.2222L51.9846 24.3494L51.9763 24.4809V24.7651C51.9833 24.8598 51.9903 24.9348 52.003 25.0295C52.0157 25.1242 52.0354 25.2075 52.0564 25.3048L52.0901 25.4319C52.1212 25.5222 52.1492 25.6042 52.1848 25.6932L52.2414 25.8203L52.2992 25.9391L52.3685 26.0593L52.4422 26.175L52.523 26.2869L52.6063 26.3968L52.6952 26.496L52.8465 26.6543L52.9311 26.7305L53.0213 26.8081L53.1173 26.8818L53.2165 26.9454C53.2541 26.9728 53.2932 26.9983 53.3335 27.0217L53.4523 27.0897L53.575 27.1533L53.6977 27.2086L53.8305 27.2594L53.9577 27.3001L54.0893 27.337L54.2246 27.3668L54.3632 27.3923L54.4948 27.4075L54.6219 27.4177H54.9042L55.037 27.4075C55.1317 27.3961 55.215 27.3821 55.3085 27.3668L55.4413 27.337L55.5767 27.2988L55.7038 27.2582L55.831 27.2098L55.9581 27.152L56.0782 27.0884L56.1939 27.0249L56.3109 26.9498L56.4323 26.8634L56.534 26.7858L56.6427 26.6924C56.7133 26.6218 56.78 26.557 56.8487 26.4845C56.9052 26.4165 56.9529 26.3574 57.0069 26.2881L57.0832 26.1762C57.1112 26.1368 57.1366 26.0974 57.1608 26.0574L57.2288 25.9404L57.2924 25.8133L57.3477 25.6861L57.3998 25.552C57.4449 25.4147 57.4748 25.3035 57.5072 25.1624L57.5301 25.0225L57.5485 24.8897L57.5587 24.7625V24.4803L57.5485 24.3475C57.5358 24.2527 57.5231 24.1695 57.5078 24.076C57.5009 24.0404 57.4907 23.9928 57.4754 23.9362L57.4443 23.8135L57.3979 23.6762L57.3496 23.5548L57.293 23.4277L57.2294 23.305C57.2123 23.2694 57.1887 23.2287 57.1659 23.1861L57.0908 23.0691L57.012 22.9592L56.9243 22.8473C56.9033 22.8206 56.8722 22.7837 56.8328 22.7411C56.7622 22.6649 56.7056 22.6057 56.6268 22.5352L56.5276 22.4519C56.497 22.4239 56.4645 22.398 56.4304 22.3744C56.3134 22.2924 56.2098 22.2263 56.0827 22.1538L55.9626 22.0947C55.8723 22.054 55.7928 22.0228 55.7013 21.9872C55.6598 21.9706 55.6173 21.9564 55.5742 21.9447L55.447 21.9091L55.3097 21.8792L55.1712 21.8537L55.044 21.8366L54.9124 21.8264L54.6238 21.8296Z" fill="white"/>
    <path d="M22.319 21.8296L22.1875 21.8398L22.0603 21.8569L21.9205 21.8824L21.7819 21.9122L21.6548 21.9478C21.5209 21.9915 21.3894 22.042 21.2607 22.0991L21.1437 22.1627L21.028 22.2262L20.9136 22.2981L20.8017 22.3769L20.693 22.4614L20.5939 22.546C20.5188 22.621 20.454 22.6833 20.3822 22.7608L20.2957 22.86L20.2125 22.9674L20.1362 23.0748L20.0669 23.1861L19.9989 23.3037L19.9398 23.4226C19.8959 23.5141 19.8679 23.5878 19.8323 23.6826C19.7967 23.7773 19.7789 23.8491 19.7535 23.9425L19.7224 24.0824L19.6969 24.2222L19.6817 24.3494L19.6715 24.4809V24.7651C19.6785 24.8598 19.6842 24.9348 19.6969 25.0295C19.7096 25.1242 19.7306 25.2075 19.7522 25.3048L19.7859 25.4319C19.8158 25.5222 19.845 25.6042 19.8794 25.6932L19.9359 25.8203L19.9951 25.9391L20.0656 26.0593L20.1374 26.175L20.2163 26.2869L20.3008 26.3968L20.3885 26.496L20.5424 26.6543L20.6244 26.7305L20.7146 26.8081L20.8119 26.8818L20.9091 26.9454C20.953 26.9766 20.9937 27.002 21.028 27.0217L21.145 27.0897L21.2677 27.1533L21.3903 27.2086L21.5245 27.2594L21.6516 27.3001L21.7844 27.337L21.9186 27.3668L22.0584 27.3923L22.1855 27.4075L22.3171 27.4177H22.5994L22.7322 27.4075C22.8269 27.3961 22.9089 27.3821 23.0036 27.3668L23.1365 27.337L23.2719 27.2988L23.399 27.2582L23.5262 27.2098L23.6533 27.152L23.7747 27.0884L23.8904 27.0249L24.0074 26.9498L24.1275 26.8634L24.2292 26.7858L24.3379 26.6924C24.4097 26.6218 24.4765 26.557 24.5458 26.4845C24.6023 26.4165 24.65 26.3574 24.704 26.2881L24.7803 26.1762C24.807 26.1368 24.8337 26.0974 24.8566 26.0574L24.9246 25.9404L24.9882 25.8133L25.0435 25.6861L25.0956 25.552C25.1395 25.4147 25.1706 25.3035 25.2018 25.1624L25.2259 25.0225L25.2431 24.8897L25.2533 24.7625V24.4803L25.2431 24.3475C25.2316 24.2527 25.2189 24.1695 25.2024 24.076C25.1967 24.0404 25.1852 23.9928 25.1713 23.9362L25.1388 23.8135L25.0937 23.6762L25.0454 23.5548L24.9875 23.4277L24.924 23.305C24.9055 23.2694 24.8833 23.2287 24.856 23.1861L24.7822 23.0691L24.7047 22.9592L24.6157 22.8473C24.5947 22.8206 24.5648 22.7837 24.5254 22.7411C24.4549 22.6649 24.3938 22.6057 24.3195 22.5352L24.2203 22.4519C24.1936 22.4278 24.1612 22.4023 24.123 22.3744C24.0042 22.2924 23.9012 22.2263 23.7753 22.1538L23.6552 22.0947C23.5649 22.054 23.4855 22.0228 23.3927 21.9872C23.3513 21.9702 23.3088 21.956 23.2655 21.9447L23.1384 21.9091L23.003 21.8792L22.8619 21.8537L22.7348 21.8366L22.6032 21.8264L22.319 21.8296Z" fill="white"/>
    <path d="M56.0829 32.2141C56.6678 32.1181 57.2513 32.0488 57.8361 31.9643C58.4209 31.8798 59.0172 31.8372 59.5765 31.7424C62.8295 31.3058 65.8754 29.8994 68.3175 27.7066C69.8631 26.3071 71.0985 24.5994 71.9439 22.6934C72.7893 20.7874 73.2261 18.7255 73.2261 16.6404C73.2261 14.5553 72.7893 12.4934 71.9439 10.5874C71.0985 8.68139 69.8631 6.97366 68.3175 5.57417C65.8754 3.38138 62.8295 1.97501 59.5765 1.53834C59.0172 1.44109 58.4152 1.39405 57.8361 1.31523C57.257 1.2364 56.6678 1.16139 56.0829 1.06541V0.614724C57.257 0.436738 58.4082 0.275918 59.6001 0.169763C60.8339 0.0640871 62.0759 0.106767 63.2996 0.296893C65.8133 0.702885 68.1948 1.69981 70.248 3.20568C72.3318 4.75475 74.024 6.77019 75.189 9.09064C76.3758 11.4306 76.9943 14.0173 76.9943 16.641C76.9943 19.2647 76.3758 21.8515 75.189 24.1914C74.0236 26.5116 72.3315 28.527 70.248 30.0764C68.1948 31.5822 65.8133 32.5792 63.2996 32.9852C62.0758 33.1739 60.8339 33.2166 59.6001 33.1123C58.4076 33.0061 57.2564 32.8453 56.0829 32.6673V32.2141Z" fill="white"/>
    <path d="M22.2814 1.06463C21.0565 1.24833 19.8322 1.38945 18.606 1.52357L17.6862 1.62083L16.8192 1.74796C16.2459 1.82771 15.6793 1.94945 15.1239 2.11219C12.935 2.68527 10.9021 3.74083 9.17407 5.20152C7.48461 6.59021 6.12381 8.33597 5.18953 10.3133C4.25525 12.2907 3.77069 14.4504 3.77069 16.6374C3.77069 18.8243 4.25525 20.9841 5.18953 22.9615C6.12381 24.9388 7.48461 26.6846 9.17407 28.0733C10.9024 29.5338 12.9351 30.5897 15.1239 31.1638C15.6793 31.3266 16.2459 31.4483 16.8192 31.5281L17.6862 31.6552L18.606 31.7525C19.8322 31.8866 21.0571 32.0264 22.2814 32.2114V32.6564C21.0565 32.8401 19.8322 32.9812 18.606 33.1153L17.6862 33.2126L16.72 33.2507C16.0685 33.2807 15.4157 33.2642 14.7666 33.2011C12.1055 32.9545 9.55193 32.0305 7.34909 30.5174C5.08547 28.9998 3.23727 26.9403 1.97266 24.5263C0.677896 22.0966 0.000671387 19.3857 0.000671387 16.6326C0.000671387 13.8795 0.677896 11.1686 1.97266 8.73898C3.23763 6.32483 5.08574 4.26498 7.34909 2.74658C9.55202 1.23379 12.1056 0.31029 14.7666 0.0640912C15.4157 0.00105339 16.0685 -0.0155082 16.72 0.0145174L17.6862 0.0526556L18.606 0.149912C19.8322 0.284036 21.0571 0.423882 22.2814 0.60886V1.06463Z" fill="white"/>
</svg>