<svg width="24" height="24" viewBox="0 0 24 24" fill="none" xmlns="http://www.w3.org/2000/svg">
    <g filter="url(#filter0_b_86_5339)">
        <rect width="24" height="24" rx="12" fill="white"/>
        <path d="M8.03945 15.3449C7.79062 15.5937 7.78555 16.0355 8.04453 16.2945C8.30859 16.5535 8.75039 16.5484 8.99414 16.3047L12.0004 13.2984L15.0016 16.2996C15.2555 16.5535 15.6922 16.5535 15.9512 16.2945C16.2102 16.0305 16.2102 15.5988 15.9563 15.3449L12.9551 12.3437L15.9563 9.3375C16.2102 9.08359 16.2152 8.64687 15.9512 8.38789C15.6922 8.1289 15.2555 8.1289 15.0016 8.38281L12.0004 11.384L8.99414 8.38281C8.75039 8.13398 8.30352 8.12382 8.04453 8.38789C7.78555 8.64687 7.79062 9.09375 8.03945 9.3375L11.0406 12.3437L8.03945 15.3449Z" fill="#516266"/>
    </g>
    <defs>
        <filter id="filter0_b_86_5339" x="-54.3656" y="-54.3656" width="132.731" height="132.731" filterUnits="userSpaceOnUse" color-interpolation-filters="sRGB">
            <feFlood flood-opacity="0" result="BackgroundImageFix"/>
            <feGaussianBlur in="BackgroundImage" stdDeviation="27.1828"/>
            <feComposite in2="SourceAlpha" operator="in" result="effect1_backgroundBlur_86_5339"/>
            <feBlend mode="normal" in="SourceGraphic" in2="effect1_backgroundBlur_86_5339" result="shape"/>
        </filter>
    </defs>
</svg>