<svg width="21" height="21" viewBox="0 0 21 21" fill="none" xmlns="http://www.w3.org/2000/svg">
    <rect x="7" y="5" width="12" height="12" fill="#013646"/>
    <path d="M2.92969 20.8647C3.37636 20.5588 3.76921 20.3462 4.09377 20.0557C4.85215 19.3789 5.23696 18.5106 5.23696 17.4801C5.23776 12.8539 5.23535 8.22769 5.23856 3.60069C5.23937 2.01103 6.47655 0.801127 8.03669 0.899315C8.41347 0.922847 8.79427 1.07216 9.14855 1.2239C9.48115 1.36591 9.77759 1.38457 10.0965 1.21984C10.6846 0.915544 11.2767 0.620981 11.8663 0.319115C12.7035 -0.109341 13.5398 -0.10366 14.3753 0.319926C14.9569 0.614489 15.5401 0.904995 16.1178 1.20848C16.4463 1.38133 16.7637 1.39756 17.0906 1.21498C18.8765 0.219304 21.0143 1.55174 21.0006 3.66805C20.9709 8.25366 20.9934 12.8393 20.9902 17.4249C20.9886 19.426 19.4413 20.9961 17.4674 20.9978C12.8585 21.0018 8.24958 21.001 3.64067 20.9937C3.42296 20.9937 3.20524 20.9166 2.92969 20.8647ZM13.1108 9.707C13.1108 9.70781 13.1108 9.70862 13.1108 9.70943C14.2419 9.70943 15.373 9.71917 16.5034 9.70132C16.7203 9.69807 16.9629 9.6291 17.1445 9.51224C17.453 9.31425 17.5453 8.92149 17.4321 8.5685C17.31 8.18793 16.9966 7.97451 16.5203 7.9737C14.2483 7.97126 11.9764 7.97208 9.70448 7.97694C9.12686 7.97857 8.76294 8.3275 8.76535 8.84927C8.76776 9.36618 9.14052 9.70537 9.71734 9.70618C10.8485 9.70943 11.9796 9.707 13.1108 9.707ZM12.2712 13.2742C11.41 13.2742 10.548 13.271 9.68681 13.275C9.1357 13.2783 8.76615 13.6288 8.76535 14.136C8.76454 14.6407 9.13168 15.0108 9.67958 15.0132C11.3827 15.0213 13.0859 15.0213 14.7882 15.014C15.3489 15.0116 15.7394 14.6286 15.7281 14.1279C15.7161 13.6085 15.3473 13.2775 14.7657 13.275C13.9342 13.2718 13.1027 13.2742 12.2712 13.2742Z" fill="#61E4A3"/>
    <path d="M3.51203 8.61475C3.51203 8.98478 3.51203 9.31667 3.51203 9.64856C3.51203 12.2282 3.51203 14.8071 3.51203 17.3867C3.51203 18.4303 2.75526 19.2328 1.76712 19.2377C0.781385 19.2417 0.00372622 18.4376 0.00211949 17.4038C-0.00029061 15.371 -0.00109398 13.3375 0.00211949 11.3048C0.00452959 9.83844 1.10353 8.68291 2.55522 8.61718C2.85487 8.60339 3.15373 8.61475 3.51203 8.61475Z" fill="#61E4A3"/>
</svg>