<svg width="62" height="32" viewBox="0 0 62 32" fill="none" xmlns="http://www.w3.org/2000/svg">
    <rect width="62" height="32" rx="16" fill="#013646"/>
    <path d="M51 16L48 19L45 16" stroke="#F9FBFB" stroke-width="1.5" stroke-miterlimit="10" stroke-linecap="round" stroke-linejoin="round"/>
    <path d="M25 12.25C25 8.31497 21.81 5.125 17.875 5.125C13.94 5.125 10.75 8.31497 10.75 12.25C10.75 16.185 13.94 19.375 17.875 19.375H19V20.125C19 24.06 22.19 27.25 26.125 27.25C30.06 27.25 33.25 24.06 33.25 20.125C33.25 16.19 30.06 13 26.125 13H25V12.25ZM16.9518 8.5L14.5981 15.2172H16.1875L16.5703 14.125H19V17.875H17.875C14.7684 17.875 12.25 15.3566 12.25 12.25C12.25 9.1434 14.7684 6.625 17.875 6.625C20.9816 6.625 23.5 9.1434 23.5 12.25V13H20.3749L18.7984 8.5H16.9518ZM18.6542 12.625H17.0958L17.875 10.4013L18.6542 12.625ZM26.125 14.5C29.2316 14.5 31.75 17.0184 31.75 20.125C31.75 23.2316 29.2316 25.75 26.125 25.75C23.0184 25.75 20.5 23.2316 20.5 20.125V14.5H26.125Z" fill="white"/>
    <path d="M24.8796 21.2725C25.0231 21.5029 25.1811 21.724 25.3525 21.9344C24.8088 22.2276 24.1913 22.3745 23.5 22.375V23.875C24.6316 23.875 25.6427 23.5746 26.5 22.9926C27.3573 23.5746 28.3684 23.875 29.5 23.875V22.375C28.8102 22.375 28.1927 22.228 27.6475 21.934C27.819 21.7238 27.9769 21.5028 28.1204 21.2725C28.5527 20.5697 28.8706 19.8026 29.0623 19H29.875V17.5H27.25V16.375H25.75V17.5H23.125V19H23.9377C24.1294 19.8026 24.4473 20.5697 24.8796 21.2725ZM27.5092 19C27.354 19.5191 27.1319 20.0158 26.8483 20.4775C26.7423 20.6477 26.626 20.8113 26.5 20.9672C26.3831 20.8228 26.2747 20.6717 26.1752 20.5149C25.8801 20.0429 25.6498 19.5334 25.4906 19H27.5092Z" fill="white"/>
</svg>