<svg width="21" height="21" viewBox="0 0 21 21" fill="none" xmlns="http://www.w3.org/2000/svg">
    <g clip-path="url(#clip0_23_6595)">
        <path fill-rule="evenodd" clip-rule="evenodd" d="M10.1774 1.34818C5.0251 1.34818 0.848145 5.52514 0.848145 10.6774C0.848145 15.8297 5.0251 20.0067 10.1774 20.0067C15.3297 20.0067 19.5066 15.8297 19.5066 10.6774C19.5066 5.52514 15.3297 1.34818 10.1774 1.34818ZM14.2212 9.09993C14.2956 9.01482 14.3523 8.91567 14.3879 8.80832C14.4235 8.70098 14.4372 8.5876 14.4284 8.47486C14.4195 8.36212 14.3881 8.2523 14.3362 8.15185C14.2842 8.0514 14.2127 7.96236 14.1258 7.88996C14.0389 7.81757 13.9385 7.76327 13.8303 7.73028C13.7221 7.69729 13.6084 7.68627 13.496 7.69785C13.3835 7.70944 13.2744 7.74341 13.1752 7.79777C13.0761 7.85212 12.9888 7.92576 12.9185 8.01435L9.2716 12.3898L7.38455 10.5019C7.22459 10.3474 7.01036 10.2619 6.78799 10.2638C6.56561 10.2658 6.3529 10.3549 6.19565 10.5122C6.0384 10.6694 5.94921 10.8822 5.94728 11.1045C5.94534 11.3269 6.03083 11.5411 6.18532 11.7011L8.72966 14.2454C8.81299 14.3287 8.91276 14.3937 9.02261 14.4363C9.13246 14.4789 9.24997 14.4981 9.36767 14.4928C9.48536 14.4874 9.60065 14.4576 9.70618 14.4053C9.81172 14.3529 9.90518 14.2791 9.98062 14.1886L14.2212 9.09993Z" fill="#02272F"/>
    </g>
    <defs>
        <clipPath id="clip0_23_6595">
            <rect width="20.3547" height="20.3547" fill="white" transform="translate(0 0.500061)"/>
        </clipPath>
    </defs>
</svg>