<svg width="24" height="24" viewBox="0 0 24 24" fill="none" xmlns="http://www.w3.org/2000/svg">
    <path d="M3.184 11.336C3.18348 11.2505 3.13949 11.1712 3.06726 11.1255C2.99503 11.0797 2.90449 11.0739 2.827 11.11C1.1 11.927 0 13.041 0 14.439C0 16.439 2.378 18.073 6.412 18.896C6.52863 18.9194 6.61241 19.0221 6.612 19.141V20.6C6.61239 20.7979 6.73177 20.9761 6.91461 21.0518C7.09746 21.1275 7.30788 21.0858 7.448 20.946L9.694 18.7C9.78615 18.6083 9.83795 18.4836 9.83795 18.3535C9.83795 18.2235 9.78615 18.0988 9.694 18.007L7.448 15.765C7.30788 15.6253 7.09746 15.5836 6.91461 15.6592C6.73177 15.7349 6.61239 15.9131 6.612 16.111V16.623C6.61211 16.6992 6.57745 16.7713 6.51786 16.8189C6.45828 16.8664 6.38027 16.8841 6.306 16.867C3.319 16.175 1.959 15.081 1.959 14.439C1.959 14.045 2.388 13.584 3.176 13.144C3.27568 13.0884 3.32506 12.9724 3.296 12.862C3.22151 12.5774 3.18387 12.2843 3.184 11.99V11.336Z" fill="white"/>
    <path d="M21.1728 11.11C21.0953 11.0739 21.0048 11.0797 20.9325 11.1255C20.8603 11.1712 20.8163 11.2505 20.8158 11.336V11.99C20.8159 12.2843 20.7783 12.5774 20.7038 12.862C20.6747 12.9724 20.7241 13.0884 20.8238 13.144C21.6118 13.584 22.0408 14.044 22.0408 14.444C22.0408 15.408 19.3718 16.965 14.3608 17.377C13.8218 17.4215 13.4208 17.8945 13.4653 18.4335C13.5097 18.9726 13.9828 19.3735 14.5218 19.329C18.8938 18.965 23.9998 17.47 23.9998 14.439C23.9998 13.041 22.8998 11.927 21.1728 11.11Z" fill="white"/>
    <path fill-rule="evenodd" clip-rule="evenodd" d="M17.5 4.90601C18.6046 4.90601 19.5 5.80144 19.5 6.90601V11.907C19.5 13.0116 18.6046 13.907 17.5 13.907H6.5C5.39543 13.907 4.5 13.0116 4.5 11.907V6.90701C4.5 5.80244 5.39543 4.90701 6.5 4.90701H8C8.18376 4.89012 8.35808 4.81795 8.5 4.70001L9.793 3.40601C10.1222 3.0998 10.5507 2.92232 11 2.90601H13C13.4493 2.92232 13.8778 3.0998 14.207 3.40601L15.5 4.69901C15.6419 4.81695 15.8162 4.88912 16 4.90601H17.5ZM12 6.90601C10.6193 6.90601 9.5 8.02529 9.5 9.40601C9.5 10.7867 10.6193 11.906 12 11.906C13.3807 11.906 14.5 10.7867 14.5 9.40601C14.5 8.02529 13.3807 6.90601 12 6.90601Z" fill="white"/>
</svg>
