<svg width="25" height="24" viewBox="0 0 25 24" fill="none" xmlns="http://www.w3.org/2000/svg">
    <path d="M2.1206 1.64683C2.1206 2.37594 2.1228 3.09769 2.11913 3.82018C2.1184 3.95615 2.11179 4.09727 2.07801 4.22736C1.98622 4.57795 1.62419 4.83225 1.27318 4.81021C0.894994 4.78669 0.538841 4.49784 0.530764 4.1252C0.510937 3.19177 0.491844 2.2554 0.546919 1.32491C0.586573 0.657543 1.20782 0.0651451 1.88121 0.0306008C2.78518 -0.0157032 3.69355 -0.000268529 4.59899 0.0173711C4.98965 0.0247209 5.28853 0.371634 5.31496 0.760441C5.3392 1.12352 5.07704 1.48661 4.7106 1.57627C4.58797 1.60641 4.45726 1.61155 4.33022 1.61229C3.62526 1.61743 2.92029 1.6167 2.21533 1.61964C2.19771 1.61964 2.18082 1.62919 2.1206 1.64683Z" fill="#F0EEEC"/>
    <path d="M22.8811 1.61427C22.0961 1.61427 21.3463 1.63338 20.5988 1.60251C20.3711 1.59295 20.1148 1.49299 19.9327 1.35408C19.6845 1.16445 19.6221 0.863844 19.7315 0.55662C19.8416 0.246455 20.0605 0.0237538 20.3931 0.0178739C21.2993 0.000969226 22.2069 -0.0166705 23.1117 0.0296337C23.8181 0.0656481 24.4327 0.687447 24.4672 1.39745C24.5113 2.29266 24.4951 3.19228 24.4775 4.0897C24.4694 4.48366 24.1316 4.77986 23.7388 4.80999C23.3679 4.83866 22.9993 4.56451 22.9134 4.18378C22.8877 4.06912 22.8833 3.94785 22.8825 3.82952C22.8796 3.10703 22.8811 2.3838 22.8811 1.61427Z" fill="#F0EEEC"/>
    <path d="M2.11819 22.3872C2.90907 22.3872 3.65883 22.3695 4.40712 22.3982C4.62742 22.4063 4.87636 22.4989 5.05186 22.6319C5.31182 22.8282 5.37791 23.1347 5.26482 23.4514C5.15393 23.7616 4.9329 23.9784 4.59878 23.9836C3.69261 23.9975 2.78497 24.0159 1.881 23.9711C1.19073 23.9365 0.569482 23.3162 0.534968 22.6246C0.488705 21.7198 0.504126 20.8114 0.52175 19.9051C0.529094 19.5178 0.883043 19.2135 1.26783 19.1907C1.64235 19.1679 2.00437 19.4428 2.08735 19.825C2.11232 19.9397 2.11599 20.0609 2.11673 20.1793C2.11966 20.901 2.11819 21.6235 2.11819 22.3872Z" fill="#F0EEEC"/>
    <path d="M22.882 22.3875C22.882 21.6047 22.8842 20.8639 22.8813 20.123C22.8806 19.8459 22.9386 19.5953 23.1574 19.4057C23.3895 19.2043 23.6538 19.1315 23.9476 19.2388C24.245 19.3476 24.4689 19.5578 24.4741 19.879C24.4895 20.8124 24.5115 21.7488 24.4557 22.68C24.4161 23.3467 23.7875 23.9398 23.1185 23.9714C22.2145 24.014 21.3062 24.0016 20.4007 23.9824C20.0108 23.9744 19.709 23.6216 19.6877 23.2372C19.6664 22.8608 19.9418 22.5 20.3229 22.4184C20.4382 22.3941 20.5586 22.3897 20.6768 22.389C21.3979 22.386 22.1198 22.3875 22.882 22.3875Z" fill="#F0EEEC"/>
    <path d="M5.31525 9.58324C5.31525 8.80489 5.31525 8.04491 5.31525 7.28494C5.31525 6.74399 5.31304 6.20303 5.31598 5.66208C5.31892 5.13289 5.6266 4.81464 6.14725 4.81464C10.3822 4.81244 14.6163 4.81244 18.8512 4.81464C19.3388 4.81464 19.6766 5.11819 19.6796 5.57976C19.6876 6.88216 19.6818 8.18383 19.681 9.48623C19.681 9.51269 19.6715 9.53914 19.6634 9.58398C14.8946 9.58324 10.1251 9.58324 5.31525 9.58324Z" fill="#F0EEEC"/>
    <path d="M5.31445 14.4086C10.1177 14.4086 14.8806 14.4086 19.6641 14.4086C19.6707 14.4961 19.6817 14.5747 19.6824 14.6541C19.6839 15.8646 19.6839 17.0752 19.6832 18.2857C19.6824 18.8987 19.3887 19.1883 18.7675 19.1883C14.5876 19.189 10.4085 19.189 6.2287 19.1883C5.60966 19.1883 5.31592 18.8972 5.31592 18.2835C5.31445 17.0825 5.31592 15.8808 5.31592 14.6798C5.31445 14.5983 5.31445 14.5167 5.31445 14.4086Z" fill="#F0EEEC"/>
    <path d="M22.8658 12.7843C15.9425 12.7843 9.0456 12.7843 2.1333 12.7843C2.1333 12.261 2.1333 11.7516 2.1333 11.2231C9.04193 11.2231 15.9469 11.2231 22.8658 11.2231C22.8658 11.7421 22.8658 12.2514 22.8658 12.7843Z" fill="#F0EEEC"/>
</svg>