<svg width="16" height="16" viewBox="0 0 16 16" fill="none" xmlns="http://www.w3.org/2000/svg">
    <path fill-rule="evenodd" clip-rule="evenodd" d="M3.31464 11.9888C1.26839 10.8669 -0.00260946 8.71792 4.02274e-06 6.38434C0.00118057 3.6663 1.72249 1.24678 4.28986 0.354403C6.85723 -0.537977 9.70812 0.29231 11.3949 2.42365C13.0816 4.55499 13.2346 7.52038 11.7762 9.81401C11.7033 9.92857 11.7196 10.0784 11.8155 10.1745L14.6859 13.0449C15.1238 13.4984 15.1176 14.2191 14.6718 14.6648C14.2261 15.1105 13.5054 15.1168 13.052 14.6789L10.1816 11.8085C10.0858 11.7128 9.93639 11.6965 9.82219 11.7692C7.85621 13.0264 5.36088 13.1106 3.31464 11.9888ZM2.3111 6.38453C2.3111 8.63671 4.13686 10.4625 6.38904 10.4625C8.64017 10.4599 10.4644 8.63566 10.467 6.38453C10.467 4.13235 8.64123 2.30659 6.38904 2.30659C4.13686 2.30659 2.3111 4.13235 2.3111 6.38453Z" fill="#BDD2D9"/>
</svg>