<svg width="20" height="20" viewBox="0 0 20 20" fill="none" xmlns="http://www.w3.org/2000/svg">
    <path fill-rule="evenodd" clip-rule="evenodd" d="M16.6236 13.6005C16.5701 13.3056 16.6062 13.0014 16.7272 12.7272C16.8424 12.4583 17.0338 12.229 17.2777 12.0675C17.5216 11.906 17.8074 11.8193 18.0999 11.8181H18.1817C18.664 11.8181 19.1264 11.6266 19.4674 11.2856C19.8084 10.9446 19.9999 10.4822 19.9999 9.99996C19.9999 9.51775 19.8084 9.05529 19.4674 8.71432C19.1264 8.37334 18.664 8.18179 18.1817 8.18179H18.0272C17.7347 8.18062 17.4489 8.09394 17.205 7.93242C16.9611 7.7709 16.7697 7.54158 16.6545 7.2727V7.19997C16.5335 6.92578 16.4974 6.62162 16.5508 6.32671C16.6043 6.03181 16.7449 5.75969 16.9545 5.54543L17.009 5.49089C17.1781 5.32203 17.3122 5.1215 17.4037 4.90078C17.4952 4.68006 17.5423 4.44347 17.5423 4.20453C17.5423 3.96559 17.4952 3.729 17.4037 3.50828C17.3122 3.28755 17.1781 3.08703 17.009 2.91817C16.8402 2.74912 16.6396 2.61502 16.4189 2.52352C16.1982 2.43202 15.9616 2.38492 15.7227 2.38492C15.4837 2.38492 15.2471 2.43202 15.0264 2.52352C14.8057 2.61502 14.6052 2.74912 14.4363 2.91817L14.3818 2.97272C14.1675 3.18229 13.8954 3.32288 13.6005 3.37635C13.3056 3.42983 13.0014 3.39373 12.7272 3.27271C12.4583 3.15748 12.229 2.96613 12.0675 2.72223C11.906 2.47833 11.8193 2.19252 11.8181 1.89999V1.81817C11.8181 1.33596 11.6266 0.873505 11.2856 0.532531C10.9446 0.191557 10.4822 0 9.99996 0C9.51775 0 9.05529 0.191557 8.71432 0.532531C8.37334 0.873505 8.18179 1.33596 8.18179 1.81817V1.97272C8.18062 2.26525 8.09394 2.55106 7.93242 2.79496C7.7709 3.03886 7.54158 3.2302 7.2727 3.34544H7.19997C6.92578 3.46645 6.62162 3.50255 6.32671 3.44908C6.03181 3.39561 5.75969 3.25502 5.54543 3.04544L5.49089 2.9909C5.32203 2.82185 5.1215 2.68774 4.90078 2.59625C4.68006 2.50475 4.44347 2.45765 4.20453 2.45765C3.96559 2.45765 3.729 2.50475 3.50828 2.59625C3.28755 2.68774 3.08703 2.82185 2.91817 2.9909C2.74912 3.15976 2.61502 3.36028 2.52352 3.581C2.43202 3.80173 2.38492 4.03832 2.38492 4.27726C2.38492 4.51619 2.43202 4.75279 2.52352 4.97351C2.61502 5.19423 2.74912 5.39476 2.91817 5.56361L2.97272 5.61816C3.18229 5.83241 3.32288 6.10454 3.37635 6.39944C3.42983 6.69434 3.39373 6.9985 3.27271 7.2727C3.16882 7.55518 2.98235 7.79988 2.73753 7.97498C2.49272 8.15008 2.2009 8.24748 1.89999 8.25451H1.81817C1.33596 8.25451 0.873505 8.44607 0.532531 8.78705C0.191557 9.12802 0 9.59048 0 10.0727C0 10.5549 0.191557 11.0174 0.532531 11.3583C0.873505 11.6993 1.33596 11.8909 1.81817 11.8909H1.97272C2.26525 11.892 2.55106 11.9787 2.79496 12.1402C3.03886 12.3018 3.2302 12.5311 3.34544 12.8C3.46645 13.0741 3.50255 13.3783 3.44908 13.6732C3.39561 13.9681 3.25502 14.2402 3.04544 14.4545L2.9909 14.509C2.82185 14.6779 2.68774 14.8784 2.59625 15.0991C2.50475 15.3199 2.45765 15.5565 2.45765 15.7954C2.45765 16.0343 2.50475 16.2709 2.59625 16.4916C2.68774 16.7124 2.82185 16.9129 2.9909 17.0818C3.15976 17.2508 3.36028 17.3849 3.581 17.4764C3.80173 17.5679 4.03832 17.615 4.27726 17.615C4.51619 17.615 4.75279 17.5679 4.97351 17.4764C5.19423 17.3849 5.39476 17.2508 5.56361 17.0818L5.61816 17.0272C5.83241 16.8176 6.10454 16.677 6.39944 16.6236C6.69434 16.5701 6.9985 16.6062 7.2727 16.7272C7.55518 16.8311 7.79988 17.0176 7.97498 17.2624C8.15008 17.5072 8.24748 17.799 8.25451 18.0999V18.1817C8.25451 18.664 8.44607 19.1264 8.78705 19.4674C9.12802 19.8084 9.59048 19.9999 10.0727 19.9999C10.5549 19.9999 11.0174 19.8084 11.3583 19.4674C11.6993 19.1264 11.8909 18.664 11.8909 18.1817V18.0272C11.892 17.7347 11.9787 17.4489 12.1402 17.205C12.3018 16.9611 12.5311 16.7697 12.8 16.6545C13.0741 16.5335 13.3783 16.4974 13.6732 16.5508C13.9681 16.6043 14.2402 16.7449 14.4545 16.9545L14.509 17.009C14.6779 17.1781 14.8784 17.3122 15.0991 17.4037C15.3199 17.4952 15.5565 17.5423 15.7954 17.5423C16.0343 17.5423 16.2709 17.4952 16.4916 17.4037C16.7124 17.3122 16.9129 17.1781 17.0818 17.009C17.2508 16.8402 17.3849 16.6396 17.4764 16.4189C17.5679 16.1982 17.615 15.9616 17.615 15.7227C17.615 15.4837 17.5679 15.2471 17.4764 15.0264C17.3849 14.8057 17.2508 14.6052 17.0818 14.4363L17.0272 14.3818C16.8176 14.1675 16.677 13.8954 16.6236 13.6005ZM12.7273 10C12.7273 11.5062 11.5062 12.7273 10 12.7273C8.49377 12.7273 7.27273 11.5062 7.27273 10C7.27273 8.49378 8.49377 7.27275 10 7.27275C11.5062 7.27275 12.7273 8.49378 12.7273 10Z" fill="#013646"/>
</svg>