<?xml version="1.0" encoding="iso-8859-1"?>
<!-- Generator: Adobe Illustrator 19.0.0, SVG Export Plug-In . SVG Version: 6.00 Build 0)  -->
<svg version="1.1" id="Layer_1" xmlns="http://www.w3.org/2000/svg" xmlns:xlink="http://www.w3.org/1999/xlink" x="0px" y="0px"
	 viewBox="0 0 512.001 512.001" style="enable-background:new 0 0 512.001 512.001;" xml:space="preserve">
<path style="fill:#BD6428;" d="M139.983,64.001h288c17.672,0,32,14.328,32,32v384c0,17.672-14.328,32-32,32h-288
	c-17.672,0-32-14.328-32-32v-384C107.983,78.329,122.311,64.001,139.983,64.001z"/>
<path style="fill:#F5F6F6;" d="M147.983,480.001c-4.416,0-8-3.584-8-8v-368c0-4.416,3.584-8,8-8h272c4.416,0,8,3.584,8,8v288l-88,88
	H147.983z"/>
<path style="fill:#A35623;" d="M203.983,96.001h-16v-16c0-8.84,7.16-16,16-16l0,0V96.001z"/>
<path style="fill:#CECECE;" d="M427.983,392.001h-80c-4.416,0-8,3.584-8,8v80L427.983,392.001z"/>
<path style="fill:#D17F4D;" d="M115.983,88.001L115.983,88.001c4.416,0,8,3.584,8,8v264c0,4.416-3.584,8-8,8l0,0
	c-4.416,0-8-3.584-8-8v-264C107.983,91.585,111.567,88.001,115.983,88.001z"/>
<g>
	<path style="fill:#E9E9E9;" d="M331.983,408.001v16c0,4.416-3.584,8-8,8l0,0c-4.416,0-8,3.584-8,8s-3.584,8-8,8h-8
		c-4.416,0-8,3.584-8,8s-3.584,8-8,8h-144v8c0,4.416,3.584,8,8,8h192v-80C335.567,400.001,331.983,403.585,331.983,408.001z"/>
	<path style="fill:#E9E9E9;" d="M419.983,96.001h-232c0.128,2.4,0.128,4.8,0,7.2c-0.44,8.824,6.352,16.336,15.176,16.776
		c0.28,0.016,0.552,0.024,0.824,0.024h192c8.84,0,16,7.16,16,16v24l0,0c0,8.84,7.16,16,16,16l0,0v-72
		C427.983,99.585,424.399,96.001,419.983,96.001z"/>
</g>
<path style="fill:#9BA7AF;" d="M336.703,45.121c-6.96-2.872-12.232-8.76-14.32-16c-6.184-21.208-28.392-33.384-49.6-27.2
	c-13.12,3.824-23.376,14.08-27.2,27.2c-2.088,7.24-7.36,13.128-14.32,16l-17.2,6.88c-6.064,2.416-10.056,8.272-10.08,14.8v29.2
	c0,8.84,7.16,16,16,16h128c8.84,0,16-7.16,16-16v-29.2c-0.024-6.528-4.016-12.384-10.08-14.8L336.703,45.121z M283.983,56.001
	c-8.84,0-16-7.16-16-16s7.16-16,16-16s16,7.16,16,16S292.823,56.001,283.983,56.001z"/>
<path style="fill:#72818B;" d="M339.983,64.001c-4.416,0-8,3.584-8,8l0,0c0,4.416-3.584,8-8,8h-16c-4.416,0-8,3.584-8,8l0,0
	c0,4.416-3.584,8-8,8h-88c0,8.84,7.16,16,16,16h128c8.84,0,16-7.16,16-16v-32H339.983z"/>
<path style="fill:#AFBABF;" d="M253.023,40.001c-4.416,0.144-8.112-3.328-8.248-7.744c-0.024-0.76,0.064-1.52,0.248-2.256
	c4.584-17.744,20.632-30.104,38.96-30c4.416,0,8,3.584,8,8s-3.584,8-8,8c-10.96-0.016-20.544,7.392-23.28,18
	C259.799,37.513,256.647,39.969,253.023,40.001z"/>
<path style="fill:#A35623;" d="M427.983,80.001h-32c-8.84,0-16-7.16-16-16h-16v32h56c4.416,0,8,3.584,8,8v288l-88,88h-192
	c0,8.84,7.16,16,16,16h194.72c8.488,0.008,16.632-3.36,22.64-9.36l53.28-53.28c6-6.008,9.368-14.152,9.36-22.64V96.001
	C443.983,87.169,436.823,80.001,427.983,80.001z"/>
<g>
	<path style="fill:#CECECE;" d="M191.983,224.001h184c6.624,0,12,5.376,12,12l0,0c0,6.624-5.376,12-12,12h-184
		c-6.624,0-12-5.376-12-12l0,0C179.983,229.377,185.359,224.001,191.983,224.001z"/>
	<path style="fill:#CECECE;" d="M191.983,272.001h184c6.624,0,12,5.376,12,12l0,0c0,6.624-5.376,12-12,12h-184
		c-6.624,0-12-5.376-12-12l0,0C179.983,277.377,185.359,272.001,191.983,272.001z"/>
	<path style="fill:#CECECE;" d="M191.983,320.001h184c6.624,0,12,5.376,12,12l0,0c0,6.624-5.376,12-12,12h-184
		c-6.624,0-12-5.376-12-12l0,0C179.983,325.377,185.359,320.001,191.983,320.001z"/>
	<path style="fill:#CECECE;" d="M191.983,368.001h104c6.624,0,12,5.376,12,12l0,0c0,6.624-5.376,12-12,12h-104
		c-6.624,0-12-5.376-12-12l0,0C179.983,373.377,185.359,368.001,191.983,368.001z"/>
	<path style="fill:#CECECE;" d="M231.983,160.001h104c6.624,0,12,5.376,12,12l0,0c0,6.624-5.376,12-12,12h-104
		c-6.624,0-12-5.376-12-12l0,0C219.983,165.377,225.359,160.001,231.983,160.001z"/>
</g>
<path style="fill:#A35623;" d="M107.983,383.201v16.8c0,4.416,3.584,8,8,8s8-3.584,8-8v-8c0-4.416,3.584-8,8-8c4.416,0,8-3.584,8-8
	v-24L107.983,383.201z"/>
<path style="fill:#595A66;" d="M130.783,296.001L130.783,296.001c1.12,2.616,0.848,5.624-0.72,8c-2.76,5.024-4.808,10.408-6.08,16
	l-67.28,68.72c-6.248,6.248-6.248,16.392,0,22.64s16.392,6.248,22.64,0l68.64-67.36c5.352-1.384,10.488-3.488,15.28-6.24
	c2.376-1.568,5.384-1.84,8-0.72l0,0C153.143,328.865,138.711,314.233,130.783,296.001z"/>
<path style="fill:#35363E;" d="M131.983,299.441c8.464,16.888,22.632,30.24,40,37.68l0,0c-2.616-1.12-5.624-0.848-8,0.72
	c-5.024,2.784-10.408,4.856-16,6.16c0,0-21.52,21.28-26.24,25.76L131.983,299.441z"/>
<path style="fill:#953F27;" d="M123.983,320.001l-67.28,68.72c-6.248,6.248-6.248,16.392,0,22.64s16.392,6.248,22.64,0l68.64-67.36
	L123.983,320.001z"/>
<path style="fill:#81301C;" d="M79.263,411.281l68.72-67.28l-12.48-12.48l-67.52,68.48c-3.488,2.76-4.08,7.832-1.32,11.32
	c2.76,3.488,7.832,4.08,11.32,1.32L79.263,411.281z"/>
<circle style="fill:#595A66;" cx="211.983" cy="256.001" r="96"/>
<circle style="fill:#CDE3EA;" cx="211.983" cy="256.001" r="64"/>
<path style="fill:#6F707E;" d="M211.983,336.001c-4.416,0-8-3.584-8-8s3.584-8,8-8c35.344,0,64-28.656,64-64c0-4.416,3.584-8,8-8
	s8,3.584,8,8C291.983,300.185,256.167,336.001,211.983,336.001z"/>
<path style="fill:#35363E;" d="M211.983,176.001c4.416,0,8,3.584,8,8s-3.584,8-8,8c-35.344,0-64,28.656-64,64c0,4.416-3.584,8-8,8
	s-8-3.584-8-8C131.983,211.817,167.799,176.001,211.983,176.001z"/>
<path style="fill:#F5F6F6;" d="M251.983,256.001c4.416,0,8-3.584,8-8c0-22.088-17.912-40-40-40c-4.416,0-8,3.584-8,8s3.584,8,8,8
	c13.256,0,24,10.744,24,24C243.983,252.417,247.567,256.001,251.983,256.001z"/>
<g>
	<path style="fill:#9BA7AF;" d="M191.983,248.001h83.44c-1.032-8.456-3.752-16.616-8-24h-75.44c-6.624,0-12,5.376-12,12l0,0
		C179.983,242.633,185.359,248.001,191.983,248.001z"/>
	<path style="fill:#9BA7AF;" d="M179.983,284.001L179.983,284.001c0,6.624,5.376,12,12,12h69.92c5.648-7.064,9.744-15.24,12-24
		h-81.92C185.359,272.001,179.983,277.377,179.983,284.001z"/>
</g>
<path style="fill:#CECECE;" d="M219.983,224.001c13.256,0,24,10.744,24,24h16c0-8.656-2.808-17.08-8-24H219.983z"/>
<path style="fill:#E9E9E9;" d="M147.983,344.001l-8,8v24c8.84,0,16-7.16,16-16c0-4.416,3.584-8,8-8h48
	c-17.432-0.008-34.536-4.8-49.44-13.84C157.943,340.697,153.055,342.657,147.983,344.001z"/>
<g>
</g>
<g>
</g>
<g>
</g>
<g>
</g>
<g>
</g>
<g>
</g>
<g>
</g>
<g>
</g>
<g>
</g>
<g>
</g>
<g>
</g>
<g>
</g>
<g>
</g>
<g>
</g>
<g>
</g>
</svg>
