<svg width="20" height="21" viewBox="0 0 20 21" fill="none" xmlns="http://www.w3.org/2000/svg">
    <rect y="0.145508" width="20" height="20" rx="4" fill="#FF4545"/>
    <path d="M10.0252 10.429C10.1558 10.429 10.2811 10.3771 10.3734 10.2847C10.4658 10.1924 10.5177 10.0671 10.5177 9.9365V7.97642C10.5177 7.84581 10.4658 7.72054 10.3734 7.62818C10.2811 7.53583 10.1558 7.48394 10.0252 7.48394C9.89458 7.48394 9.76932 7.53583 9.67696 7.62818C9.5846 7.72054 9.53271 7.84581 9.53271 7.97642V9.9365C9.53271 10.0671 9.5846 10.1924 9.67696 10.2847C9.76932 10.3771 9.89458 10.429 10.0252 10.429Z" fill="black"/>
    <path d="M10.0253 12.3989C10.3653 12.3989 10.6409 12.1233 10.6409 11.7833C10.6409 11.4433 10.3653 11.1677 10.0253 11.1677C9.68528 11.1677 9.40967 11.4433 9.40967 11.7833C9.40967 12.1233 9.68528 12.3989 10.0253 12.3989Z" fill="black"/>
    <path d="M13.6222 6.76787C13.0472 6.11624 12.3059 5.63313 11.4775 5.37021C10.6492 5.10729 9.76501 5.07443 8.91945 5.27516C8.06143 5.49058 7.27492 5.92731 6.63846 6.54174C6.00199 7.15617 5.53783 7.9268 5.29232 8.77671C5.28421 8.80485 5.26629 8.82916 5.24181 8.84524C5.21733 8.86132 5.1879 8.8681 5.15886 8.86437L4.65012 8.80035C4.60501 8.79455 4.55917 8.80159 4.51788 8.82067C4.47659 8.83975 4.44151 8.87009 4.41668 8.9082C4.39119 8.94624 4.37681 8.99063 4.37516 9.03639C4.37351 9.08215 4.38465 9.12747 4.40733 9.16725L5.62671 11.3056C5.64573 11.3388 5.67223 11.3672 5.70412 11.3884C5.73601 11.4096 5.7724 11.4231 5.81041 11.4277C5.82057 11.4285 5.83078 11.4285 5.84094 11.4277C5.87393 11.4277 5.90657 11.4211 5.93694 11.4083C5.96731 11.3954 5.99479 11.3766 6.01775 11.3529L7.73011 9.5834C7.76198 9.55043 7.78401 9.50922 7.79373 9.46441C7.80345 9.4196 7.80046 9.37297 7.7851 9.32976C7.76974 9.28656 7.74263 9.2485 7.70681 9.21987C7.67099 9.19125 7.62789 9.17319 7.58236 9.16774L6.65748 9.05348C6.63933 9.05092 6.62198 9.04434 6.60669 9.03421C6.59141 9.02409 6.57858 9.01068 6.56914 8.99496C6.5597 8.97925 6.55389 8.96162 6.55213 8.94337C6.55038 8.92513 6.55272 8.90672 6.55898 8.88949C6.76712 8.3004 7.11759 7.77186 7.57922 7.35086C8.04086 6.92986 8.59937 6.62945 9.20509 6.47632C9.83372 6.32692 10.4911 6.3512 11.107 6.54655C11.7229 6.7419 12.2741 7.10098 12.7017 7.58539C12.8099 7.70765 12.9623 7.78191 13.1252 7.79184C13.2882 7.80177 13.4484 7.74655 13.5707 7.63834C13.693 7.53012 13.7672 7.37777 13.7771 7.21481C13.7871 7.05184 13.7319 6.89161 13.6236 6.76935L13.6222 6.76787Z" fill="black"/>
    <path d="M6.4795 12.8934C6.41896 12.947 6.36957 13.0119 6.33416 13.0846C6.29874 13.1572 6.278 13.2362 6.2731 13.3168C6.26821 13.3975 6.27926 13.4784 6.30564 13.5548C6.33201 13.6312 6.37318 13.7016 6.4268 13.7621C7.00199 14.4135 7.74332 14.8964 8.5716 15.1592C9.39988 15.422 10.284 15.4549 11.1295 15.2544C11.9887 15.0392 12.7762 14.602 13.4131 13.9865C14.05 13.3711 14.514 12.5991 14.7586 11.7479C14.7668 11.7198 14.7846 11.6956 14.809 11.6795C14.8333 11.6633 14.8626 11.6563 14.8916 11.6597L15.4126 11.7223C15.4225 11.723 15.4324 11.723 15.4422 11.7223C15.4854 11.7223 15.5279 11.7109 15.5653 11.6893C15.6027 11.6677 15.6338 11.6366 15.6554 11.5991C15.677 11.5617 15.6884 11.5193 15.6884 11.476C15.6884 11.4328 15.677 11.3903 15.6554 11.3529L14.4242 9.22095C14.4048 9.18805 14.3781 9.16011 14.346 9.13934C14.3139 9.11857 14.2775 9.10554 14.2395 9.10128C14.2016 9.09629 14.1629 9.10043 14.1269 9.11337C14.0908 9.1263 14.0584 9.14765 14.0322 9.17564L12.3302 10.9555C12.2986 10.9885 12.2768 11.0296 12.2673 11.0743C12.2577 11.1189 12.2608 11.1654 12.2761 11.2084C12.2914 11.2514 12.3184 11.2893 12.3541 11.3179C12.3897 11.3465 12.4326 11.3646 12.4779 11.3701L13.388 11.479C13.4064 11.4812 13.4241 11.4875 13.4397 11.4974C13.4553 11.5074 13.4685 11.5208 13.4782 11.5366C13.4878 11.5524 13.4939 11.5701 13.4958 11.5885C13.4978 11.6069 13.4956 11.6255 13.4895 11.643C13.282 12.2321 12.932 12.7607 12.4706 13.1818C12.0093 13.6028 11.4509 13.9032 10.8454 14.0561C10.2167 14.2052 9.55932 14.1807 8.94348 13.9853C8.32763 13.7899 7.77643 13.4309 7.34873 12.9466C7.29524 12.8859 7.23028 12.8363 7.15759 12.8008C7.08491 12.7653 7.00592 12.7444 6.92516 12.7395C6.8444 12.7345 6.76346 12.7456 6.68698 12.772C6.61051 12.7984 6.54 12.8397 6.4795 12.8934Z" fill="black"/>
</svg>