<svg width="20" height="20" viewBox="0 0 20 20" fill="none" xmlns="http://www.w3.org/2000/svg">
    <path fill-rule="evenodd" clip-rule="evenodd" d="M10 0.000244141C4.47715 0.000244141 0 4.47728 0 9.99998C0 15.5227 4.47715 19.9997 10 19.9997C15.5228 19.9997 20 15.5227 20 9.99998C19.994 4.47975 15.5204 0.00621469 10 0.000244141ZM10.2085 4.16676C10.8989 4.16676 11.4585 4.72639 11.4585 5.41673C11.4585 6.10707 10.8989 6.6667 10.2085 6.6667C9.51817 6.6667 8.95853 6.10707 8.95853 5.41673C8.95853 4.72639 9.51817 4.16676 10.2085 4.16676ZM8.7498 15.4165H12.0831C12.5434 15.4165 12.9165 15.0434 12.9165 14.5832C12.9165 14.1229 12.5434 13.7498 12.0831 13.7498H11.4581C11.3431 13.7498 11.2498 13.6566 11.2498 13.5415V9.58329C11.2498 8.66284 10.5036 7.91666 9.58314 7.91666H8.7498C8.28957 7.91666 7.91647 8.28975 7.91647 8.74998C7.91647 9.2102 8.28957 9.58329 8.7498 9.58329H9.3748C9.48986 9.58329 9.58314 9.67656 9.58314 9.79161V13.5415C9.58314 13.6566 9.48986 13.7498 9.3748 13.7498H8.7498C8.28957 13.7498 7.91647 14.1229 7.91647 14.5832C7.91647 15.0434 8.28957 15.4165 8.7498 15.4165Z" fill="#02272F"/>
</svg>
