<svg width="22" height="22" viewBox="0 0 22 22" fill="none" xmlns="http://www.w3.org/2000/svg">
    <path d="M5 11C5 11.4142 5.33579 11.75 5.75 11.75H10.125C10.194 11.75 10.25 11.806 10.25 11.875V16.25C10.25 16.6642 10.5858 17 11 17C11.4142 17 11.75 16.6642 11.75 16.25V11.875C11.75 11.806 11.806 11.75 11.875 11.75H16.25C16.6642 11.75 17 11.4142 17 11C17 10.5858 16.6642 10.25 16.25 10.25H11.875C11.806 10.25 11.75 10.194 11.75 10.125V5.75C11.75 5.33579 11.4142 5 11 5C10.5858 5 10.25 5.33579 10.25 5.75V10.125C10.25 10.194 10.194 10.25 10.125 10.25H5.75C5.33579 10.25 5 10.5858 5 11Z" fill="#02272F"/>
</svg>
