<svg width="44" height="44" viewBox="0 0 44 44" fill="none" xmlns="http://www.w3.org/2000/svg">
    <rect width="44" height="44" rx="22" fill="#5A59FD"/>
    <path fill-rule="evenodd" clip-rule="evenodd" d="M22.0326 16.118C23.515 16.118 24.7166 14.9163 24.7166 13.434C24.7166 11.9517 23.515 10.75 22.0326 10.75C20.5503 10.75 19.3486 11.9517 19.3486 13.434C19.3486 14.9163 20.5503 16.118 22.0326 16.118Z" stroke="white" stroke-width="1.5" stroke-linecap="round" stroke-linejoin="round"/>
    <path d="M25.2305 22.625C25.8497 22.615 26.4345 22.9095 26.7951 23.413C27.1557 23.9165 27.2463 24.5649 27.0375 25.148" stroke="white" stroke-width="1.5" stroke-linecap="round" stroke-linejoin="round"/>
    <path d="M22.0332 16.118V33.25" stroke="white" stroke-width="1.5" stroke-linecap="round" stroke-linejoin="round"/>
    <path d="M24.4941 14.5H32.3831C35.0601 14.5 31.1831 20.953 25.6111 18.8" stroke="white" stroke-width="1.5" stroke-linecap="round" stroke-linejoin="round"/>
    <path d="M19.5691 14.5H11.6821C9.00605 14.5 12.8821 20.953 18.4541 18.8" stroke="white" stroke-width="1.5" stroke-linecap="round" stroke-linejoin="round"/>
    <path d="M18.835 22.625C17.788 22.6144 16.9297 23.453 16.916 24.5C16.9215 25.565 17.7704 26.4338 18.835 26.464H23.951C25.0108 26.464 25.87 27.3231 25.87 28.383C25.87 29.4428 25.0108 30.302 23.951 30.302H20.434C19.5297 30.3227 18.8133 31.0726 18.834 31.977C18.8315 32.4481 19.0236 32.8993 19.365 33.224" stroke="white" stroke-width="1.5" stroke-linecap="round" stroke-linejoin="round"/>
</svg>
