<svg width="20" height="20" viewBox="0 0 20 20" fill="none" xmlns="http://www.w3.org/2000/svg">
<path d="M14.0585 12.4999C14.1668 11.6665 14.1668 10.8332 14.1668 9.99986C14.1668 9.16652 14.1252 8.33319 14.0585 7.49986H18.8085C19.2863 9.13228 19.2863 10.8674 18.8085 12.4999H14.0585ZM12.1918 5.83319C11.6668 2.57486 10.6252 0.833191 10.0002 0.833191C9.37517 0.833191 8.3335 2.57486 7.8085 5.83319H12.1918ZM7.8085 14.1665C8.32517 17.4249 9.37517 19.1665 10.0002 19.1665C10.6252 19.1665 11.6668 17.4249 12.1918 14.1665H7.8085ZM12.3918 7.49986H7.6085C7.54183 8.27486 7.50017 9.09986 7.50017 9.99986C7.50017 10.8999 7.54183 11.7249 7.6085 12.4999H12.3918C12.4585 11.7249 12.5002 10.8999 12.5002 9.99986C12.5002 9.09986 12.5002 8.27486 12.3918 7.49986ZM5.8335 9.99986C5.8335 9.16652 5.8335 8.33319 5.94183 7.49986H1.19183C0.71405 9.13228 0.71405 10.8674 1.19183 12.4999H5.94183C5.87517 11.6665 5.8335 10.8332 5.8335 9.99986ZM6.1335 14.1665H1.84183C2.41651 15.2858 3.21546 16.2748 4.18892 17.0719C5.16239 17.869 6.28953 18.4572 7.50017 18.7999C6.802 17.3376 6.34069 15.7736 6.1335 14.1665ZM13.8668 14.1665C13.6596 15.7736 13.1983 17.3376 12.5002 18.7999C13.7108 18.4572 14.8379 17.869 15.8114 17.0719C16.7849 16.2748 17.5838 15.2858 18.1585 14.1665H13.8668ZM13.8668 5.83319H18.1585C17.5838 4.71391 16.7849 3.72492 15.8114 2.9278C14.8379 2.13068 13.7108 1.54249 12.5002 1.19986C13.1983 2.66214 13.6596 4.22609 13.8668 5.83319ZM6.1335 5.83319C6.34069 4.22609 6.802 2.66214 7.50017 1.19986C6.28953 1.54249 5.16239 2.13068 4.18892 2.9278C3.21546 3.72492 2.41651 4.71391 1.84183 5.83319H6.1335Z" fill="#F9FBFB"/>
</svg>
