<svg width="22" height="22" viewBox="0 0 22 22" fill="none" xmlns="http://www.w3.org/2000/svg">
<path d="M7.24902 14.7491V9.74915" stroke="white" stroke-width="1.5" stroke-linecap="round" stroke-linejoin="round"/>
<path d="M4.74902 10.9991V9.74915H9.74902V10.9991" stroke="white" stroke-width="1.5" stroke-linecap="round" stroke-linejoin="round"/>
<path d="M12.874 13.4991H17.249" stroke="white" stroke-width="1.5" stroke-linecap="round" stroke-linejoin="round"/>
<path d="M12.874 9.74915H17.249" stroke="white" stroke-width="1.5" stroke-linecap="round" stroke-linejoin="round"/>
<path d="M4.74902 17.2491H17.249" stroke="white" stroke-width="1.5" stroke-linecap="round" stroke-linejoin="round"/>
<path d="M5.99902 14.7491H8.49902" stroke="white" stroke-width="1.5" stroke-linecap="round" stroke-linejoin="round"/>
<path fill-rule="evenodd" clip-rule="evenodd" d="M20.0074 5.63331C20.242 5.86771 20.374 6.18578 20.374 6.51748V18.5C20.3736 19.5349 19.5347 20.3737 18.4999 20.3741H3.49986C3.00258 20.3744 2.52557 20.177 2.17379 19.8256C1.822 19.4741 1.62424 18.9973 1.62402 18.5V3.49998C1.6238 3.00241 1.82136 2.52516 2.1732 2.17332C2.52503 1.82149 3.00229 1.62392 3.49986 1.62415H15.4807C15.8124 1.62422 16.1305 1.75612 16.3649 1.99081L20.0074 5.63331Z" stroke="white" stroke-width="1.5" stroke-linecap="round" stroke-linejoin="round"/>
<path d="M15.374 1.62415V5.37415C15.374 6.0645 15.9337 6.62415 16.624 6.62415H20.374" stroke="white" stroke-width="1.5" stroke-linecap="round" stroke-linejoin="round"/>
</svg>
