<svg width="19" height="16" viewBox="0 0 19 16" fill="none" xmlns="http://www.w3.org/2000/svg">
    <g clip-path="url(#clip0)">
        <rect x="5.81853" y="5.09082" width="6.54531" height="8.72709" fill="#02272F"/>
        <path d="M9.0809 15.9989C6.95504 15.9989 4.82975 16.0023 2.7039 15.9971C1.41654 15.9942 0.295504 15.0691 0.0471458 13.7977C-0.0798816 13.1469 0.054551 12.5385 0.392911 11.9684C2.12686 9.04915 3.85626 6.12646 5.58736 3.20552C5.93199 2.62376 6.27604 2.04143 6.62124 1.45968C7.7736 -0.482785 10.4002 -0.488005 11.552 1.45272C13.63 4.95484 15.6949 8.4645 17.7831 11.9597C18.8079 13.6753 17.7336 15.6381 15.9239 15.9542C15.7427 15.9855 15.5564 15.996 15.3725 15.9965C13.2751 16 11.1783 15.9989 9.0809 15.9989ZM9.90971 7.59332C9.90971 7.051 9.91199 6.50927 9.90914 5.96696C9.90686 5.43625 9.55882 5.0604 9.07976 5.06504C8.61038 5.06968 8.26918 5.44321 8.26804 5.9629C8.26576 7.03998 8.26576 8.11649 8.26804 9.19357C8.26918 9.72776 8.61266 10.0961 9.09742 10.092C9.57192 10.0885 9.90686 9.72196 9.90914 9.19705C9.91199 8.66286 9.90971 8.12809 9.90971 7.59332ZM9.08204 10.9586C8.63146 10.9609 8.27032 11.3263 8.26804 11.7822C8.26576 12.2456 8.63488 12.6174 9.09457 12.6145C9.54458 12.6122 9.90572 12.2462 9.908 11.7903C9.91142 11.3263 9.54344 10.9562 9.08204 10.9586Z" fill="#F86458"/>
    </g>
    <defs>
        <clipPath id="clip0">
            <rect width="18.181" height="16" fill="white"/>
        </clipPath>
    </defs>
</svg>
