<svg width="20" height="20" viewBox="0 0 20 20" fill="none" xmlns="http://www.w3.org/2000/svg">
    <path fill-rule="evenodd" clip-rule="evenodd" d="M10 0.000244141C4.47715 0.000244141 0 4.47728 0 9.99998C0 15.5227 4.47715 19.9997 10 19.9997C15.5228 19.9997 20 15.5227 20 9.99998C19.994 4.47975 15.5204 0.00621469 10 0.000244141ZM10 15.8332C9.30964 15.8332 8.75 15.2735 8.75 14.5832C8.75 13.8929 9.30964 13.3332 10 13.3332C10.6904 13.3332 11.25 13.8929 11.25 14.5832C11.25 15.2735 10.6904 15.8332 10 15.8332ZM10.8333 11.5308C10.8332 11.1993 11.0295 10.8992 11.3333 10.7666V10.7675C12.8592 10.1015 13.6597 8.41196 13.2087 6.80944C12.7576 5.20692 11.1933 4.18289 9.54416 4.41056C7.89497 4.63822 6.66664 6.04776 6.66667 7.71254C6.66667 8.17276 7.03976 8.54585 7.5 8.54585C7.96024 8.54585 8.33333 8.17276 8.33333 7.71254C8.3329 6.88004 8.94687 6.17491 9.77153 6.06079C10.5962 5.94667 11.3786 6.45856 11.6043 7.25989C11.8299 8.06121 11.4297 8.90617 10.6667 9.23916C9.75547 9.63683 9.16652 10.5366 9.16667 11.5308C9.16667 11.991 9.53976 12.3641 10 12.3641C10.4602 12.3641 10.8333 11.991 10.8333 11.5308Z" fill="#02272F"/>
</svg>
