<svg width="19" height="21" viewBox="0 0 19 21" fill="none" xmlns="http://www.w3.org/2000/svg">
    <path d="M0.929688 20.8647C1.37636 20.5588 1.76921 20.3462 2.09377 20.0557C2.85215 19.3789 3.23696 18.5106 3.23696 17.4801C3.23776 12.8539 3.23535 8.22769 3.23856 3.60069C3.23937 2.01103 4.47655 0.801127 6.03669 0.899315C6.41347 0.922847 6.79427 1.07216 7.14855 1.2239C7.48115 1.36591 7.77759 1.38457 8.09653 1.21984C8.68459 0.915544 9.27667 0.620981 9.86634 0.319115C10.7035 -0.109341 11.5398 -0.10366 12.3753 0.319926C12.9569 0.614489 13.5401 0.904995 14.1178 1.20848C14.4463 1.38133 14.7637 1.39756 15.0906 1.21498C16.8765 0.219304 19.0143 1.55174 19.0006 3.66805C18.9709 8.25366 18.9934 12.8393 18.9902 17.4249C18.9886 19.426 17.4413 20.9961 15.4674 20.9978C10.8585 21.0018 6.24958 21.001 1.64067 20.9937C1.42296 20.9937 1.20524 20.9166 0.929688 20.8647ZM11.1108 9.707C11.1108 9.70781 11.1108 9.70862 11.1108 9.70943C12.2419 9.70943 13.373 9.71917 14.5034 9.70132C14.7203 9.69807 14.9629 9.6291 15.1445 9.51224C15.453 9.31425 15.5453 8.92149 15.4321 8.5685C15.31 8.18793 14.9966 7.97451 14.5203 7.9737C12.2483 7.97126 9.97641 7.97208 7.70448 7.97694C7.12686 7.97857 6.76294 8.3275 6.76535 8.84927C6.76776 9.36618 7.14052 9.70537 7.71734 9.70618C8.84848 9.70943 9.97962 9.707 11.1108 9.707ZM10.2712 13.2742C9.41003 13.2742 8.54802 13.271 7.68681 13.275C7.1357 13.2783 6.76615 13.6288 6.76535 14.136C6.76454 14.6407 7.13168 15.0108 7.67958 15.0132C9.38272 15.0213 11.0859 15.0213 12.7882 15.014C13.3489 15.0116 13.7394 14.6286 13.7281 14.1279C13.7161 13.6085 13.3473 13.2775 12.7657 13.275C11.9342 13.2718 11.1027 13.2742 10.2712 13.2742Z" fill="#FFFFFF"/>
</svg>
