<svg width="23" height="27" viewBox="0 0 23 27" fill="none" xmlns="http://www.w3.org/2000/svg">
    <path d="M0.00405775 12.5911C0.00405775 9.33012 0.000804796 6.06835 0.00568422 2.80741C0.00812394 1.15212 1.09624 0.0155009 2.72678 0.008883C6.50183 -0.00683439 10.2769 0.00309239 14.0519 0.00309239C14.9554 0.00309239 15.8581 -0.000216539 16.7616 0.00474685C18.3271 0.0130192 19.4551 1.17859 19.4543 2.77514C19.4526 6.51092 19.4559 10.2475 19.4486 13.9833C19.4478 14.2083 19.5145 14.3299 19.7064 14.4432C22.1209 15.881 23.37 18.615 22.9057 21.4226C22.4543 24.1558 20.3309 26.3711 17.5993 26.8782C15.5353 27.2604 13.6803 26.74 12.0554 25.3768C11.9294 25.2709 11.7358 25.1964 11.5732 25.1964C8.64065 25.1865 5.70811 25.1906 2.77476 25.1906C1.12877 25.1906 0.00568422 24.0548 0.00161803 22.3747C-0.00244816 20.7443 0.00243127 19.1138 0.00243127 17.4825C0.00243127 15.852 0.00243127 14.2215 0.00243127 12.5902C0.00324451 12.5911 0.00405775 12.5911 0.00405775 12.5911ZM16.3851 15.3027C13.6965 15.2845 11.5098 17.4941 11.4976 20.2413C11.4854 22.9472 13.6478 25.1683 16.3152 25.1898C19.0127 25.2113 21.2084 23.0307 21.2247 20.3133C21.241 17.528 19.1095 15.3218 16.3851 15.3027ZM9.75072 10.8018V10.8009C8.27957 10.8009 6.80761 10.7985 5.33646 10.8026C4.80623 10.8042 4.40693 11.2038 4.41343 11.7068C4.41994 12.1973 4.81355 12.596 5.32264 12.5969C8.26574 12.601 11.2089 12.6051 14.1511 12.5845C14.3748 12.5828 14.6383 12.4339 14.8107 12.2734C15.0799 12.0228 15.1091 11.672 14.9563 11.3304C14.7985 10.978 14.5155 10.8018 14.1341 10.8018C12.6735 10.8009 11.2121 10.8018 9.75072 10.8018ZM9.7312 8.09011C11.1926 8.09011 12.654 8.09259 14.1154 8.08845C14.6545 8.0868 15.0457 7.70131 15.0441 7.19421C15.0425 6.69705 14.6375 6.29253 14.1113 6.2917C11.1991 6.28757 8.28607 6.28674 5.37387 6.29584C5.19089 6.29667 4.98921 6.35706 4.82981 6.45053C4.48581 6.65155 4.34756 7.06517 4.45572 7.44073C4.57202 7.84276 4.88267 8.0868 5.31613 8.08845C6.78809 8.09259 8.25924 8.09011 9.7312 8.09011ZM6.19117 17.1053C6.19117 17.1036 6.19117 17.102 6.19117 17.1003C6.49532 17.1003 6.8011 17.1193 7.10363 17.0962C7.63548 17.0556 7.96647 16.6743 7.94939 16.1564C7.93313 15.6593 7.58344 15.3168 7.05321 15.306C6.48557 15.2945 5.91711 15.2969 5.34947 15.3027C4.81192 15.3085 4.41831 15.689 4.41343 16.1937C4.40856 16.6842 4.81111 17.0854 5.33971 17.1036C5.62353 17.1127 5.90735 17.1053 6.19117 17.1053Z" fill="white"/>
</svg>
