<svg width="32" height="32" viewBox="0 0 32 32" fill="none" xmlns="http://www.w3.org/2000/svg">
    <rect width="32" height="32" rx="16" fill="#5A59FD"/>
    <path d="M16.7085 6.49169C16.4688 6.42247 16.1722 6.42992 15.9304 6.49808C13.5545 7.17226 11.1852 7.86667 8.56416 8.62818C8.56416 10.8871 8.55978 13.3943 8.56525 15.9024C8.57291 19.1359 10.0262 21.6292 12.7261 23.4483C13.9091 24.246 15.1632 25.5912 16.3495 25.556C17.5511 25.5209 18.7101 24.0894 19.8843 23.2651C21.7929 21.9242 23.2408 20.1509 23.51 17.9026C23.8898 14.7309 23.8668 11.5134 24.0003 8.6367C21.3683 7.85921 19.0417 7.16374 16.7085 6.49169ZM19.5922 14.4636C18.9881 15.0547 18.3796 15.6426 17.7733 16.2315C17.2152 16.7726 16.6581 17.3136 16.0989 17.8536C15.6502 18.2871 15.1479 18.2871 14.6981 17.8536C14.1334 17.3083 13.5698 16.7619 13.0084 16.2145C12.6101 15.8258 12.5882 15.2794 12.9515 14.9301C13.3225 14.5733 13.8631 14.5956 14.2702 14.9918C14.6401 15.3518 15.0056 15.7171 15.4029 16.1091C16.39 15.1409 17.3421 14.209 18.292 13.275C18.5175 13.0524 18.7801 12.931 19.103 12.9789C19.4521 13.0311 19.7005 13.2238 19.8132 13.5508C19.9314 13.8927 19.8559 14.2058 19.5922 14.4636Z" fill="#F9FBFB"/>
</svg>
