<svg width="60" height="60" viewBox="0 0 60 60" fill="none" xmlns="http://www.w3.org/2000/svg">
    <rect opacity="0.2" x="59.3984" width="59.3971" height="59.3971" rx="29.6985" transform="rotate(90 59.3984 0)" fill="#F7E04F"/>
    <rect x="25" y="25" width="9" height="12" fill="#02272F"/>
    <path d="M29.4865 39.9989C26.5634 39.9989 23.6411 40.0037 20.7179 39.9965C18.9478 39.9925 17.4063 38.7205 17.0648 36.9723C16.8902 36.0774 17.075 35.2408 17.5403 34.4568C19.9245 30.4428 22.3025 26.4241 24.6828 22.4077C25.1567 21.6078 25.6297 20.807 26.1044 20.0071C27.6889 17.3362 31.3005 17.329 32.8843 19.9975C35.7416 24.813 38.5809 29.6389 41.4523 34.4449C42.8614 36.804 41.3842 39.5028 38.8958 39.9375C38.6467 39.9806 38.3906 39.9949 38.1376 39.9957C35.2536 40.0005 32.3705 39.9989 29.4865 39.9989ZM30.6261 28.441C30.6261 27.6953 30.6293 26.9504 30.6254 26.2047C30.6222 25.475 30.1437 24.9582 29.4849 24.9646C28.8395 24.971 28.3704 25.4846 28.3688 26.1992C28.3657 27.6802 28.3657 29.1604 28.3688 30.6414C28.3704 31.376 28.8427 31.8824 29.5092 31.8768C30.1617 31.872 30.6222 31.368 30.6254 30.6462C30.6293 29.9117 30.6261 29.1764 30.6261 28.441ZM29.4881 33.0683C28.8685 33.0715 28.3719 33.574 28.3688 34.2008C28.3657 34.8381 28.8732 35.3493 29.5053 35.3453C30.1241 35.3421 30.6207 34.8389 30.6238 34.212C30.6285 33.574 30.1225 33.0651 29.4881 33.0683Z" fill="#F7E04F"/>
</svg>
