<svg width="60" height="60" viewBox="0 0 60 60" fill="none" xmlns="http://www.w3.org/2000/svg">
    <rect opacity="0.2" x="59.3984" width="59.3971" height="59.3971" rx="29.6985" transform="rotate(90 59.3984 0)" fill="#7AE4CD"/>
    <rect x="26" y="24" width="12" height="12" fill="#02272F"/>
    <path d="M21.9297 39.8647C22.3764 39.5588 22.7692 39.3462 23.0938 39.0557C23.8521 38.3789 24.237 37.5106 24.237 36.4801C24.2378 31.8539 24.2354 27.2277 24.2386 22.6007C24.2394 21.011 25.4766 19.8011 27.0367 19.8993C27.4135 19.9228 27.7943 20.0722 28.1486 20.2239C28.4811 20.3659 28.7776 20.3846 29.0965 20.2198C29.6846 19.9155 30.2767 19.621 30.8663 19.3191C31.7035 18.8907 32.5398 18.8963 33.3753 19.3199C33.9569 19.6145 34.5401 19.905 35.1178 20.2085C35.4463 20.3813 35.7637 20.3976 36.0906 20.215C37.8765 19.2193 40.0143 20.5517 40.0006 22.668C39.9709 27.2537 39.9934 31.8393 39.9902 36.4249C39.9886 38.426 38.4413 39.9961 36.4674 39.9978C31.8585 40.0018 27.2496 40.001 22.6407 39.9937C22.423 39.9937 22.2052 39.9166 21.9297 39.8647ZM32.1108 28.707C32.1108 28.7078 32.1108 28.7086 32.1108 28.7094C33.2419 28.7094 34.373 28.7192 35.5034 28.7013C35.7203 28.6981 35.9629 28.6291 36.1445 28.5122C36.453 28.3142 36.5453 27.9215 36.4321 27.5685C36.31 27.1879 35.9966 26.9745 35.5203 26.9737C33.2483 26.9713 30.9764 26.9721 28.7045 26.9769C28.1269 26.9786 27.7629 27.3275 27.7653 27.8493C27.7678 28.3662 28.1405 28.7054 28.7173 28.7062C29.8485 28.7094 30.9796 28.707 32.1108 28.707ZM31.2712 32.2742C30.41 32.2742 29.548 32.271 28.6868 32.275C28.1357 32.2783 27.7661 32.6288 27.7653 33.136C27.7645 33.6407 28.1317 34.0108 28.6796 34.0132C30.3827 34.0213 32.0859 34.0213 33.7882 34.014C34.3489 34.0116 34.7394 33.6286 34.7281 33.1279C34.7161 32.6085 34.3473 32.2775 33.7657 32.275C32.9342 32.2718 32.1027 32.2742 31.2712 32.2742Z" fill="#7AE4CD"/>
    <path d="M22.512 27.6147C22.512 27.9848 22.512 28.3167 22.512 28.6486C22.512 31.2282 22.512 33.8071 22.512 36.3867C22.512 37.4303 21.7553 38.2328 20.7671 38.2377C19.7814 38.2417 19.0037 37.4376 19.0021 36.4038C18.9997 34.371 18.9989 32.3375 19.0021 30.3048C19.0045 28.8384 20.1035 27.6829 21.5552 27.6172C21.8549 27.6034 22.1537 27.6147 22.512 27.6147Z" fill="#7AE4CD"/>
</svg>
