<svg width="25" height="22" viewBox="0 0 25 22" fill="none" xmlns="http://www.w3.org/2000/svg">
    <path d="M12.4865 21.9989C9.56339 21.9989 6.64105 22.0037 3.71794 21.9965C1.94778 21.9925 0.406327 20.7205 0.0648268 18.9723C-0.10984 18.0774 0.0750092 17.2408 0.540264 16.4568C2.9245 12.4428 5.30247 8.42407 7.68279 4.40768C8.15666 3.60775 8.62974 2.80703 9.1044 2.0071C10.6889 -0.663843 14.3005 -0.671021 15.8843 1.99753C18.7416 6.81305 21.5809 11.6389 24.4523 16.4449C25.8614 18.804 24.3842 21.5028 21.8958 21.9375C21.6467 21.9806 21.3906 21.9949 21.1376 21.9957C18.2536 22.0005 15.3705 21.9989 12.4865 21.9989ZM13.6261 10.441C13.6261 9.69534 13.6293 8.95044 13.6254 8.20474C13.6222 7.475 13.1437 6.9582 12.4849 6.96458C11.8395 6.97096 11.3704 7.48457 11.3688 8.19916C11.3657 9.68018 11.3657 11.1604 11.3688 12.6414C11.3704 13.376 11.8427 13.8824 12.5092 13.8768C13.1617 13.872 13.6222 13.368 13.6254 12.6462C13.6293 11.9117 13.6261 11.1764 13.6261 10.441ZM12.4881 15.0683C11.8685 15.0715 11.3719 15.574 11.3688 16.2008C11.3657 16.8381 11.8732 17.3493 12.5053 17.3453C13.1241 17.3421 13.6207 16.8389 13.6238 16.212C13.6285 15.574 13.1225 15.0651 12.4881 15.0683Z" fill="white"/>
</svg>
