<svg width="22" height="22" viewBox="0 0 22 22" fill="none" xmlns="http://www.w3.org/2000/svg">
    <path d="M11.0104 0.00781594C13.4185 0.00781594 15.8266 0.006133 18.2339 0.00781594C20.3058 0.00949889 21.8924 1.48712 21.9952 3.5521C22.0449 4.54672 21.707 5.43279 21.0187 6.16403C20.8602 6.33232 20.8029 6.49641 20.8029 6.72108C20.8088 10.543 20.8097 14.3642 20.8055 18.1861C20.8038 19.949 19.78 21.3745 18.1665 21.8373C17.7983 21.9433 17.4014 21.9913 17.018 21.9921C13.0225 22.0031 9.02696 21.9997 5.03057 21.9989C2.80951 21.998 1.21618 20.4118 1.21281 18.1845C1.20776 14.3945 1.2086 10.6036 1.21618 6.81364C1.21703 6.53596 1.14625 6.33232 0.960036 6.11438C-0.047697 4.93632 -0.281936 3.59922 0.351689 2.18555C0.986157 0.772714 2.14303 0.0339016 3.69254 0.0153892C6.13099 -0.0140623 8.57112 0.00781594 11.0104 0.00781594ZM11.0163 2.47165C8.57786 2.47165 6.14026 2.46744 3.70181 2.47333C2.79687 2.47585 2.20538 3.3594 2.56685 4.16048C2.82047 4.72174 3.29232 4.89004 3.8796 4.8892C8.6301 4.88246 13.3806 4.88583 18.1303 4.88499C18.2558 4.88499 18.383 4.88331 18.5077 4.86732C18.9914 4.80421 19.3192 4.53241 19.4843 4.08307C19.7792 3.28283 19.1852 2.47417 18.2988 2.47249C15.8713 2.46912 13.4438 2.47165 11.0163 2.47165ZM11.0112 11.021C10.1493 11.021 9.28732 11.0126 8.42535 11.0235C7.7378 11.0328 7.34937 11.4779 7.34937 12.2243C7.34853 12.9656 7.74707 13.4242 8.42535 13.4276C10.1493 13.4352 11.8732 13.4386 13.5971 13.42C13.8221 13.4175 14.0766 13.325 14.2636 13.1954C14.6588 12.9219 14.7911 12.2697 14.6133 11.727C14.4684 11.2844 14.0791 11.0244 13.5356 11.0218C12.6931 11.0168 11.8522 11.0202 11.0112 11.021Z" fill="white"/>
</svg>
