<svg width="60" height="60" viewBox="0 0 60 60" fill="none" xmlns="http://www.w3.org/2000/svg">
    <rect opacity="0.2" x="59.3984" width="59.3971" height="59.3971" rx="29.6985" transform="rotate(90 59.3984 0)" fill="#F4B5A1"/>
    <rect x="21" y="22" width="17" height="14" fill="#02272F"/>
    <path d="M29.5435 18.0001C33.3175 18.0065 37.0645 18.3273 40.7697 19.0449C42.5117 19.3818 43.6275 20.4631 44.0464 22.1869C45.3137 27.4003 45.3233 32.6224 44.0335 37.8315C43.5824 39.654 42.3474 40.7021 40.5098 41.0218C36.3804 41.7405 32.2209 42.0848 28.0282 41.9829C24.7419 41.9025 21.4759 41.5978 18.2487 40.9638C16.526 40.6259 15.3941 39.5768 14.972 37.8701C13.6682 32.5912 13.6725 27.3027 15.0064 22.0324C15.4553 20.2539 16.7258 19.2916 18.5107 18.9795C22.16 18.3412 25.8362 17.9937 29.5435 18.0001ZM34.5772 25.064C34.4537 25.2485 34.3839 25.359 34.3077 25.4652C33.5204 26.5475 32.7364 27.631 31.9417 28.708C31.6872 29.0523 31.5272 29.4053 31.7366 29.8193C31.9406 30.2216 32.309 30.2913 32.7236 30.2881C33.9028 30.2785 35.0831 30.2881 36.2623 30.2838C36.8003 30.2817 37.1472 29.9652 37.1698 29.4728C37.1945 28.9515 36.8734 28.5846 36.3267 28.5514C35.9261 28.5267 35.5234 28.5439 35.1206 28.5428C34.85 28.5417 34.5794 28.5428 34.2314 28.5428C35.184 27.2341 36.0722 26.0133 36.9625 24.7936C37.1848 24.489 37.26 24.1607 37.0967 23.8142C36.9292 23.4602 36.6113 23.3283 36.2386 23.3272C35.0186 23.3219 33.7997 23.3154 32.5796 23.3272C32.019 23.3326 31.6346 23.7188 31.6442 24.2187C31.6539 24.7314 32.0233 25.0597 32.6086 25.064C33.2369 25.0672 33.8652 25.064 34.5772 25.064ZM26.3485 27.9979C26.0661 28.8378 25.8158 29.5962 25.5559 30.3514C25.4378 30.6947 25.455 31.0058 25.7127 31.2815C25.9791 31.5679 26.2991 31.6226 26.6664 31.5196C27.3355 31.3319 28.0078 31.157 28.6758 30.9682C29.2836 30.7966 29.5704 30.3621 29.4297 29.8504C29.2955 29.3634 28.824 29.1414 28.2344 29.2862C28.0754 29.3248 27.9143 29.3602 27.6931 29.4117C27.9777 28.5621 28.2462 27.7951 28.49 27.0206C28.7209 26.2912 28.1989 25.7076 27.4536 25.8803C26.6997 26.0541 25.9533 26.2697 25.2101 26.4875C24.7161 26.6323 24.4862 27.0667 24.6087 27.5505C24.7182 27.9796 25.1714 28.2553 25.6408 28.1673C25.847 28.1287 26.0499 28.0697 26.3485 27.9979ZM21.7122 32.8498C21.7154 33.3271 22.1053 33.709 22.5821 33.7058C23.0557 33.7026 23.4467 33.311 23.4499 32.8369C23.4531 32.3574 23.0751 31.9734 22.5939 31.9669C22.0956 31.9616 21.709 32.3488 21.7122 32.8498Z" fill="#F4B5A1"/>
</svg>
