<svg width="18" height="19" viewBox="0 0 18 19" fill="none" xmlns="http://www.w3.org/2000/svg">
    <path d="M7.43585 7.86277C7.39589 7.50833 7.34373 7.25248 7.34289 6.99583C7.33544 5.4567 7.33125 3.91756 7.34417 2.37925C7.35063 1.6215 7.75227 1.05688 8.41142 0.808425C9.04937 0.566483 9.76884 0.736828 10.2268 1.24203C10.5535 1.60301 10.6611 2.03811 10.6604 2.51639C10.6564 4.09789 10.6606 5.68102 10.6566 7.26252C10.6558 7.41977 10.6192 7.57702 10.5948 7.77909C10.8319 7.78481 10.9834 7.79134 11.135 7.79135C12.7743 7.79311 14.4137 7.78508 16.053 7.79662C16.8271 7.80156 17.4203 8.21389 17.6501 8.89018C17.8791 9.56566 17.7374 10.1702 17.2225 10.6672C16.8729 11.0053 16.4338 11.1153 15.9555 11.1144C14.3593 11.1102 12.7624 11.115 11.1662 11.1092C11.0089 11.1083 10.8525 11.0594 10.5909 11.0146C10.6187 11.5556 10.6546 11.9695 10.657 12.3843C10.6645 13.736 10.667 15.0877 10.6582 16.4395C10.6517 17.4824 9.96166 18.2034 8.99696 18.2017C8.03388 18.2 7.34696 17.4772 7.34362 16.431C7.33697 14.6776 7.34498 12.9242 7.34728 11.1227C7.17047 11.1186 7.01893 11.1121 6.86738 11.1121C5.22803 11.1103 3.58786 11.1175 1.94933 11.1068C1.17283 11.1011 0.59186 10.6912 0.349003 10.0181C0.11674 9.37689 0.264157 8.61019 0.818997 8.22647C1.16282 7.98858 1.62805 7.82321 2.04359 7.81021C3.63893 7.76307 5.2351 7.79008 6.83208 7.79346C6.98771 7.79429 7.14415 7.82852 7.43585 7.86277Z" fill="white"/>
</svg>
