<svg width="60" height="60" viewBox="0 0 60 60" fill="none" xmlns="http://www.w3.org/2000/svg">
    <g clip-path="url(#clip0)">
        <rect opacity="0.2" x="59.3984" width="59.3971" height="59.3971" rx="29.6985" transform="rotate(90 59.3984 0)" fill="#B3AFF9"/>
        <g clip-path="url(#clip1)">
            <rect x="21" y="20" width="13" height="16" fill="#02272F"/>
            <path d="M18.0041 29.5911C18.0041 26.3301 18.0008 23.0684 18.0057 19.8074C18.0081 18.1521 19.0962 17.0155 20.7268 17.0089C24.5018 16.9932 28.2769 17.0031 32.0519 17.0031C32.9554 17.0031 33.8581 16.9998 34.7616 17.0047C36.3271 17.013 37.4551 18.1786 37.4543 19.7751C37.4526 23.5109 37.4559 27.2475 37.4486 30.9833C37.4478 31.2083 37.5145 31.3299 37.7064 31.4432C40.1209 32.881 41.37 35.615 40.9057 38.4226C40.4543 41.1558 38.3309 43.3711 35.5993 43.8782C33.5353 44.2604 31.6803 43.74 30.0554 42.3768C29.9294 42.2709 29.7358 42.1964 29.5732 42.1964C26.6406 42.1865 23.7081 42.1906 20.7748 42.1906C19.1288 42.1906 18.0057 41.0548 18.0016 39.3747C17.9976 37.7443 18.0024 36.1138 18.0024 34.4825C18.0024 32.852 18.0024 31.2215 18.0024 29.5902C18.0032 29.5911 18.0041 29.5911 18.0041 29.5911ZM34.3851 32.3027C31.6965 32.2845 29.5098 34.4941 29.4976 37.2413C29.4854 39.9472 31.6478 42.1683 34.3152 42.1898C37.0127 42.2113 39.2084 40.0307 39.2247 37.3133C39.241 34.528 37.1095 32.3218 34.3851 32.3027ZM27.7507 27.8018V27.8009C26.2796 27.8009 24.8076 27.7985 23.3365 27.8026C22.8062 27.8042 22.4069 28.2038 22.4134 28.7068C22.4199 29.1973 22.8135 29.596 23.3226 29.5969C26.2657 29.601 29.2089 29.6051 32.1511 29.5845C32.3748 29.5828 32.6383 29.4339 32.8107 29.2734C33.0799 29.0228 33.1091 28.672 32.9563 28.3304C32.7985 27.978 32.5155 27.8018 32.1341 27.8018C30.6735 27.8009 29.2121 27.8018 27.7507 27.8018ZM27.7312 25.0901C29.1926 25.0901 30.654 25.0926 32.1154 25.0884C32.6545 25.0868 33.0457 24.7013 33.0441 24.1942C33.0425 23.697 32.6375 23.2925 32.1113 23.2917C29.1991 23.2876 26.2861 23.2867 23.3739 23.2958C23.1909 23.2967 22.9892 23.3571 22.8298 23.4505C22.4858 23.6515 22.3476 24.0652 22.4557 24.4407C22.572 24.8428 22.8827 25.0868 23.3161 25.0884C24.7881 25.0926 26.2592 25.0901 27.7312 25.0901ZM24.1912 34.1053C24.1912 34.1036 24.1912 34.102 24.1912 34.1003C24.4953 34.1003 24.8011 34.1193 25.1036 34.0962C25.6355 34.0556 25.9665 33.6743 25.9494 33.1564C25.9331 32.6593 25.5834 32.3168 25.0532 32.306C24.4856 32.2945 23.9171 32.2969 23.3495 32.3027C22.8119 32.3085 22.4183 32.689 22.4134 33.1937C22.4086 33.6842 22.8111 34.0854 23.3397 34.1036C23.6235 34.1127 23.9074 34.1053 24.1912 34.1053Z" fill="#B3AFF9"/>
            <circle cx="34.5" cy="37.5" r="5.5" fill="#02272F"/>
            <path d="M33.8012 38.1638C34.4152 37.3333 34.9795 36.5681 35.5447 35.8037C35.6602 35.6474 35.7692 35.4844 35.8936 35.3364C36.2254 34.9426 36.7256 34.8839 37.1159 35.185C37.4794 35.4646 37.5852 36.0106 37.3021 36.4027C36.4141 37.6311 35.5155 38.8513 34.6038 40.0615C34.2907 40.4776 33.7101 40.5198 33.3335 40.1566C32.709 39.5536 32.1007 38.9323 31.5062 38.2987C31.1768 37.9479 31.2142 37.397 31.546 37.0694C31.8852 36.7344 32.4048 36.7096 32.7537 37.0479C33.1107 37.3937 33.4368 37.7726 33.8012 38.1638Z" fill="#B3AFF9"/>
        </g>
    </g>
    <defs>
        <clipPath id="clip0">
            <rect width="59.3971" height="59.3971" fill="white"/>
        </clipPath>
        <clipPath id="clip1">
            <rect width="33" height="28" fill="white" transform="translate(13 16)"/>
        </clipPath>
    </defs>
</svg>
