<svg width="31" height="24" viewBox="0 0 31 24" fill="none" xmlns="http://www.w3.org/2000/svg">
    <path d="M15.5435 8.78157e-05C19.3175 0.00652415 23.0645 0.327268 26.7697 1.04492C28.5117 1.38175 29.6275 2.46306 30.0464 4.18692C31.3137 9.40035 31.3233 14.6224 30.0335 19.8315C29.5824 21.654 28.3474 22.7021 26.5098 23.0218C22.3804 23.7405 18.2209 24.0848 14.0282 23.9829C10.7419 23.9025 7.47592 23.5978 4.24866 22.9638C2.52602 22.6259 1.39406 21.5768 0.971992 19.8701C-0.331802 14.5912 -0.327506 9.30273 1.00636 4.03245C1.45528 2.25388 2.72578 1.29164 4.51071 0.979483C8.16004 0.341213 11.8362 -0.00634851 15.5435 8.78157e-05ZM20.5772 7.06396C20.4537 7.24847 20.3839 7.35896 20.3077 7.46516C19.5204 8.54753 18.7364 9.63098 17.9417 10.708C17.6872 11.0523 17.5272 11.4053 17.7366 11.8193C17.9406 12.2216 18.309 12.2913 18.7236 12.2881C19.9028 12.2785 21.0831 12.2881 22.2623 12.2838C22.8003 12.2817 23.1472 11.9652 23.1698 11.4728C23.1945 10.9515 22.8734 10.5846 22.3267 10.5514C21.9261 10.5267 21.5234 10.5439 21.1206 10.5428C20.85 10.5417 20.5794 10.5428 20.2314 10.5428C21.184 9.23407 22.0722 8.01332 22.9625 6.79363C23.1848 6.48898 23.26 6.16073 23.0967 5.81424C22.9292 5.46024 22.6113 5.3283 22.2386 5.32722C21.0186 5.32186 19.7997 5.31542 18.5796 5.32722C18.019 5.33259 17.6346 5.71877 17.6442 6.21866C17.6539 6.73142 18.0233 7.05967 18.6086 7.06396C19.2369 7.06718 19.8652 7.06396 20.5772 7.06396ZM12.3485 9.99785C12.0661 10.8378 11.8158 11.5962 11.5559 12.3514C11.4378 12.6947 11.455 13.0058 11.7127 13.2815C11.9791 13.5679 12.2991 13.6226 12.6664 13.5196C13.3355 13.3319 14.0078 13.157 14.6758 12.9682C15.2836 12.7966 15.5704 12.3621 15.4297 11.8504C15.2955 11.3634 14.824 11.1414 14.2344 11.2862C14.0754 11.3248 13.9143 11.3602 13.6931 11.4117C13.9777 10.5621 14.2462 9.79511 14.49 9.0206C14.7209 8.29115 14.1989 7.70759 13.4536 7.8803C12.6997 8.05408 11.9533 8.2697 11.2101 8.48746C10.7161 8.63228 10.4862 9.06673 10.6087 9.55053C10.7182 9.97962 11.1714 10.2553 11.6408 10.1673C11.847 10.1287 12.0499 10.0697 12.3485 9.99785ZM7.7122 14.8498C7.71542 15.3271 8.10527 15.709 8.58211 15.7058C9.05573 15.7026 9.44665 15.311 9.44987 14.8369C9.45309 14.3574 9.07506 13.9734 8.59392 13.9669C8.0956 13.9616 7.70897 14.3488 7.7122 14.8498Z" fill="#FFFFFF"/>
</svg>
