<svg width="60" height="60" viewBox="0 0 60 60" fill="none" xmlns="http://www.w3.org/2000/svg">
    <rect opacity="0.2" x="59.3984" width="59.3971" height="59.3971" rx="29.6985" transform="rotate(90 59.3984 0)" fill="#DF91D0"/>
    <path d="M27.4358 28.8628C27.3959 28.5083 27.3437 28.2525 27.3429 27.9958C27.3354 26.4567 27.3312 24.9176 27.3442 23.3793C27.3506 22.6215 27.7523 22.0569 28.4114 21.8084C29.0494 21.5665 29.7688 21.7368 30.2268 22.242C30.5535 22.603 30.6611 23.0381 30.6604 23.5164C30.6564 25.0979 30.6606 26.681 30.6566 28.2625C30.6558 28.4198 30.6192 28.577 30.5948 28.7791C30.8319 28.7848 30.9834 28.7913 31.135 28.7913C32.7743 28.7931 34.4137 28.7851 36.053 28.7966C36.8271 28.8016 37.4203 29.2139 37.6501 29.8902C37.8791 30.5657 37.7374 31.1702 37.2225 31.6672C36.8729 32.0053 36.4338 32.1153 35.9555 32.1144C34.3593 32.1102 32.7624 32.115 31.1662 32.1092C31.0089 32.1083 30.8525 32.0594 30.5909 32.0146C30.6187 32.5556 30.6546 32.9695 30.657 33.3843C30.6645 34.736 30.667 36.0877 30.6582 37.4395C30.6517 38.4824 29.9617 39.2034 28.997 39.2017C28.0339 39.2 27.347 38.4772 27.3436 37.431C27.337 35.6776 27.345 33.9242 27.3473 32.1227C27.1705 32.1186 27.0189 32.1121 26.8674 32.1121C25.228 32.1103 23.5879 32.1175 21.9493 32.1068C21.1728 32.1011 20.5919 31.6912 20.349 31.0181C20.1167 30.3769 20.2642 29.6102 20.819 29.2265C21.1628 28.9886 21.628 28.8232 22.0436 28.8102C23.6389 28.7631 25.2351 28.7901 26.8321 28.7935C26.9877 28.7943 27.1441 28.8285 27.4358 28.8628Z" fill="#02272F"/>
</svg>
