<svg width="35" height="34" viewBox="0 0 35 34" fill="none" xmlns="http://www.w3.org/2000/svg">
    <rect x="1" y="0.5" width="33" height="33" rx="16.5" fill="#F9FBFB"/>
    <path d="M18.2085 7.49172C17.9688 7.4225 17.6722 7.42995 17.4304 7.49812C15.0545 8.17229 12.6852 8.8667 10.0642 9.62821C10.0642 11.8872 10.0598 14.3943 10.0653 16.9025C10.0729 20.1359 11.5262 22.6292 14.2261 24.4483C15.4091 25.246 16.6632 26.5912 17.8495 26.556C19.0511 26.5209 20.2101 25.0895 21.3843 24.2651C23.2929 22.9242 24.7408 21.1509 25.01 18.9026C25.3898 15.7309 25.3668 12.5134 25.5003 9.63673C22.8683 8.85924 20.5417 8.16377 18.2085 7.49172ZM21.0922 15.4636C20.4881 16.0547 19.8796 16.6426 19.2733 17.2316C18.7152 17.7726 18.1581 18.3137 17.5989 18.8536C17.1502 19.2871 16.6479 19.2871 16.1981 18.8536C15.6334 18.3083 15.0698 17.762 14.5084 17.2145C14.1101 16.8258 14.0882 16.2794 14.4515 15.9301C14.8225 15.5733 15.3631 15.5957 15.7702 15.9919C16.1401 16.3518 16.5056 16.7171 16.9029 17.1091C17.89 16.141 18.8421 15.209 19.792 14.275C20.0175 14.0524 20.2801 13.931 20.603 13.9789C20.9521 14.0311 21.2005 14.2239 21.3132 14.5508C21.4314 14.8927 21.3559 15.2058 21.0922 15.4636Z" fill="#5A59FD"/>
    <rect x="1" y="0.5" width="33" height="33" rx="16.5" stroke="#E5EAEB"/>
</svg>
