<svg width="60" height="60" viewBox="0 0 60 60" fill="none" xmlns="http://www.w3.org/2000/svg">
    <rect opacity="0.2" x="59.3984" width="59.3971" height="59.3971" rx="29.6985" transform="rotate(90 59.3984 0)" fill="#A6E0FC"/>
    <rect x="21" y="21" width="18" height="15" fill="#02272F"/>
    <path d="M30.0104 19.0078C32.4185 19.0078 34.8266 19.0061 37.2339 19.0078C39.3058 19.0095 40.8924 20.4871 40.9952 22.5521C41.0449 23.5467 40.707 24.4328 40.0187 25.164C39.8602 25.3323 39.8029 25.4964 39.8029 25.7211C39.8088 29.543 39.8097 33.3642 39.8055 37.1861C39.8038 38.949 38.78 40.3745 37.1665 40.8373C36.7983 40.9433 36.4014 40.9913 36.018 40.9921C32.0225 41.0031 28.027 40.9997 24.0306 40.9989C21.8095 40.998 20.2162 39.4118 20.2128 37.1845C20.2078 33.3945 20.2086 29.6036 20.2162 25.8136C20.217 25.536 20.1462 25.3323 19.96 25.1144C18.9523 23.9363 18.7181 22.5992 19.3517 21.1855C19.9862 19.7727 21.143 19.0339 22.6925 19.0154C25.131 18.9859 27.5711 19.0078 30.0104 19.0078ZM30.0163 21.4716C27.5779 21.4716 25.1403 21.4674 22.7018 21.4733C21.7969 21.4759 21.2054 22.3594 21.5668 23.1605C21.8205 23.7217 22.2923 23.89 22.8796 23.8892C27.6301 23.8825 32.3806 23.8858 37.1303 23.885C37.2558 23.885 37.383 23.8833 37.5077 23.8673C37.9914 23.8042 38.3192 23.5324 38.4843 23.0831C38.7792 22.2828 38.1852 21.4742 37.2988 21.4725C34.8713 21.4691 32.4438 21.4716 30.0163 21.4716ZM30.0112 30.021C29.1493 30.021 28.2873 30.0126 27.4254 30.0235C26.7378 30.0328 26.3494 30.4779 26.3494 31.2243C26.3485 31.9656 26.7471 32.4242 27.4254 32.4276C29.1493 32.4352 30.8732 32.4386 32.5971 32.42C32.8221 32.4175 33.0766 32.325 33.2636 32.1954C33.6588 31.9219 33.7911 31.2697 33.6133 30.727C33.4684 30.2844 33.0791 30.0244 32.5356 30.0218C31.6931 30.0168 30.8522 30.0202 30.0112 30.021Z" fill="#A6E0FC"/>
</svg>
