<svg width="36" height="36" viewBox="0 0 36 36" fill="none" xmlns="http://www.w3.org/2000/svg">
    <rect opacity="0.05" width="36" height="36" rx="6" fill="white"/>
    <path d="M16.3324 18.4841C16.0611 18.2678 15.8492 18.1277 15.6721 17.9517C14.6083 16.8982 13.5468 15.8424 12.4976 14.7754C11.9808 14.2498 11.8687 13.5852 12.1512 12.9609C12.4236 12.3557 13.0356 11.978 13.6981 12.0105C14.1712 12.034 14.5444 12.2593 14.8729 12.5888C15.958 13.6793 17.0498 14.7654 18.1349 15.8559C18.2425 15.9646 18.3254 16.098 18.4476 16.2538C18.6146 16.0946 18.7234 15.9949 18.8276 15.8906C19.9564 14.7642 21.0785 13.6311 22.214 12.5115C22.7498 11.9825 23.4415 11.8581 24.0647 12.1651C24.6868 12.4722 25.0052 12.9856 24.9929 13.6816C24.985 14.1545 24.7586 14.5322 24.429 14.8606C23.3282 15.9556 22.2331 17.0574 21.1312 18.1512C21.0224 18.2588 20.8812 18.3328 20.6705 18.4819C21.0617 18.8349 21.3711 19.0949 21.658 19.3785C22.5929 20.3031 23.5244 21.2311 24.4481 22.167C25.161 22.8888 25.1823 23.8594 24.5176 24.5218C23.854 25.183 22.8843 25.1584 22.1624 24.4411C20.9518 23.2396 19.7513 22.028 18.5137 20.7873C18.3893 20.9061 18.2806 21.0059 18.1763 21.1101C17.0475 22.2365 15.9243 23.3696 14.7899 24.4893C14.2519 25.0194 13.5703 25.1371 12.9404 24.8412C12.3395 24.5599 11.9136 23.9311 12.0313 23.2855C12.1041 22.8854 12.3104 22.4517 12.5873 22.1569C13.6522 21.0272 14.7686 19.9479 15.8694 18.8517C15.977 18.7453 16.1082 18.6612 16.3324 18.4841Z" fill="white"/>
</svg>
