<svg width="24" height="24" viewBox="0 0 24 24" fill="none" xmlns="http://www.w3.org/2000/svg">
    <path opacity="0.4" d="M16.8905 0H20.9536C22.6363 0 23.9999 1.37502 23.9999 3.07196V7.16943C23.9999 8.86636 22.6363 10.2414 20.9536 10.2414H16.8905C15.2077 10.2414 13.8442 8.86636 13.8442 7.16943V3.07196C13.8442 1.37502 15.2077 0 16.8905 0Z" fill="white"/>
    <path fill-rule="evenodd" clip-rule="evenodd" d="M3.04623 0H7.10939C8.79211 0 10.1556 1.37502 10.1556 3.07196V7.16943C10.1556 8.86636 8.79211 10.2414 7.10939 10.2414H3.04623C1.36351 10.2414 0 8.86636 0 7.16943V3.07196C0 1.37502 1.36351 0 3.04623 0ZM3.04623 13.7586H7.10939C8.79211 13.7586 10.1556 15.1336 10.1556 16.8306V20.928C10.1556 22.6238 8.79211 24 7.10939 24H3.04623C1.36351 24 0 22.6238 0 20.928V16.8306C0 15.1336 1.36351 13.7586 3.04623 13.7586ZM20.9538 13.7586H16.8906C15.2079 13.7586 13.8444 15.1336 13.8444 16.8306V20.928C13.8444 22.6238 15.2079 24 16.8906 24H20.9538C22.6365 24 24 22.6238 24 20.928V16.8306C24 15.1336 22.6365 13.7586 20.9538 13.7586Z" fill="white"/>
</svg>
