<svg width="16" height="16" viewBox="0 0 16 16" fill="none" xmlns="http://www.w3.org/2000/svg">
    <rect width="16" height="16" rx="8" fill="#FFCB45"/>
    <path d="M8.02 8.22676C8.12449 8.22676 8.2247 8.18526 8.29859 8.11137C8.37248 8.03748 8.41399 7.93727 8.41399 7.83278V6.26471C8.41399 6.16022 8.37248 6.06001 8.29859 5.98612C8.2247 5.91224 8.12449 5.87073 8.02 5.87073C7.91551 5.87073 7.8153 5.91224 7.74141 5.98612C7.66752 6.06001 7.62601 6.16022 7.62601 6.26471V7.83278C7.62601 7.93727 7.66752 8.03748 7.74141 8.11137C7.8153 8.18526 7.91551 8.22676 8.02 8.22676Z" fill="#02272F"/>
    <path d="M8.02005 9.80271C8.29205 9.80271 8.51254 9.58222 8.51254 9.31023C8.51254 9.03824 8.29205 8.81775 8.02005 8.81775C7.74806 8.81775 7.52757 9.03824 7.52757 9.31023C7.52757 9.58222 7.74806 9.80271 8.02005 9.80271Z" fill="#02272F"/>
    <path d="M10.8977 5.29789C10.4377 4.77658 9.8447 4.3901 9.18204 4.17976C8.51937 3.96942 7.81201 3.94314 7.13556 4.10372C6.44914 4.27606 5.81994 4.62544 5.31076 5.11699C4.80159 5.60853 4.43026 6.22504 4.23385 6.90496C4.22736 6.92747 4.21303 6.94692 4.19345 6.95979C4.17386 6.97265 4.15032 6.97808 4.12708 6.97509L3.7201 6.92387C3.684 6.91923 3.64734 6.92487 3.6143 6.94013C3.58127 6.95539 3.55321 6.97966 3.53335 7.01016C3.51295 7.04059 3.50145 7.0761 3.50013 7.11271C3.49881 7.14932 3.50772 7.18557 3.52586 7.21739L4.50137 8.92808C4.51658 8.95467 4.53779 8.97735 4.5633 8.99431C4.58881 9.01127 4.61792 9.02205 4.64833 9.02579C4.65646 9.02638 4.66462 9.02638 4.67276 9.02579C4.69914 9.02579 4.72526 9.02048 4.74955 9.0102C4.77385 8.99991 4.79583 8.98485 4.8142 8.9659L6.18409 7.55031C6.20958 7.52394 6.22721 7.49097 6.23498 7.45512C6.24276 7.41927 6.24037 7.38197 6.22808 7.3474C6.21579 7.31284 6.1941 7.28239 6.16545 7.25949C6.13679 7.23659 6.10231 7.22215 6.06589 7.21779L5.32598 7.12638C5.31146 7.12433 5.29758 7.11906 5.28535 7.11096C5.27313 7.10287 5.26286 7.09214 5.25531 7.07956C5.24776 7.06699 5.24311 7.05289 5.24171 7.03829C5.2403 7.02369 5.24217 7.00897 5.24719 6.99518C5.4137 6.52391 5.69407 6.10108 6.06338 5.76428C6.43269 5.42748 6.87949 5.18715 7.36407 5.06465C7.86697 4.94513 8.3929 4.96455 8.88562 5.12083C9.37833 5.27711 9.8193 5.56438 10.1614 5.95191C10.2479 6.04971 10.3698 6.10912 10.5002 6.11706C10.6306 6.12501 10.7588 6.08083 10.8566 5.99426C10.9544 5.90769 11.0138 5.78581 11.0217 5.65544C11.0297 5.52507 10.9855 5.39688 10.8989 5.29907L10.8977 5.29789Z" fill="#02272F"/>
    <path d="M5.16602 10.0353C5.11759 10.0782 5.07808 10.1302 5.04975 10.1883C5.02142 10.2464 5.00482 10.3095 5.0009 10.3741C4.99699 10.4386 5.00583 10.5033 5.02693 10.5644C5.04803 10.6256 5.08097 10.6819 5.12386 10.7303C5.58401 11.2514 6.17708 11.6377 6.8397 11.848C7.50233 12.0582 8.20962 12.0846 8.88604 11.9241C9.57335 11.752 10.2033 11.4022 10.7129 10.9099C11.2225 10.4175 11.5937 9.79991 11.7893 9.11892C11.7959 9.0965 11.8101 9.07711 11.8296 9.0642C11.8491 9.05129 11.8725 9.04569 11.8957 9.0484L12.3125 9.09843C12.3204 9.09899 12.3283 9.09899 12.3362 9.09843C12.3708 9.09843 12.4047 9.08933 12.4347 9.07204C12.4646 9.05475 12.4895 9.02988 12.5068 8.99994C12.5241 8.96999 12.5332 8.93602 12.5332 8.90144C12.5332 8.86686 12.5241 8.83289 12.5068 8.80294L11.5218 7.09738C11.5063 7.07106 11.4849 7.0487 11.4592 7.03209C11.4336 7.01547 11.4044 7.00505 11.3741 7.00164C11.3437 6.99765 11.3128 7.00096 11.2839 7.01131C11.2551 7.02166 11.2291 7.03874 11.2082 7.06113L9.84658 8.485C9.82131 8.51139 9.80388 8.5443 9.79624 8.58003C9.7886 8.61576 9.79104 8.65292 9.80331 8.68734C9.81557 8.72176 9.83717 8.75209 9.86568 8.77494C9.8942 8.79779 9.9285 8.81226 9.96477 8.81673L10.6929 8.90381C10.7076 8.90554 10.7217 8.91059 10.7342 8.91858C10.7467 8.92656 10.7572 8.93727 10.765 8.9499C10.7727 8.96252 10.7775 8.97671 10.7791 8.99143C10.7807 9.00615 10.7789 9.02103 10.774 9.035C10.608 9.5063 10.328 9.92922 9.95893 10.2661C9.58985 10.6029 9.14318 10.8432 8.65871 10.9655C8.15577 11.0848 7.62988 11.0652 7.1372 10.9089C6.64453 10.7525 6.20356 10.4653 5.86141 10.0779C5.81861 10.0293 5.76665 9.98969 5.7085 9.96126C5.65035 9.93282 5.58716 9.91615 5.52255 9.9122C5.45794 9.90825 5.39319 9.91709 5.33201 9.93822C5.27083 9.95935 5.21442 9.99235 5.16602 10.0353Z" fill="#02272F"/>
</svg>
