<svg width="20" height="20" viewBox="0 0 20 20" fill="none" xmlns="http://www.w3.org/2000/svg">
    <path fill-rule="evenodd" clip-rule="evenodd" d="M17.6294 7.76069L18.6844 8.13488C19.4732 8.41563 20 9.16231 20 9.99956C20 10.8368 19.4732 11.5835 18.6844 11.8642L17.6294 12.2401C17.3241 12.3487 17.0791 12.5816 16.9552 12.8811C16.8313 13.1805 16.8401 13.5184 16.9794 13.811L17.4594 14.8219C17.8182 15.5783 17.6625 16.4786 17.0705 17.0706C16.4785 17.6626 15.5782 17.8183 14.8218 17.4595L13.811 16.9795C13.5184 16.8402 13.1805 16.8315 12.881 16.9554C12.5816 17.0793 12.3487 17.3243 12.2401 17.6296L11.8651 18.6846C11.5839 19.4732 10.8372 19.9997 10 19.9997C9.16282 19.9997 8.4161 19.4732 8.13494 18.6846L7.75993 17.6304C7.65169 17.3248 7.41887 17.0794 7.11935 16.9553C6.81982 16.8312 6.48171 16.84 6.18905 16.9795L5.17818 17.4595C4.42178 17.8183 3.52147 17.6626 2.9295 17.0706C2.33753 16.4786 2.18182 15.5783 2.5406 14.8219L3.02061 13.811C3.15988 13.5184 3.16865 13.1805 3.04475 12.8811C2.92085 12.5816 2.67589 12.3487 2.37059 12.2401L1.31556 11.8651C0.526796 11.5843 0 10.8377 0 10.0004C0 9.16315 0.526796 8.41646 1.31556 8.13571L2.37059 7.76069C2.67594 7.65187 2.92091 7.4188 3.04479 7.11924C3.16868 6.81968 3.1599 6.48166 3.02061 6.18894L2.5406 5.17806C2.18182 4.42164 2.33753 3.52131 2.9295 2.92933C3.52147 2.33734 4.42178 2.18163 5.17818 2.54042L6.18905 3.02128C6.48178 3.16024 6.81967 3.16875 7.11903 3.04472C7.4184 2.92068 7.65125 2.67569 7.75993 2.37041L8.13494 1.31535C8.4161 0.526775 9.16282 0.000244141 10 0.000244141C10.8372 0.000244141 11.5839 0.526775 11.8651 1.31535L12.2401 2.36957C12.3486 2.67501 12.5814 2.9202 12.8807 3.0444C13.1801 3.1686 13.5181 3.1602 13.811 3.02128L14.8218 2.54042C15.5782 2.18163 16.4785 2.33734 17.0705 2.92933C17.6625 3.52131 17.8182 4.42164 17.4594 5.17806L16.9794 6.18894C16.8398 6.48163 16.8309 6.81976 16.9548 7.1194C17.0787 7.41904 17.3239 7.65209 17.6294 7.76069ZM6.29911 11.5334C6.94653 13.0048 8.39266 13.9635 10.0001 13.9868C10.5255 13.9977 11.0474 13.9001 11.5334 13.7002C13.575 12.8509 14.5442 10.5095 13.7002 8.46571C12.8321 6.44306 10.5095 5.48162 8.46585 6.29893C6.42427 7.14821 5.45509 9.48958 6.29911 11.5334Z" fill="#02272F"/>
</svg>
