<svg width="338" height="160" viewBox="0 0 338 160" fill="none" xmlns="http://www.w3.org/2000/svg">
    <circle cx="53" cy="48" r="48" fill="#F0EFFE"/>
    <path d="M27.1551 30.8928L84.9968 30.8931L84.9989 67.8927C84.9989 68.9973 84.1035 69.8928 82.9989 69.8928H27.1551V30.8928Z" fill="white"/>
    <path d="M27.1551 30.8928L84.9968 30.8931L80.4161 26.7389C80.0482 26.4053 79.5692 26.2205 79.0725 26.2205H22.0005L27.1551 30.8928Z" fill="white"/>
    <path d="M27.1525 31.7791C27.1525 31.2149 26.9141 30.6769 26.4961 30.2978L22.0005 26.2205L22 64.334C22 64.8985 22.2386 65.4368 22.6569 65.8159L27.1551 69.8928L27.1525 31.7791Z" fill="white"/>
    <path d="M27.1551 30.8928L84.9968 30.8931M27.1551 30.8928V69.8928M27.1551 30.8928L22.0005 26.2205M84.9968 30.8931L84.9989 67.8927C84.9989 68.9974 84.1035 69.8928 82.9989 69.8928H27.1551M84.9968 30.8931L80.4161 26.7389C80.0482 26.4053 79.5692 26.2205 79.0725 26.2205H22.0005M27.1551 69.8928L22.6569 65.8159C22.2386 65.4368 22 64.8985 22 64.334L22.0005 26.2205M27.1551 69.8928L27.1525 31.7791C27.1525 31.2149 26.9141 30.6769 26.4961 30.2978L22.0005 26.2205" stroke="#02272F" stroke-width="2" stroke-linejoin="round"/>
    <rect x="32" y="36.2205" width="31" height="7" fill="#B3AFF9"/>
    <rect x="32" y="46.2205" width="16" height="3" fill="#B3AFF9"/>
    <rect x="66.0006" y="64.4767" width="13.5837" height="1.23488" fill="#02272F"/>
    <rect x="66.0005" y="50.893" width="1.23488" height="13.5837" fill="#02272F"/>
    <rect x="67.2355" y="52.1279" width="1.23488" height="1.23488" fill="#02272F"/>
    <rect x="68.4703" y="50.8929" width="1.23488" height="1.23488" fill="#02272F"/>
    <rect x="69.7053" y="52.1279" width="1.23488" height="1.23488" fill="#02272F"/>
    <rect x="70.9402" y="53.3627" width="1.23488" height="1.23488" fill="#02272F"/>
    <rect x="77.1146" y="52.1279" width="1.23488" height="1.23488" fill="#02272F"/>
    <rect x="78.3495" y="52.1279" width="1.23488" height="1.23488" fill="#02272F"/>
    <rect x="77.1146" y="50.8929" width="1.23488" height="1.23488" fill="#02272F"/>
    <rect x="78.3495" y="53.3627" width="1.23488" height="1.23488" fill="#02272F"/>
    <rect x="67.2355" y="54.5976" width="1.23488" height="1.23488" fill="#02272F"/>
    <rect x="68.4703" y="59.5372" width="1.23488" height="1.23488" fill="#02272F"/>
    <rect x="73.4099" y="59.5372" width="6.17442" height="1.23488" fill="#02272F"/>
    <rect x="70.9402" y="58.3022" width="1.23488" height="3.70465" fill="#02272F"/>
    <rect x="78.3495" y="60.772" width="1.23488" height="1.23488" fill="#02272F"/>
    <rect x="74.6448" y="58.3022" width="1.23488" height="1.23488" fill="#02272F"/>
    <rect x="74.6448" y="52.1279" width="1.23488" height="3.70465" fill="#02272F"/>
    <rect x="74.6448" y="55.8325" width="3.70465" height="1.23488" fill="#02272F"/>
    <rect x="73.4099" y="55.8325" width="1.23488" height="3.70465" fill="#02272F"/>
    <rect x="77.1146" y="58.3022" width="1.23488" height="1.23488" fill="#02272F"/>
    <rect x="73.4099" y="50.8929" width="1.23488" height="3.70465" fill="#02272F"/>
    <rect x="69.7053" y="62.0069" width="7.4093" height="1.23488" fill="#02272F"/>
    <rect x="67.2355" y="62.0069" width="1.23488" height="1.23488" fill="#02272F"/>
    <rect x="67.2355" y="63.2418" width="1.23488" height="1.23488" fill="#02272F"/>
    <rect x="68.4703" y="63.2418" width="1.23488" height="1.23488" fill="#02272F"/>
    <rect x="68.4703" y="55.8325" width="2.46977" height="2.46977" fill="#02272F"/>
    <path d="M38.2504 116.144C37.6344 116.144 37.0904 116.04 36.6184 115.832C36.1464 115.616 35.7744 115.312 35.5024 114.92C35.2304 114.52 35.0904 114.036 35.0824 113.468H36.7024C36.7184 113.86 36.8584 114.192 37.1224 114.464C37.3944 114.728 37.7664 114.86 38.2384 114.86C38.6464 114.86 38.9704 114.764 39.2104 114.572C39.4504 114.372 39.5704 114.108 39.5704 113.78C39.5704 113.436 39.4624 113.168 39.2464 112.976C39.0384 112.784 38.7584 112.628 38.4064 112.508C38.0544 112.388 37.6784 112.26 37.2784 112.124C36.6304 111.9 36.1344 111.612 35.7904 111.26C35.4544 110.908 35.2864 110.44 35.2864 109.856C35.2784 109.36 35.3944 108.936 35.6344 108.584C35.8824 108.224 36.2184 107.948 36.6424 107.756C37.0664 107.556 37.5544 107.456 38.1064 107.456C38.6664 107.456 39.1584 107.556 39.5824 107.756C40.0144 107.956 40.3504 108.236 40.5904 108.596C40.8384 108.956 40.9704 109.384 40.9864 109.88H39.3424C39.3344 109.584 39.2184 109.324 38.9944 109.1C38.7784 108.868 38.4744 108.752 38.0824 108.752C37.7464 108.744 37.4624 108.828 37.2304 109.004C37.0064 109.172 36.8944 109.42 36.8944 109.748C36.8944 110.028 36.9824 110.252 37.1584 110.42C37.3344 110.58 37.5744 110.716 37.8784 110.828C38.1824 110.94 38.5304 111.06 38.9224 111.188C39.3384 111.332 39.7184 111.5 40.0624 111.692C40.4064 111.884 40.6824 112.14 40.8904 112.46C41.0984 112.772 41.2024 113.176 41.2024 113.672C41.2024 114.112 41.0904 114.52 40.8664 114.896C40.6424 115.272 40.3104 115.576 39.8704 115.808C39.4304 116.032 38.8904 116.144 38.2504 116.144ZM44.6931 116V108.836H42.2451V107.6H48.6891V108.836H46.2291V116H44.6931ZM50.1269 116V107.6H55.6109V108.836H51.6629V111.14H55.2509V112.34H51.6629V114.764H55.6109V116H50.1269ZM57.3644 116V107.6H60.4724C61.1444 107.6 61.7004 107.712 62.1404 107.936C62.5804 108.16 62.9084 108.468 63.1244 108.86C63.3404 109.252 63.4484 109.692 63.4484 110.18C63.4484 110.644 63.3444 111.072 63.1364 111.464C62.9284 111.848 62.6044 112.16 62.1644 112.4C61.7244 112.632 61.1604 112.748 60.4724 112.748H58.9004V116H57.3644ZM58.9004 111.5H60.3764C60.9124 111.5 61.2964 111.384 61.5284 111.152C61.7684 110.912 61.8884 110.588 61.8884 110.18C61.8884 109.764 61.7684 109.44 61.5284 109.208C61.2964 108.968 60.9124 108.848 60.3764 108.848H58.9004V111.5ZM69.0249 116V109.352L67.6449 109.676V108.5L69.6729 107.6H70.6209V116H69.0249Z" fill="black"/>
    <path d="M20.9876 140V131.6H21.9956V139.196H25.9076V140H20.9876ZM29.6865 140.144C29.1265 140.144 28.6225 140.016 28.1745 139.76C27.7265 139.504 27.3705 139.144 27.1065 138.68C26.8505 138.208 26.7225 137.656 26.7225 137.024C26.7225 136.392 26.8545 135.844 27.1185 135.38C27.3825 134.908 27.7385 134.544 28.1865 134.288C28.6425 134.032 29.1505 133.904 29.7105 133.904C30.2705 133.904 30.7745 134.032 31.2225 134.288C31.6705 134.544 32.0225 134.908 32.2785 135.38C32.5425 135.844 32.6745 136.392 32.6745 137.024C32.6745 137.656 32.5425 138.208 32.2785 138.68C32.0145 139.144 31.6545 139.504 31.1985 139.76C30.7505 140.016 30.2465 140.144 29.6865 140.144ZM29.6865 139.28C30.0305 139.28 30.3505 139.196 30.6465 139.028C30.9425 138.86 31.1825 138.608 31.3665 138.272C31.5505 137.936 31.6425 137.52 31.6425 137.024C31.6425 136.528 31.5505 136.112 31.3665 135.776C31.1905 135.44 30.9545 135.188 30.6585 135.02C30.3625 134.852 30.0465 134.768 29.7105 134.768C29.3665 134.768 29.0465 134.852 28.7505 135.02C28.4545 135.188 28.2145 135.44 28.0305 135.776C27.8465 136.112 27.7545 136.528 27.7545 137.024C27.7545 137.52 27.8465 137.936 28.0305 138.272C28.2145 138.608 28.4505 138.86 28.7385 139.028C29.0345 139.196 29.3505 139.28 29.6865 139.28ZM36.812 140.144C36.244 140.144 35.732 140.016 35.276 139.76C34.828 139.496 34.472 139.132 34.208 138.668C33.952 138.196 33.824 137.648 33.824 137.024C33.824 136.4 33.952 135.856 34.208 135.392C34.472 134.92 34.828 134.556 35.276 134.3C35.732 134.036 36.244 133.904 36.812 133.904C37.516 133.904 38.108 134.088 38.588 134.456C39.076 134.824 39.384 135.316 39.512 135.932H38.48C38.4 135.564 38.204 135.28 37.892 135.08C37.58 134.872 37.216 134.768 36.8 134.768C36.464 134.768 36.148 134.852 35.852 135.02C35.556 135.188 35.316 135.44 35.132 135.776C34.948 136.112 34.856 136.528 34.856 137.024C34.856 137.52 34.948 137.936 35.132 138.272C35.316 138.608 35.556 138.864 35.852 139.04C36.148 139.208 36.464 139.292 36.8 139.292C37.216 139.292 37.58 139.192 37.892 138.992C38.204 138.784 38.4 138.492 38.48 138.116H39.512C39.392 138.716 39.088 139.204 38.6 139.58C38.112 139.956 37.516 140.144 36.812 140.144ZM42.8998 140.144C42.4038 140.144 41.9918 140.06 41.6638 139.892C41.3358 139.724 41.0918 139.5 40.9318 139.22C40.7718 138.94 40.6918 138.636 40.6918 138.308C40.6918 137.7 40.9238 137.232 41.3878 136.904C41.8518 136.576 42.4838 136.412 43.2838 136.412H44.8918V136.34C44.8918 135.82 44.7558 135.428 44.4838 135.164C44.2118 134.892 43.8478 134.756 43.3918 134.756C42.9998 134.756 42.6598 134.856 42.3718 135.056C42.0918 135.248 41.9158 135.532 41.8438 135.908H40.8118C40.8518 135.476 40.9958 135.112 41.2438 134.816C41.4998 134.52 41.8158 134.296 42.1918 134.144C42.5678 133.984 42.9678 133.904 43.3918 133.904C44.2238 133.904 44.8478 134.128 45.2638 134.576C45.6878 135.016 45.8998 135.604 45.8998 136.34V140H44.9998L44.9398 138.932C44.7718 139.268 44.5238 139.556 44.1958 139.796C43.8758 140.028 43.4438 140.144 42.8998 140.144ZM43.0558 139.292C43.4398 139.292 43.7678 139.192 44.0398 138.992C44.3198 138.792 44.5318 138.532 44.6758 138.212C44.8198 137.892 44.8918 137.556 44.8918 137.204V137.192H43.3678C42.7758 137.192 42.3558 137.296 42.1078 137.504C41.8678 137.704 41.7478 137.956 41.7478 138.26C41.7478 138.572 41.8598 138.824 42.0838 139.016C42.3158 139.2 42.6398 139.292 43.0558 139.292ZM49.5999 140C49.0559 140 48.6279 139.868 48.3159 139.604C48.0039 139.34 47.8479 138.864 47.8479 138.176V134.9H46.8159V134.048H47.8479L47.9799 132.62H48.8559V134.048H50.6079V134.9H48.8559V138.176C48.8559 138.552 48.9319 138.808 49.0839 138.944C49.2359 139.072 49.5039 139.136 49.8879 139.136H50.5119V140H49.5999ZM54.4005 140.144C53.8325 140.144 53.3285 140.016 52.8885 139.76C52.4485 139.496 52.1005 139.132 51.8445 138.668C51.5965 138.204 51.4725 137.656 51.4725 137.024C51.4725 136.4 51.5965 135.856 51.8445 135.392C52.0925 134.92 52.4365 134.556 52.8765 134.3C53.3245 134.036 53.8405 133.904 54.4245 133.904C55.0005 133.904 55.4965 134.036 55.9125 134.3C56.3365 134.556 56.6605 134.896 56.8845 135.32C57.1085 135.744 57.2205 136.2 57.2205 136.688C57.2205 136.776 57.2165 136.864 57.2085 136.952C57.2085 137.04 57.2085 137.14 57.2085 137.252H52.4685C52.4925 137.708 52.5965 138.088 52.7805 138.392C52.9725 138.688 53.2085 138.912 53.4885 139.064C53.7765 139.216 54.0805 139.292 54.4005 139.292C54.8165 139.292 55.1645 139.196 55.4445 139.004C55.7245 138.812 55.9285 138.552 56.0565 138.224H57.0525C56.8925 138.776 56.5845 139.236 56.1285 139.604C55.6805 139.964 55.1045 140.144 54.4005 140.144ZM54.4005 134.756C53.9205 134.756 53.4925 134.904 53.1165 135.2C52.7485 135.488 52.5365 135.912 52.4805 136.472H56.2245C56.2005 135.936 56.0165 135.516 55.6725 135.212C55.3285 134.908 54.9045 134.756 54.4005 134.756ZM64.4323 140.144C63.8403 140.144 63.3203 140.008 62.8723 139.736C62.4323 139.464 62.0883 139.092 61.8403 138.62C61.6003 138.148 61.4803 137.612 61.4803 137.012C61.4803 136.412 61.6043 135.88 61.8523 135.416C62.1003 134.944 62.4443 134.576 62.8843 134.312C63.3243 134.04 63.8443 133.904 64.4443 133.904C64.9323 133.904 65.3643 134.004 65.7403 134.204C66.1163 134.404 66.4083 134.684 66.6163 135.044V131.36H67.6243V140H66.7123L66.6163 139.016C66.4243 139.304 66.1483 139.564 65.7883 139.796C65.4283 140.028 64.9763 140.144 64.4323 140.144ZM64.5403 139.268C64.9403 139.268 65.2923 139.176 65.5963 138.992C65.9083 138.8 66.1483 138.536 66.3163 138.2C66.4923 137.864 66.5803 137.472 66.5803 137.024C66.5803 136.576 66.4923 136.184 66.3163 135.848C66.1483 135.512 65.9083 135.252 65.5963 135.068C65.2923 134.876 64.9403 134.78 64.5403 134.78C64.1483 134.78 63.7963 134.876 63.4843 135.068C63.1803 135.252 62.9403 135.512 62.7643 135.848C62.5963 136.184 62.5123 136.576 62.5123 137.024C62.5123 137.472 62.5963 137.864 62.7643 138.2C62.9403 138.536 63.1803 138.8 63.4843 138.992C63.7963 139.176 64.1483 139.268 64.5403 139.268ZM71.2475 140.144C70.7515 140.144 70.3395 140.06 70.0115 139.892C69.6835 139.724 69.4395 139.5 69.2795 139.22C69.1195 138.94 69.0395 138.636 69.0395 138.308C69.0395 137.7 69.2715 137.232 69.7355 136.904C70.1995 136.576 70.8315 136.412 71.6315 136.412H73.2395V136.34C73.2395 135.82 73.1035 135.428 72.8315 135.164C72.5595 134.892 72.1955 134.756 71.7395 134.756C71.3475 134.756 71.0075 134.856 70.7195 135.056C70.4395 135.248 70.2635 135.532 70.1915 135.908H69.1595C69.1995 135.476 69.3435 135.112 69.5915 134.816C69.8475 134.52 70.1635 134.296 70.5395 134.144C70.9155 133.984 71.3155 133.904 71.7395 133.904C72.5715 133.904 73.1955 134.128 73.6115 134.576C74.0355 135.016 74.2475 135.604 74.2475 136.34V140H73.3475L73.2875 138.932C73.1195 139.268 72.8715 139.556 72.5435 139.796C72.2235 140.028 71.7915 140.144 71.2475 140.144ZM71.4035 139.292C71.7875 139.292 72.1155 139.192 72.3875 138.992C72.6675 138.792 72.8795 138.532 73.0235 138.212C73.1675 137.892 73.2395 137.556 73.2395 137.204V137.192H71.7155C71.1235 137.192 70.7035 137.296 70.4555 137.504C70.2155 137.704 70.0955 137.956 70.0955 138.26C70.0955 138.572 70.2075 138.824 70.4315 139.016C70.6635 139.2 70.9875 139.292 71.4035 139.292ZM77.9476 140C77.4036 140 76.9756 139.868 76.6636 139.604C76.3516 139.34 76.1956 138.864 76.1956 138.176V134.9H75.1636V134.048H76.1956L76.3276 132.62H77.2036V134.048H78.9556V134.9H77.2036V138.176C77.2036 138.552 77.2796 138.808 77.4316 138.944C77.5836 139.072 77.8516 139.136 78.2356 139.136H78.8596V140H77.9476ZM82.2162 140.144C81.7202 140.144 81.3082 140.06 80.9802 139.892C80.6522 139.724 80.4082 139.5 80.2482 139.22C80.0882 138.94 80.0082 138.636 80.0082 138.308C80.0082 137.7 80.2402 137.232 80.7042 136.904C81.1682 136.576 81.8002 136.412 82.6002 136.412H84.2082V136.34C84.2082 135.82 84.0722 135.428 83.8002 135.164C83.5282 134.892 83.1642 134.756 82.7082 134.756C82.3162 134.756 81.9762 134.856 81.6882 135.056C81.4082 135.248 81.2322 135.532 81.1602 135.908H80.1282C80.1682 135.476 80.3122 135.112 80.5602 134.816C80.8162 134.52 81.1322 134.296 81.5082 134.144C81.8842 133.984 82.2842 133.904 82.7082 133.904C83.5402 133.904 84.1642 134.128 84.5802 134.576C85.0042 135.016 85.2162 135.604 85.2162 136.34V140H84.3162L84.2562 138.932C84.0882 139.268 83.8402 139.556 83.5122 139.796C83.1922 140.028 82.7602 140.144 82.2162 140.144ZM82.3722 139.292C82.7562 139.292 83.0842 139.192 83.3562 138.992C83.6362 138.792 83.8482 138.532 83.9922 138.212C84.1362 137.892 84.2082 137.556 84.2082 137.204V137.192H82.6842C82.0922 137.192 81.6722 137.296 81.4242 137.504C81.1842 137.704 81.0642 137.956 81.0642 138.26C81.0642 138.572 81.1762 138.824 81.4002 139.016C81.6322 139.2 81.9562 139.292 82.3722 139.292ZM19.4569 156V150.048H20.3689L20.4409 150.912C20.6329 150.592 20.8889 150.344 21.2089 150.168C21.5289 149.992 21.8889 149.904 22.2889 149.904C22.7609 149.904 23.1649 150 23.5009 150.192C23.8449 150.384 24.1089 150.676 24.2929 151.068C24.5009 150.708 24.7849 150.424 25.1449 150.216C25.5129 150.008 25.9089 149.904 26.3329 149.904C27.0449 149.904 27.6129 150.12 28.0369 150.552C28.4609 150.976 28.6729 151.632 28.6729 152.52V156H27.6769V152.628C27.6769 152.012 27.5529 151.548 27.3049 151.236C27.0569 150.924 26.7009 150.768 26.2369 150.768C25.7569 150.768 25.3569 150.956 25.0369 151.332C24.7249 151.7 24.5689 152.228 24.5689 152.916V156H23.5609V152.628C23.5609 152.012 23.4369 151.548 23.1889 151.236C22.9409 150.924 22.5849 150.768 22.1209 150.768C21.6489 150.768 21.2529 150.956 20.9329 151.332C20.6209 151.7 20.4649 152.228 20.4649 152.916V156H19.4569ZM32.1713 156.144C31.6753 156.144 31.2633 156.06 30.9353 155.892C30.6073 155.724 30.3633 155.5 30.2033 155.22C30.0433 154.94 29.9633 154.636 29.9633 154.308C29.9633 153.7 30.1953 153.232 30.6593 152.904C31.1233 152.576 31.7553 152.412 32.5553 152.412H34.1633V152.34C34.1633 151.82 34.0273 151.428 33.7553 151.164C33.4833 150.892 33.1193 150.756 32.6633 150.756C32.2713 150.756 31.9313 150.856 31.6433 151.056C31.3633 151.248 31.1873 151.532 31.1153 151.908H30.0833C30.1233 151.476 30.2673 151.112 30.5153 150.816C30.7713 150.52 31.0873 150.296 31.4633 150.144C31.8393 149.984 32.2393 149.904 32.6633 149.904C33.4953 149.904 34.1193 150.128 34.5353 150.576C34.9593 151.016 35.1713 151.604 35.1713 152.34V156H34.2713L34.2113 154.932C34.0433 155.268 33.7953 155.556 33.4673 155.796C33.1473 156.028 32.7153 156.144 32.1713 156.144ZM32.3273 155.292C32.7113 155.292 33.0393 155.192 33.3113 154.992C33.5913 154.792 33.8033 154.532 33.9473 154.212C34.0913 153.892 34.1633 153.556 34.1633 153.204V153.192H32.6393C32.0473 153.192 31.6273 153.296 31.3793 153.504C31.1393 153.704 31.0193 153.956 31.0193 154.26C31.0193 154.572 31.1313 154.824 31.3553 155.016C31.5873 155.2 31.9113 155.292 32.3273 155.292ZM38.8714 156C38.3274 156 37.8994 155.868 37.5874 155.604C37.2754 155.34 37.1194 154.864 37.1194 154.176V150.9H36.0874V150.048H37.1194L37.2514 148.62H38.1274V150.048H39.8794V150.9H38.1274V154.176C38.1274 154.552 38.2034 154.808 38.3554 154.944C38.5074 155.072 38.7754 155.136 39.1594 155.136H39.7834V156H38.8714ZM41.16 156V150.048H42.072L42.156 151.188C42.34 150.796 42.62 150.484 42.996 150.252C43.372 150.02 43.836 149.904 44.388 149.904V150.96H44.112C43.76 150.96 43.436 151.024 43.14 151.152C42.844 151.272 42.608 151.48 42.432 151.776C42.256 152.072 42.168 152.48 42.168 153V156H41.16ZM46.1314 148.728C45.9314 148.728 45.7634 148.664 45.6274 148.536C45.4994 148.4 45.4354 148.232 45.4354 148.032C45.4354 147.84 45.4994 147.68 45.6274 147.552C45.7634 147.424 45.9314 147.36 46.1314 147.36C46.3234 147.36 46.4874 147.424 46.6234 147.552C46.7594 147.68 46.8274 147.84 46.8274 148.032C46.8274 148.232 46.7594 148.4 46.6234 148.536C46.4874 148.664 46.3234 148.728 46.1314 148.728ZM45.6274 156V150.048H46.6354V156H45.6274ZM47.7905 156L49.8545 153.024L47.7905 150.048H48.8825L50.5505 152.508L52.2305 150.048H53.3105L51.2465 153.024L53.3105 156H52.2305L50.5505 153.54L48.8825 156H47.7905ZM60.2788 156.144C59.7108 156.144 59.1988 156.016 58.7428 155.76C58.2948 155.496 57.9388 155.132 57.6748 154.668C57.4188 154.196 57.2908 153.648 57.2908 153.024C57.2908 152.4 57.4188 151.856 57.6748 151.392C57.9388 150.92 58.2948 150.556 58.7428 150.3C59.1988 150.036 59.7108 149.904 60.2788 149.904C60.9828 149.904 61.5748 150.088 62.0548 150.456C62.5428 150.824 62.8508 151.316 62.9788 151.932H61.9468C61.8668 151.564 61.6708 151.28 61.3588 151.08C61.0468 150.872 60.6828 150.768 60.2668 150.768C59.9308 150.768 59.6148 150.852 59.3188 151.02C59.0228 151.188 58.7828 151.44 58.5988 151.776C58.4148 152.112 58.3228 152.528 58.3228 153.024C58.3228 153.52 58.4148 153.936 58.5988 154.272C58.7828 154.608 59.0228 154.864 59.3188 155.04C59.6148 155.208 59.9308 155.292 60.2668 155.292C60.6828 155.292 61.0468 155.192 61.3588 154.992C61.6708 154.784 61.8668 154.492 61.9468 154.116H62.9788C62.8588 154.716 62.5548 155.204 62.0668 155.58C61.5788 155.956 60.9828 156.144 60.2788 156.144ZM67.0986 156.144C66.5386 156.144 66.0346 156.016 65.5866 155.76C65.1386 155.504 64.7826 155.144 64.5186 154.68C64.2626 154.208 64.1346 153.656 64.1346 153.024C64.1346 152.392 64.2666 151.844 64.5306 151.38C64.7946 150.908 65.1506 150.544 65.5986 150.288C66.0546 150.032 66.5626 149.904 67.1226 149.904C67.6826 149.904 68.1866 150.032 68.6346 150.288C69.0826 150.544 69.4346 150.908 69.6906 151.38C69.9546 151.844 70.0866 152.392 70.0866 153.024C70.0866 153.656 69.9546 154.208 69.6906 154.68C69.4266 155.144 69.0666 155.504 68.6106 155.76C68.1626 156.016 67.6586 156.144 67.0986 156.144ZM67.0986 155.28C67.4426 155.28 67.7626 155.196 68.0586 155.028C68.3546 154.86 68.5946 154.608 68.7786 154.272C68.9626 153.936 69.0546 153.52 69.0546 153.024C69.0546 152.528 68.9626 152.112 68.7786 151.776C68.6026 151.44 68.3666 151.188 68.0706 151.02C67.7746 150.852 67.4586 150.768 67.1226 150.768C66.7786 150.768 66.4586 150.852 66.1626 151.02C65.8666 151.188 65.6266 151.44 65.4426 151.776C65.2586 152.112 65.1666 152.528 65.1666 153.024C65.1666 153.52 65.2586 153.936 65.4426 154.272C65.6266 154.608 65.8626 154.86 66.1506 155.028C66.4466 155.196 66.7626 155.28 67.0986 155.28ZM74.1882 156.144C73.5962 156.144 73.0762 156.008 72.6282 155.736C72.1882 155.464 71.8442 155.092 71.5962 154.62C71.3562 154.148 71.2362 153.612 71.2362 153.012C71.2362 152.412 71.3602 151.88 71.6082 151.416C71.8562 150.944 72.2002 150.576 72.6402 150.312C73.0802 150.04 73.6002 149.904 74.2002 149.904C74.6882 149.904 75.1202 150.004 75.4962 150.204C75.8722 150.404 76.1642 150.684 76.3722 151.044V147.36H77.3802V156H76.4682L76.3722 155.016C76.1802 155.304 75.9042 155.564 75.5442 155.796C75.1842 156.028 74.7322 156.144 74.1882 156.144ZM74.2962 155.268C74.6962 155.268 75.0482 155.176 75.3522 154.992C75.6642 154.8 75.9042 154.536 76.0722 154.2C76.2482 153.864 76.3362 153.472 76.3362 153.024C76.3362 152.576 76.2482 152.184 76.0722 151.848C75.9042 151.512 75.6642 151.252 75.3522 151.068C75.0482 150.876 74.6962 150.78 74.2962 150.78C73.9042 150.78 73.5522 150.876 73.2402 151.068C72.9362 151.252 72.6962 151.512 72.5202 151.848C72.3522 152.184 72.2682 152.576 72.2682 153.024C72.2682 153.472 72.3522 153.864 72.5202 154.2C72.6962 154.536 72.9362 154.8 73.2402 154.992C73.5522 155.176 73.9042 155.268 74.2962 155.268ZM81.6993 156.144C81.1313 156.144 80.6273 156.016 80.1873 155.76C79.7473 155.496 79.3993 155.132 79.1433 154.668C78.8953 154.204 78.7713 153.656 78.7713 153.024C78.7713 152.4 78.8953 151.856 79.1433 151.392C79.3913 150.92 79.7353 150.556 80.1753 150.3C80.6233 150.036 81.1393 149.904 81.7233 149.904C82.2993 149.904 82.7953 150.036 83.2113 150.3C83.6353 150.556 83.9593 150.896 84.1833 151.32C84.4073 151.744 84.5193 152.2 84.5193 152.688C84.5193 152.776 84.5153 152.864 84.5073 152.952C84.5073 153.04 84.5073 153.14 84.5073 153.252H79.7673C79.7913 153.708 79.8953 154.088 80.0793 154.392C80.2713 154.688 80.5073 154.912 80.7873 155.064C81.0753 155.216 81.3793 155.292 81.6993 155.292C82.1153 155.292 82.4633 155.196 82.7433 155.004C83.0233 154.812 83.2273 154.552 83.3553 154.224H84.3513C84.1913 154.776 83.8833 155.236 83.4273 155.604C82.9793 155.964 82.4033 156.144 81.6993 156.144ZM81.6993 150.756C81.2193 150.756 80.7913 150.904 80.4153 151.2C80.0473 151.488 79.8353 151.912 79.7793 152.472H83.5233C83.4993 151.936 83.3153 151.516 82.9713 151.212C82.6273 150.908 82.2033 150.756 81.6993 150.756ZM86.2033 156.06C86.0033 156.06 85.8353 155.996 85.6993 155.868C85.5713 155.732 85.5073 155.568 85.5073 155.376C85.5073 155.184 85.5713 155.024 85.6993 154.896C85.8353 154.76 86.0033 154.692 86.2033 154.692C86.3953 154.692 86.5553 154.76 86.6833 154.896C86.8193 155.024 86.8873 155.184 86.8873 155.376C86.8873 155.568 86.8193 155.732 86.6833 155.868C86.5553 155.996 86.3953 156.06 86.2033 156.06Z" fill="black"/>
    <circle cx="174" cy="48" r="48" fill="#F0EFFE"/>
    <g clip-path="url(#clip0)">
        <rect x="154.511" y="14.8928" width="39.9787" height="67.1071" rx="3.40244" fill="#F4F6F6"/>
        <g opacity="0.6">
            <path d="M103.207 8.9101L190.516 8.91044L190.518 55.8353C190.519 57.2363 189.383 58.372 187.982 58.372H103.207V8.9101Z" fill="#F0EFFE"/>
            <path d="M103.207 8.9101L190.516 8.91044L184.706 3.64194C184.24 3.21877 183.632 2.98438 183.002 2.98438H96.6698L103.207 8.9101Z" fill="#F0EFFE"/>
            <path d="M103.204 10.0342C103.204 9.31857 102.901 8.63626 102.371 8.1555L96.6698 2.98438L96.6692 51.3219C96.6692 52.0379 96.9718 52.7206 97.5023 53.2014L103.207 58.372L103.204 10.0342Z" fill="#F0EFFE"/>
            <path d="M103.207 8.9101L190.516 8.91044M103.207 8.9101V58.372M103.207 8.9101L96.6698 2.98438M190.516 8.91044L190.518 55.8353C190.519 57.2363 189.383 58.372 187.982 58.372H103.207M190.516 8.91044L184.706 3.64194C184.24 3.21877 183.632 2.98438 183.002 2.98438H96.6698M103.207 58.372L97.5023 53.2014C96.9718 52.7206 96.6692 52.0379 96.6692 51.3219L96.6698 2.98438M103.207 58.372L103.204 10.0342C103.204 9.31857 102.901 8.63626 102.371 8.1555L96.6698 2.98438" stroke="#02272F" stroke-width="1.70122" stroke-linejoin="round"/>
            <rect x="110.862" y="15.2516" width="51.5087" height="9.04883" fill="#B3AFF9"/>
            <rect x="166.425" y="51.5031" width="17.2276" height="1.56614" fill="#02272F"/>
            <rect x="166.424" y="34.2756" width="1.56614" height="17.2276" fill="#02272F"/>
            <rect x="167.991" y="35.8416" width="1.56614" height="1.56614" fill="#02272F"/>
            <rect x="169.557" y="34.2755" width="1.56614" height="1.56614" fill="#02272F"/>
            <rect x="171.123" y="35.8416" width="1.56614" height="1.56614" fill="#02272F"/>
            <rect x="172.69" y="37.408" width="1.56614" height="1.56614" fill="#02272F"/>
            <rect x="180.521" y="35.8416" width="1.56614" height="1.56614" fill="#02272F"/>
            <rect x="182.086" y="35.8416" width="1.56614" height="1.56614" fill="#02272F"/>
            <rect x="180.521" y="34.2755" width="1.56614" height="1.56614" fill="#02272F"/>
            <rect x="182.086" y="37.408" width="1.56614" height="1.56614" fill="#02272F"/>
            <rect x="167.991" y="38.974" width="1.56614" height="1.56614" fill="#02272F"/>
            <rect x="169.557" y="45.2383" width="1.56614" height="1.56614" fill="#02272F"/>
            <rect x="175.822" y="45.2383" width="7.83072" height="1.56614" fill="#02272F"/>
            <rect x="172.69" y="43.6723" width="1.56614" height="4.69843" fill="#02272F"/>
            <rect x="182.086" y="46.8047" width="1.56614" height="1.56614" fill="#02272F"/>
            <rect x="177.388" y="43.6723" width="1.56614" height="1.56614" fill="#02272F"/>
            <rect x="177.388" y="35.8416" width="1.56614" height="4.69843" fill="#02272F"/>
            <rect x="177.388" y="40.54" width="4.69843" height="1.56614" fill="#02272F"/>
            <rect x="175.822" y="40.54" width="1.56614" height="4.69843" fill="#02272F"/>
            <rect x="180.521" y="43.6723" width="1.56614" height="1.56614" fill="#02272F"/>
            <rect x="175.822" y="34.2755" width="1.56614" height="4.69843" fill="#02272F"/>
            <rect x="171.123" y="48.3708" width="9.39687" height="1.56614" fill="#02272F"/>
            <rect x="167.991" y="48.3708" width="1.56614" height="1.56614" fill="#02272F"/>
            <rect x="167.991" y="49.937" width="1.56614" height="1.56614" fill="#02272F"/>
            <rect x="169.557" y="49.937" width="1.56614" height="1.56614" fill="#02272F"/>
            <rect x="169.557" y="40.54" width="3.13229" height="3.13229" fill="#02272F"/>
        </g>
        <rect x="154.511" y="14.8928" width="39.9787" height="67.1982" fill="white" fill-opacity="0.12"/>
        <path fill-rule="evenodd" clip-rule="evenodd" d="M183.913 16.8928H191.087C191.861 16.8928 192.489 17.5207 192.489 18.2953V78.5974C192.489 79.372 191.861 79.9998 191.087 79.9998H157.913C157.139 79.9998 156.511 79.372 156.511 78.5974V18.2953C156.511 17.5207 157.139 16.8928 157.913 16.8928H165.352C165.351 17.3314 165.352 17.7705 165.357 18.744C165.361 19.4347 165.797 19.8889 166.427 19.8889C171.898 19.8922 177.367 19.8922 182.838 19.8889C183.51 19.8889 183.908 19.4127 183.911 18.6209C183.914 18.0543 183.914 17.4877 183.913 16.9211C183.913 16.9116 183.913 16.9022 183.913 16.8928ZM154.511 18.2953C154.511 16.4162 156.034 14.8928 157.913 14.8928H191.087C192.966 14.8928 194.489 16.4161 194.489 18.2953V78.5974C194.489 80.4765 192.966 81.9998 191.087 81.9998H157.913C156.034 81.9998 154.511 80.4765 154.511 78.5974V18.2953Z" fill="#1C2228"/>
        <path d="M167.232 30.5367H164.611C163.731 30.5367 163.017 31.2504 163.017 32.1307V34.6672" stroke="#02272F" stroke-width="2" stroke-linecap="round"/>
        <path d="M186.366 34.7097L186.366 32.0889C186.366 31.2086 185.653 30.495 184.772 30.495L182.236 30.495" stroke="#02272F" stroke-width="2" stroke-linecap="round"/>
        <path d="M182.194 61.726L184.815 61.726C185.695 61.726 186.409 61.0124 186.409 60.1321L186.409 57.5956" stroke="#02272F" stroke-width="2" stroke-linecap="round"/>
        <path d="M163.017 57.5536L163.017 60.1744C163.017 61.0547 163.731 61.7684 164.611 61.7684L167.147 61.7684" stroke="#02272F" stroke-width="2" stroke-linecap="round"/>
    </g>
    <path d="M157.891 116.144C157.275 116.144 156.731 116.04 156.259 115.832C155.787 115.616 155.415 115.312 155.143 114.92C154.871 114.52 154.731 114.036 154.723 113.468H156.343C156.359 113.86 156.499 114.192 156.763 114.464C157.035 114.728 157.407 114.86 157.879 114.86C158.287 114.86 158.611 114.764 158.851 114.572C159.091 114.372 159.211 114.108 159.211 113.78C159.211 113.436 159.103 113.168 158.887 112.976C158.679 112.784 158.399 112.628 158.047 112.508C157.695 112.388 157.319 112.26 156.919 112.124C156.271 111.9 155.775 111.612 155.431 111.26C155.095 110.908 154.927 110.44 154.927 109.856C154.919 109.36 155.035 108.936 155.275 108.584C155.523 108.224 155.859 107.948 156.283 107.756C156.707 107.556 157.195 107.456 157.747 107.456C158.307 107.456 158.799 107.556 159.223 107.756C159.655 107.956 159.991 108.236 160.231 108.596C160.479 108.956 160.611 109.384 160.627 109.88H158.983C158.975 109.584 158.859 109.324 158.635 109.1C158.419 108.868 158.115 108.752 157.723 108.752C157.387 108.744 157.103 108.828 156.871 109.004C156.647 109.172 156.535 109.42 156.535 109.748C156.535 110.028 156.623 110.252 156.799 110.42C156.975 110.58 157.215 110.716 157.519 110.828C157.823 110.94 158.171 111.06 158.563 111.188C158.979 111.332 159.359 111.5 159.703 111.692C160.047 111.884 160.323 112.14 160.531 112.46C160.739 112.772 160.843 113.176 160.843 113.672C160.843 114.112 160.731 114.52 160.507 114.896C160.283 115.272 159.951 115.576 159.511 115.808C159.071 116.032 158.531 116.144 157.891 116.144ZM164.334 116V108.836H161.886V107.6H168.33V108.836H165.87V116H164.334ZM169.768 116V107.6H175.252V108.836H171.304V111.14H174.892V112.34H171.304V114.764H175.252V116H169.768ZM177.005 116V107.6H180.113C180.785 107.6 181.341 107.712 181.781 107.936C182.221 108.16 182.549 108.468 182.765 108.86C182.981 109.252 183.089 109.692 183.089 110.18C183.089 110.644 182.985 111.072 182.777 111.464C182.569 111.848 182.245 112.16 181.805 112.4C181.365 112.632 180.801 112.748 180.113 112.748H178.541V116H177.005ZM178.541 111.5H180.017C180.553 111.5 180.937 111.384 181.169 111.152C181.409 110.912 181.529 110.588 181.529 110.18C181.529 109.764 181.409 109.44 181.169 109.208C180.937 108.968 180.553 108.848 180.017 108.848H178.541V111.5ZM187.55 116V114.884C188.062 114.46 188.558 114.04 189.038 113.624C189.526 113.208 189.958 112.796 190.334 112.388C190.718 111.98 191.022 111.584 191.246 111.2C191.478 110.808 191.594 110.428 191.594 110.06C191.594 109.716 191.498 109.412 191.306 109.148C191.122 108.884 190.814 108.752 190.382 108.752C189.942 108.752 189.61 108.896 189.386 109.184C189.162 109.472 189.05 109.82 189.05 110.228H187.562C187.578 109.612 187.714 109.1 187.97 108.692C188.226 108.276 188.566 107.968 188.99 107.768C189.414 107.56 189.89 107.456 190.418 107.456C191.274 107.456 191.938 107.692 192.41 108.164C192.89 108.628 193.13 109.232 193.13 109.976C193.13 110.44 193.022 110.892 192.806 111.332C192.598 111.772 192.322 112.196 191.978 112.604C191.634 113.012 191.262 113.396 190.862 113.756C190.462 114.108 190.074 114.436 189.698 114.74H193.334V116H187.55Z" fill="black"/>
    <path d="M148.32 140.144C147.704 140.144 147.168 140.032 146.712 139.808C146.256 139.584 145.904 139.272 145.656 138.872C145.408 138.472 145.284 138.008 145.284 137.48H146.34C146.34 137.808 146.416 138.112 146.568 138.392C146.72 138.664 146.94 138.884 147.228 139.052C147.524 139.212 147.888 139.292 148.32 139.292C148.888 139.292 149.328 139.156 149.64 138.884C149.952 138.612 150.108 138.272 150.108 137.864C150.108 137.528 150.036 137.26 149.892 137.06C149.748 136.852 149.552 136.684 149.304 136.556C149.064 136.428 148.784 136.316 148.464 136.22C148.152 136.124 147.824 136.016 147.48 135.896C146.832 135.672 146.352 135.396 146.04 135.068C145.728 134.732 145.572 134.296 145.572 133.76C145.564 133.312 145.668 132.916 145.884 132.572C146.1 132.22 146.404 131.948 146.796 131.756C147.196 131.556 147.668 131.456 148.212 131.456C148.748 131.456 149.212 131.556 149.604 131.756C150.004 131.956 150.312 132.232 150.528 132.584C150.752 132.936 150.868 133.336 150.876 133.784H149.82C149.82 133.552 149.76 133.324 149.64 133.1C149.52 132.868 149.336 132.68 149.088 132.536C148.848 132.392 148.544 132.32 148.176 132.32C147.72 132.312 147.344 132.428 147.048 132.668C146.76 132.908 146.616 133.24 146.616 133.664C146.616 134.024 146.716 134.3 146.916 134.492C147.124 134.684 147.412 134.844 147.78 134.972C148.148 135.092 148.572 135.232 149.052 135.392C149.452 135.536 149.812 135.704 150.132 135.896C150.452 136.088 150.7 136.336 150.876 136.64C151.06 136.944 151.152 137.332 151.152 137.804C151.152 138.204 151.048 138.584 150.84 138.944C150.632 139.296 150.316 139.584 149.892 139.808C149.476 140.032 148.952 140.144 148.32 140.144ZM155.257 140.144C154.689 140.144 154.177 140.016 153.721 139.76C153.273 139.496 152.917 139.132 152.653 138.668C152.397 138.196 152.269 137.648 152.269 137.024C152.269 136.4 152.397 135.856 152.653 135.392C152.917 134.92 153.273 134.556 153.721 134.3C154.177 134.036 154.689 133.904 155.257 133.904C155.961 133.904 156.553 134.088 157.033 134.456C157.521 134.824 157.829 135.316 157.957 135.932H156.925C156.845 135.564 156.649 135.28 156.337 135.08C156.025 134.872 155.661 134.768 155.245 134.768C154.909 134.768 154.593 134.852 154.297 135.02C154.001 135.188 153.761 135.44 153.577 135.776C153.393 136.112 153.301 136.528 153.301 137.024C153.301 137.52 153.393 137.936 153.577 138.272C153.761 138.608 154.001 138.864 154.297 139.04C154.593 139.208 154.909 139.292 155.245 139.292C155.661 139.292 156.025 139.192 156.337 138.992C156.649 138.784 156.845 138.492 156.925 138.116H157.957C157.837 138.716 157.533 139.204 157.045 139.58C156.557 139.956 155.961 140.144 155.257 140.144ZM161.345 140.144C160.849 140.144 160.437 140.06 160.109 139.892C159.781 139.724 159.537 139.5 159.377 139.22C159.217 138.94 159.137 138.636 159.137 138.308C159.137 137.7 159.369 137.232 159.833 136.904C160.297 136.576 160.929 136.412 161.729 136.412H163.337V136.34C163.337 135.82 163.201 135.428 162.929 135.164C162.657 134.892 162.293 134.756 161.837 134.756C161.445 134.756 161.105 134.856 160.817 135.056C160.537 135.248 160.361 135.532 160.289 135.908H159.257C159.297 135.476 159.441 135.112 159.689 134.816C159.945 134.52 160.261 134.296 160.637 134.144C161.013 133.984 161.413 133.904 161.837 133.904C162.669 133.904 163.293 134.128 163.709 134.576C164.133 135.016 164.345 135.604 164.345 136.34V140H163.445L163.385 138.932C163.217 139.268 162.969 139.556 162.641 139.796C162.321 140.028 161.889 140.144 161.345 140.144ZM161.501 139.292C161.885 139.292 162.213 139.192 162.485 138.992C162.765 138.792 162.977 138.532 163.121 138.212C163.265 137.892 163.337 137.556 163.337 137.204V137.192H161.813C161.221 137.192 160.801 137.296 160.553 137.504C160.313 137.704 160.193 137.956 160.193 138.26C160.193 138.572 160.305 138.824 160.529 139.016C160.761 139.2 161.085 139.292 161.501 139.292ZM165.857 140V134.048H166.769L166.829 135.116C167.021 134.74 167.297 134.444 167.657 134.228C168.017 134.012 168.425 133.904 168.881 133.904C169.585 133.904 170.145 134.12 170.561 134.552C170.985 134.976 171.197 135.632 171.197 136.52V140H170.189V136.628C170.189 135.388 169.677 134.768 168.653 134.768C168.141 134.768 167.713 134.956 167.369 135.332C167.033 135.7 166.865 136.228 166.865 136.916V140H165.857ZM178.6 140.144C178.008 140.144 177.488 140.008 177.04 139.736C176.6 139.464 176.256 139.092 176.008 138.62C175.768 138.148 175.648 137.612 175.648 137.012C175.648 136.412 175.772 135.88 176.02 135.416C176.268 134.944 176.612 134.576 177.052 134.312C177.492 134.04 178.012 133.904 178.612 133.904C179.1 133.904 179.532 134.004 179.908 134.204C180.284 134.404 180.576 134.684 180.784 135.044V131.36H181.792V140H180.88L180.784 139.016C180.592 139.304 180.316 139.564 179.956 139.796C179.596 140.028 179.144 140.144 178.6 140.144ZM178.708 139.268C179.108 139.268 179.46 139.176 179.764 138.992C180.076 138.8 180.316 138.536 180.484 138.2C180.66 137.864 180.748 137.472 180.748 137.024C180.748 136.576 180.66 136.184 180.484 135.848C180.316 135.512 180.076 135.252 179.764 135.068C179.46 134.876 179.108 134.78 178.708 134.78C178.316 134.78 177.964 134.876 177.652 135.068C177.348 135.252 177.108 135.512 176.932 135.848C176.764 136.184 176.68 136.576 176.68 137.024C176.68 137.472 176.764 137.864 176.932 138.2C177.108 138.536 177.348 138.8 177.652 138.992C177.964 139.176 178.316 139.268 178.708 139.268ZM185.415 140.144C184.919 140.144 184.507 140.06 184.179 139.892C183.851 139.724 183.607 139.5 183.447 139.22C183.287 138.94 183.207 138.636 183.207 138.308C183.207 137.7 183.439 137.232 183.903 136.904C184.367 136.576 184.999 136.412 185.799 136.412H187.407V136.34C187.407 135.82 187.271 135.428 186.999 135.164C186.727 134.892 186.363 134.756 185.907 134.756C185.515 134.756 185.175 134.856 184.887 135.056C184.607 135.248 184.431 135.532 184.359 135.908H183.327C183.367 135.476 183.511 135.112 183.759 134.816C184.015 134.52 184.331 134.296 184.707 134.144C185.083 133.984 185.483 133.904 185.907 133.904C186.739 133.904 187.363 134.128 187.779 134.576C188.203 135.016 188.415 135.604 188.415 136.34V140H187.515L187.455 138.932C187.287 139.268 187.039 139.556 186.711 139.796C186.391 140.028 185.959 140.144 185.415 140.144ZM185.571 139.292C185.955 139.292 186.283 139.192 186.555 138.992C186.835 138.792 187.047 138.532 187.191 138.212C187.335 137.892 187.407 137.556 187.407 137.204V137.192H185.883C185.291 137.192 184.871 137.296 184.623 137.504C184.383 137.704 184.263 137.956 184.263 138.26C184.263 138.572 184.375 138.824 184.599 139.016C184.831 139.2 185.155 139.292 185.571 139.292ZM192.116 140C191.572 140 191.144 139.868 190.832 139.604C190.52 139.34 190.364 138.864 190.364 138.176V134.9H189.332V134.048H190.364L190.496 132.62H191.372V134.048H193.124V134.9H191.372V138.176C191.372 138.552 191.448 138.808 191.6 138.944C191.752 139.072 192.02 139.136 192.404 139.136H193.028V140H192.116ZM196.384 140.144C195.888 140.144 195.476 140.06 195.148 139.892C194.82 139.724 194.576 139.5 194.416 139.22C194.256 138.94 194.176 138.636 194.176 138.308C194.176 137.7 194.408 137.232 194.872 136.904C195.336 136.576 195.968 136.412 196.768 136.412H198.376V136.34C198.376 135.82 198.24 135.428 197.968 135.164C197.696 134.892 197.332 134.756 196.876 134.756C196.484 134.756 196.144 134.856 195.856 135.056C195.576 135.248 195.4 135.532 195.328 135.908H194.296C194.336 135.476 194.48 135.112 194.728 134.816C194.984 134.52 195.3 134.296 195.676 134.144C196.052 133.984 196.452 133.904 196.876 133.904C197.708 133.904 198.332 134.128 198.748 134.576C199.172 135.016 199.384 135.604 199.384 136.34V140H198.484L198.424 138.932C198.256 139.268 198.008 139.556 197.68 139.796C197.36 140.028 196.928 140.144 196.384 140.144ZM196.54 139.292C196.924 139.292 197.252 139.192 197.524 138.992C197.804 138.792 198.016 138.532 198.16 138.212C198.304 137.892 198.376 137.556 198.376 137.204V137.192H196.852C196.26 137.192 195.84 137.296 195.592 137.504C195.352 137.704 195.232 137.956 195.232 138.26C195.232 138.572 195.344 138.824 195.568 139.016C195.8 139.2 196.124 139.292 196.54 139.292ZM140.457 156V150.048H141.369L141.441 150.912C141.633 150.592 141.889 150.344 142.209 150.168C142.529 149.992 142.889 149.904 143.289 149.904C143.761 149.904 144.165 150 144.501 150.192C144.845 150.384 145.109 150.676 145.293 151.068C145.501 150.708 145.785 150.424 146.145 150.216C146.513 150.008 146.909 149.904 147.333 149.904C148.045 149.904 148.613 150.12 149.037 150.552C149.461 150.976 149.673 151.632 149.673 152.52V156H148.677V152.628C148.677 152.012 148.553 151.548 148.305 151.236C148.057 150.924 147.701 150.768 147.237 150.768C146.757 150.768 146.357 150.956 146.037 151.332C145.725 151.7 145.569 152.228 145.569 152.916V156H144.561V152.628C144.561 152.012 144.437 151.548 144.189 151.236C143.941 150.924 143.585 150.768 143.121 150.768C142.649 150.768 142.253 150.956 141.933 151.332C141.621 151.7 141.465 152.228 141.465 152.916V156H140.457ZM153.171 156.144C152.675 156.144 152.263 156.06 151.935 155.892C151.607 155.724 151.363 155.5 151.203 155.22C151.043 154.94 150.963 154.636 150.963 154.308C150.963 153.7 151.195 153.232 151.659 152.904C152.123 152.576 152.755 152.412 153.555 152.412H155.163V152.34C155.163 151.82 155.027 151.428 154.755 151.164C154.483 150.892 154.119 150.756 153.663 150.756C153.271 150.756 152.931 150.856 152.643 151.056C152.363 151.248 152.187 151.532 152.115 151.908H151.083C151.123 151.476 151.267 151.112 151.515 150.816C151.771 150.52 152.087 150.296 152.463 150.144C152.839 149.984 153.239 149.904 153.663 149.904C154.495 149.904 155.119 150.128 155.535 150.576C155.959 151.016 156.171 151.604 156.171 152.34V156H155.271L155.211 154.932C155.043 155.268 154.795 155.556 154.467 155.796C154.147 156.028 153.715 156.144 153.171 156.144ZM153.327 155.292C153.711 155.292 154.039 155.192 154.311 154.992C154.591 154.792 154.803 154.532 154.947 154.212C155.091 153.892 155.163 153.556 155.163 153.204V153.192H153.639C153.047 153.192 152.627 153.296 152.379 153.504C152.139 153.704 152.019 153.956 152.019 154.26C152.019 154.572 152.131 154.824 152.355 155.016C152.587 155.2 152.911 155.292 153.327 155.292ZM159.871 156C159.327 156 158.899 155.868 158.587 155.604C158.275 155.34 158.119 154.864 158.119 154.176V150.9H157.087V150.048H158.119L158.251 148.62H159.127V150.048H160.879V150.9H159.127V154.176C159.127 154.552 159.203 154.808 159.355 154.944C159.507 155.072 159.775 155.136 160.159 155.136H160.783V156H159.871ZM162.16 156V150.048H163.072L163.156 151.188C163.34 150.796 163.62 150.484 163.996 150.252C164.372 150.02 164.836 149.904 165.388 149.904V150.96H165.112C164.76 150.96 164.436 151.024 164.14 151.152C163.844 151.272 163.608 151.48 163.432 151.776C163.256 152.072 163.168 152.48 163.168 153V156H162.16ZM167.131 148.728C166.931 148.728 166.763 148.664 166.627 148.536C166.499 148.4 166.435 148.232 166.435 148.032C166.435 147.84 166.499 147.68 166.627 147.552C166.763 147.424 166.931 147.36 167.131 147.36C167.323 147.36 167.487 147.424 167.623 147.552C167.759 147.68 167.827 147.84 167.827 148.032C167.827 148.232 167.759 148.4 167.623 148.536C167.487 148.664 167.323 148.728 167.131 148.728ZM166.627 156V150.048H167.635V156H166.627ZM168.791 156L170.855 153.024L168.791 150.048H169.883L171.551 152.508L173.231 150.048H174.311L172.247 153.024L174.311 156H173.231L171.551 153.54L169.883 156H168.791ZM181.279 156.144C180.711 156.144 180.199 156.016 179.743 155.76C179.295 155.496 178.939 155.132 178.675 154.668C178.419 154.196 178.291 153.648 178.291 153.024C178.291 152.4 178.419 151.856 178.675 151.392C178.939 150.92 179.295 150.556 179.743 150.3C180.199 150.036 180.711 149.904 181.279 149.904C181.983 149.904 182.575 150.088 183.055 150.456C183.543 150.824 183.851 151.316 183.979 151.932H182.947C182.867 151.564 182.671 151.28 182.359 151.08C182.047 150.872 181.683 150.768 181.267 150.768C180.931 150.768 180.615 150.852 180.319 151.02C180.023 151.188 179.783 151.44 179.599 151.776C179.415 152.112 179.323 152.528 179.323 153.024C179.323 153.52 179.415 153.936 179.599 154.272C179.783 154.608 180.023 154.864 180.319 155.04C180.615 155.208 180.931 155.292 181.267 155.292C181.683 155.292 182.047 155.192 182.359 154.992C182.671 154.784 182.867 154.492 182.947 154.116H183.979C183.859 154.716 183.555 155.204 183.067 155.58C182.579 155.956 181.983 156.144 181.279 156.144ZM188.099 156.144C187.539 156.144 187.035 156.016 186.587 155.76C186.139 155.504 185.783 155.144 185.519 154.68C185.263 154.208 185.135 153.656 185.135 153.024C185.135 152.392 185.267 151.844 185.531 151.38C185.795 150.908 186.151 150.544 186.599 150.288C187.055 150.032 187.563 149.904 188.123 149.904C188.683 149.904 189.187 150.032 189.635 150.288C190.083 150.544 190.435 150.908 190.691 151.38C190.955 151.844 191.087 152.392 191.087 153.024C191.087 153.656 190.955 154.208 190.691 154.68C190.427 155.144 190.067 155.504 189.611 155.76C189.163 156.016 188.659 156.144 188.099 156.144ZM188.099 155.28C188.443 155.28 188.763 155.196 189.059 155.028C189.355 154.86 189.595 154.608 189.779 154.272C189.963 153.936 190.055 153.52 190.055 153.024C190.055 152.528 189.963 152.112 189.779 151.776C189.603 151.44 189.367 151.188 189.071 151.02C188.775 150.852 188.459 150.768 188.123 150.768C187.779 150.768 187.459 150.852 187.163 151.02C186.867 151.188 186.627 151.44 186.443 151.776C186.259 152.112 186.167 152.528 186.167 153.024C186.167 153.52 186.259 153.936 186.443 154.272C186.627 154.608 186.863 154.86 187.151 155.028C187.447 155.196 187.763 155.28 188.099 155.28ZM195.188 156.144C194.596 156.144 194.076 156.008 193.628 155.736C193.188 155.464 192.844 155.092 192.596 154.62C192.356 154.148 192.236 153.612 192.236 153.012C192.236 152.412 192.36 151.88 192.608 151.416C192.856 150.944 193.2 150.576 193.64 150.312C194.08 150.04 194.6 149.904 195.2 149.904C195.688 149.904 196.12 150.004 196.496 150.204C196.872 150.404 197.164 150.684 197.372 151.044V147.36H198.38V156H197.468L197.372 155.016C197.18 155.304 196.904 155.564 196.544 155.796C196.184 156.028 195.732 156.144 195.188 156.144ZM195.296 155.268C195.696 155.268 196.048 155.176 196.352 154.992C196.664 154.8 196.904 154.536 197.072 154.2C197.248 153.864 197.336 153.472 197.336 153.024C197.336 152.576 197.248 152.184 197.072 151.848C196.904 151.512 196.664 151.252 196.352 151.068C196.048 150.876 195.696 150.78 195.296 150.78C194.904 150.78 194.552 150.876 194.24 151.068C193.936 151.252 193.696 151.512 193.52 151.848C193.352 152.184 193.268 152.576 193.268 153.024C193.268 153.472 193.352 153.864 193.52 154.2C193.696 154.536 193.936 154.8 194.24 154.992C194.552 155.176 194.904 155.268 195.296 155.268ZM202.699 156.144C202.131 156.144 201.627 156.016 201.187 155.76C200.747 155.496 200.399 155.132 200.143 154.668C199.895 154.204 199.771 153.656 199.771 153.024C199.771 152.4 199.895 151.856 200.143 151.392C200.391 150.92 200.735 150.556 201.175 150.3C201.623 150.036 202.139 149.904 202.723 149.904C203.299 149.904 203.795 150.036 204.211 150.3C204.635 150.556 204.959 150.896 205.183 151.32C205.407 151.744 205.519 152.2 205.519 152.688C205.519 152.776 205.515 152.864 205.507 152.952C205.507 153.04 205.507 153.14 205.507 153.252H200.767C200.791 153.708 200.895 154.088 201.079 154.392C201.271 154.688 201.507 154.912 201.787 155.064C202.075 155.216 202.379 155.292 202.699 155.292C203.115 155.292 203.463 155.196 203.743 155.004C204.023 154.812 204.227 154.552 204.355 154.224H205.351C205.191 154.776 204.883 155.236 204.427 155.604C203.979 155.964 203.403 156.144 202.699 156.144ZM202.699 150.756C202.219 150.756 201.791 150.904 201.415 151.2C201.047 151.488 200.835 151.912 200.779 152.472H204.523C204.499 151.936 204.315 151.516 203.971 151.212C203.627 150.908 203.203 150.756 202.699 150.756ZM207.203 156.06C207.003 156.06 206.835 155.996 206.699 155.868C206.571 155.732 206.507 155.568 206.507 155.376C206.507 155.184 206.571 155.024 206.699 154.896C206.835 154.76 207.003 154.692 207.203 154.692C207.395 154.692 207.555 154.76 207.683 154.896C207.819 155.024 207.887 155.184 207.887 155.376C207.887 155.568 207.819 155.732 207.683 155.868C207.555 155.996 207.395 156.06 207.203 156.06Z" fill="black"/>
    <circle cx="290" cy="48" r="48" fill="#F0EFFE"/>
    <rect x="266" y="45" width="49" height="16" rx="3.18043" fill="#F9FBFB"/>
    <rect x="269" y="48.1804" width="9.54128" height="9.54128" rx="4.77064" fill="#B3AFF9"/>
    <rect opacity="0.4" x="281.722" y="48.451" width="14" height="3" fill="#B3AFF9"/>
    <rect opacity="0.4" x="281.722" y="52.451" width="26" height="2" fill="#B3AFF9"/>
    <rect x="281.722" y="55.451" width="16" height="2" fill="#F86458"/>
    <rect x="266" y="45" width="49" height="16" rx="3.18043" stroke="black" stroke-width="2"/>
    <rect x="266" y="66" width="49" height="16" rx="3.18043" fill="#F9FBFB"/>
    <rect x="269" y="69.1804" width="9.54128" height="9.54128" rx="4.77064" fill="#B3AFF9"/>
    <rect opacity="0.4" x="281.722" y="70.951" width="21" height="3" fill="#B3AFF9"/>
    <rect opacity="0.4" x="281.722" y="74.951" width="22" height="2" fill="#B3AFF9"/>
    <rect x="266" y="66" width="49" height="16" rx="3.18043" stroke="black" stroke-width="2"/>
    <rect x="266" y="19" width="48" height="16" rx="3.18043" fill="#B3AFF9"/>
    <rect x="269" y="22" width="9.54128" height="9.54128" rx="4.77064" fill="#F0EFFE"/>
    <rect x="281.722" y="23.7706" width="14" height="3" fill="white"/>
    <rect x="281.722" y="27.7706" width="26" height="2" fill="white"/>
    <rect x="266" y="19" width="48" height="16" rx="3.18043" stroke="black" stroke-width="2"/>
    <path d="M266 40H283.5" stroke="black" stroke-width="2"/>
    <path d="M266 14H283.5" stroke="black" stroke-width="2"/>
    <path d="M273.745 116.144C273.129 116.144 272.585 116.04 272.113 115.832C271.641 115.616 271.269 115.312 270.997 114.92C270.725 114.52 270.585 114.036 270.577 113.468H272.197C272.213 113.86 272.353 114.192 272.617 114.464C272.889 114.728 273.261 114.86 273.733 114.86C274.141 114.86 274.465 114.764 274.705 114.572C274.945 114.372 275.065 114.108 275.065 113.78C275.065 113.436 274.957 113.168 274.741 112.976C274.533 112.784 274.253 112.628 273.901 112.508C273.549 112.388 273.173 112.26 272.773 112.124C272.125 111.9 271.629 111.612 271.285 111.26C270.949 110.908 270.781 110.44 270.781 109.856C270.773 109.36 270.889 108.936 271.129 108.584C271.377 108.224 271.713 107.948 272.137 107.756C272.561 107.556 273.049 107.456 273.601 107.456C274.161 107.456 274.653 107.556 275.077 107.756C275.509 107.956 275.845 108.236 276.085 108.596C276.333 108.956 276.465 109.384 276.481 109.88H274.837C274.829 109.584 274.713 109.324 274.489 109.1C274.273 108.868 273.969 108.752 273.577 108.752C273.241 108.744 272.957 108.828 272.725 109.004C272.501 109.172 272.389 109.42 272.389 109.748C272.389 110.028 272.477 110.252 272.653 110.42C272.829 110.58 273.069 110.716 273.373 110.828C273.677 110.94 274.025 111.06 274.417 111.188C274.833 111.332 275.213 111.5 275.557 111.692C275.901 111.884 276.177 112.14 276.385 112.46C276.593 112.772 276.697 113.176 276.697 113.672C276.697 114.112 276.585 114.52 276.361 114.896C276.137 115.272 275.805 115.576 275.365 115.808C274.925 116.032 274.385 116.144 273.745 116.144ZM280.187 116V108.836H277.739V107.6H284.183V108.836H281.723V116H280.187ZM285.621 116V107.6H291.105V108.836H287.157V111.14H290.745V112.34H287.157V114.764H291.105V116H285.621ZM292.859 116V107.6H295.967C296.639 107.6 297.195 107.712 297.635 107.936C298.075 108.16 298.403 108.468 298.619 108.86C298.835 109.252 298.943 109.692 298.943 110.18C298.943 110.644 298.839 111.072 298.631 111.464C298.423 111.848 298.099 112.16 297.659 112.4C297.219 112.632 296.655 112.748 295.967 112.748H294.395V116H292.859ZM294.395 111.5H295.871C296.407 111.5 296.791 111.384 297.023 111.152C297.263 110.912 297.383 110.588 297.383 110.18C297.383 109.764 297.263 109.44 297.023 109.208C296.791 108.968 296.407 108.848 295.871 108.848H294.395V111.5ZM306.355 116.144C305.803 116.144 305.303 116.048 304.855 115.856C304.407 115.656 304.047 115.352 303.775 114.944C303.503 114.536 303.359 114.024 303.343 113.408H304.855C304.863 113.816 304.995 114.16 305.251 114.44C305.515 114.712 305.883 114.848 306.355 114.848C306.803 114.848 307.147 114.724 307.387 114.476C307.627 114.228 307.747 113.916 307.747 113.54C307.747 113.1 307.587 112.768 307.267 112.544C306.955 112.312 306.551 112.196 306.055 112.196H305.431V110.936H306.067C306.475 110.936 306.815 110.84 307.087 110.648C307.359 110.456 307.495 110.172 307.495 109.796C307.495 109.484 307.391 109.236 307.183 109.052C306.983 108.86 306.703 108.764 306.343 108.764C305.951 108.764 305.643 108.88 305.419 109.112C305.203 109.344 305.083 109.628 305.059 109.964H303.559C303.591 109.188 303.859 108.576 304.363 108.128C304.875 107.68 305.535 107.456 306.343 107.456C306.919 107.456 307.403 107.56 307.795 107.768C308.195 107.968 308.495 108.236 308.695 108.572C308.903 108.908 309.007 109.28 309.007 109.688C309.007 110.16 308.875 110.56 308.611 110.888C308.355 111.208 308.035 111.424 307.651 111.536C308.123 111.632 308.507 111.864 308.803 112.232C309.099 112.592 309.247 113.048 309.247 113.6C309.247 114.064 309.135 114.488 308.911 114.872C308.687 115.256 308.359 115.564 307.927 115.796C307.503 116.028 306.979 116.144 306.355 116.144Z" fill="black"/>
    <path d="M262.575 140V132.428H260.067V131.6H266.091V132.428H263.583V140H262.575ZM266.582 140V134.048H267.494L267.578 135.188C267.762 134.796 268.042 134.484 268.418 134.252C268.794 134.02 269.258 133.904 269.81 133.904V134.96H269.534C269.182 134.96 268.858 135.024 268.562 135.152C268.266 135.272 268.03 135.48 267.854 135.776C267.678 136.072 267.59 136.48 267.59 137V140H266.582ZM272.921 140.144C272.425 140.144 272.013 140.06 271.685 139.892C271.357 139.724 271.113 139.5 270.953 139.22C270.793 138.94 270.713 138.636 270.713 138.308C270.713 137.7 270.945 137.232 271.409 136.904C271.873 136.576 272.505 136.412 273.305 136.412H274.913V136.34C274.913 135.82 274.777 135.428 274.505 135.164C274.233 134.892 273.869 134.756 273.413 134.756C273.021 134.756 272.681 134.856 272.393 135.056C272.113 135.248 271.937 135.532 271.865 135.908H270.833C270.873 135.476 271.017 135.112 271.265 134.816C271.521 134.52 271.837 134.296 272.213 134.144C272.589 133.984 272.989 133.904 273.413 133.904C274.245 133.904 274.869 134.128 275.285 134.576C275.709 135.016 275.921 135.604 275.921 136.34V140H275.021L274.961 138.932C274.793 139.268 274.545 139.556 274.217 139.796C273.897 140.028 273.465 140.144 272.921 140.144ZM273.077 139.292C273.461 139.292 273.789 139.192 274.061 138.992C274.341 138.792 274.553 138.532 274.697 138.212C274.841 137.892 274.913 137.556 274.913 137.204V137.192H273.389C272.797 137.192 272.377 137.296 272.129 137.504C271.889 137.704 271.769 137.956 271.769 138.26C271.769 138.572 271.881 138.824 272.105 139.016C272.337 139.2 272.661 139.292 273.077 139.292ZM280.169 140.144C279.601 140.144 279.089 140.016 278.633 139.76C278.185 139.496 277.829 139.132 277.565 138.668C277.309 138.196 277.181 137.648 277.181 137.024C277.181 136.4 277.309 135.856 277.565 135.392C277.829 134.92 278.185 134.556 278.633 134.3C279.089 134.036 279.601 133.904 280.169 133.904C280.873 133.904 281.465 134.088 281.945 134.456C282.433 134.824 282.741 135.316 282.869 135.932H281.837C281.757 135.564 281.561 135.28 281.249 135.08C280.937 134.872 280.573 134.768 280.157 134.768C279.821 134.768 279.505 134.852 279.209 135.02C278.913 135.188 278.673 135.44 278.489 135.776C278.305 136.112 278.213 136.528 278.213 137.024C278.213 137.52 278.305 137.936 278.489 138.272C278.673 138.608 278.913 138.864 279.209 139.04C279.505 139.208 279.821 139.292 280.157 139.292C280.573 139.292 280.937 139.192 281.249 138.992C281.561 138.784 281.757 138.492 281.837 138.116H282.869C282.749 138.716 282.445 139.204 281.957 139.58C281.469 139.956 280.873 140.144 280.169 140.144ZM284.277 140V131.36H285.285V136.556L287.721 134.048H288.957L286.317 136.736L289.293 140H288.009L285.285 136.916V140H284.277ZM294.148 142.64L295.624 139.424H295.276L292.912 134.048H294.004L295.972 138.68L298.06 134.048H299.104L295.204 142.64H294.148ZM302.317 140.144C301.757 140.144 301.253 140.016 300.805 139.76C300.357 139.504 300.001 139.144 299.737 138.68C299.481 138.208 299.353 137.656 299.353 137.024C299.353 136.392 299.485 135.844 299.749 135.38C300.013 134.908 300.369 134.544 300.817 134.288C301.273 134.032 301.781 133.904 302.341 133.904C302.901 133.904 303.405 134.032 303.853 134.288C304.301 134.544 304.653 134.908 304.909 135.38C305.173 135.844 305.305 136.392 305.305 137.024C305.305 137.656 305.173 138.208 304.909 138.68C304.645 139.144 304.285 139.504 303.829 139.76C303.381 140.016 302.877 140.144 302.317 140.144ZM302.317 139.28C302.661 139.28 302.981 139.196 303.277 139.028C303.573 138.86 303.813 138.608 303.997 138.272C304.181 137.936 304.273 137.52 304.273 137.024C304.273 136.528 304.181 136.112 303.997 135.776C303.821 135.44 303.585 135.188 303.289 135.02C302.993 134.852 302.677 134.768 302.341 134.768C301.997 134.768 301.677 134.852 301.381 135.02C301.085 135.188 300.845 135.44 300.661 135.776C300.477 136.112 300.385 136.528 300.385 137.024C300.385 137.52 300.477 137.936 300.661 138.272C300.845 138.608 301.081 138.86 301.369 139.028C301.665 139.196 301.981 139.28 302.317 139.28ZM308.879 140.144C308.175 140.144 307.615 139.932 307.199 139.508C306.783 139.076 306.575 138.416 306.575 137.528V134.048H307.583V137.42C307.583 138.66 308.091 139.28 309.107 139.28C309.627 139.28 310.055 139.096 310.391 138.728C310.735 138.352 310.907 137.82 310.907 137.132V134.048H311.915V140H311.003L310.931 138.932C310.747 139.308 310.471 139.604 310.103 139.82C309.743 140.036 309.335 140.144 308.879 140.144ZM313.574 140V134.048H314.486L314.57 135.188C314.754 134.796 315.034 134.484 315.41 134.252C315.786 134.02 316.25 133.904 316.802 133.904V134.96H316.526C316.174 134.96 315.85 135.024 315.554 135.152C315.258 135.272 315.022 135.48 314.846 135.776C314.67 136.072 314.582 136.48 314.582 137V140H313.574ZM252.074 156V150.048H252.986L253.058 150.912C253.25 150.592 253.506 150.344 253.826 150.168C254.146 149.992 254.506 149.904 254.906 149.904C255.378 149.904 255.782 150 256.118 150.192C256.462 150.384 256.726 150.676 256.91 151.068C257.118 150.708 257.402 150.424 257.762 150.216C258.13 150.008 258.526 149.904 258.95 149.904C259.662 149.904 260.23 150.12 260.654 150.552C261.078 150.976 261.29 151.632 261.29 152.52V156H260.294V152.628C260.294 152.012 260.17 151.548 259.922 151.236C259.674 150.924 259.318 150.768 258.854 150.768C258.374 150.768 257.974 150.956 257.654 151.332C257.342 151.7 257.186 152.228 257.186 152.916V156H256.178V152.628C256.178 152.012 256.054 151.548 255.806 151.236C255.558 150.924 255.202 150.768 254.738 150.768C254.266 150.768 253.87 150.956 253.55 151.332C253.238 151.7 253.082 152.228 253.082 152.916V156H252.074ZM265.484 156.144C264.916 156.144 264.412 156.016 263.972 155.76C263.532 155.496 263.184 155.132 262.928 154.668C262.68 154.204 262.556 153.656 262.556 153.024C262.556 152.4 262.68 151.856 262.928 151.392C263.176 150.92 263.52 150.556 263.96 150.3C264.408 150.036 264.924 149.904 265.508 149.904C266.084 149.904 266.58 150.036 266.996 150.3C267.42 150.556 267.744 150.896 267.968 151.32C268.192 151.744 268.304 152.2 268.304 152.688C268.304 152.776 268.3 152.864 268.292 152.952C268.292 153.04 268.292 153.14 268.292 153.252H263.552C263.576 153.708 263.68 154.088 263.864 154.392C264.056 154.688 264.292 154.912 264.572 155.064C264.86 155.216 265.164 155.292 265.484 155.292C265.9 155.292 266.248 155.196 266.528 155.004C266.808 154.812 267.012 154.552 267.14 154.224H268.136C267.976 154.776 267.668 155.236 267.212 155.604C266.764 155.964 266.188 156.144 265.484 156.144ZM265.484 150.756C265.004 150.756 264.576 150.904 264.2 151.2C263.832 151.488 263.62 151.912 263.564 152.472H267.308C267.284 151.936 267.1 151.516 266.756 151.212C266.412 150.908 265.988 150.756 265.484 150.756ZM272.34 156.144C271.749 156.144 271.229 156.008 270.781 155.736C270.341 155.464 269.997 155.092 269.749 154.62C269.509 154.148 269.389 153.612 269.389 153.012C269.389 152.412 269.513 151.88 269.761 151.416C270.009 150.944 270.353 150.576 270.793 150.312C271.233 150.04 271.753 149.904 272.353 149.904C272.841 149.904 273.273 150.004 273.649 150.204C274.025 150.404 274.317 150.684 274.525 151.044V147.36H275.533V156H274.621L274.525 155.016C274.333 155.304 274.057 155.564 273.697 155.796C273.337 156.028 272.885 156.144 272.34 156.144ZM272.449 155.268C272.849 155.268 273.201 155.176 273.505 154.992C273.817 154.8 274.057 154.536 274.225 154.2C274.401 153.864 274.489 153.472 274.489 153.024C274.489 152.576 274.401 152.184 274.225 151.848C274.057 151.512 273.817 151.252 273.505 151.068C273.201 150.876 272.849 150.78 272.449 150.78C272.057 150.78 271.705 150.876 271.393 151.068C271.089 151.252 270.849 151.512 270.673 151.848C270.505 152.184 270.421 152.576 270.421 153.024C270.421 153.472 270.505 153.864 270.673 154.2C270.849 154.536 271.089 154.8 271.393 154.992C271.705 155.176 272.057 155.268 272.449 155.268ZM277.788 148.728C277.588 148.728 277.42 148.664 277.284 148.536C277.156 148.4 277.092 148.232 277.092 148.032C277.092 147.84 277.156 147.68 277.284 147.552C277.42 147.424 277.588 147.36 277.788 147.36C277.98 147.36 278.144 147.424 278.28 147.552C278.416 147.68 278.484 147.84 278.484 148.032C278.484 148.232 278.416 148.4 278.28 148.536C278.144 148.664 277.98 148.728 277.788 148.728ZM277.284 156V150.048H278.292V156H277.284ZM282.783 156.144C282.215 156.144 281.703 156.016 281.247 155.76C280.799 155.496 280.443 155.132 280.179 154.668C279.923 154.196 279.795 153.648 279.795 153.024C279.795 152.4 279.923 151.856 280.179 151.392C280.443 150.92 280.799 150.556 281.247 150.3C281.703 150.036 282.215 149.904 282.783 149.904C283.487 149.904 284.079 150.088 284.559 150.456C285.047 150.824 285.355 151.316 285.483 151.932H284.451C284.371 151.564 284.175 151.28 283.863 151.08C283.551 150.872 283.187 150.768 282.771 150.768C282.435 150.768 282.119 150.852 281.823 151.02C281.527 151.188 281.287 151.44 281.103 151.776C280.919 152.112 280.827 152.528 280.827 153.024C280.827 153.52 280.919 153.936 281.103 154.272C281.287 154.608 281.527 154.864 281.823 155.04C282.119 155.208 282.435 155.292 282.771 155.292C283.187 155.292 283.551 155.192 283.863 154.992C284.175 154.784 284.371 154.492 284.451 154.116H285.483C285.363 154.716 285.059 155.204 284.571 155.58C284.083 155.956 283.487 156.144 282.783 156.144ZM287.503 148.728C287.303 148.728 287.135 148.664 286.999 148.536C286.871 148.4 286.807 148.232 286.807 148.032C286.807 147.84 286.871 147.68 286.999 147.552C287.135 147.424 287.303 147.36 287.503 147.36C287.695 147.36 287.859 147.424 287.995 147.552C288.131 147.68 288.199 147.84 288.199 148.032C288.199 148.232 288.131 148.4 287.995 148.536C287.859 148.664 287.695 148.728 287.503 148.728ZM286.999 156V150.048H288.007V156H286.999ZM289.762 156V150.048H290.674L290.734 151.116C290.926 150.74 291.202 150.444 291.562 150.228C291.922 150.012 292.33 149.904 292.786 149.904C293.49 149.904 294.05 150.12 294.466 150.552C294.89 150.976 295.102 151.632 295.102 152.52V156H294.094V152.628C294.094 151.388 293.582 150.768 292.558 150.768C292.046 150.768 291.618 150.956 291.274 151.332C290.938 151.7 290.77 152.228 290.77 152.916V156H289.762ZM299.305 156.144C298.737 156.144 298.233 156.016 297.793 155.76C297.353 155.496 297.005 155.132 296.749 154.668C296.501 154.204 296.377 153.656 296.377 153.024C296.377 152.4 296.501 151.856 296.749 151.392C296.997 150.92 297.341 150.556 297.781 150.3C298.229 150.036 298.745 149.904 299.329 149.904C299.905 149.904 300.401 150.036 300.817 150.3C301.241 150.556 301.565 150.896 301.789 151.32C302.013 151.744 302.125 152.2 302.125 152.688C302.125 152.776 302.121 152.864 302.113 152.952C302.113 153.04 302.113 153.14 302.113 153.252H297.373C297.397 153.708 297.501 154.088 297.685 154.392C297.877 154.688 298.113 154.912 298.393 155.064C298.681 155.216 298.985 155.292 299.305 155.292C299.721 155.292 300.069 155.196 300.349 155.004C300.629 154.812 300.833 154.552 300.961 154.224H301.957C301.797 154.776 301.489 155.236 301.033 155.604C300.585 155.964 300.009 156.144 299.305 156.144ZM299.305 150.756C298.825 150.756 298.397 150.904 298.021 151.2C297.653 151.488 297.441 151.912 297.385 152.472H301.129C301.105 151.936 300.921 151.516 300.577 151.212C300.233 150.908 299.809 150.756 299.305 150.756ZM307.249 148.728C307.049 148.728 306.881 148.664 306.745 148.536C306.617 148.4 306.553 148.232 306.553 148.032C306.553 147.84 306.617 147.68 306.745 147.552C306.881 147.424 307.049 147.36 307.249 147.36C307.441 147.36 307.605 147.424 307.741 147.552C307.877 147.68 307.945 147.84 307.945 148.032C307.945 148.232 307.877 148.4 307.741 148.536C307.605 148.664 307.441 148.728 307.249 148.728ZM306.745 156V150.048H307.753V156H306.745ZM309.508 156V150.048H310.42L310.48 151.116C310.672 150.74 310.948 150.444 311.308 150.228C311.668 150.012 312.076 149.904 312.532 149.904C313.236 149.904 313.796 150.12 314.212 150.552C314.636 150.976 314.848 151.632 314.848 152.52V156H313.84V152.628C313.84 151.388 313.328 150.768 312.304 150.768C311.792 150.768 311.364 150.956 311.02 151.332C310.684 151.7 310.516 152.228 310.516 152.916V156H309.508ZM316.699 156V150.9H315.799V150.048H316.699V149.016C316.699 148.44 316.843 148.02 317.131 147.756C317.419 147.492 317.839 147.36 318.391 147.36H318.991V148.224H318.547C318.243 148.224 318.027 148.288 317.899 148.416C317.771 148.536 317.707 148.744 317.707 149.04V150.048H319.171V150.9H317.707V156H316.699ZM322.849 156.144C322.289 156.144 321.785 156.016 321.337 155.76C320.889 155.504 320.533 155.144 320.269 154.68C320.013 154.208 319.885 153.656 319.885 153.024C319.885 152.392 320.017 151.844 320.281 151.38C320.545 150.908 320.901 150.544 321.349 150.288C321.805 150.032 322.313 149.904 322.873 149.904C323.433 149.904 323.937 150.032 324.385 150.288C324.833 150.544 325.185 150.908 325.441 151.38C325.705 151.844 325.837 152.392 325.837 153.024C325.837 153.656 325.705 154.208 325.441 154.68C325.177 155.144 324.817 155.504 324.361 155.76C323.913 156.016 323.409 156.144 322.849 156.144ZM322.849 155.28C323.193 155.28 323.513 155.196 323.809 155.028C324.105 154.86 324.345 154.608 324.529 154.272C324.713 153.936 324.805 153.52 324.805 153.024C324.805 152.528 324.713 152.112 324.529 151.776C324.353 151.44 324.117 151.188 323.821 151.02C323.525 150.852 323.209 150.768 322.873 150.768C322.529 150.768 322.209 150.852 321.913 151.02C321.617 151.188 321.377 151.44 321.193 151.776C321.009 152.112 320.917 152.528 320.917 153.024C320.917 153.52 321.009 153.936 321.193 154.272C321.377 154.608 321.613 154.86 321.901 155.028C322.197 155.196 322.513 155.28 322.849 155.28ZM327.586 156.06C327.386 156.06 327.218 155.996 327.082 155.868C326.954 155.732 326.89 155.568 326.89 155.376C326.89 155.184 326.954 155.024 327.082 154.896C327.218 154.76 327.386 154.692 327.586 154.692C327.778 154.692 327.938 154.76 328.066 154.896C328.202 155.024 328.27 155.184 328.27 155.376C328.27 155.568 328.202 155.732 328.066 155.868C327.938 155.996 327.778 156.06 327.586 156.06Z" fill="black"/>
    <defs>
        <clipPath id="clip0">
            <rect x="154.511" y="14.8928" width="39.9787" height="67.1071" rx="3.40244" fill="white"/>
        </clipPath>
    </defs>
</svg>
