<svg xmlns="http://www.w3.org/2000/svg" viewBox="0 0 293.53 413.56"><defs><style>.cls-1,.cls-2{fill:#ec2426;stroke:#231f20;stroke-miterlimit:10;}.cls-1{stroke-width:4px;}.cls-2{stroke-width:3px;}.cls-3{font-size:190.05px;fill:#231f20;font-family:ArialMT, Arial;}</style></defs><g id="Layer_1" data-name="Layer 1"><path class="cls-1" d="M214.1,311.25H398V272.76H345.07q.82-16.8.8-39.74a42.15,42.15,0,0,0-11.45-28.63c-7.36-7.94-16.8-12.07-28.25-12.32s-20.9,3.67-28.25,11.82a42.25,42.25,0,0,0-11,29.13v39.74H214.1Zm91.77-81.88c8.53,0,14.85,7,15.22,15.23s-7.26,15.23-15.22,15.23c-8.54,0-14.86-7-15.23-15.23S297.9,229.37,305.87,229.37Z" transform="translate(-159.24 -190.05)"/><polygon class="cls-1" points="199.38 41.38 199.38 67.54 265.28 67.54 265.28 384.61 28.2 384.61 28.2 67.63 94.15 67.63 94.15 41.38 2 41.38 2 411.56 291.53 411.56 291.53 41.38 199.38 41.38"/></g><g id="Layer_2" data-name="Layer 2"><rect class="cls-2" x="93.97" y="299.88" width="144.6" height="13.5"/><rect class="cls-2" x="93.97" y="349.4" width="144.6" height="13.5"/><rect class="cls-2" x="54.69" y="299.8" width="12.62" height="12.7"/><rect class="cls-2" x="54.69" y="349.4" width="12.62" height="12.7"/></g><g id="Layer_3" data-name="Layer 3"><text class="cls-3" transform="translate(123.72 280.88)">!</text></g></svg>