<svg xmlns="http://www.w3.org/2000/svg" viewBox="0 0 479.82 473.16"><defs><style>.cls-1{fill:#010101;}.cls-2{fill:#ec2426;stroke:#231f20;stroke-miterlimit:10;stroke-width:5px;}.cls-3{font-size:190.05px;fill:#231f20;font-family:ArialMT, Arial;}</style></defs><g id="Layer_1" data-name="Layer 1"><path class="cls-1" d="M184.77,234.19a4.35,4.35,0,0,0-4.33,4.37V330.4a4.33,4.33,0,1,0,8.66,0V238.56A4.35,4.35,0,0,0,184.77,234.19Z" transform="translate(-77.85 -129.84)"/><path class="cls-1" d="M163.11,234.18a8.72,8.72,0,0,0-8.66,8.75V326a8.67,8.67,0,1,0,17.34,0V242.93A8.72,8.72,0,0,0,163.11,234.18Z" transform="translate(-77.85 -129.84)"/><path class="cls-1" d="M284.42,234.18a8.71,8.71,0,0,0-8.66,8.75V326a8.67,8.67,0,1,0,17.33,0V242.93A8.71,8.71,0,0,0,284.42,234.18Z" transform="translate(-77.85 -129.84)"/><path class="cls-1" d="M306.1,234.19a4.35,4.35,0,0,0-4.33,4.37V330.4a4.33,4.33,0,1,0,8.65,0V238.56A4.35,4.35,0,0,0,306.1,234.19Z" transform="translate(-77.85 -129.84)"/><path class="cls-1" d="M202.1,234.19a4.35,4.35,0,0,0-4.32,4.37V330.4a4.33,4.33,0,1,0,8.65,0V238.56A4.35,4.35,0,0,0,202.1,234.19Z" transform="translate(-77.85 -129.84)"/><path class="cls-1" d="M223.76,234.18a8.71,8.71,0,0,0-8.67,8.75V326a8.67,8.67,0,1,0,17.33,0V242.93A8.7,8.7,0,0,0,223.76,234.18Z" transform="translate(-77.85 -129.84)"/><path class="cls-1" d="M245.44,234.19a4.35,4.35,0,0,0-4.33,4.37V330.4a4.33,4.33,0,1,0,8.66,0V238.56A4.35,4.35,0,0,0,245.44,234.19Z" transform="translate(-77.85 -129.84)"/><path class="cls-1" d="M262.77,234.19a4.36,4.36,0,0,0-4.33,4.37V330.4a4.33,4.33,0,1,0,8.66,0V238.56A4.35,4.35,0,0,0,262.77,234.19Z" transform="translate(-77.85 -129.84)"/></g><g id="Layer_3" data-name="Layer 3"><path class="cls-2" d="M125.31,176.57c-59.64,59.11-60,155.45-.81,215.08A152.11,152.11,0,0,0,329.23,401.8l.57-.52c11.49-10,15.69-13.92,21.88-22.45,47.24-59.54,43.57-146.35-11.34-201.55A151.94,151.94,0,0,0,125.31,176.57ZM313.4,204A114.08,114.08,0,1,1,151.52,364.81c-44.42-44.66-44-116.93.58-161.31A114,114,0,0,1,313.4,204Z" transform="translate(-77.85 -129.84)"/><polygon class="cls-2" points="434.61 469.64 476.13 431.31 296.47 265.62 268.78 293.22 434.61 469.64"/><path class="cls-1" d="M235.34,178.93a6.14,6.14,0,0,0,0,12.27,92.07,92.07,0,0,1,92,92.09,6.13,6.13,0,1,0,12.26,0A104.37,104.37,0,0,0,235.34,178.93Z" transform="translate(-77.85 -129.84)"/></g><g id="Layer_2" data-name="Layer 2"><text class="cls-3" transform="translate(348.59 216.44)">!</text></g></svg>