<svg width="336" height="376" viewBox="0 0 336 376" fill="none" xmlns="http://www.w3.org/2000/svg">
    <rect width="117.771" height="117.771" transform="matrix(0.866007 0.500033 3.76274e-05 1 114.225 82.2064)" fill="white"/>
    <rect width="117.771" height="161.922" transform="matrix(0.866025 0.5 0.866063 -0.499935 114.225 82.2064)" fill="url(#paint0_linear_2_6)"/>
    <rect width="117.771" height="161.922" transform="matrix(4.37114e-08 -1 0.865988 -0.500065 216.23 258.863)" fill="url(#paint1_linear_2_6)"/>
    <path d="M114.225 82.2065L216.215 141.096M114.225 82.2065L114.229 199.978L216.22 258.867M114.225 82.2065L216.217 141.092L356.452 60.1414M114.225 82.2065L254.46 1.25578M216.215 141.096L216.22 258.867M216.215 141.096L324.208 78.7398M216.22 258.867L356.452 177.891" stroke="url(#paint2_linear_2_6)" stroke-width="2"/>
    <rect width="37.3886" height="3.14851" transform="matrix(-3.76545e-05 -1 -0.866007 -0.500033 148.094 171.728)" fill="#013646"/>
    <rect width="37.3886" height="3.14851" transform="matrix(0.866007 0.500033 -3.75815e-05 -1 145.369 172.909)" fill="#013646"/>
    <rect width="3.05501" height="3.05501" transform="matrix(-3.76545e-05 -1 -0.866007 -0.500033 174.421 183.877)" fill="#013646"/>
    <rect width="3.05501" height="3.05501" transform="matrix(-3.76545e-05 -1 -0.866007 -0.500033 177.067 182.346)" fill="#013646"/>
    <rect width="3.05501" height="3.05501" transform="matrix(-3.76545e-05 -1 -0.866007 -0.500033 174.421 177.767)" fill="#013646"/>
    <rect width="3.05501" height="3.05501" transform="matrix(-3.76545e-05 -1 -0.866007 -0.500033 171.778 173.188)" fill="#013646"/>
    <rect width="3.05501" height="3.05501" transform="matrix(-3.76545e-05 -1 -0.866007 -0.500033 174.421 159.449)" fill="#013646"/>
    <rect width="3.05501" height="3.05501" transform="matrix(-3.76545e-05 -1 -0.866007 -0.500033 174.42 156.391)" fill="#013646"/>
    <rect width="3.05501" height="3.05501" transform="matrix(-3.76545e-05 -1 -0.866007 -0.500033 177.065 160.976)" fill="#013646"/>
    <rect width="3.05501" height="3.05501" transform="matrix(-3.76545e-05 -1 -0.866007 -0.500033 171.777 154.865)" fill="#013646"/>
    <rect width="3.05501" height="3.05501" transform="matrix(-3.76545e-05 -1 -0.866007 -0.500033 169.133 180.823)" fill="#013646"/>
    <rect width="3.05501" height="3.05501" transform="matrix(-3.76545e-05 -1 -0.866007 -0.500033 158.555 171.658)" fill="#013646"/>
    <rect width="15.2681" height="3.05363" transform="matrix(-3.76545e-05 -1 -0.866007 -0.500033 158.555 159.444)" fill="#013646"/>
    <rect width="3.05363" height="9.16089" transform="matrix(-3.76545e-05 -1 -0.866007 -0.500033 161.199 167.08)" fill="#013646"/>
    <rect width="3.05501" height="3.05501" transform="matrix(-3.76545e-05 -1 -0.866007 -0.500033 155.909 145.703)" fill="#013646"/>
    <rect width="3.05501" height="3.05501" transform="matrix(-3.76545e-05 -1 -0.866007 -0.500033 161.198 157.918)" fill="#013646"/>
    <rect width="3.05363" height="9.16089" transform="matrix(-3.76545e-05 -1 -0.866007 -0.500033 174.421 165.553)" fill="#013646"/>
    <rect width="9.16089" height="3.05363" transform="matrix(-3.76545e-05 -1 -0.866007 -0.500033 166.487 160.972)" fill="#013646"/>
    <rect width="3.05363" height="9.16089" transform="matrix(-3.76545e-05 -1 -0.866007 -0.500033 166.487 164.024)" fill="#013646"/>
    <rect width="3.05501" height="3.05501" transform="matrix(-3.76545e-05 -1 -0.866007 -0.500033 161.198 151.814)" fill="#013646"/>
    <rect width="3.05363" height="9.16089" transform="matrix(-3.76545e-05 -1 -0.866007 -0.500033 177.066 170.132)" fill="#013646"/>
    <rect width="18.3218" height="3.05363" transform="matrix(-3.76545e-05 -1 -0.866007 -0.500033 153.264 165.55)" fill="#013646"/>
    <rect width="3.05501" height="3.05501" transform="matrix(-3.76545e-05 -1 -0.866007 -0.500033 153.264 171.66)" fill="#013646"/>
    <rect width="3.05501" height="3.05501" transform="matrix(-3.76545e-05 -1 -0.866007 -0.500033 150.623 170.135)" fill="#013646"/>
    <rect width="3.05501" height="3.05501" transform="matrix(-3.76545e-05 -1 -0.866007 -0.500033 150.623 167.077)" fill="#013646"/>
    <rect width="6.10726" height="6.10726" transform="matrix(-3.76545e-05 -1 -0.866007 -0.500033 166.488 176.238)" fill="#013646"/>
    <rect width="6.84908" height="77.5532" rx="1" transform="matrix(-4.37114e-08 1 -0.865988 -0.500065 192.045 216.948)" fill="#345E6B"/>
    <rect width="21.5945" height="47.5907" rx="1" transform="matrix(4.37114e-08 1 0.865988 -0.500065 226.771 148.541)" fill="#FFCB45"/>
    <rect width="14.2164" height="122.498" rx="1" transform="matrix(4.37114e-08 1 0.865988 -0.500065 226.771 180.266)" fill="#345E6B"/>
    <rect width="14.2164" height="66.0447" rx="1" transform="matrix(-0.866025 -0.5 0.866063 -0.499935 144.043 89.3146)" fill="#99AFB5"/>
    <rect width="3.38385" height="45.6266" rx="1" transform="matrix(-0.866025 -0.5 0.866063 -0.499935 150.407 94.256)" fill="#99AFB5"/>
    <rect width="4.58729" height="56.2008" rx="1" transform="matrix(4.37114e-08 1 0.865988 -0.500065 226.771 206.636)" fill="#99AFB5"/>
    <rect width="4.58729" height="41.5637" rx="1" transform="matrix(4.37114e-08 1 0.865988 -0.500065 226.771 219.209)" fill="#99AFB5"/>
    <rect width="6.84908" height="40.6452" rx="1" transform="matrix(-4.37114e-08 1 -0.865988 -0.500065 159.789 211.93)" fill="#345E6B"/>
    <path d="M103.492 81.7353L24.4146 134.71C22.4924 135.998 22.0323 138.629 23.4034 140.492L120.19 272.046C121.572 273.924 124.246 274.256 126.045 272.775L197.56 213.874C198.496 213.103 199.042 211.934 199.027 210.721C198.014 128.725 132.824 80.005 105.372 81.091C104.689 81.118 104.06 81.3548 103.492 81.7353Z" fill="url(#paint3_linear_2_6)"/>
    <g style="mix-blend-mode:color-dodge">
        <path d="M103.492 81.7353L24.4146 134.71C22.4924 135.998 22.0323 138.629 23.4034 140.492L120.19 272.046C121.572 273.924 124.246 274.256 126.045 272.775L197.56 213.874C198.496 213.103 199.042 211.934 199.027 210.721C198.014 128.725 132.824 80.005 105.372 81.091C104.689 81.118 104.06 81.3548 103.492 81.7353Z" fill="url(#paint4_linear_2_6)"/>
    </g>
    <g style="mix-blend-mode:overlay">
        <path d="M103.492 81.7353L24.4146 134.71C22.4924 135.998 22.0323 138.629 23.4034 140.492L120.19 272.046C121.572 273.924 124.246 274.256 126.045 272.775L197.56 213.874C198.496 213.103 199.042 211.934 199.027 210.721C198.014 128.725 132.824 80.005 105.372 81.091C104.689 81.118 104.06 81.3548 103.492 81.7353Z" fill="url(#paint5_linear_2_6)"/>
    </g>
    <path d="M26.2358 80.5286L111.982 130.039C117.721 133.353 122.374 141.412 122.375 148.039L122.381 313.238L122.383 358.722C122.383 362.154 121.135 364.529 119.135 365.561L107.043 372.516L103.751 359.964L26.2447 315.212C20.5053 311.898 15.8524 303.839 15.8522 297.211L15.8448 100.775L6.30029 87.0258L19.3477 79.158C21.2473 77.8637 23.2043 78.7782 26.2358 80.5286Z" fill="white"/>
    <path d="M122.381 313.238L122.383 358.722C122.383 362.154 121.135 364.529 119.135 365.561L107.043 372.516L103.751 359.964L26.2447 315.212C20.5053 311.898 15.8524 303.839 15.8522 297.211L15.8448 100.775L6.30029 87.0258L19.3477 79.158C21.2473 77.8637 23.2042 78.7782 26.2358 80.5286L111.982 130.039C117.721 133.353 122.374 141.412 122.375 148.039L122.381 313.238ZM122.381 313.238L108.477 321.277" stroke="#013646" stroke-width="2"/>
    <path d="M108.196 156.183C108.196 149.555 103.543 141.496 97.8039 138.182L12.0576 88.6724C6.31826 85.3585 1.66577 88.0446 1.66602 94.672L1.67394 305.355C1.67419 311.982 6.32709 320.041 12.0665 323.355L97.8127 372.865C103.552 376.179 108.205 373.493 108.204 366.866L108.196 156.183Z" fill="white" stroke="#013646" stroke-width="2"/>
    <rect width="31.3301" height="88.0578" rx="6" transform="matrix(-4.37114e-08 1 -0.865988 -0.500065 93.064 321.063)" fill="#61E4A3"/>
    <path fill-rule="evenodd" clip-rule="evenodd" d="M101.1 189.424L101.1 155.161C101.1 151.847 98.774 147.818 95.9044 146.16L82.4853 138.412L81.1646 138.723C80.1485 138.963 79.4226 139.763 79.1186 140.979L78.5558 143.231C77.9698 145.575 75.8715 146.235 73.4759 144.829L36.598 123.192C33.7447 121.518 31.4438 117.511 31.4438 114.216L31.4438 108.938L14.339 99.0604C11.4694 97.4034 9.14305 98.7463 9.14305 102.06L9.14305 136.323L101.1 189.424Z" fill="#345E6B"/>
    <path d="M115.494 216.173C113.941 217.07 112.682 216.343 112.682 214.55L112.682 191.919C112.682 190.126 113.941 187.946 115.494 187.049C117.046 186.153 118.305 186.879 118.305 188.672L118.305 211.304C118.305 213.097 117.046 215.277 115.494 216.173Z" fill="#99AFB5"/>
    <path d="M45.1376 120.621C45.1375 119.361 46.022 118.851 47.1131 119.481L60.887 127.433C61.9781 128.063 62.8628 129.595 62.8629 130.855C62.863 132.115 61.9785 132.626 60.8873 131.996L47.1135 124.044C46.0223 123.414 45.1377 121.881 45.1376 120.621Z" fill="#99AFB5"/>
    <path d="M67.075 133.207C67.0749 131.947 67.9594 131.437 69.0505 132.067L69.0508 132.068C70.142 132.698 71.0266 134.23 71.0267 135.49C71.0268 136.75 70.1423 137.261 69.0511 136.631L69.0509 136.629C67.9597 135.999 67.0751 134.467 67.075 133.207Z" fill="#99AFB5"/>
    <path d="M97.6364 363.754L16.12 316.69C12.2936 314.481 9.19149 309.109 9.19116 304.69L9.17578 100.473C9.17561 98.2639 10.7264 97.3685 12.6396 98.473L28.418 107.583C30.2742 108.654 31.4177 110.635 31.418 112.778L31.4185 117.877C31.4187 119.534 32.582 121.549 34.0168 122.377C47.1604 129.966 60.3017 137.558 73.447 145.144C75.6722 146.428 78.453 144.822 78.453 142.252C78.453 139.683 81.2348 138.076 83.4603 139.361L94.156 145.537C97.9823 147.746 101.084 153.118 101.085 157.537L101.1 361.754C101.1 363.963 99.5495 364.858 97.6364 363.754Z" stroke="#013646" stroke-width="2"/>
    <rect width="54.79" height="4.61389" transform="matrix(-3.76545e-05 -1 -0.866007 -0.500033 35.207 248.881)" fill="#013646"/>
    <rect width="54.79" height="4.61389" transform="matrix(0.866007 0.500033 -3.75815e-05 -1 31.2129 250.611)" fill="#013646"/>
    <rect width="4.47687" height="4.47687" transform="matrix(-3.76545e-05 -1 -0.866007 -0.500033 73.7866 266.684)" fill="#013646"/>
    <rect width="4.47687" height="4.47687" transform="matrix(-3.76545e-05 -1 -0.866007 -0.500033 77.6638 264.441)" fill="#013646"/>
    <rect width="4.47687" height="4.47687" transform="matrix(-3.76545e-05 -1 -0.866007 -0.500033 73.7866 257.73)" fill="#013646"/>
    <rect width="4.47687" height="4.47687" transform="matrix(-3.76545e-05 -1 -0.866007 -0.500033 69.9136 251.02)" fill="#013646"/>
    <rect width="4.47687" height="4.47687" transform="matrix(-3.76545e-05 -1 -0.866007 -0.500033 73.7859 230.886)" fill="#013646"/>
    <rect width="4.47687" height="4.47687" transform="matrix(-3.76545e-05 -1 -0.866007 -0.500033 73.7854 226.406)" fill="#013646"/>
    <rect width="4.47687" height="4.47687" transform="matrix(-3.76545e-05 -1 -0.866007 -0.500033 77.6616 233.124)" fill="#013646"/>
    <rect width="4.47687" height="4.47687" transform="matrix(-3.76545e-05 -1 -0.866007 -0.500033 69.9124 224.169)" fill="#013646"/>
    <rect width="4.47687" height="4.47687" transform="matrix(-3.76545e-05 -1 -0.866007 -0.500033 66.0371 262.209)" fill="#013646"/>
    <rect width="4.47687" height="4.47687" transform="matrix(-3.76545e-05 -1 -0.866007 -0.500033 50.5361 248.778)" fill="#013646"/>
    <rect width="22.3743" height="4.47485" transform="matrix(-3.76545e-05 -1 -0.866007 -0.500033 50.5361 230.88)" fill="#013646"/>
    <rect width="4.47485" height="13.4246" transform="matrix(-3.76545e-05 -1 -0.866007 -0.500033 54.4106 242.069)" fill="#013646"/>
    <rect width="4.47687" height="4.47687" transform="matrix(-3.76545e-05 -1 -0.866007 -0.500033 46.6592 210.743)" fill="#013646"/>
    <rect width="4.47687" height="4.47687" transform="matrix(-3.76545e-05 -1 -0.866007 -0.500033 54.4099 228.643)" fill="#013646"/>
    <rect width="4.47485" height="13.4246" transform="matrix(-3.76545e-05 -1 -0.866007 -0.500033 73.7859 239.832)" fill="#013646"/>
    <rect width="13.4246" height="4.47485" transform="matrix(-3.76545e-05 -1 -0.866007 -0.500033 62.1594 233.118)" fill="#013646"/>
    <rect width="4.47485" height="13.4246" transform="matrix(-3.76545e-05 -1 -0.866007 -0.500033 62.1602 237.592)" fill="#013646"/>
    <rect width="4.47687" height="4.47687" transform="matrix(-3.76545e-05 -1 -0.866007 -0.500033 54.4099 219.698)" fill="#013646"/>
    <rect width="4.47485" height="13.4246" transform="matrix(-3.76545e-05 -1 -0.866007 -0.500033 77.6624 246.543)" fill="#013646"/>
    <rect width="26.8491" height="4.47485" transform="matrix(-3.76545e-05 -1 -0.866007 -0.500033 42.7827 239.828)" fill="#013646"/>
    <rect width="4.47687" height="4.47687" transform="matrix(-3.76545e-05 -1 -0.866007 -0.500033 42.7827 248.782)" fill="#013646"/>
    <rect width="4.47687" height="4.47687" transform="matrix(-3.76545e-05 -1 -0.866007 -0.500033 38.9116 246.547)" fill="#013646"/>
    <rect width="4.47687" height="4.47687" transform="matrix(-3.76545e-05 -1 -0.866007 -0.500033 38.9116 242.065)" fill="#013646"/>
    <rect width="8.9497" height="8.9497" transform="matrix(-3.76545e-05 -1 -0.866007 -0.500033 62.1606 255.49)" fill="#013646"/>
    <path d="M24.1116 200.228L24.1106 186.596C24.1103 183.309 26.4179 181.977 29.2647 183.62L41.0697 190.436M88.5795 237.448L88.5784 223.817C88.5782 220.53 86.2702 216.533 83.4234 214.889L71.6183 208.073M88.5821 272.723L88.5831 286.354C88.5834 289.641 86.2758 290.974 83.429 289.33L71.6239 282.514M41.0753 264.877L29.2703 258.061C26.4235 256.418 24.1156 252.421 24.1153 249.134L24.1143 235.502" stroke="#61E4A3" stroke-width="3" stroke-linecap="round"/>
    <path opacity="0.3" d="M19.1097 210.112C19.131 207.846 20.7412 206.92 22.6954 208.048L92.7012 248.466C94.6328 249.581 96.1733 252.286 96.1522 254.525L95.5736 315.901C95.5522 318.166 93.942 319.093 91.9878 317.965L21.9821 277.547C20.0504 276.432 18.5099 273.727 18.531 271.488L19.1097 210.112Z" fill="url(#paint6_linear_2_6)"/>
    <g style="mix-blend-mode:color-dodge" filter="url(#filter0_d_2_6)">
        <path d="M19.1097 210.112C19.131 207.846 20.7412 206.92 22.6954 208.048L92.7012 248.466C94.6328 249.581 96.1733 252.286 96.1522 254.525L95.5736 315.901C95.5522 318.166 93.942 319.093 91.9878 317.965L21.9821 277.547C20.0504 276.432 18.5099 273.727 18.531 271.488L19.1097 210.112Z" fill="url(#paint7_linear_2_6)" fill-opacity="0.7" shape-rendering="crispEdges"/>
    </g>
    <defs>
        <filter id="filter0_d_2_6" x="12.4375" y="207.567" width="89.8081" height="123.065" filterUnits="userSpaceOnUse" color-interpolation-filters="sRGB">
            <feFlood flood-opacity="0" result="BackgroundImageFix"/>
            <feColorMatrix in="SourceAlpha" type="matrix" values="0 0 0 0 0 0 0 0 0 0 0 0 0 0 0 0 0 0 127 0" result="hardAlpha"/>
            <feOffset dy="6.09326"/>
            <feGaussianBlur stdDeviation="3.04663"/>
            <feComposite in2="hardAlpha" operator="out"/>
            <feColorMatrix type="matrix" values="0 0 0 0 0 0 0 0 0 0 0 0 0 0 0 0 0 0 0.35 0"/>
            <feBlend mode="normal" in2="BackgroundImageFix" result="effect1_dropShadow_2_6"/>
            <feBlend mode="normal" in="SourceGraphic" in2="effect1_dropShadow_2_6" result="shape"/>
        </filter>
        <linearGradient id="paint0_linear_2_6" x1="58.8856" y1="0" x2="49.7549" y2="166.924" gradientUnits="userSpaceOnUse">
            <stop offset="0.646703" stop-color="white"/>
            <stop offset="0.888742" stop-color="white" stop-opacity="0"/>
        </linearGradient>
        <linearGradient id="paint1_linear_2_6" x1="46.0474" y1="86.1159" x2="44.8234" y2="144.449" gradientUnits="userSpaceOnUse">
            <stop stop-color="white"/>
            <stop offset="1" stop-color="white" stop-opacity="0"/>
        </linearGradient>
        <linearGradient id="paint2_linear_2_6" x1="236.246" y1="196.803" x2="343.565" y2="76.0818" gradientUnits="userSpaceOnUse">
            <stop stop-color="#013646"/>
            <stop offset="0.95578" stop-color="#013646" stop-opacity="0"/>
        </linearGradient>
        <linearGradient id="paint3_linear_2_6" x1="68" y1="246.5" x2="174" y2="173" gradientUnits="userSpaceOnUse">
            <stop offset="0.302083" stop-color="#61E4A3"/>
            <stop offset="1" stop-color="#61E4A3" stop-opacity="0"/>
        </linearGradient>
        <linearGradient id="paint4_linear_2_6" x1="77.5" y1="216" x2="160" y2="163" gradientUnits="userSpaceOnUse">
            <stop stop-color="#DBFDD2"/>
            <stop offset="1" stop-color="#00FFA3" stop-opacity="0"/>
        </linearGradient>
        <linearGradient id="paint5_linear_2_6" x1="95" y1="192" x2="160" y2="163" gradientUnits="userSpaceOnUse">
            <stop stop-color="#DBFDD2"/>
            <stop offset="1" stop-color="#00FFA3" stop-opacity="0"/>
        </linearGradient>
        <linearGradient id="paint6_linear_2_6" x1="57.6694" y1="258.24" x2="40.3874" y2="288.173" gradientUnits="userSpaceOnUse">
            <stop stop-color="white" stop-opacity="0"/>
            <stop offset="1" stop-color="white"/>
        </linearGradient>
        <linearGradient id="paint7_linear_2_6" x1="57.6694" y1="258.24" x2="40.3874" y2="288.173" gradientUnits="userSpaceOnUse">
            <stop stop-color="#00FFA3" stop-opacity="0"/>
            <stop offset="1" stop-color="#FDF6D2"/>
        </linearGradient>
    </defs>
</svg>