<svg xmlns="http://www.w3.org/2000/svg" viewBox="0 0 382.04 531.06"><defs><style>.cls-1{fill:#ed2024;}.cls-2{fill:#a71e22;}.cls-3{fill:none;stroke:#231f20;stroke-miterlimit:10;stroke-width:10px;}.cls-4,.cls-5{fill:#231f20;}.cls-5{font-size:175px;font-family:ArialMT, Arial;}</style></defs><g id="Outside"><path class="cls-1" d="M343.31,495.36c2.77.94,5.74.74,8.62.85a70.79,70.79,0,0,1,8.84.9l-1.83-2.41c.77-1,.87-1.3.3-.92.07,0,0,0-.11,0a12.05,12.05,0,0,0-1.31.35l-3,.8-6.08,1.61c-2.75.72-2.15,4.86.66,4.91a64.51,64.51,0,0,1,10.2,1l-.59-4.57c-2.69,1.22-5.76,1.44-8.65,1.79l-10.25,1.23a2.57,2.57,0,0,0-2.5,2.5,2.52,2.52,0,0,0,2.5,2.5L371.29,503l-.67-4.91-18,3,1.93,4.57,17.58-8.69c2.34-1.16,1.05-4.56-1.27-4.66a23.14,23.14,0,0,0-9.58,2.05c-3.22,1.32-6.4,2.75-9.59,4.14a2.52,2.52,0,0,0-.9,3.42,2.57,2.57,0,0,0,3.42.9c2.8-1.22,5.58-2.48,8.4-3.64a19.88,19.88,0,0,1,8.25-1.87l-1.26-4.65L352,501.31a2.49,2.49,0,0,0-1,3.12,2.55,2.55,0,0,0,2.95,1.45l18-3c2.75-.47,2.15-5.18-.66-4.91l-31.22,2.93v5l11.22-1.35c3.53-.43,6.94-.87,10.2-2.35,1.9-.86,1.45-4.21-.6-4.57a72,72,0,0,0-11.53-1.14l.67,4.91,8.42-2.22c2.51-.67,5.32-1.35,5.49-4.46a2.51,2.51,0,0,0-1.84-2.41,81,81,0,0,0-9.19-1c-2.75-.15-5.63.18-8.27-.72-3.05-1.05-4.36,3.78-1.33,4.82Z" transform="translate(-127 -51.19)"/><path class="cls-1" d="M358.6,514.8a15.47,15.47,0,0,0,10.61-4.39,15.25,15.25,0,0,0,4.39-10.61c-.17-3.88-1.45-7.9-4.39-10.61a15.63,15.63,0,0,0-10.61-4.39A15.47,15.47,0,0,0,348,489.19a15.25,15.25,0,0,0-4.39,10.61c.17,3.88,1.45,7.9,4.39,10.61a15.63,15.63,0,0,0,10.61,4.39Z" transform="translate(-127 -51.19)"/><path class="cls-1" d="M360.49,510.58a113,113,0,0,0,24.25-16.34l2.35-3a11.24,11.24,0,0,0,1.78-5.58,7.71,7.71,0,0,0,0-4,11.28,11.28,0,0,0-1.78-5.58,18,18,0,0,0-5.38-5.38,15.35,15.35,0,0,0-11.56-1.51q-12.42,3.39-24.65,7.43l14.59,25.07a56.77,56.77,0,0,1,4.48-3.85l-3,2.35c13.35-10.19,30.07-14.29,44.24-23.07a15.64,15.64,0,0,0,6.89-9,15.3,15.3,0,0,0-1.51-11.56c-2.06-3.2-5.14-6-9-6.89a16.44,16.44,0,0,0-11.56,1.51q-4.32,2.19-8.79,4.09l3.58-1.51a141,141,0,0,1-16.11,5.64l16.94,22c.28-.4.57-.8.87-1.19l-2.34,3a36.27,36.27,0,0,1,6.2-6.12l-3,2.35c8.22-6.34,18.17-9.85,26.62-15.83l3-2.34a11.23,11.23,0,0,0,3.1-4.83,14.42,14.42,0,0,0,.76-9.77,17.9,17.9,0,0,0-3.86-6.62c-2.6-2.83-6.87-4.29-10.61-4.39a30.11,30.11,0,0,0-14.34,3.53c-3.23,1.6-6,5.58-6.89,9a15.35,15.35,0,0,0,1.51,11.56c2.06,3.2,5.14,6,9,6.89l4,.53a14.9,14.9,0,0,0,7.57-2c.26-.14.53-.26.79-.38L405,466.32a15.19,15.19,0,0,1,3.79-1l-4,.53a17.65,17.65,0,0,1,2.18-.08l-7.57-27.95c-5.79,4.09-12.26,7-18.42,10.51a87.91,87.91,0,0,0-11.38,7.77,48.09,48.09,0,0,0-9.28,10.23l-1.51,3.58-.53,4a14.84,14.84,0,0,0,3.22,9.09,14.87,14.87,0,0,0,6,4.62,14.81,14.81,0,0,0,9.76.76,158.66,158.66,0,0,0,28.49-11.25l-15.14-25.9c-12.48,7.73-26.83,11.79-39.26,19.61a78.38,78.38,0,0,0-12.49,9.65l-2.35,3a11.21,11.21,0,0,0-1.78,5.58,7.51,7.51,0,0,0,0,4,11.21,11.21,0,0,0,1.78,5.57,17.81,17.81,0,0,0,5.38,5.38,11.11,11.11,0,0,0,5.58,1.78,11.37,11.37,0,0,0,6-.26q12.22-4,24.65-7.43L363.53,473c-1.35,1.17-2.74,2.3-4.15,3.4l3-2.34a99.39,99.39,0,0,1-17.07,10.59c-3.23,1.57-6,5.6-6.89,9A15.35,15.35,0,0,0,340,505.2c2.06,3.2,5.14,6,9,6.89l4,.54a14.91,14.91,0,0,0,7.57-2.05Z" transform="translate(-127 -51.19)"/><path class="cls-1" d="M381.54,477.53a73.15,73.15,0,0,1,12.09-11.7l-3,2.34c11-8.43,23.51-14.69,35.57-21.36l40.64-22.46,23-12.72a14.52,14.52,0,0,0,7.17-11c.57-4.27-.51-9.73-4.13-12.6l-22-17.44-10.74-8.52a79.77,79.77,0,0,0-7.42-5.73,18.49,18.49,0,0,0-9-2.61,20.32,20.32,0,0,0-9.58,2.34c-3.95,1.83-7.65,4.45-11.38,6.7l-12,7.24-23.78,14.32L339.32,413c-4.44,2.67-9.52,5.11-13.24,8.76a17.75,17.75,0,0,0-4.6,17,21.3,21.3,0,0,0,6.68,10.11,147.3,147.3,0,0,0,12.33,9.81c4.21,3,8.6,6,13.63,7.51,7.95,2.39,15.48-.28,22.63-3.61A76.89,76.89,0,0,0,388.08,456c8.17-5.67,15.65-12.25,23.51-18.33l-3,2.34a138,138,0,0,1,30.23-17.7l-3.58,1.51c6.61-2.77,13.32-5.05,18.5-10.26,6.18-6.23,9.58-15.95,6.76-24.54a15,15,0,0,0-8.68-9.72,14.53,14.53,0,0,0-13.35.76c-10.4,6.59-20.76,13.25-31.2,19.76-9.82,6.12-19.83,12-30.5,16.47l3.58-1.52c-5.38,2.25-11,3.72-16.42,5.87a46.3,46.3,0,0,0-10.42,5.31c-3.19,2.33-6.21,4.87-9.33,7.29l3-2.34a155.62,155.62,0,0,1-34.22,20l3.58-1.51c-2.61,1.1-5.26,2.13-7.93,3.09a54.91,54.91,0,0,1-7.78,2.47l4-.53a7.26,7.26,0,0,1-1.32.06l4,.54a2.78,2.78,0,0,1-.8-.21l3.58,1.51-.36-.2,3,2.35-.32-.28,2.35,3a2.18,2.18,0,0,1-.49-.81L316,464a3.93,3.93,0,0,1-.2-.95l.54,4a18.66,18.66,0,0,1,.15-3.17l-.54,4a25.19,25.19,0,0,1,1.72-6.32l-1.51,3.58c1-2.26,2.54-4.17,3.61-6.38,2.85-5.87,3.28-12.69-.12-18.49-3.61-6.17-10.49-10-17.45-11.09a124.89,124.89,0,0,1-29.69-8.43l3.58,1.52A222.61,222.61,0,0,1,244.23,405c-9.69-6.15-19.31-12.53-28.42-19.53l3,2.35a115.47,115.47,0,0,1-21-20.26l2.34,3a72.1,72.1,0,0,1-8.08-13.22l-16.94,22,.52.22-3.58-1.52c3.8,1.79,7,4.84,10.41,7.31q5.31,3.92,10.75,7.63c7.17,4.91,14.5,9.58,21.94,14.08,15,9.07,30.4,17.4,46,25.45,8.71,4.52,17.46,8.95,26.22,13.38l11.56-27.42c-7.77-2.79-15.53-5.63-23.14-8.84l3.59,1.52c-10.88-4.62-21.48-10-30.89-17.24l3,2.35a86.28,86.28,0,0,1-12.41-11.68l-14.59,25.07a41.83,41.83,0,0,1,9.57,2.65l-3.59-1.51a41,41,0,0,1,9,5.3l-3-2.35.86.69L252,389.46q-3.55-1.38-7.08-2.87l3.59,1.52a273.47,273.47,0,0,1-55.06-31.28l-7.57,27.95,1.59.18-4-.54a45.15,45.15,0,0,1,10.75,3l-3.59-1.51a63.22,63.22,0,0,1,13.86,8.23l-3-2.35c8.76,6.82,15.92,15.35,23.42,23.48,7.28,7.9,15.85,14.72,22.5,23.18l-2.35-3A54.39,54.39,0,0,1,251.8,447l-1.52-3.59c3,7.17,4.8,14.74,6.52,22.3l10.48-18.45a29.34,29.34,0,0,1-3.8.85l4-.54a29.55,29.55,0,0,1-7.69,0l4,.53a45,45,0,0,1-10.85-3.14l3.58,1.51c-10.87-4.66-20.71-11.87-30-19l3,2.34c-6.54-5.05-12.87-10.34-19.21-15.64L195.7,439.18q6.44,2.22,12.72,4.85l-3.58-1.51a203,203,0,0,1,44.94,26.26l-3-2.35c3.21,2.5,7,5,9.51,8.25l-2.35-3a11.59,11.59,0,0,1,.78,1.31l-1.51-3.58a9,9,0,0,1,.57,2l-.54-4a10.38,10.38,0,0,1,0,2l.54-4a14.12,14.12,0,0,1-1,3.53l1.51-3.59a32.28,32.28,0,0,1-3.06,5.19l-1.51,3.58a11.28,11.28,0,0,0-.27,6,14.28,14.28,0,0,0,4.13,8.62,17.76,17.76,0,0,0,6.61,3.85c4,1.28,8,.16,11.56-1.51A84.77,84.77,0,0,0,298,471.64a15,15,0,0,0,4.13-12.6,11.21,11.21,0,0,0-1.78-5.57,15,15,0,0,0-5.39-5.38c-7.74-5.65-17.35-7.47-26.67-8.39-7.39-.73-14.84-.55-22.21-1.53l4,.53a55.74,55.74,0,0,1-13.59-3.7l3.58,1.51a55.94,55.94,0,0,1-11.84-6.86l3,2.35c-8.44-6.53-14.49-15.53-22.84-22.18a128.47,128.47,0,0,0-29.26-17.38c-6.45-2.82-13-5.43-19.53-8l6.62,25.07a141.46,141.46,0,0,0,17.11-22.11l-20.52,5.39a29.35,29.35,0,0,1,4,2.6l-3-2.35c2.12,1.66,4.07,3.51,6,5.36a101.22,101.22,0,0,0,8.77,7.35A97.27,97.27,0,0,0,193,414.32c5.06,2.58,10.12,5.14,14.92,8.21s9.59,6.64,14.26,10.14c9.12,6.83,18.3,13.43,28.66,18.27a133,133,0,0,0,34.92,11.17,145.1,145.1,0,0,0,22,2.07,142.65,142.65,0,0,0,22.31-1.82c3.46-.52,7.28-4,9-6.9a15.29,15.29,0,0,0,1.52-11.55c-1.18-3.63-3.43-7.14-6.9-9l-3.58-1.51a15,15,0,0,0-8,0l-1.65.24,4-.54a119.09,119.09,0,0,1-31.67,0l4,.53a121.29,121.29,0,0,1-30-8.18l3.59,1.51c-11-4.62-20.7-11-30.19-18.09-4.83-3.61-9.63-7.28-14.64-10.64a144.69,144.69,0,0,0-15.35-8.8c-5.81-2.95-11.65-5.91-16.85-9.91l3,2.35c-6.22-4.89-11.29-11.19-18.38-15a15.34,15.34,0,0,0-20.52,5.38q-3.14,5-6.72,9.68l2.34-3q-3.78,4.89-8.05,9.39a15.27,15.27,0,0,0-3.85,14.6,15,15,0,0,0,10.47,10.47c4.49,1.75,9,3.5,13.4,5.37l-3.58-1.52c9.82,4.16,19.43,8.94,27.91,15.46l-3-2.35A102.68,102.68,0,0,1,199,442.49a97.82,97.82,0,0,0,15.66,14.21,67,67,0,0,0,18.24,8.84,81.63,81.63,0,0,0,19.71,3.25c6.17.41,12.37.42,18.52,1.24l-4-.53a42.56,42.56,0,0,1,10.64,2.77l-3.59-1.51a29.35,29.35,0,0,1,5.66,3.23l-3-23.56a76.22,76.22,0,0,1-9.25,8.53l3-2.35a75.26,75.26,0,0,1-14,8.51l20.52,20.52a32.45,32.45,0,0,0,5.42-11.28,24.85,24.85,0,0,0,.12-11.25c-.78-3.74-2.84-6.73-5.16-9.65a42.09,42.09,0,0,0-6.84-6.14q-5-4-10.24-7.86A201.44,201.44,0,0,0,227,419.73a239,239,0,0,0-23.31-9.48l-4-.53a11.26,11.26,0,0,0-5.78,1.29,14.37,14.37,0,0,0-7.18,6.14,17.85,17.85,0,0,0-2,7.57c-.16,3.41,1.71,8.36,4.39,10.6,9.62,8.06,19.3,16.08,29.5,23.4,9.78,7,20.34,13.8,32,17.17a44.29,44.29,0,0,0,24.66.32c3.51-1.06,7.21-3.58,9-6.9a16.22,16.22,0,0,0,1.51-11.56c-2.22-9.71-4.76-19.15-9.07-28.18-4.24-8.88-11-16.26-18.06-23-6.54-6.25-12.7-12.75-18.79-19.44a146.24,146.24,0,0,0-21.91-20.22A62,62,0,0,0,205.78,360a67.93,67.93,0,0,0-9.64-3.55,67.3,67.3,0,0,0-10.28-1.64l-4,.53a11.34,11.34,0,0,0-5.1,2.69,14.32,14.32,0,0,0-5.38,7.79,17.91,17.91,0,0,0,0,8c.9,4,3.79,6.68,6.9,9A286.65,286.65,0,0,0,244,418.39l4,.54a11.39,11.39,0,0,0,5.78-1.29A14.36,14.36,0,0,0,261,411.5a17.9,17.9,0,0,0,2.05-7.57c.15-3.37-1.71-8.41-4.4-10.61-7.57-6.19-16.29-11-26.09-12.5l-4-.53a11.24,11.24,0,0,0-5.78,1.29,14.32,14.32,0,0,0-7.18,6.14,17.81,17.81,0,0,0-2,7.57c-.18,4,1.87,7.69,4.39,10.6,14.93,17.26,35.91,27.38,56.76,35.56,5.39,2.11,10.84,4.09,16.28,6.05,3.35,1.2,8.6.39,11.56-1.51a15.56,15.56,0,0,0,6.14-7.18c2.74-6.49.55-15.35-6.14-18.73-31.4-15.88-62.92-31.82-92.12-51.56q-6.21-4.18-12.25-8.62-2.91-2.13-5.77-4.31a38.44,38.44,0,0,0-9.23-5.08l-4-.53-4,.53a14.92,14.92,0,0,0-7.79,5.38,14.23,14.23,0,0,0-2.95,7.09,16.17,16.17,0,0,0,1.78,9.57c9.08,19.48,26.42,33.53,43.64,45.56,17.94,12.54,36.45,24.19,56.8,32.42A121.86,121.86,0,0,0,283.4,456c2.77.68,5.56,1.26,8.38,1.71a32.86,32.86,0,0,1,7.13,1.6l-3.58-1.52a12.34,12.34,0,0,1,2.43,1.37l-3-2.34a7,7,0,0,1,1,1l-2.35-3a7.94,7.94,0,0,1,.52.89l-1.52-3.58a4.38,4.38,0,0,1,.26,1l-.53-4a5.91,5.91,0,0,1,0,1.11l.54-4a5,5,0,0,1-.27.93l1.51-3.58a32.29,32.29,0,0,1-2.11,3.46,44.39,44.39,0,0,0-3.22,7,35.1,35.1,0,0,0-2.21,12,18.42,18.42,0,0,0,2.75,10.31,17.85,17.85,0,0,0,14.43,8.11c4.05.14,8-1.29,11.75-2.6A170.94,170.94,0,0,0,351,464.8c6.77-4.32,13-9.32,19.33-14.27l-3,2.35a34.7,34.7,0,0,1,7.39-4.5l-3.59,1.52c5.28-2.2,10.86-3.59,16.15-5.76a190.12,190.12,0,0,0,18.53-8.64c10.26-5.53,20-11.91,29.88-18.15l18-11.4-22-9a11.31,11.31,0,0,1,.35,1.39l-.53-4a9.89,9.89,0,0,1,0,2.37l.53-4a11.58,11.58,0,0,1-.65,2.32l1.51-3.58a14.06,14.06,0,0,1-1.47,2.55l2.34-3a15,15,0,0,1-2.51,2.52l3-2.35a29.82,29.82,0,0,1-6.31,3.47l3.58-1.51c-10.47,4.39-20.61,8.92-30.08,15.24-9,6-17.14,13.17-25.68,19.78l3-2.34a88.6,88.6,0,0,1-19.11,11.76l3.59-1.51a22.34,22.34,0,0,1-4.92,1.49l4-.53a12.09,12.09,0,0,1-2.82,0l4,.54a13,13,0,0,1-2.6-.77l3.59,1.51c-4.18-1.91-8-4.89-11.65-7.67l3,2.35c-2.92-2.27-6.35-4.63-8.63-7.57l2.35,3a4.54,4.54,0,0,1-.47-.83l1.52,3.59a2.75,2.75,0,0,1-.21-.89l.53,4,0-.47-.54,4,.11-.43L349,441a2.9,2.9,0,0,1,.4-.76l-2.34,3a7,7,0,0,1,.95-.94l-3,2.35c3.08-2.23,6.55-4,9.81-6l10.35-6.23,20.43-12.3,40.85-24.59,11.47-6.91,5.6-3.37a50.43,50.43,0,0,1,5.79-3.33l-3.59,1.51a5.57,5.57,0,0,1,1-.27l-4,.53a3.42,3.42,0,0,1,1,0l-4-.53a3.23,3.23,0,0,1,1,.31L437.1,382a10.81,10.81,0,0,1,1.36.87l-3-2.35c12.14,9.5,24.15,19.16,36.23,28.74l3-23.56-47.74,26.38-23.86,13.2c-7,3.86-14,7.66-20.72,12.05-8.07,5.31-15.94,11.39-22,18.95-2.58,3.21-4.39,6.33-4.39,10.61a15.26,15.26,0,0,0,4.39,10.61c2.86,2.62,6.61,4.57,10.61,4.39,3.72-.17,8.16-1.36,10.6-4.39Z" transform="translate(-127 -51.19)"/><path class="cls-1" d="M184.75,441.86a46.63,46.63,0,0,0-.58,15.31c.67,5.16,1.69,10.25,2.39,15.4l-.54-4a38,38,0,0,1,.16,9.71l.53-4c-.76,5.23-2.38,10.36-2.43,15.7a20,20,0,0,0,.31,3,14.76,14.76,0,0,0,.56,3.11,18,18,0,0,0,1.94,4.23,19.57,19.57,0,0,0,4.45,4.74,51.77,51.77,0,0,0,6.75,4.15q11.07,6.1,22.39,11.74t23.09,10.85c6.94,3.09,14,6,20.81,9.31A121.36,121.36,0,0,1,286.23,554l-3-2.35c1.79,1.39,3.51,2.85,5.18,4.38a15.7,15.7,0,0,0,10.6,4.4,15.27,15.27,0,0,0,10.61-4.4c2.62-2.85,4.57-6.61,4.39-10.6s-1.45-7.89-4.39-10.61c-11.07-10.21-24.18-17.21-37.83-23.29s-27.18-12-40.45-18.77c-3.86-2-7.71-4-11.52-6-2-1.07-4-2.14-5.93-3.22s-3.87-2-5.65-3.21l3,2.34a4.15,4.15,0,0,1-.59-.52l2.35,3a2.37,2.37,0,0,1-.43-.65l1.51,3.59a5.43,5.43,0,0,1-.29-1.12l.53,4a17.08,17.08,0,0,1,.16-3.5l-.54,4c.88-6.48,2.83-12.77,2.43-19.39-.39-6.37-1.86-12.61-2.74-18.92l.54,4a38,38,0,0,1-.25-9.59l-.53,4c.08-.58.17-1.16.29-1.73.77-4,.6-7.95-1.52-11.56a15.33,15.33,0,0,0-9-6.9c-3.84-.87-8.15-.68-11.56,1.52-3.14,2-6.15,5.16-6.89,9Z" transform="translate(-127 -51.19)"/><path class="cls-1" d="M420.32,455.41a57,57,0,0,1-.24,12.11l.53-4a57.6,57.6,0,0,1-1.73,8.21l29.46,4a147.6,147.6,0,0,1,1.23-15.43l-.53,4q.72-5.28,1.83-10.48l-29.46-4a86.42,86.42,0,0,1-.38,19.29l.54-4A86.52,86.52,0,0,1,419.39,476c-1,3.61-2.35,7-3.57,10.55a20.56,20.56,0,0,0-.4,12,17.45,17.45,0,0,0,10.13,11.43,14.67,14.67,0,0,0,6.86,1.57,21.26,21.26,0,0,0,5.14-.67,16.79,16.79,0,0,0,7.33-4.32c1.77-1.79,3.87-5,4.23-7.51l.54-4-.54-4a14.86,14.86,0,0,0-5.37-7.79,7.55,7.55,0,0,0-3.31-1.93,7.41,7.41,0,0,0-3.79-1,7.51,7.51,0,0,0-4,0,11.11,11.11,0,0,0-5.57,1.78c-14,8.47-28.07,16.75-43.18,23.14l3.59-1.52c-9.94,4.19-20,8.14-29.51,13.2a264.9,264.9,0,0,0-23.8,14.91,81.6,81.6,0,0,1-13.75,7.84L324,538.1a41.15,41.15,0,0,1-9.74,2.74l4-.54a30.1,30.1,0,0,1-7.82.08l4,.54a25.23,25.23,0,0,1-6.32-1.74l3.58,1.52c-6.47-2.84-12-7.55-17.83-11.44a61.82,61.82,0,0,0-9.06-5.15c-4.41-2-9-3.56-13.43-5.42l3.58,1.52a43.65,43.65,0,0,1-9.51-5.53l3,2.34a77.11,77.11,0,0,1-13.21-14l2.35,3c-5.05-6.55-9.77-13.39-15.24-19.6a67.55,67.55,0,0,0-7.65-7.48c-3.1-2.58-6.36-5-8.86-8.22l2.35,3a16.37,16.37,0,0,1-2-3.47l1.51,3.58a15,15,0,0,1-1-3.68l.53,4a13.44,13.44,0,0,1,0-3l-.53,4a11.06,11.06,0,0,1,.68-2.52l-1.51,3.58a9.1,9.1,0,0,1,1-1.68l-2.35,3a10,10,0,0,1,1.14-1.2l-25.6-10.61a72.72,72.72,0,0,0,10.81,33,27.83,27.83,0,0,0,9,9.4,18.85,18.85,0,0,0,7.64,2.49,14.17,14.17,0,0,0,3.14.26,22.43,22.43,0,0,0,5.09-.81c7.45-2.4,12.34-8.22,16-14.87l8.43-15.48-27.41-3.58a103.89,103.89,0,0,0,7.43,18.85c.62,1.22,1.27,2.42,1.95,3.61a21.92,21.92,0,0,0,5.65,6.68,14.56,14.56,0,0,0,6,3.15,17.55,17.55,0,0,0,8.67,0,21.31,21.31,0,0,0,9.14-5.38,28.33,28.33,0,0,0,6.41-8.59c1.67-3.49,2.82-6.43,3-10.33a17.33,17.33,0,0,0-5-12.75A19.9,19.9,0,0,0,260.84,466c-2.89.18-5.78.5-8.67.76-5.38.47-10.86,1.25-16.26.54l4,.54a20.21,20.21,0,0,1-4.66-1.2l3.58,1.52a13.2,13.2,0,0,1-2.89-1.66l3,2.35a10.87,10.87,0,0,1-1.69-1.7l2.34,3a10.06,10.06,0,0,1-1.26-2.18l1.51,3.59a9.82,9.82,0,0,1-.55-2.18l.54,4a10.67,10.67,0,0,1,0-2.26l-.54,4a11.29,11.29,0,0,1,.77-2.8l-1.51,3.58a10.82,10.82,0,0,1,1.14-1.95l-2.35,3a10,10,0,0,1,1.57-1.61l-3,2.34a10,10,0,0,1,2.1-1.21L234.43,478a11.7,11.7,0,0,1,2.34-.62l-4,.54a13.67,13.67,0,0,1,3.26,0l-4-.53a16.11,16.11,0,0,1,3.6,1l-3.59-1.51a21.83,21.83,0,0,1,4.7,2.79l-3-2.35a118.63,118.63,0,0,1,10,9.44l10.66,10.53,10.48,10.35c4,4,8,8.42,12.86,11.36a27.05,27.05,0,0,0,10.81,3.55,30.55,30.55,0,0,0,4.67.39,58.45,58.45,0,0,0,6.73-.75c4.73-.67,10.32-1.84,14.23-4.66a21.15,21.15,0,0,0,6.36-6.48,21.61,21.61,0,0,0,1.63-3.83c.06-.18.12-.34.17-.53a21.18,21.18,0,0,0,.31-2.27,13.19,13.19,0,0,0,.25-2.59c-.33-6.22-3.64-12.36-9.37-15.21a22.36,22.36,0,0,0-5.38-2.07,59.25,59.25,0,0,0-6.52-.82l-7.16-.56-33.36-2.65,15,15c-.44-5-.84-10.2-2.38-15a32.35,32.35,0,0,0-10.9-16.23,31.36,31.36,0,0,0-6.64-4.1c-3.05-1.35-6.13-2.57-9.27-3.67q-6.58-2.31-13.33-4.11-7.77-2.06-15.7-3.42a11.28,11.28,0,0,0-6-.27,11.11,11.11,0,0,0-5.58,1.78,15.28,15.28,0,0,0-6.89,9c-.88,3.84-.69,8.15,1.51,11.56l2.34,3a15.05,15.05,0,0,0,6.62,3.86q26.66,9.54,53.79,17.66t54.64,14.8q15.46,3.75,31,7c5.33,1.12,10.64.09,14.59-3.86,3.66-3.66,5.48-9.56,3.86-14.6a34.52,34.52,0,0,1-1.35-5.94l.54,4a35.12,35.12,0,0,1,0-8.93l-.53,4a34.82,34.82,0,0,1,2.37-8.61L367.34,487a33.51,33.51,0,0,1,2.68-5l1.51-3.59.53-4a14.84,14.84,0,0,0-3.22-9.09,14.87,14.87,0,0,0-6-4.62,15,15,0,0,0-9.76-.76,66.07,66.07,0,0,0-26.94,14.56c-3.95,3.45-5.2,9.7-3.86,14.59a15,15,0,0,0,10.48,10.48,205,205,0,0,0,61.39,5.62c6.75-.43,13.47-1.27,20.15-2.27l3.58-1.51a11.28,11.28,0,0,0,4.21-3.87,14.24,14.24,0,0,0,3.22-9.08,17.68,17.68,0,0,0-2.05-7.57,15.2,15.2,0,0,0-9-6.9,61.11,61.11,0,0,1-8.32-2.79l3.58,1.51a32.41,32.41,0,0,1-6.23-3.19l3,2.34a8.6,8.6,0,0,1-.83-.77l2.35,3a6,6,0,0,1-.6-1l1.52,3.59a5.79,5.79,0,0,1-.27-1.09l.54,4a5.89,5.89,0,0,1,0-1.11l-.53,4a8.73,8.73,0,0,1,.43-1.49l-1.51,3.58a24.55,24.55,0,0,1,3.29-5l-2.34,3a27.41,27.41,0,0,1,4.55-4.77l-3,2.34a14.73,14.73,0,0,1,2.94-1.73L409.33,480a10,10,0,0,1,2.22-.62l-4,.54a10.59,10.59,0,0,1,2.18,0l-4-.53a10,10,0,0,1,2.4.62l-3.58-1.52a9.16,9.16,0,0,1,1.82,1l-3-2.35a7.16,7.16,0,0,1,1.22,1.24l-2.34-3a6.78,6.78,0,0,1,.57,1l-1.51-3.58a5.72,5.72,0,0,1,.39,1.4l-.53-4,0,.31a14.94,14.94,0,0,0,2.05,7.57,11.31,11.31,0,0,0,3.86,4.2A14.59,14.59,0,0,0,420.17,485c6.83-2,12.67-7.5,14.33-14.59,1.39-5.9.07-12.18-4.73-16.26a20.83,20.83,0,0,0-9.49-5,25.38,25.38,0,0,0-10.8.07,23.79,23.79,0,0,0-7.42,3.13A94.61,94.61,0,0,0,392,460a230.37,230.37,0,0,0-27,25.82c-4.48,5.05-8.49,10.76-13.86,14.93l3-2.34a31.23,31.23,0,0,1-6.71,3.79l3.58-1.51c-6.44,2.66-13.22,4.44-19.29,8-5.16,3-9.82,6.86-15.34,9.24l3.58-1.51a25.87,25.87,0,0,1-6,1.73l4-.53a18.06,18.06,0,0,1-4.76,0l4,.54a14.87,14.87,0,0,1-3.39-.95l3.58,1.51a15.26,15.26,0,0,1-3-1.79l3,2.34a13.08,13.08,0,0,1-2.19-2.21l2.34,3a11.7,11.7,0,0,1-1.2-2.05l1.51,3.58a10.09,10.09,0,0,1-.66-2.28l.54,4c0-.23-.06-.46-.08-.69l-11,14.47a18.69,18.69,0,0,1,4.71-1.23l-4,.53a88.38,88.38,0,0,1,9.35-.22,37.54,37.54,0,0,0,14.23-2.66,27,27,0,0,0,7.78-4.85,15.34,15.34,0,0,0,1.28-1.27,31.57,31.57,0,0,0,3.28-4.35,29.06,29.06,0,0,0,2.22-5,9.79,9.79,0,0,0,.44-1.67,26,26,0,0,0,.6-5.35,22.09,22.09,0,0,0-.86-5.69,15,15,0,0,0-10.48-10.48l-9-1.48a11.48,11.48,0,0,0-6-.27,11.21,11.21,0,0,0-5.58,1.78,15.27,15.27,0,0,0-6.89,9c-.88,3.84-.69,8.15,1.51,11.56,2,3.08,5.19,6.27,9,6.89l9,1.48-10.48-10.47a7.75,7.75,0,0,1,.3,1.35l-.53-4a8.79,8.79,0,0,1,0,1.7l.53-4a9.84,9.84,0,0,1-.57,2l1.51-3.58a11.25,11.25,0,0,1-1.28,2.13l2.34-3a11.65,11.65,0,0,1-1.79,1.79l3-2.35a12.36,12.36,0,0,1-2.67,1.52l3.59-1.51a19,19,0,0,1-4.13,1.07l4-.54c-7.45,1-15.2-.69-22.38,2.29l-3.58,1.51a11.34,11.34,0,0,0-4.21,3.86c-1.89,2.45-3.5,5.9-3.22,9.09a27.52,27.52,0,0,0,3,11,19,19,0,0,0,2.16,3.11,22.82,22.82,0,0,0,2.7,3.17,26.92,26.92,0,0,0,6.42,4.56,29.54,29.54,0,0,0,9.29,2.88,32.34,32.34,0,0,0,16.32-1.88,69.56,69.56,0,0,0,13-6.8,70.71,70.71,0,0,1,11.11-6.52L348,533.68c6-2.5,12.35-4.09,18.06-7.27s10.23-7.79,14.34-12.67A251.19,251.19,0,0,1,403,490q7-6.39,14.46-12.17l-3,2.35a23.64,23.64,0,0,1,4.71-3l-3.58,1.51a11,11,0,0,1,2.65-.74l-4,.54a9.48,9.48,0,0,1,2.13,0l-4-.54a9,9,0,0,1,1.68.48L410.4,477a7.84,7.84,0,0,1,1.19.69l-3-2.34a5.57,5.57,0,0,1,1,1l-4.39-10.61,0,.35.53-4a6.82,6.82,0,0,1-.37,1.34l1.51-3.58a8,8,0,0,1-.7,1.2l2.34-3a7.06,7.06,0,0,1-1,1l3-2.35a7.28,7.28,0,0,1-1.2.71l3.58-1.51a4.64,4.64,0,0,1-.66.22l19,14.47a22.75,22.75,0,0,0-1-5.7,22.48,22.48,0,0,0-4.8-8.05c-2.57-2.87-6.28-4.71-9.87-5.91a26.88,26.88,0,0,0-5.81-.94,24.67,24.67,0,0,0-6.17.55,20.43,20.43,0,0,0-8.13,3.41,47.93,47.93,0,0,0-12.65,13.47,28.59,28.59,0,0,0-2.69,5.74,8.87,8.87,0,0,0-.44,1.5,22.41,22.41,0,0,0-.58,5.1c.23,6.93,4,12.57,9.75,16.22a62.3,62.3,0,0,0,10,4.62,59.24,59.24,0,0,0,7.47,2.44V474l-2.84.41,4-.54a191.4,191.4,0,0,1-51,0l4,.54a194.66,194.66,0,0,1-19.72-3.75l6.62,25.07c.74-.64,1.5-1.27,2.28-1.88l-3,2.35a50.91,50.91,0,0,1,10.86-6.4l-3.58,1.51a52.24,52.24,0,0,1,7.18-2.42l-16.94-22a48.44,48.44,0,0,0-5.26,40.06l18.45-18.45q-27.69-5.87-55.06-13.17T248,459.25q-15.12-4.9-30.09-10.27l-8,28.93a159.14,159.14,0,0,1,34.54,9.6L240.83,486a24.63,24.63,0,0,1,5.31,3l-3-2.35a16.61,16.61,0,0,1,2.48,2.48l-2.35-3a18.53,18.53,0,0,1,2.26,3.84L244,486.37a33.48,33.48,0,0,1,2.15,8.53l-.54-4c.2,1.53.35,3.07.49,4.61a16.7,16.7,0,0,0,4.39,10.61l3,2.34a14.91,14.91,0,0,0,7.57,2l21.5,1.71,10.62.84c3.43.27,6.9.4,10.31.84l-4-.53a10.47,10.47,0,0,1,2.14.53l-3.58-1.51a7.48,7.48,0,0,1,1,.56l-3-2.35a4.66,4.66,0,0,1,.61.56l-2.34-3a3.82,3.82,0,0,1,.42.7l-1.52-3.58a2.64,2.64,0,0,1,.15.55l-.53-4a2.89,2.89,0,0,1,0,.59l.53-4a3.78,3.78,0,0,1-.2.82l1.51-3.59a4.41,4.41,0,0,1-.46.72l2.35-3a6.35,6.35,0,0,1-.65.62l3-2.34a9.53,9.53,0,0,1-2,1.11l3.59-1.51a39,39,0,0,1-8.66,2l4-.54a22.35,22.35,0,0,1-5.42.09l4,.54a15.52,15.52,0,0,1-3.56-.91l3.58,1.51A15.45,15.45,0,0,1,291.3,492l3,2.35c-3.79-3.06-7.11-6.81-10.58-10.23l-11-10.87-11-10.88c-1.59-1.57-3.16-3.16-4.82-4.65a44.12,44.12,0,0,0-8.2-6.06c-7.46-4-16.14-5.17-24.05-1.83a17.34,17.34,0,0,0-3.89,2,23.59,23.59,0,0,0-4.6,4c-2.55,3.18-4.79,6.49-5.63,10.58a25.68,25.68,0,0,0,.1,12.29A25.07,25.07,0,0,0,216.55,489,28,28,0,0,0,221,492.6a12.82,12.82,0,0,0,2.09,1.22,32.25,32.25,0,0,0,7.83,2.8,58.23,58.23,0,0,0,15.81.62l8.36-.73a42.09,42.09,0,0,1,7.68-.46l-4-.54a7.11,7.11,0,0,1,1.51.38l-3.58-1.51a4.2,4.2,0,0,1,.74.43l-3-2.34a2.11,2.11,0,0,1,.4.39l-2.35-3a2.48,2.48,0,0,1,.3.49l-1.51-3.58a2.34,2.34,0,0,1,.19.7l-.53-4a3,3,0,0,1,0,.85l.54-4a12.57,12.57,0,0,1-.77,2.39l1.51-3.58a19.44,19.44,0,0,1-2.3,3.84l2.35-3a18.23,18.23,0,0,1-2.84,2.85l3-2.35a6.25,6.25,0,0,1-.93.57l3.58-1.51a2.36,2.36,0,0,1-.69.19l4-.54h-.35l4,.54a2.13,2.13,0,0,1-.66-.16L265,481a2.17,2.17,0,0,1-.58-.36l3,2.35a6.74,6.74,0,0,1-.73-.78l2.35,3a55.84,55.84,0,0,1-5.49-10.68l1.51,3.59a86.94,86.94,0,0,1-3.43-9.89,15.83,15.83,0,0,0-3.86-6.62l-3-2.35a11.21,11.21,0,0,0-5.58-1.78,14.94,14.94,0,0,0-7.77,1,14.42,14.42,0,0,0-7.17,6.13l-5.74,10.53a76.74,76.74,0,0,1-5.39,9.36l2.35-3a15,15,0,0,1-2.26,2.38l3-2.34a8.72,8.72,0,0,1-1.73,1.06l3.58-1.52a6.09,6.09,0,0,1-1.24.37l4-.53a7.28,7.28,0,0,1-1.32,0l4,.53a6.86,6.86,0,0,1-1.4-.36l3.59,1.51a8,8,0,0,1-1.29-.77l3,2.35a11.35,11.35,0,0,1-1.61-1.64l2.34,3a48.23,48.23,0,0,1-5.82-10.49l1.51,3.58a59.94,59.94,0,0,1-4-14.76l.53,4c-.09-.73-.18-1.45-.25-2.18a18.2,18.2,0,0,0-2.05-7.57,14.92,14.92,0,0,0-7.17-6.14,7.41,7.41,0,0,0-3.79-1,7.51,7.51,0,0,0-4,0,7.4,7.4,0,0,0-3.78,1,11.33,11.33,0,0,0-4.83,3.1,23.75,23.75,0,0,0-3.58,4.37,24.94,24.94,0,0,0-2.39,5.13,11.14,11.14,0,0,0-.61,2,31.62,31.62,0,0,0-.71,6,27,27,0,0,0,1.19,8.06,27.71,27.71,0,0,0,3.48,7.53,50,50,0,0,0,9.77,10.34,78.76,78.76,0,0,1,7.49,6.77c2.5,2.64,4.81,5.47,7,8.34l-2.35-3c9.44,12.23,18,25.83,32,33.46,5.15,2.82,10.8,4.55,16.21,6.79l-3.59-1.51c7.24,3.07,13.38,7.92,19.84,12.3,8.31,5.65,17.82,9.56,28.07,8.76A51.73,51.73,0,0,0,331,567.44a83.5,83.5,0,0,0,13.78-6.78c6.75-4.2,13.09-9,19.9-13.1a195.55,195.55,0,0,1,24.62-12.4l-3.59,1.51c10.33-4.35,20.7-8.5,30.62-13.73,8.84-4.66,17.38-9.83,25.92-15l-22-16.94a1.63,1.63,0,0,1-.09.45l1.51-3.58a1.36,1.36,0,0,1-.21.37l2.35-3a1.64,1.64,0,0,1-.3.29l3-2.34a1.9,1.9,0,0,1-.37.2l3.58-1.51a3.55,3.55,0,0,1-.66.17l4-.54a4.33,4.33,0,0,1-.72,0l4,.53a3.94,3.94,0,0,1-.95-.26l3.58,1.51a4.06,4.06,0,0,1-.63-.38l3,2.34a2.19,2.19,0,0,1-.34-.34l2.34,3a2.19,2.19,0,0,1-.26-.41l1.51,3.58a5.64,5.64,0,0,1-.34-1.15l.54,4a7.13,7.13,0,0,1,0-1.6l-.54,4a31.32,31.32,0,0,1,1.67-4.92c.65-1.73,1.23-3.48,1.76-5.24a84.65,84.65,0,0,0,2.47-10.76,100.46,100.46,0,0,0,1.25-25.56,11.37,11.37,0,0,0-1.3-5.78,11.14,11.14,0,0,0-3.1-4.83l-3-2.34a11.11,11.11,0,0,0-5.58-1.78,7.51,7.51,0,0,0-4,0,11.11,11.11,0,0,0-5.57,1.78c-3.18,2-6.09,5.15-6.9,9a165.26,165.26,0,0,0-3.6,29.9,15.16,15.16,0,0,0,4.4,10.6l3,2.35a11.11,11.11,0,0,0,5.58,1.78,7.51,7.51,0,0,0,4,0,11.11,11.11,0,0,0,5.57-1.78,15.9,15.9,0,0,0,6.9-9,67.48,67.48,0,0,0,2.51-24.31,16.7,16.7,0,0,0-4.39-10.61,15.23,15.23,0,0,0-10.61-4.39c-3.88.17-7.9,1.45-10.61,4.39-2.55,2.79-4.73,6.69-4.39,10.61Z" transform="translate(-127 -51.19)"/><path class="cls-1" d="M323.8,495.2a15.47,15.47,0,0,0,10.61-4.39,15.25,15.25,0,0,0,4.39-10.61c-.17-3.88-1.45-7.9-4.39-10.61a15.63,15.63,0,0,0-10.61-4.39,15.47,15.47,0,0,0-10.61,4.39,15.25,15.25,0,0,0-4.39,10.61c.17,3.88,1.45,7.9,4.39,10.61a15.63,15.63,0,0,0,10.61,4.39Z" transform="translate(-127 -51.19)"/><path class="cls-1" d="M198.22,312.52Q181,296.71,163.35,281.29l-6.62,25.07c16.32-5.32,32.94-10.9,47.21-20.69A234.58,234.58,0,0,1,223.75,273c6.69-3.66,13.56-7,20.28-10.6,3.68-2,7.33-4.05,10.85-6.3,4.59-2.93,8.8-6.31,13.09-9.65l-3,2.35a7,7,0,0,1,.94-.58l-3.59,1.51a3.31,3.31,0,0,1,.68-.2l-4,.53a2.11,2.11,0,0,1,.75,0l-4-.54.39.11-3.58-1.51a30.56,30.56,0,0,1,5,3.49l5.44,4c3.17,2.32,6.36,4.62,9.48,7l-3-2.34A73.64,73.64,0,0,1,282.86,273l-2.35-3q1.15,1.5,2.19,3.09l5.38-20.52a647.41,647.41,0,0,0-71.81,39.33q-4.77,3-9.5,6.13a59.46,59.46,0,0,1-9.45,5.43l3.59-1.51a23.31,23.31,0,0,1-5.16,1.45l4-.54a18.25,18.25,0,0,1-4.37.06l4,.53a14.4,14.4,0,0,1-3.41-.89l3.58,1.51a12.2,12.2,0,0,1-2.38-1.36l3,2.34a7.21,7.21,0,0,1-1.11-1.1l2.35,3a5.88,5.88,0,0,1-.56-1l1.51,3.58a3.68,3.68,0,0,1-.19-.81l.54,4a6.42,6.42,0,0,1,0-1.24l-.53,4A11.41,11.41,0,0,1,203,313l-1.51,3.59a55.3,55.3,0,0,1,6.2-11.19l-2.35,3a23.4,23.4,0,0,1,4.07-4.07l-3,2.35c3.44-2.55,7.45-4.13,11.31-5.9q6.21-2.83,12.28-6,12-6.19,23.47-13.45,6.54-4.15,12.85-8.64a16.87,16.87,0,0,0,6.9-9,15.35,15.35,0,0,0-1.51-11.56c-2.07-3.2-5.14-6-9-6.89s-8.3-.8-11.56,1.51a299.48,299.48,0,0,1-38,22.94q-5,2.5-10,4.83c-3,1.4-6.17,2.65-9.09,4.32-8,4.55-13.38,11.71-17.26,19.84a47.23,47.23,0,0,0-3.35,7.87,20.18,20.18,0,0,0,1.85,15.14c3,5.59,9.92,9.63,16.08,10.57a30.18,30.18,0,0,0,8,.53,34.47,34.47,0,0,0,8.73-1.72,61,61,0,0,0,12-6.06c12.59-8.18,25.3-16.14,38.38-23.54q21.91-12.44,44.75-23.12a16.71,16.71,0,0,0,6.89-9c.87-3.83.7-8.17-1.51-11.56A74.83,74.83,0,0,0,292,240.06c-7-5.54-14.3-10.72-21.52-16a17.92,17.92,0,0,0-10.77-4l-.58,0a21.8,21.8,0,0,0-4.33.59c-3.4,1-5.5,2.55-8.21,4.71-.81.65-1.61,1.31-2.43,1.95l3-2.35c-9.14,7.05-19.5,12.2-29.72,17.46-5.07,2.61-10.12,5.25-15,8.19-5.19,3.12-10,6.76-15,10.12a110.34,110.34,0,0,1-18.39,9.73l3.58-1.51c-7.8,3.27-15.85,5.91-23.89,8.53a15.36,15.36,0,0,0-10.48,10.48c-1.34,4.89-.09,11.13,3.86,14.59q17.61,15.44,34.88,31.23a15.7,15.7,0,0,0,10.6,4.4,15.27,15.27,0,0,0,10.61-4.4c2.62-2.85,4.57-6.61,4.39-10.6s-1.44-7.91-4.39-10.61Z" transform="translate(-127 -51.19)"/><path class="cls-1" d="M357.25,228.2a32.41,32.41,0,0,1-3.68,6.11l2.34-3a57.9,57.9,0,0,1-10.42,10l3-2.34c-6.45,5-13.15,9.63-19.74,14.42a18.27,18.27,0,0,0-5.38,5.38l-1.51,3.58a11.28,11.28,0,0,0-.27,6,14.68,14.68,0,0,0,2.95,7.1,7.62,7.62,0,0,0,2.69,2.69,11.21,11.21,0,0,0,5.11,2.68c3.73,1.45,7.47,2.89,11.16,4.44L340,283.66A116.26,116.26,0,0,1,359.55,294c6.16,4.12,12.07,8.58,18.39,12.45,12.38,7.58,25.62,13.61,38.67,19.91,3.68,1.78,7.34,3.58,11,5.44,1.75.9,3.49,1.81,5.22,2.75a40,40,0,0,1,5.25,3l-3-2.35a3.86,3.86,0,0,1,.5.49l-2.35-3a1.74,1.74,0,0,1,.32.56L432,329.68l.07.31-.54-4v.33l.54,4,1.51,3.58a14.92,14.92,0,0,0,7.17,6.14,7.41,7.41,0,0,0,3.79,1,7.51,7.51,0,0,0,4,0,7.4,7.4,0,0,0,3.78-1,11.33,11.33,0,0,0,4.83-3.1q14-11.6,27.75-23.38c2.82-2.42,5.45-4.78,7.38-8.06,4.1-7,3.7-16.47-2.32-22.34-5.64-5.48-14-6.57-21.47-7.79-5.94-1-11.9-1.93-17.49-4.24l3.58,1.51a32.54,32.54,0,0,1-7-3.95l3,2.35a24.19,24.19,0,0,1-4.27-4.25l2.35,3-.67-.93-12.95,22.57c.87,0,1.72.1,2.58.21l-4-.54a32.36,32.36,0,0,1,7.81,2.27l-3.58-1.52a87.13,87.13,0,0,1,10.38,5.59l7.57-28c-1.09-.11-2.17-.23-3.26-.37l4,.53a83.21,83.21,0,0,1-20.67-5.63l3.58,1.51c-15.42-6.53-28.69-17.25-42.1-27.06L385,229.45,388,253l.25-.22-3,2.34a2.33,2.33,0,0,1,.55-.32l-3.59,1.51a3.28,3.28,0,0,1,.61-.18l-4,.54a4.51,4.51,0,0,1,1,0l-4-.54a7.76,7.76,0,0,1,1.7.45l-3.58-1.51a39.05,39.05,0,0,1,5.29,3.12l5.66,3.57,11.76,7.41,23.08,14.55c4.1,2.58,8.39,5,12.24,8l-3-2.35a24.56,24.56,0,0,1,4.18,4.16l-2.34-3a31.1,31.1,0,0,1,3.66,6.54l-1.51-3.58a33.84,33.84,0,0,1,2.36,7.08l-.54-4v.37l.54-4a1.87,1.87,0,0,1-.15.66l1.51-3.59a1.54,1.54,0,0,1-.3.49l2.35-3a2.6,2.6,0,0,1-.43.38l3-2.35a2.47,2.47,0,0,1-.53.29l3.59-1.51a6.75,6.75,0,0,1-1.25.32l4-.54a18.73,18.73,0,0,1-4.23-.19l4,.54A43.14,43.14,0,0,1,436,281.3l3.58,1.51c-7.36-3.15-14-7.71-20.74-11.93q-11.09-6.93-22.68-13-6.63-3.47-13.41-6.63a11.11,11.11,0,0,0-5.58-1.78,11.37,11.37,0,0,0-6,.26,15.27,15.27,0,0,0-9,6.9c-1.84,3.48-2.76,7.7-1.52,11.56,1.14,3.52,3.41,7.33,6.9,9a342.61,342.61,0,0,1,33.87,18.23c5.13,3.14,10.11,6.53,15.35,9.5,5.84,3.31,12.17,6.31,18.75,7.8a69.31,69.31,0,0,0,7.69,1.17,19.51,19.51,0,0,0,3.82.14,22.86,22.86,0,0,0,5.23-.86,19.37,19.37,0,0,0,7.38-4.32,16.78,16.78,0,0,0,4.36-7.31,19.47,19.47,0,0,0,.11-9.2c-.79-3.83-2.62-7.73-4.18-11.25a39.71,39.71,0,0,0-6.46-9.78,44.24,44.24,0,0,0-9.22-7.52c-2.69-1.78-5.45-3.46-8.18-5.18l-17-10.72L400.24,236c-3.17-2-6.3-4.09-9.53-6a28.61,28.61,0,0,0-3.42-1.58,15.62,15.62,0,0,0-3.5-1.21c-3.25-.53-6-.92-9.26.1a19.68,19.68,0,0,0-7.71,4.51,15,15,0,0,0-3.86,6.62,11.48,11.48,0,0,0-.27,6,11.21,11.21,0,0,0,1.78,5.58,15.15,15.15,0,0,0,5.38,5.38c9.87,7.21,19.67,14.54,29.65,21.6,10.35,7.32,21.18,13.67,33.2,17.86a99.26,99.26,0,0,0,23.15,4.71l4-.54a11.32,11.32,0,0,0,5.1-2.68,14.34,14.34,0,0,0,5.37-7.79,17.91,17.91,0,0,0,0-8,15.32,15.32,0,0,0-6.89-9A89.4,89.4,0,0,0,453,266a57.15,57.15,0,0,0-8.46-3.19,44.21,44.21,0,0,0-9.5-1.33,15,15,0,0,0-12.95,7.43c-2.56,4.37-3,10.81,0,15.14A40.93,40.93,0,0,0,435,296.3a53.7,53.7,0,0,0,13.34,5.58A115.41,115.41,0,0,0,461,304.37c4.31.71,8.88,1.32,13,2.93l-3.58-1.52a8.09,8.09,0,0,1,1,.56l-3-2.35a3.38,3.38,0,0,1,.54.53l-2.34-3a3.36,3.36,0,0,1,.35.57l-1.52-3.58a2.47,2.47,0,0,1,.19.6l-.53-4a4.22,4.22,0,0,1,0,.94l.53-4a5.16,5.16,0,0,1-.38,1.27l1.51-3.58a9.11,9.11,0,0,1-1,1.55l2.35-3c-2,2.55-4.91,4.54-7.39,6.65l-8.22,7q-8.25,7-16.54,13.85l25.6,10.61a15.38,15.38,0,0,0-1.35-6.42,11.57,11.57,0,0,0-2.25-3.87,19.71,19.71,0,0,0-6-5.17c-1.77-1-3.57-2-5.37-2.94-3.67-1.95-7.39-3.82-11.12-5.65-7.54-3.69-15.16-7.23-22.68-11a244.18,244.18,0,0,1-21.78-12c-7.2-4.55-13.88-9.89-21.2-14.26-9.24-5.52-19.42-9.35-29.43-13.2l3.58,27.41c7.74-5.61,15.57-11.12,23.1-17a64.17,64.17,0,0,0,8.07-7.29,46.45,46.45,0,0,0,8.06-11.58,11.11,11.11,0,0,0,1.78-5.57,11.41,11.41,0,0,0-.26-6,15.3,15.3,0,0,0-6.9-9c-3.48-1.84-7.69-2.76-11.55-1.51-3.51,1.13-7.38,3.4-9,6.89Z" transform="translate(-127 -51.19)"/></g><g id="Inside"><path class="cls-2" d="M306.11,282.05l-.64.51,3-2.35a51.47,51.47,0,0,1-11.36,6.41l3.59-1.51c-5.36,2.24-10.93,3.91-16.41,5.84a148.94,148.94,0,0,0-18.65,8c-10,5.14-19.42,11.34-29.16,17a150.06,150.06,0,0,1-16.63,8.45l3.59-1.51a77.31,77.31,0,0,1-19.37,5.47l4-.54-1.56.19a16.7,16.7,0,0,0-10.61,4.39l-2.34,3A11.11,11.11,0,0,0,191.8,341a7.51,7.51,0,0,0,0,4,11.11,11.11,0,0,0,1.78,5.58c2,3.12,5.17,6.19,9,6.89,6.66,1.23,13.34,2.64,19.61,5.26l-3.59-1.51a38.36,38.36,0,0,1,8.2,4.65l-3-2.35a28.23,28.23,0,0,1,4.89,4.82l-2.35-3c.57.75,1.1,1.52,1.6,2.32l16.94-22L231.87,343c-4-.79-8-.59-11.56,1.51a15.3,15.3,0,0,0-6.89,9c-.88,3.84-.69,8.15,1.51,11.56l2.35,3a14.92,14.92,0,0,0,6.61,3.86q5,1.85,9.81,3.9l-3.58-1.51a247.06,247.06,0,0,1,41.35,22.37,206.45,206.45,0,0,0,20.76,12.78c3.57,1.82,7.21,3.52,10.85,5.19,2.87,1.32,5.74,2.72,8.71,3.79A23,23,0,0,0,318,419.5a15.27,15.27,0,0,0,3.13-.26,17.69,17.69,0,0,0,3.39-.59c4.82-1.66,9.06-4.53,13.43-7.09q5.31-3.1,10.65-6.18,10.79-6.19,21.67-12.21,21.67-12,43.74-23.2,5.49-2.79,11-5.54a25.36,25.36,0,0,0,7-4.78,20.19,20.19,0,0,0,4.63-7.68,13.7,13.7,0,0,0,.52-2.9,17.36,17.36,0,0,0,.28-2.31,20.88,20.88,0,0,0-.57-4.32,18.66,18.66,0,0,0-4.37-7.76,7.18,7.18,0,0,0-.68-.67,22.25,22.25,0,0,0-3.73-2.79,40,40,0,0,0-8.13-3.05c-3.84-1.1-7.69-2.16-11.48-3.43-1.93-.65-3.84-1.36-5.73-2.15l3.59,1.51c-9.79-4.15-18.93-9.9-28.18-15.11l-28.79-16.22a129,129,0,0,1-14.87-9.3,11.11,11.11,0,0,0-5.58-1.78,11.37,11.37,0,0,0-6,.26l-3.58,1.52a15,15,0,0,0-5.39,5.38c-1.55,2.12-3.11,4.24-4.72,6.33l2.35-3a74.5,74.5,0,0,1-12.94,13.55l3-2.34a74.89,74.89,0,0,1-16.49,9.1l3.59-1.51c-10.36,4.36-21.33,7.75-30.88,13.78a77.2,77.2,0,0,0-8.74,6.52,17,17,0,0,0-5.59,17.55,15.64,15.64,0,0,0,3.46,6.47,45.36,45.36,0,0,0,9.17,8.48,47.61,47.61,0,0,0,6.32,4c6,3.2,12.41,5.55,18.66,8.18l-3.58-1.51a96.61,96.61,0,0,1,8.86,4.17c2.94,1.61,5.71,3.51,8.47,5.39a79.21,79.21,0,0,0,8.74,5.39,61.54,61.54,0,0,0,7.77,3.29,35.66,35.66,0,0,0,6.87,1.41,41.44,41.44,0,0,0,15.4-.86,58.62,58.62,0,0,0,13-5.15c6.49-3.36,12.3-7.83,18.31-11.95q11.24-7.69,23.17-14.28a15,15,0,0,0,7.43-13,15.22,15.22,0,0,0-7.43-12.95q-13.81-8.44-28.26-15.76-7.27-3.69-14.69-7.07a99.86,99.86,0,0,0-10.3-4.35,30.13,30.13,0,0,0-14.49-.63,35.72,35.72,0,0,0-10.2,3.86,56.39,56.39,0,0,0-6.15,3.71,79.42,79.42,0,0,0-13.61,11.54c-3.08,3.38-6.28,7-7.52,11.49a18,18,0,0,0,8.66,20.17,38.89,38.89,0,0,0,10,3.52q4,1,8,1.85c7.16,1.47,14.42,2.51,21.68,3.26a44.23,44.23,0,0,0,8.13.39c4.69-.38,9.84-1.25,13.69-4.2a16.8,16.8,0,0,0,6.9-9,15.34,15.34,0,0,0-1.51-11.56c-2.07-3.2-5.14-6-9-6.9l-4-.53a14.94,14.94,0,0,0-7.57,2,10.17,10.17,0,0,1-2.26,1.31l3.58-1.52a13.08,13.08,0,0,1-2.91.74l4-.53c-4.72.58-9.69-.3-14.37-.91l4,.53q-6.72-.9-13.35-2.3c-2.21-.47-4.41-1-6.6-1.52a51,51,0,0,1-5.95-1.68l3.58,1.51a8.92,8.92,0,0,1-1.49-.81l3,2.34a7,7,0,0,1-.7-.64l2.35,3a3.74,3.74,0,0,1-.46-.77l1.51,3.59a2,2,0,0,1-.13-.59l.53,4a2.34,2.34,0,0,1,0-.7l-.54,4,.11-.36-1.52,3.58a7.33,7.33,0,0,1,.79-1.35l-2.34,3a61.7,61.7,0,0,1,10.68-10.56l-3,2.35a53.28,53.28,0,0,1,10.87-6.64l-3.59,1.51a19.73,19.73,0,0,1,5.05-1.45l-4,.54a14.23,14.23,0,0,1,3.06,0l-4-.53a22.13,22.13,0,0,1,5.51,1.64l-3.58-1.51A370,370,0,0,1,373,361.8V335.89q-12.24,6.75-23.76,14.69c-6.94,4.79-13.69,10-21.51,13.32l3.58-1.51a35,35,0,0,1-8.58,2.41l4-.53a26.77,26.77,0,0,1-6.45,0l4,.53a27.52,27.52,0,0,1-6.9-1.91l3.58,1.51c-6.39-2.76-11.74-7.3-17.69-10.82-6.69-4-14.11-6.59-21.25-9.61l3.58,1.51A65.49,65.49,0,0,1,271,337.6l3,2.35a32.76,32.76,0,0,1-4.66-4.38l2.34,3a6.17,6.17,0,0,1-.64-1l1.51,3.59a2.13,2.13,0,0,1-.19-.74l.54,4,0-.39-.54,4,.1-.33L271,351.28a2.49,2.49,0,0,1,.35-.59l-2.34,3a21.13,21.13,0,0,1,3.11-2.71l-3,2.34a74.48,74.48,0,0,1,16.41-9l-3.58,1.51c8.23-3.46,16.71-6.38,24.72-10.36a71.17,71.17,0,0,0,22-17c4-4.6,7.62-9.54,11.22-14.46l-20.52,5.38c5.39,4.09,11.36,7.33,17.25,10.64L355,330.38l18.39,10.37a201.67,201.67,0,0,0,21.38,10.77,105.75,105.75,0,0,0,10.66,3.7c3.41,1,7,1.75,10.31,3l-3.58-1.51a8.16,8.16,0,0,1,1.48.81l-3-2.34a4.72,4.72,0,0,1,.68.66l-2.34-3a2.54,2.54,0,0,1,.31.53l-1.51-3.59a2.69,2.69,0,0,1,.19.61l-.54-4a2.35,2.35,0,0,1,0,.65l.53-4a3.54,3.54,0,0,1-.25.9l1.51-3.58a2.77,2.77,0,0,1-.33.55l2.34-3a6.72,6.72,0,0,1-1.24,1.2l3-2.35a31.13,31.13,0,0,1-4.21,2.28l-5.19,2.6q-4.95,2.5-9.9,5-10,5.15-19.89,10.42-19.6,10.45-38.89,21.51c-3.63,2.09-7.25,4.18-10.86,6.3s-6.88,4.42-10.52,6.08l3.58-1.51a8.47,8.47,0,0,1-2,.54l4-.54a8.71,8.71,0,0,1-1.35,0l4,.53a12,12,0,0,1-2.63-.77l3.58,1.52c-6.05-2.57-12-5.44-17.83-8.53A191.24,191.24,0,0,1,288,371.68a252.94,252.94,0,0,0-33.1-19q-11.29-5.35-23-9.73l-8,28.93,12.94,2.57a17.35,17.35,0,0,0,8,0,14.9,14.9,0,0,0,7.79-5.37,7.55,7.55,0,0,0,1.93-3.31,15.08,15.08,0,0,0,1-7.77,11.11,11.11,0,0,0-1.78-5.58,44,44,0,0,0-20.06-17.17,88.15,88.15,0,0,0-12.89-4.57c-3.4-.88-6.85-1.56-10.3-2.2l-4,29.47a88.17,88.17,0,0,0,19.49-4.1,136.91,136.91,0,0,0,17.84-7.77c9.79-5.07,19-11.15,28.56-16.65A157.55,157.55,0,0,1,289.06,321l-3.59,1.51c6.08-2.57,12.42-4.41,18.62-6.67a114.19,114.19,0,0,0,12.29-5.19,62.85,62.85,0,0,0,10.94-7.38,16.64,16.64,0,0,0,4.4-10.61,15.26,15.26,0,0,0-4.4-10.6c-2.85-2.63-6.61-4.57-10.6-4.4l-4,.54a15,15,0,0,0-6.62,3.86Z" transform="translate(-127 -51.19)"/><path class="cls-2" d="M317.8,422.8a15.47,15.47,0,0,0,10.61-4.39,15.25,15.25,0,0,0,4.39-10.61c-.17-3.88-1.45-7.9-4.39-10.61a15.63,15.63,0,0,0-10.61-4.39,15.47,15.47,0,0,0-10.61,4.39,15.25,15.25,0,0,0-4.39,10.61c.17,3.88,1.45,7.9,4.39,10.61a15.63,15.63,0,0,0,10.61,4.39Z" transform="translate(-127 -51.19)"/></g><g id="Frame"><line class="cls-3" x1="56" y1="294.08" x2="189.6" y2="375.09"/><line class="cls-3" x1="319.2" y1="296.75" x2="189.6" y2="375.09"/><line class="cls-3" x1="189.6" y1="221.01" x2="319.2" y2="296.75"/><line class="cls-3" x1="56" y1="294.08" x2="189.6" y2="221.01"/><line class="cls-3" x1="189.6" y1="526.08" x2="189.6" y2="377.28"/><line class="cls-3" x1="323.47" y1="451.68" x2="189.6" y2="526.08"/><line class="cls-3" x1="189.6" y1="377.28" x2="243.71" y2="432.54"/><line class="cls-3" x1="376.8" y1="353.81" x2="243.71" y2="432.54"/><line class="cls-3" x1="319.2" y1="296.75" x2="376.8" y2="353.81"/><line class="cls-3" x1="374.67" y1="240.21" x2="319.2" y2="296.75"/><line class="cls-3" x1="189.6" y1="221.01" x2="242.62" y2="165.74"/><line class="cls-3" x1="374.67" y1="240.21" x2="242.62" y2="165.74"/><line class="cls-3" x1="56.27" y1="451.68" x2="189.6" y2="526.08"/><line class="cls-3" x1="56" y1="294.08" x2="7.2" y2="349.55"/><line class="cls-3" x1="187.06" y1="373.54" x2="137.87" y2="425.81"/><line class="cls-3" x1="7.2" y1="349.55" x2="137.87" y2="425.81"/><line class="cls-3" x1="5.07" y1="240.75" x2="55.2" y2="290.88"/><line class="cls-3" x1="186.4" y1="216.75" x2="135.2" y2="163.95"/><line class="cls-3" x1="5.07" y1="240.75" x2="135.2" y2="163.95"/><line class="cls-3" x1="56.27" y1="451.68" x2="55.66" y2="378.74"/><line class="cls-3" x1="324.66" y1="386.22" x2="323.47" y2="451.68"/><path class="cls-4" d="M452.17,506.07c3.21,0,3.22-5,0-5s-3.23,5,0,5Z" transform="translate(-127 -51.19)"/><path class="cls-4" d="M452.37,506.67c3.21,0,3.22-5,0-5s-3.23,5,0,5Z" transform="translate(-127 -51.19)"/><path class="cls-4" d="M452.17,507.07c3.21,0,3.22-5,0-5s-3.23,5,0,5Z" transform="translate(-127 -51.19)"/><path class="cls-4" d="M453,505.73c3.22,0,3.22-5,0-5s-3.22,5,0,5Z" transform="translate(-127 -51.19)"/><path class="cls-4" d="M453.07,506.27c3.21,0,3.22-5,0-5s-3.23,5,0,5Z" transform="translate(-127 -51.19)"/><path class="cls-4" d="M453,505.6c3.22,0,3.22-5,0-5s-3.22,5,0,5Z" transform="translate(-127 -51.19)"/><path class="cls-4" d="M453,505.7c3.22,0,3.23-5,0-5s-3.22,5,0,5Z" transform="translate(-127 -51.19)"/><path class="cls-4" d="M453.07,505.7c3.21,0,3.22-5,0-5s-3.23,5,0,5Z" transform="translate(-127 -51.19)"/><path class="cls-4" d="M451.87,507.43c3.21,0,3.22-5,0-5s-3.23,5,0,5Z" transform="translate(-127 -51.19)"/><path class="cls-4" d="M452.47,507c3.21,0,3.22-5,0-5s-3.23,5,0,5Z" transform="translate(-127 -51.19)"/><path class="cls-4" d="M452.7,506.67c3.22,0,3.22-5,0-5s-3.22,5,0,5Z" transform="translate(-127 -51.19)"/><path class="cls-4" d="M452.73,506.77c3.22,0,3.23-5,0-5s-3.22,5,0,5Z" transform="translate(-127 -51.19)"/><path class="cls-4" d="M449.1,445.45c3.22,0,3.22-5,0-5s-3.22,5,0,5Z" transform="translate(-127 -51.19)"/><path class="cls-4" d="M505.85,406c3.22,0,3.22-5,0-5s-3.22,5,0,5Z" transform="translate(-127 -51.19)"/><path class="cls-4" d="M504.8,408.22c3.22,0,3.22-5,0-5s-3.22,5,0,5Z" transform="translate(-127 -51.19)"/><path class="cls-4" d="M505.25,409.23c3.22,0,3.22-5,0-5s-3.22,5,0,5Z" transform="translate(-127 -51.19)"/><path class="cls-4" d="M506.42,407.87c3.21,0,3.22-5,0-5s-3.23,5,0,5Z" transform="translate(-127 -51.19)"/><path class="cls-4" d="M506.27,407c3.21,0,3.22-5,0-5s-3.23,5,0,5Z" transform="translate(-127 -51.19)"/><path class="cls-4" d="M505.42,405.67c3.21,0,3.22-5,0-5s-3.23,5,0,5Z" transform="translate(-127 -51.19)"/><path class="cls-4" d="M505.47,405.63c3.21,0,3.22-5,0-5s-3.23,5,0,5Z" transform="translate(-127 -51.19)"/><path class="cls-4" d="M505.67,405.92c3.21,0,3.22-5,0-5s-3.23,5,0,5Z" transform="translate(-127 -51.19)"/><path class="cls-4" d="M505.77,405.93c3.21,0,3.22-5,0-5s-3.23,5,0,5Z" transform="translate(-127 -51.19)"/><path class="cls-4" d="M505.85,406.07c3.22,0,3.22-5,0-5s-3.22,5,0,5Z" transform="translate(-127 -51.19)"/><path class="cls-4" d="M503.46,403.1a2.23,2.23,0,0,0-.09.68l.09.67c0,.1.12.3.12.3s.08.21.13.3a2,2,0,0,0,.4.51h0l.5.4h0a2,2,0,0,0,.93.3,1.89,1.89,0,0,0,1-.05,1.94,1.94,0,0,0,.85-.45,1.88,1.88,0,0,0,.64-.7l.25-.59a2.5,2.5,0,0,0,0-1.33l-.25-.6a2.43,2.43,0,0,0-.9-.9h0l.5.39h0l.39.5h0l.25.59h0l.09.66h0l-.09.67h0a1.89,1.89,0,0,0,0-1,1.78,1.78,0,0,0-.29-.92,1.85,1.85,0,0,0-.65-.71,1.78,1.78,0,0,0-.85-.44l-.66-.09a2.43,2.43,0,0,0-1.26.34l-.51.39a2.5,2.5,0,0,0-.64,1.1Z" transform="translate(-127 -51.19)"/><path class="cls-4" d="M506,406.5c3.22,0,3.23-5,0-5s-3.22,5,0,5Z" transform="translate(-127 -51.19)"/><path class="cls-4" d="M505.18,409.58c3.22,0,3.23-5,0-5s-3.22,5,0,5Z" transform="translate(-127 -51.19)"/><path class="cls-4" d="M505.45,409.35c3.22,0,3.22-5,0-5s-3.22,5,0,5Z" transform="translate(-127 -51.19)"/><path class="cls-4" d="M505.57,409.2c3.21,0,3.22-5,0-5s-3.23,5,0,5Z" transform="translate(-127 -51.19)"/><path class="cls-4" d="M505.72,409.1c3.21,0,3.22-5,0-5s-3.23,5,0,5Z" transform="translate(-127 -51.19)"/><path class="cls-4" d="M506,408.9c3.22,0,3.22-5,0-5s-3.22,5,0,5Z" transform="translate(-127 -51.19)"/><path class="cls-4" d="M506.15,408.75c3.22,0,3.22-5,0-5s-3.22,5,0,5Z" transform="translate(-127 -51.19)"/><path class="cls-4" d="M506.27,408.53c3.21,0,3.22-5,0-5s-3.23,5,0,5Z" transform="translate(-127 -51.19)"/><path class="cls-4" d="M506.4,408.25c3.22,0,3.22-5,0-5s-3.22,5,0,5Z" transform="translate(-127 -51.19)"/><path class="cls-4" d="M506.5,408c3.22,0,3.22-5,0-5s-3.22,5,0,5Z" transform="translate(-127 -51.19)"/><path class="cls-4" d="M506.5,407.9c3.22,0,3.22-5,0-5s-3.22,5,0,5Z" transform="translate(-127 -51.19)"/><path class="cls-4" d="M506.43,407.73c3.22,0,3.23-5,0-5s-3.22,5,0,5Z" transform="translate(-127 -51.19)"/><path class="cls-4" d="M506.43,407.5c3.22,0,3.23-5,0-5s-3.22,5,0,5Z" transform="translate(-127 -51.19)"/><path class="cls-4" d="M506.38,407.28c3.22,0,3.23-5,0-5s-3.22,5,0,5Z" transform="translate(-127 -51.19)"/><path class="cls-4" d="M506.33,407c3.22,0,3.23-5,0-5s-3.22,5,0,5Z" transform="translate(-127 -51.19)"/><path class="cls-4" d="M506.25,406.67c3.22,0,3.22-5,0-5s-3.22,5,0,5Z" transform="translate(-127 -51.19)"/><path class="cls-4" d="M506.05,406.33c3.22,0,3.22-5,0-5s-3.22,5,0,5Z" transform="translate(-127 -51.19)"/><path class="cls-4" d="M505.8,409.08c3.22,0,3.22-5,0-5s-3.22,5,0,5Z" transform="translate(-127 -51.19)"/><path class="cls-4" d="M505.8,409.17c3.22,0,3.22-5,0-5s-3.22,5,0,5Z" transform="translate(-127 -51.19)"/><path class="cls-4" d="M505.5,409.37c3.22,0,3.22-5,0-5s-3.22,5,0,5Z" transform="translate(-127 -51.19)"/><path class="cls-4" d="M505.43,409.47c3.22,0,3.23-5,0-5s-3.22,5,0,5Z" transform="translate(-127 -51.19)"/><path class="cls-4" d="M506,409c3.21,0,3.22-5,0-5s-3.23,5,0,5Z" transform="translate(-127 -51.19)"/><path class="cls-4" d="M506.4,407.55c3.22,0,3.22-5,0-5s-3.22,5,0,5Z" transform="translate(-127 -51.19)"/><path class="cls-4" d="M506.42,407.48c3.21,0,3.22-5,0-5s-3.23,5,0,5Z" transform="translate(-127 -51.19)"/><path class="cls-4" d="M506.45,407.38c3.22,0,3.22-5,0-5s-3.22,5,0,5Z" transform="translate(-127 -51.19)"/><path class="cls-4" d="M506.45,407.33c3.22,0,3.22-5,0-5s-3.22,5,0,5Z" transform="translate(-127 -51.19)"/><path class="cls-4" d="M506.43,407.2c3.22,0,3.23-5,0-5s-3.22,5,0,5Z" transform="translate(-127 -51.19)"/><path class="cls-4" d="M506.43,407.13c3.22,0,3.23-5,0-5s-3.22,5,0,5Z" transform="translate(-127 -51.19)"/><path class="cls-4" d="M506.43,407c3.22,0,3.23-5,0-5s-3.22,5,0,5Z" transform="translate(-127 -51.19)"/><path class="cls-4" d="M506.62,407.68c3.21,0,3.22-5,0-5s-3.23,5,0,5Z" transform="translate(-127 -51.19)"/><path class="cls-4" d="M506.55,407.4c3.22,0,3.22-5,0-5s-3.22,5,0,5Z" transform="translate(-127 -51.19)"/><path class="cls-4" d="M506.5,407.23c3.22,0,3.22-5,0-5s-3.22,5,0,5Z" transform="translate(-127 -51.19)"/><path class="cls-4" d="M506.5,407.08c3.22,0,3.22-5,0-5s-3.22,5,0,5Z" transform="translate(-127 -51.19)"/><path class="cls-4" d="M506.4,406.8c3.22,0,3.22-5,0-5s-3.22,5,0,5Z" transform="translate(-127 -51.19)"/><path class="cls-4" d="M506.35,406.63c3.22,0,3.22-5,0-5s-3.22,5,0,5Z" transform="translate(-127 -51.19)"/><path class="cls-4" d="M506.25,406.53c3.22,0,3.22-5,0-5s-3.22,5,0,5Z" transform="translate(-127 -51.19)"/><path class="cls-4" d="M506.23,406.4c3.22,0,3.23-5,0-5s-3.22,5,0,5Z" transform="translate(-127 -51.19)"/><path class="cls-4" d="M370.73,488.72a5,5,0,1,0-5-5,5.05,5.05,0,0,0,5,5Z" transform="translate(-127 -51.19)"/><path class="cls-4" d="M370.75,488.77a5,5,0,1,0-5-5,5.05,5.05,0,0,0,5,5Z" transform="translate(-127 -51.19)"/><path class="cls-4" d="M370.57,488.57a5,5,0,1,0-5-5,5.06,5.06,0,0,0,5,5Z" transform="translate(-127 -51.19)"/><path class="cls-4" d="M370.57,488.65a5,5,0,1,0-5-5,5.06,5.06,0,0,0,5,5Z" transform="translate(-127 -51.19)"/><path class="cls-4" d="M316.6,582.18a5,5,0,1,0-5-5,5.05,5.05,0,0,0,5,5Z" transform="translate(-127 -51.19)"/><path class="cls-4" d="M316.7,582.22a5,5,0,1,0-5-5,5.05,5.05,0,0,0,5,5Z" transform="translate(-127 -51.19)"/><path class="cls-4" d="M316.46,582.24a5,5,0,1,0-5-5,5.06,5.06,0,0,0,5,5Z" transform="translate(-127 -51.19)"/><path class="cls-4" d="M183.3,507.85a5,5,0,1,0-5-5,5.05,5.05,0,0,0,5,5Z" transform="translate(-127 -51.19)"/><path class="cls-4" d="M264.9,482a5,5,0,1,0-5-5,5.05,5.05,0,0,0,5,5Z" transform="translate(-127 -51.19)"/><path class="cls-4" d="M315.8,433.47a5,5,0,1,0-5-5,5.05,5.05,0,0,0,5,5Z" transform="translate(-127 -51.19)"/><path class="cls-4" d="M134.2,405.8a5,5,0,1,0-5-5,5.05,5.05,0,0,0,5,5Z" transform="translate(-127 -51.19)"/><path class="cls-4" d="M181.8,348.4a5,5,0,1,0-5-5,5.05,5.05,0,0,0,5,5Z" transform="translate(-127 -51.19)"/><path class="cls-4" d="M132,296.93a5,5,0,1,0-5-5,5.05,5.05,0,0,0,5,5Z" transform="translate(-127 -51.19)"/><path class="cls-4" d="M262.3,220.15a5,5,0,1,0-5-5,5.05,5.05,0,0,0,5,5Z" transform="translate(-127 -51.19)"/><path class="cls-4" d="M316,274.6a5,5,0,1,0-5-5,5.05,5.05,0,0,0,5,5Z" transform="translate(-127 -51.19)"/><path class="cls-4" d="M369.6,222a5,5,0,1,0-5-5,5.05,5.05,0,0,0,5,5Z" transform="translate(-127 -51.19)"/><path class="cls-4" d="M501.65,296.4a5,5,0,1,0-5-5,5.05,5.05,0,0,0,5,5Z" transform="translate(-127 -51.19)"/></g><g id="Sign"><text class="cls-5" transform="translate(165.99 150.18)">!</text></g></svg>